<svg width="184" height="130" viewBox="0 0 184 130" fill="none" xmlns="http://www.w3.org/2000/svg">
<path fill-rule="evenodd" clip-rule="evenodd" d="M99.7175 9.45236H30.653V0.553223H99.7175V9.45236ZM81.2024 71.826L93.478 71.7109L93.4868 71.5914H99.7131V54.426C101.634 53.8905 103.656 53.3064 104.939 52.8594C107.979 51.8062 108.325 49.4653 107.86 47.1243C107.391 44.7834 101.784 43.4957 101.784 43.4957C101.784 43.4957 106.457 41.1547 105.993 39.982C105.523 38.8093 102.722 39.513 100.611 40.4511C100.324 40.5839 100.023 40.721 99.7175 40.8671V10.0763H30.3432V71.5914H81.2688C81.2289 71.7463 81.2024 71.826 81.2024 71.826ZM137.598 14.829V14.6564C137.598 10.5542 134.279 7.2309 130.185 7.2309H113.476C109.382 7.2309 106.063 10.5542 106.063 14.6564V14.829C106.063 18.4135 108.599 21.4005 111.967 22.0997L109.387 26.6267L117.857 22.2546H130.19C134.279 22.2546 137.598 18.9312 137.598 14.829ZM6.49121 102.745C6.49121 102.745 7.50459 97.9039 11.7926 97.7446C16.0763 97.5897 38.76 97.9791 38.76 97.9791L40.1628 100.01L32.7904 100.068C36.1181 100.178 38.76 100.32 38.76 100.32C38.76 100.32 37.7466 103.758 39.0698 105.475L30.3609 105.719C35.3437 105.692 40.3929 105.63 40.3929 105.63C40.3929 105.63 41.5656 107.192 39.0698 107.661C36.5784 108.131 11.3236 108.361 11.3236 108.361C11.3236 108.361 6.80098 108.051 6.49121 102.745ZM18.2004 105.095C17.8154 104.701 17.4879 104.166 17.3729 103.444C17.4569 104.232 17.6384 104.75 18.2004 105.095ZM19.82 100.165C19.82 100.165 18.9261 100.324 18.2048 100.904C18.6694 100.599 19.3598 100.329 20.3643 100.165C20.3732 100.165 20.3864 100.161 20.3997 100.161L19.82 100.165ZM32.839 116.326C32.839 116.326 35.9544 115.233 35.3304 112.888C34.7065 110.547 32.2859 110.547 32.2859 110.547L13.6557 110.702C13.6557 110.702 14.5142 113.751 13.7353 116.167L32.839 116.326ZM41.2558 124.446C41.2558 127.646 38.136 129.208 38.136 129.208L8.90739 129.363L7.34528 126.942H11.0625L9.29681 126.473C10.7748 124.756 9.37646 121.238 9.37646 121.238L28.0067 121.318L7.73913 121.083C7.73913 121.083 8.28343 118.897 11.0138 118.663C13.7397 118.428 37.9059 119.132 37.9059 119.132C37.9059 119.132 41.2558 121.243 41.2558 124.446ZM30.445 122.539C30.6131 122.84 30.7415 123.203 30.8079 123.663C30.7813 123.203 30.6397 122.84 30.445 122.539ZM102.014 93.607L92.7744 102.626L97.3545 113.87C95.1728 108.737 91.6061 100.484 91.6061 100.484C91.6061 100.484 91.4512 99.7005 87.5526 99.7005C83.6584 99.7005 52.6331 100.01 52.6331 100.01C52.6331 100.01 49.9824 100.165 50.6063 103.134L59.0231 124.526L60.895 125.15C60.895 125.15 61.0499 128.743 62.1429 129.208C63.2315 129.677 110.626 129.363 110.626 129.363C110.626 129.363 112.029 127.956 112.183 125.929C112.338 123.898 111.405 123.269 111.405 123.269L100.492 123.424C100.492 123.424 99.7131 119.68 98.9343 117.649C98.8944 117.543 98.8369 117.401 98.7661 117.233L112.652 104.263C111.484 98.2933 102.014 93.607 102.014 93.607ZM166.556 101.692C166.556 101.692 161.879 100.639 157.785 101.338C153.692 102.037 150.422 106.608 150.422 106.608L154.161 116.446C154.161 116.446 141.886 116.68 138.845 115.742C135.801 114.808 134.168 109.653 132.177 107.546C130.19 105.44 127.504 107.197 124.813 108.719C122.122 110.241 122.242 114.344 122.242 114.344L124.698 112.817C126.57 109.887 128.672 110.941 128.672 110.941C126.335 111.879 126.216 114.923 126.216 114.923C126.216 114.923 126.804 119.26 129.026 119.844C131.243 120.428 132.296 122.185 132.296 122.185C132.88 124.995 137.677 125.579 137.677 125.579C137.677 125.579 154.046 128.509 161.644 128.389C169.247 128.274 170.999 123.942 170.999 120.194C170.999 116.446 166.556 101.692 166.556 101.692ZM129.96 70.0736C129.96 70.0736 131.362 74.4059 131.008 76.6318C130.659 78.8532 129.026 79.0878 129.026 79.0878L125.048 79.2073C125.048 79.2073 125.282 82.9554 131.477 83.305C137.677 83.659 141.182 81.0836 143.988 79.2073C143.988 79.2073 140.014 79.2073 139.314 76.9814C138.615 74.7599 137.093 70.6577 138.146 68.6708C138.146 68.6708 138.381 68.0822 139.899 67.8521C141.421 67.6176 143.054 66.9184 143.054 64.6925C143.054 62.471 141.536 61.0638 137.558 64.5775L140.014 53.687C140.014 53.687 139.195 50.1733 125.981 50.6424C125.981 50.6424 121.773 58.3689 122.007 62.117C122.242 65.8563 123.41 69.6045 129.96 70.0736Z" fill="white"/>
<path fill-rule="evenodd" clip-rule="evenodd" d="M51.1153 5.23964C51.1153 6.20876 50.332 6.99645 49.3629 6.99645C48.3937 6.99645 47.606 6.21319 47.606 5.23964C47.606 4.26609 48.3893 3.4784 49.3629 3.4784C50.3276 3.4784 51.1153 4.26609 51.1153 5.23964ZM43.672 3.44299C42.7029 3.44299 41.9152 4.22626 41.9152 5.19981C41.9152 6.17336 42.6985 6.95663 43.672 6.95663C44.6411 6.95663 45.4288 6.17336 45.4288 5.19981C45.4288 4.22626 44.6411 3.44299 43.672 3.44299ZM38.1759 3.44299C37.2068 3.44299 36.4191 4.22626 36.4191 5.19981C36.4191 6.17336 37.2023 6.95663 38.1759 6.95663C39.1406 6.95663 39.9283 6.17336 39.9283 5.19981C39.9283 4.22626 39.1406 3.44299 38.1759 3.44299ZM42.9286 47.12C40.2779 50.9832 35.2906 71.2818 35.2906 71.2818L42.0745 71.2021C42.0745 71.2021 56.0671 57.6167 57.8991 56.6387C59.7312 55.6651 63.9396 56.4042 64.8733 56.6033C65.8114 56.8024 69.1613 55.5501 69.1613 55.5501C69.1613 55.5501 69.98 56.0192 69.7853 57.3467C69.5906 58.6699 66.0062 59.5328 66.0062 59.5328L72.5555 62.9668C72.5555 62.9668 74.3123 65.3475 73.6884 66.1706C73.06 66.9893 70.9226 66.091 70.9226 66.091C70.9226 66.091 69.5198 67.7327 66.5947 69.0205C63.6696 70.3082 59.4612 69.6046 59.4612 69.6046L57.7088 71.3659L81.2068 71.8349L87.7562 49.7044L83.3132 45.1375L82.3795 54.0411L75.7151 54.1561L73.7282 46.7793L68.9357 46.4253L69.8694 51.1116C66.4797 51.8108 61.4526 50.2929 61.4526 50.2929L60.2843 44.7879C55.6069 44.3188 50.8143 39.752 50.8143 39.752C48.3849 40.6415 42.9286 47.12 42.9286 47.12ZM20.5812 85.177C17.0011 85.177 14.0938 87.956 14.0938 91.3856C14.0938 94.8107 16.9967 97.5898 20.5812 97.5898C24.17 97.5898 27.073 94.8107 27.073 91.3856C27.0685 87.956 24.1656 85.177 20.5812 85.177ZM16.3108 84.3539C13.0406 80.4907 7.65948 83.0662 7.65948 83.0662C11.5183 87.6374 16.3108 84.3539 16.3108 84.3539ZM13.4256 108.051C13.4256 108.051 12.6467 109.693 12.5671 110.392L33.224 110.781C33.224 110.781 35.4853 112.343 35.2508 114.14C35.0163 115.937 33.6135 116.561 31.2725 116.481C28.936 116.401 12.1776 116.247 12.1776 116.247C12.1776 116.247 12.7219 118.742 14.5938 118.822C16.4657 118.902 40.5522 118.667 40.5522 118.667C40.5522 118.667 46.4732 117.888 45.8492 113.282C45.2253 108.671 40.3177 108.281 40.3177 108.281L13.4256 108.051ZM102.014 93.6071C102.014 93.6071 110.9 97.1207 112.653 104.267L116.162 101.926L118.264 118.202L122.242 114.339C122.242 114.339 121.653 110.826 124.114 109.303C126.57 107.777 129.61 106.962 129.61 106.962L133.119 103.329L135.221 104.617L132.177 107.547C132.177 107.547 135.332 114.574 138.845 115.742C142.35 116.915 154.161 116.446 154.161 116.446L150.422 106.608C150.422 106.608 156.033 98.8775 166.556 101.692C166.556 101.692 161.879 87.4029 158.839 84.5973C155.794 81.7873 150.767 79.7959 148.081 79.4419C145.395 79.0879 143.988 79.2074 143.988 79.2074C143.988 79.2074 138.961 84.5973 131.477 83.3051C123.994 82.0174 125.048 79.2074 125.048 79.2074C125.048 79.2074 114.175 75.6937 101.196 94.0806M118.383 121.951L119.317 129.443L155.794 129.208L154.157 127.92L138.956 126.044C138.956 126.044 133.115 125.455 132.292 122.181L129.021 119.84L126.8 117.499L126.211 114.919L118.383 121.951Z" fill="#34C759"/>
<path fill-rule="evenodd" clip-rule="evenodd" d="M84.8271 18.8958C86.5839 25.454 82.3711 54.0277 82.3711 54.0277L75.7067 54.1427L72.6666 41.8494L69.1574 39.8625L70.6796 34.8266C70.6796 34.8266 75.0075 35.8798 77.4635 33.8885C79.9151 31.9015 81.2028 29.326 81.6719 26.6311C82.141 23.9361 81.0878 21.7102 81.0878 21.7102L67.405 24.2901C67.405 24.2901 63.9002 21.011 62.9665 23.4715C62.0327 25.9275 65.8915 28.3879 65.8915 28.3879L69.8654 51.107C69.8654 51.107 64.7189 52.8638 61.4486 50.2884L59.3909 39.3049C59.1785 38.1588 58.0279 37.4375 56.9039 37.7561L51.8591 39.1589C51.8591 39.1589 60.6255 15.152 63.0815 12.4615C65.5375 9.76652 66.7058 7.66011 69.9849 8.0097C73.2507 8.3593 83.0747 12.342 84.8271 18.8958ZM125.867 111.525C124.344 113.047 122.242 114.339 122.242 114.339L116.512 120.778L115.698 123.004H117.569L126.221 114.919L128.677 110.936C128.672 110.936 127.385 110.002 125.867 111.525ZM129.606 106.958L132.177 107.542L135.222 104.617L133.12 103.325L129.606 106.958ZM141.417 45.9472C135.921 42.084 129.96 41.8494 128.088 42.6725C126.216 43.4912 126.685 44.7789 126.106 45.9472C125.517 47.1199 124.933 45.9472 123.53 47.8235C122.127 49.6998 124.229 52.3903 124.229 52.3903L125.986 50.6335C125.986 50.6335 136.394 50.8681 138.616 51.8018C140.833 52.7399 139.665 54.8508 139.665 54.8508L137.563 64.5686C140.603 61.8736 142.709 62.8073 142.709 62.8073C142.709 62.8073 143.758 61.6391 145.749 58.5901C147.741 55.5455 146.913 49.8149 141.417 45.9472Z" fill="black"/>
<path d="M183.12 128.734H164.264C166.915 128.27 168.857 127.19 170.057 125.517C171.632 123.318 171.924 120.185 170.946 115.95C169.38 109.153 163.662 88.5356 158.144 83.1634C154.453 79.5745 148.528 78.9948 144.607 78.6054C142.939 78.4416 141.045 78.2602 140.713 77.8841C139.695 76.7512 137.828 70.3966 138.784 68.6973C138.89 68.4981 139.023 68.3964 139.35 68.4627C141.023 68.7769 142.479 67.9892 143.147 66.4006C143.629 65.2589 143.585 64.0198 143.098 63.1746C144.377 62.3205 146.837 59.9751 146.837 54.4879C146.837 51.8814 145.51 49.2572 143.001 46.8942C139.469 43.5708 134.159 41.3272 130.384 41.5662C129.141 41.6458 126.552 41.8052 125.875 43.9912C125.729 44.447 125.711 44.8674 125.689 45.2347C125.649 45.9958 125.641 46.1773 124.844 46.3499C123.521 46.6464 122.963 47.3898 122.724 47.9651C122.007 49.6688 123.136 51.9699 123.795 53.0806C122.808 55.0985 121.715 57.8997 121.384 60.9044C121.069 63.7499 121.618 66.0554 123.016 67.7636C124.393 69.4451 126.512 70.4541 129.327 70.7727C130.247 73.8217 130.809 77.3486 130.137 78.0212C129.579 78.5788 128.844 78.5301 127.238 78.3708C125.99 78.2469 124.441 78.0965 122.415 78.3045C117.919 78.7691 112.9 79.9418 105.479 88.509C99.2972 95.6381 94.2303 100.727 93.009 101.94L92.5974 100.926C92.1151 99.7314 90.9734 98.9614 89.6856 98.9614C89.6812 98.9614 89.6723 98.9614 89.6679 98.9614L52.9429 99.1694C51.9074 99.1738 50.9427 99.6872 50.3586 100.55C49.7745 101.409 49.655 102.497 50.0311 103.462L57.8948 123.619C58.293 124.637 59.1604 125.345 60.1959 125.553V126.283C60.1959 127.234 60.572 128.102 61.1827 128.739H39.5256C40.9506 127.681 41.8887 125.991 41.8887 124.075C41.8887 122.07 40.8665 120.3 39.3132 119.26H40.6187C43.8093 119.26 46.4069 116.658 46.4069 113.458C46.4069 110.263 43.8093 107.661 40.6187 107.661H40.2514C40.6895 107.13 40.9506 106.444 40.9506 105.701C40.9506 105.351 40.6718 105.073 40.3222 105.073H39.3353C39.1229 104.59 38.8441 103.878 38.7158 103.201C38.5831 102.488 38.9902 101.395 39.2822 100.767H40.1584C40.508 100.767 40.7868 100.484 40.7868 100.139C40.7868 98.5189 39.4725 97.2002 37.8573 97.2002H24.3471C26.4623 96.0541 27.8917 93.9299 27.8917 91.5049C27.8917 87.8674 24.6923 84.9069 20.7538 84.9069C20.5547 84.9069 20.3555 84.9202 20.1608 84.9334C19.6917 84.0351 18.4571 82.7164 18.05 82.2916C17.8066 82.0393 17.4128 82.0305 17.1649 82.2739C16.9127 82.5128 16.9039 82.9111 17.1472 83.1634C17.7668 83.8094 18.4527 84.6148 18.8288 85.1636C15.8329 85.9424 13.6248 88.4869 13.6248 91.5093C13.6248 93.9388 15.0497 96.0585 17.1694 97.2046H11.8104C8.61539 97.2046 6.01778 99.8066 6.01778 103.002C6.01778 106.201 8.61539 108.803 11.8104 108.803H12.2529C11.8679 109.303 11.6334 109.923 11.6334 110.604C11.6334 110.949 11.9122 111.233 12.2618 111.233H13.1424C13.4345 111.861 13.8416 112.958 13.7088 113.666C13.5805 114.344 13.3017 115.06 13.0849 115.538H12.1069C11.7573 115.538 11.4785 115.817 11.4785 116.167C11.4785 116.985 11.8016 117.729 12.3149 118.282H10.0447C8.42953 118.282 7.11082 119.601 7.11082 121.22C7.11082 121.566 7.39403 121.849 7.7392 121.849H8.61982C8.91189 122.477 9.31901 123.575 9.18625 124.283C9.06234 124.96 8.77913 125.677 8.56672 126.154H7.57547C7.2303 126.154 6.94708 126.433 6.94708 126.783C6.94708 127.526 7.2126 128.203 7.65069 128.743H0.880092C0.530498 128.743 0.251709 129.022 0.251709 129.372C0.251709 129.721 0.530498 130 0.880092 130H183.12C183.47 130 183.748 129.721 183.748 129.372C183.748 129.022 183.465 128.734 183.12 128.734ZM14.8771 91.5005C14.8771 88.5577 17.5145 86.1592 20.7538 86.1592C23.9975 86.1592 26.6349 88.5577 26.6349 91.5005C26.6349 94.4477 23.9975 96.8417 20.7538 96.8417C17.5101 96.8417 14.8771 94.4477 14.8771 91.5005ZM45.1457 113.454C45.1457 115.963 43.1145 117.994 40.6142 117.994H14.5673C13.7752 117.994 13.0982 117.494 12.8459 116.786H12.8902C13.0052 116.937 13.1822 117.025 13.3769 117.025H32.5515C34.4941 117.025 36.0784 115.441 36.0784 113.494C36.0784 111.547 34.4941 109.963 32.5515 109.963H13.0141C13.2619 109.347 13.8681 108.914 14.5673 108.914H34.9942C35.0163 108.923 35.034 108.936 35.0517 108.945C35.1801 108.993 38.0963 110.29 36.8262 115.37C36.7422 115.707 36.9457 116.047 37.282 116.131C37.3307 116.145 37.3882 116.149 37.4369 116.149C37.7201 116.149 37.9724 115.959 38.0432 115.671C38.9371 112.1 37.9724 110.029 36.99 108.914H40.6098C43.1101 108.914 45.1457 110.949 45.1457 113.454ZM14.5098 111.224H32.5515C33.8038 111.224 34.8216 112.242 34.8216 113.498C34.8216 114.751 33.8038 115.773 32.5515 115.773H14.3593C14.5762 115.246 14.8196 114.565 14.9479 113.892C15.1116 113.016 14.8063 111.967 14.5098 111.224ZM7.27455 102.997C7.27455 100.488 9.30573 98.457 11.8104 98.457H15.4125C15.2709 98.6163 15.1293 98.7844 14.9966 98.988C14.2753 100.077 13.5805 102.033 14.3726 105.214C14.4434 105.502 14.7001 105.692 14.9789 105.692C15.032 105.692 15.0807 105.688 15.1338 105.674C15.4701 105.59 15.6781 105.25 15.594 104.913C14.3284 99.842 17.2313 98.5455 17.3641 98.4924C17.3862 98.4835 17.4083 98.4702 17.426 98.457H37.8529C38.5521 98.457 39.1539 98.8906 39.4017 99.5102H19.8688C17.9261 99.5102 16.3418 101.094 16.3418 103.041C16.3418 104.989 17.9261 106.573 19.8688 106.573H39.0477C39.238 106.573 39.415 106.48 39.5301 106.334H39.5787C39.3221 107.042 38.6494 107.542 37.8573 107.542H11.8104C9.31016 107.533 7.27455 105.497 7.27455 102.997ZM37.4767 103.426C37.6007 104.099 37.844 104.781 38.0609 105.307H19.8688C18.6164 105.307 17.5986 104.289 17.5986 103.033C17.5986 101.78 18.6164 100.758 19.8688 100.758H37.906C37.6184 101.506 37.313 102.555 37.4767 103.426ZM10.0447 119.53H30.476C30.4937 119.543 30.5114 119.556 30.5336 119.565C30.6575 119.614 33.5737 120.906 32.3037 125.986C32.2196 126.323 32.4276 126.663 32.7595 126.747C32.8126 126.761 32.8657 126.765 32.9188 126.765C33.1976 126.765 33.4542 126.575 33.525 126.287C34.4145 122.716 33.4542 120.645 32.4674 119.53H36.0872C38.5831 119.53 40.6231 121.561 40.6231 124.066C40.6231 126.57 38.5875 128.606 36.0872 128.606H10.0447C9.25263 128.606 8.57999 128.106 8.32333 127.398H8.36758C8.48706 127.548 8.66407 127.637 8.85436 127.637H28.0333C29.976 127.637 31.5602 126.053 31.5602 124.106C31.5602 122.158 29.976 120.574 28.0333 120.574H8.49591C8.74373 119.964 9.34556 119.53 10.0447 119.53ZM9.99164 121.84H28.0289C29.2812 121.84 30.299 122.858 30.299 124.114C30.299 125.367 29.2812 126.389 28.0289 126.389H9.83676C10.0536 125.862 10.297 125.181 10.4209 124.508C10.589 123.632 10.2837 122.583 9.99164 121.84ZM119.959 128.734L119.251 122.043L125.88 115.578C125.875 115.937 125.88 116.299 125.902 116.68C126.057 119.371 129.283 121.088 131.194 121.875C131.447 121.977 131.641 122.198 131.743 122.495C132.951 126.084 136.752 126.407 137.89 126.42C138.239 126.42 138.558 126.451 138.868 126.508C140.77 126.863 147.984 128.159 154.617 128.739H119.959V128.734ZM122.437 115.171C123.49 115.313 124.694 113.804 125.331 112.857C126.048 111.799 126.92 111.405 127.61 111.268C126.875 111.98 126.428 112.768 126.167 113.631C126.083 113.662 126.003 113.702 125.933 113.773L117.228 122.26H116.644L117.029 121.105L122.437 115.171ZM169.034 124.787C167.884 126.393 165.835 127.358 162.945 127.646C156.082 128.332 141.872 125.787 139.098 125.274C138.713 125.203 138.323 125.163 137.903 125.159C136.713 125.146 133.849 124.818 132.933 122.092C132.889 121.964 132.836 121.849 132.774 121.729C133.641 121.468 134.929 120.933 135.482 120.008C135.664 119.707 135.566 119.322 135.27 119.14C134.973 118.963 134.588 119.056 134.407 119.357C134.004 120.03 132.54 120.539 131.708 120.703C131.703 120.703 131.694 120.707 131.685 120.711C131.681 120.711 131.677 120.707 131.672 120.703C131.261 120.534 130.482 120.185 129.685 119.694C129.92 119.074 130.898 116.857 133.212 115.631C133.518 115.468 133.637 115.087 133.478 114.777C133.314 114.472 132.938 114.348 132.628 114.512C130.212 115.786 129.057 117.941 128.632 118.946C128.203 118.592 127.827 118.198 127.557 117.769C127.725 117.176 128.805 113.777 131.986 112.945C132.323 112.857 132.522 112.511 132.433 112.175C132.345 111.839 132.004 111.64 131.668 111.728C129.291 112.348 127.906 114.065 127.136 115.481C127.216 113.361 128.026 111.888 130.907 110.653C131.225 110.516 131.371 110.144 131.234 109.825C131.097 109.507 130.73 109.361 130.411 109.493C129.968 109.684 129.57 109.883 129.203 110.091C129.145 110.051 129.079 110.02 129.004 110.002C128.884 109.976 126.145 109.396 124.291 112.14C123.627 113.122 123.03 113.666 122.724 113.848C122.711 113.759 122.702 113.631 122.711 113.45C122.782 111.507 124.888 108.436 128.667 107.723C130.265 107.422 131.115 107.564 131.73 108.113C131.752 108.139 131.761 108.17 131.783 108.188C131.805 108.206 131.827 108.215 131.854 108.232C132.292 108.684 132.624 109.356 133.057 110.255C133.305 110.764 133.584 111.334 133.925 111.941C135.77 115.233 140.762 118.72 140.978 118.866C141.085 118.941 141.213 118.977 141.332 118.977C141.532 118.977 141.726 118.879 141.85 118.707C142.045 118.419 141.974 118.025 141.691 117.826C141.673 117.817 141.085 117.41 140.257 116.755L156.67 117.18C156.675 117.18 156.684 117.18 156.688 117.18C157.029 117.18 157.308 116.906 157.316 116.565C157.325 116.215 157.051 115.928 156.706 115.919L154.546 115.866C154.546 115.861 154.546 115.857 154.542 115.853L151.117 107.086C151.143 107.06 151.165 107.042 151.187 107.011C151.418 106.706 156.954 99.5411 165.733 102.148C167.671 108.117 169.154 113.777 169.716 116.22C170.614 120.096 170.389 122.897 169.034 124.787ZM132.172 106.865C131.893 106.683 131.579 106.546 131.216 106.453L133.442 104.011L134.203 104.67L132.172 106.865ZM123.884 48.4518C124.065 48.0137 124.472 47.7261 125.118 47.5845C126.849 47.1995 126.906 46.1021 126.946 45.3011C126.964 44.9913 126.977 44.6727 127.07 44.3718C127.424 43.2478 128.681 42.9424 130.464 42.8318C133.867 42.6194 138.89 44.7612 142.142 47.819C143.713 49.2971 145.581 51.6557 145.581 54.5011C145.581 59.9707 142.952 61.8514 142.129 62.3072C140.978 61.8205 139.456 62.502 138.301 63.2365C139.549 59.0857 140.939 53.5895 139.943 52.4478C139.921 52.4257 139.894 52.3992 139.868 52.377C137.133 50.1202 127.203 49.7661 126.079 49.7352C125.862 49.7219 125.663 49.8325 125.543 50.0051C125.49 50.0759 125.065 50.7131 124.494 51.7398C123.928 50.5937 123.534 49.2794 123.884 48.4518ZM131.026 78.9107C132.579 77.353 130.938 71.6976 130.402 69.9983C130.327 69.7549 130.11 69.5823 129.858 69.5602C127.185 69.3301 125.211 68.4583 123.986 66.967C122.808 65.5332 122.357 63.5375 122.636 61.0461C123.149 56.3951 125.685 52.1204 126.397 51.0008C129.539 51.1203 136.938 51.7132 139 53.2886C139.416 54.2356 138.058 59.8999 136.531 64.688C136.447 64.958 136.549 65.25 136.783 65.4049C137.018 65.5598 137.328 65.5421 137.54 65.3562C138.779 64.2897 140.974 62.9666 141.762 63.5242C142.279 63.8871 142.386 64.9845 141.992 65.9182C141.784 66.4094 141.133 67.5246 139.585 67.2281C138.761 67.0732 138.084 67.3741 137.686 68.0777C136.341 70.4762 138.571 77.384 139.784 78.7293C140.253 79.2514 141.213 79.4816 142.603 79.6541C141.377 80.7162 138.381 82.7385 133.119 83.066C127.592 83.4023 126.101 80.6675 125.72 79.5037C126.225 79.5391 126.689 79.5833 127.119 79.6276C128.738 79.7869 130.026 79.9108 131.026 78.9107ZM122.543 79.5612C123.216 79.4904 123.831 79.4639 124.406 79.4639C124.525 79.9595 124.857 80.995 125.765 81.9907C126.769 83.097 128.69 84.3537 132.212 84.3537C132.526 84.3537 132.858 84.3449 133.199 84.3228C140.633 83.8625 143.85 80.2693 144.218 79.8312C144.306 79.84 144.39 79.8489 144.483 79.8577C145.258 79.9329 146.09 80.017 146.948 80.1232C146.457 80.7251 145.435 81.8579 143.842 82.9863C141.709 84.4953 138.08 86.3008 132.916 86.3407C132.867 86.3407 132.814 86.3407 132.765 86.3407C124.645 86.3407 122.26 81.3446 121.689 79.6541C121.977 79.6187 122.255 79.5878 122.543 79.5612ZM106.426 89.3366C112.4 82.442 116.697 80.548 120.437 79.8533C120.671 80.5923 121.26 82.0748 122.561 83.5528C124.185 85.4069 127.274 87.6019 132.77 87.6019C132.818 87.6019 132.876 87.6019 132.929 87.6019C143.51 87.5222 148.147 80.6631 148.338 80.3755C148.346 80.3578 148.355 80.3401 148.364 80.3224C151.537 80.8224 154.918 81.7694 157.277 84.0661C160.06 86.7788 162.95 93.8105 165.273 100.727C157.493 98.8773 152.09 104.112 150.608 105.772L149.333 102.51C149.205 102.187 148.842 102.028 148.519 102.156C148.196 102.28 148.037 102.648 148.161 102.971L153.197 115.839L138.704 115.468C137.328 114.259 135.827 112.755 135.031 111.339C134.708 110.759 134.438 110.206 134.199 109.715C133.832 108.967 133.5 108.285 133.084 107.737L135.566 105.046C135.686 104.922 135.743 104.754 135.735 104.586C135.726 104.413 135.646 104.254 135.518 104.143L133.805 102.661C133.544 102.435 133.159 102.457 132.929 102.71L129.654 106.303C129.645 106.316 129.641 106.329 129.632 106.343C129.269 106.369 128.88 106.414 128.446 106.498C123.822 107.374 121.547 111.144 121.468 113.419C121.454 113.759 121.481 114.047 121.547 114.29L118.777 117.326L116.715 96.9789C116.706 96.8993 116.684 96.8196 116.649 96.7532L114.936 93.4741C114.777 93.1688 114.392 93.0449 114.082 93.2086C113.777 93.3679 113.657 93.7529 113.821 94.0627L115.48 97.2356L115.892 101.342L113.29 103.599C110.497 96.4302 104.979 94.2309 102.656 93.6069C103.838 92.2838 105.108 90.8544 106.426 89.3366ZM93.6064 103.117C93.6462 103.077 96.9563 99.842 101.682 94.669C103.059 94.9389 109.404 96.5851 112.268 104.475L98.775 116.189L93.509 103.183C93.54 103.157 93.5798 103.143 93.6064 103.117ZM59.063 123.163L51.1994 103.002C50.9693 102.418 51.0401 101.78 51.3985 101.254C51.7525 100.727 52.319 100.426 52.9474 100.426L89.6723 100.223C89.6768 100.223 89.6812 100.223 89.6856 100.223C90.4556 100.223 91.1459 100.683 91.4336 101.4L99.6778 121.765C99.8636 122.22 99.8636 122.712 99.6866 123.159C99.6026 123.247 99.5495 123.353 99.5229 123.477C99.5096 123.495 99.5052 123.513 99.4919 123.53C99.1335 124.061 98.5626 124.367 97.9254 124.367H60.8154C60.041 124.362 59.3507 123.893 59.063 123.163ZM61.4526 125.619H97.9342C98.9786 125.619 99.9566 125.101 100.536 124.229C100.541 124.229 100.541 124.221 100.545 124.216H111.188C111.458 124.216 111.679 124.433 111.679 124.703V126.663C111.679 127.717 110.825 128.579 109.767 128.579H63.7449C62.4793 128.579 61.4482 127.548 61.4482 126.278V125.619H61.4526ZM111.188 122.955H101.032C101.12 122.402 101.063 121.827 100.846 121.291L99.2751 117.419L116.042 102.869L117.635 118.574L116.016 120.353C115.958 120.419 115.91 120.499 115.879 120.583L115.179 122.69C115.117 122.88 115.148 123.092 115.268 123.256C115.392 123.42 115.573 123.513 115.781 123.513H117.494C117.657 123.513 117.817 123.451 117.932 123.336L118.109 123.167L118.702 128.739H112.17C112.648 128.186 112.94 127.464 112.94 126.668V124.707C112.931 123.743 112.148 122.955 111.188 122.955ZM30.5734 72.2242H99.7928C100.138 72.2242 100.421 71.9454 100.421 71.5958V54.4436C101.134 54.2401 101.837 54.063 102.479 53.948C106.692 53.1647 108.785 50.8105 108.369 47.3234C108.369 47.319 108.369 47.319 108.369 47.319C108.369 47.3057 108.369 47.2924 108.365 47.2747C108.041 44.6948 105.537 43.7434 103.545 43.3982C104.988 42.6415 106.519 41.6149 106.67 40.5926C106.745 40.128 106.555 39.6943 106.147 39.3669C105.121 38.5438 102.736 39.1721 100.421 40.1147V0.632808C100.421 0.283216 100.138 0 99.7928 0H30.4583C30.2902 0 30.1309 0.0708043 30.0114 0.18586C29.8963 0.305341 29.8299 0.46465 29.8299 0.632808C29.8299 1.34084 29.945 71.4144 29.945 71.5914C29.945 71.941 30.2326 72.2242 30.5734 72.2242ZM31.1044 10.6294H63.444C62.8643 11.3905 62.3244 12.2977 61.8111 13.3598C61.7093 13.5766 61.5987 13.8111 61.4836 14.0545H36.5386C36.1934 14.0545 35.9102 14.3333 35.9102 14.6829V36.4639C35.9102 36.8135 36.1934 37.0967 36.5386 37.0967H52.2526C51.934 37.9375 51.7437 38.442 51.7348 38.473C51.6994 38.5747 51.6906 38.6809 51.7083 38.7871C49.8453 39.5483 47.8628 40.69 46.0307 42.3937H36.0695C35.7244 42.3937 35.4411 42.6769 35.4411 43.0221C35.4411 43.3717 35.7244 43.6549 36.0695 43.6549H44.8049C44.0925 44.4559 43.4154 45.363 42.7915 46.3764H35.835C35.4898 46.3764 35.2066 46.6596 35.2066 47.0048C35.2066 47.3544 35.4898 47.6376 35.835 47.6376H42.079C41.5435 48.6687 41.0612 49.8104 40.6496 51.0583H37.2422C36.8926 51.0583 36.6138 51.3415 36.6138 51.6911C36.6138 52.0363 36.8926 52.3195 37.2422 52.3195H40.2469C36.8616 63.3073 35.4057 70.0337 35.2066 70.9674H31.2062C31.1929 65.7058 31.1354 28.8171 31.1044 10.6294ZM78.1933 11.9481C85.8711 16.4751 85.3799 24.6131 84.0921 31.189C83.1407 36.0568 82.0255 50.2883 81.791 53.3993H75.8568L73.0468 41.3582C72.9936 41.1546 72.8476 40.9865 72.6529 40.9113C72.0776 40.6944 70.4668 40.0262 69.8606 39.4377C69.688 38.9819 70.2589 37.0259 71.1218 35.0434C74.5779 36.194 79.3527 34.2026 81.2821 30.6757C83.3708 26.8656 81.8707 21.3031 81.8043 21.0685C81.7202 20.7499 81.3972 20.5552 81.0697 20.6216L67.0373 23.5909C66.5284 23.0732 65.3867 22.0686 64.1697 22.166C63.6785 22.2014 62.9749 22.4448 62.4218 23.3741C62.0412 24.0069 61.9483 24.6884 62.143 25.392C62.5899 26.9939 64.4352 28.2197 65.1875 28.6622C65.5106 31.1271 67.5506 46.3277 68.9932 51.0141C67.4444 51.1158 63.9706 51.1689 61.7845 49.8989L59.3728 34.8398C59.3197 34.4991 58.9922 34.2646 58.6559 34.3221C58.3107 34.3752 58.0762 34.6982 58.1337 35.0434L58.4877 37.2516C57.5098 37.2914 55.514 37.4817 53.1598 38.2428C54.421 34.8841 60.1738 19.6613 62.9439 13.8996C64.2848 11.1118 65.7894 9.54965 67.6701 8.97879C70.1482 8.2265 73.4893 9.16908 78.1933 11.9481ZM81.1626 70.9674H75.724L76.6666 67.7016C77.972 67.4361 81.8441 66.2855 83.0876 61.8116C83.8045 59.2361 82.3265 56.2004 81.4104 54.6604H82.3619C82.6937 54.6604 82.9681 54.4038 82.9902 54.0763C82.9947 54.0011 83.2425 50.6822 83.6098 46.5224C84.5125 47.3323 85.9109 48.7705 86.6366 50.4565C84.4461 57.1696 81.5786 69.131 81.167 70.8656C81.167 70.8966 81.167 70.932 81.1626 70.9674ZM59.0497 70.9674L60.1251 70.0381C60.9393 70.1665 61.7137 70.2151 62.4173 70.2151C64.0149 70.2151 65.2716 69.9629 65.9664 69.7815C67.2585 69.4451 67.7674 69.0867 68.3516 68.6707C68.6436 68.4672 68.9401 68.2548 69.3871 68.0069C70.3474 67.4759 71.0908 67.0865 71.4581 66.8962C73.3919 67.5998 74.1 66.9316 74.3566 66.4625C75.0116 65.2323 73.7548 63.2542 72.1661 62.1745C71.1439 61.4841 69.4181 60.608 67.7409 59.8247C69.2411 59.3954 69.8694 58.4794 70.0951 58.0015C70.5288 57.0987 70.4624 56.0677 69.9402 55.488C69.188 54.6472 68.356 55.0322 67.6966 55.3419C67.3249 55.5145 66.909 55.7136 66.3691 55.842C65.5371 56.0411 65.1079 55.9924 64.152 55.8907C63.4263 55.811 62.435 55.7048 60.8331 55.665C60.7402 55.665 60.6473 55.665 60.5543 55.665C57.5319 55.665 56.2973 56.7846 53.9961 58.9485L55.4874 54.7091C55.6025 54.3817 55.4299 54.0232 55.1024 53.9082C54.775 53.7975 54.4121 53.9657 54.3015 54.2932L52.0181 60.7761C48.2079 64.2145 41.5037 70.8479 41.4329 70.9143C41.4196 70.932 41.4152 70.9541 41.4019 70.9674H36.4899C36.8395 69.3655 38.3751 62.5639 41.6984 51.8726C43.3181 46.6552 46.3228 42.8849 50.6285 40.6369C51.4738 41.2564 54.682 43.4735 59.7622 45.2391L60.5897 50.3857C60.6207 50.5583 60.7181 50.7176 60.8641 50.8105C64.0635 52.9081 69.7013 52.231 69.9402 52.1956C70.1394 52.1735 70.3075 52.0584 70.4093 51.8858C70.5111 51.7132 70.5199 51.5053 70.4403 51.3238C70.1305 50.6069 69.7677 49.1643 69.3959 47.3367C70.6571 47.4562 71.9272 47.5181 73.1928 47.5225L74.746 54.1781C74.8124 54.4613 75.0647 54.6649 75.3567 54.6649H79.9368C80.5564 55.5986 82.5875 58.9529 81.8839 61.4797C80.6183 66.02 76.2993 66.5068 76.1179 66.5245C75.8612 66.551 75.6444 66.7281 75.5736 66.9803L74.4141 70.9763H59.0497V70.9674ZM52.9783 61.5992C53.651 60.9974 54.2307 60.4486 54.7484 59.9619C57.1469 57.7006 58.0408 56.8598 60.8066 56.9173C62.351 56.9527 63.3112 57.0545 64.0149 57.1297C65.015 57.2404 65.6168 57.3023 66.6567 57.0545C67.3205 56.8952 67.8205 56.6607 68.2277 56.4748C68.8738 56.1694 68.887 56.1872 69.0065 56.3155C69.126 56.4482 69.2057 56.935 68.9623 57.4483C68.5109 58.3909 67.2497 58.8733 65.5106 58.7803C65.4973 58.7803 65.4752 58.7803 65.4575 58.7803C64.1211 58.1918 63.1121 57.7714 63.0103 57.7316C62.6873 57.5988 62.3244 57.7537 62.1917 58.0767C62.0545 58.3998 62.2094 58.7626 62.5324 58.8998C62.5988 58.9219 69.126 61.6258 71.4625 63.2056C72.9007 64.1835 73.414 65.5465 73.2459 65.8607C73.2016 65.9448 72.7547 66.0377 71.7325 65.6394C68.9224 63.3649 63.7936 61.7585 63.5768 61.6921C63.2449 61.5904 62.8953 61.7762 62.7891 62.1081C62.6829 62.44 62.8731 62.794 63.205 62.8958C63.2493 62.9091 67.4134 64.2145 70.1482 66.0377C70.1438 66.0377 70.1394 66.0377 70.1349 66.0377C66.847 65.812 63.2714 64.3783 63.2316 64.3605C62.9085 64.2322 62.5457 64.3871 62.4173 64.7101C62.2846 65.0332 62.4395 65.3961 62.7625 65.5288C62.8953 65.5775 65.5106 66.6263 68.4224 67.0953C68.2587 67.1971 68.117 67.2901 67.9843 67.3786C67.9223 67.3609 67.8604 67.352 67.7896 67.3564C65.4265 67.5025 62.0943 66.6838 62.0589 66.6749C61.7226 66.5909 61.3818 66.7944 61.2978 67.1307C61.2137 67.4671 61.4172 67.8122 61.7536 67.8963C61.8598 67.9184 63.6653 68.3698 65.6256 68.5512C64.3246 68.8876 60.9393 69.485 57.0805 67.8742C56.7619 67.7414 56.3902 67.8919 56.2574 68.2149C56.1247 68.5335 56.2751 68.9008 56.5982 69.038C57.2708 69.3168 57.9302 69.5292 58.5718 69.6974L57.2133 70.8656C57.1823 70.8922 57.1602 70.9187 57.1336 70.9497H43.172C45.1324 69.038 50.0046 64.272 52.9783 61.5992ZM52.5579 35.8355H37.167V20.7012H58.6426C56.4477 26.0867 54.0315 32.3927 52.7217 35.8621C52.6686 35.8444 52.611 35.8355 52.5579 35.8355ZM59.156 19.44H37.167V15.3113H60.9172C60.3773 16.5238 59.7799 17.931 59.156 19.44ZM51.9694 39.9997C54.9918 38.7163 57.7089 38.5261 58.6869 38.4995L59.5365 43.8275C55.7795 42.4512 53.1465 40.836 51.9384 40.0174C51.9517 40.0085 51.9605 40.0041 51.9694 39.9997ZM75.2859 23.1351C75.308 23.1617 75.3302 23.1838 75.3523 23.2059C75.4231 23.259 75.4895 23.3121 75.5736 23.3608C75.6576 23.4095 75.7461 23.467 75.8656 23.4935L75.9762 23.5245C75.9851 23.5289 75.9939 23.5289 76.0028 23.5289C76.1488 23.5511 76.286 23.4493 76.3081 23.3033C76.3303 23.1572 76.317 23.0377 76.286 22.9227L80.729 21.9801C81.0387 23.4404 81.6627 27.3612 80.1802 30.0694C78.6358 32.8927 74.2194 35.1275 71.0554 33.6672C70.7368 33.5211 70.3695 33.6583 70.2234 33.9725C69.126 36.3444 68.0153 39.3713 68.9446 40.305C69.6659 41.0263 71.2059 41.6945 71.8918 41.9689L72.8963 46.2525C71.644 46.2392 70.3828 46.1684 69.1348 46.0401C67.8117 39.0925 66.4089 28.3348 66.3868 28.1887C66.3647 27.9852 66.2363 27.8037 66.0549 27.7108C65.4177 27.3745 63.683 26.2372 63.3511 25.0557C63.2449 24.6884 63.298 24.3609 63.4927 24.0246C63.8334 23.4581 64.1609 23.4316 64.2627 23.4227C65.0105 23.3652 66.0372 24.3432 66.3292 24.6928C66.4797 24.8698 66.7098 24.9494 66.9399 24.9008L75.2859 23.1351ZM99.1645 70.9674H94.1108L95.2437 56.227C95.9208 55.957 97.474 55.3596 99.1645 54.8242V70.9674ZM105.364 40.3493C105.413 40.3891 105.426 40.4156 105.431 40.4156C105.413 40.9378 103.187 42.3185 100.846 43.2611L98.3945 44.2523C98.0714 44.3851 97.9165 44.7524 98.0449 45.071C98.1467 45.3144 98.3812 45.4648 98.629 45.4648C98.7087 45.4648 98.7883 45.4515 98.8635 45.4206L101.209 44.4691C101.882 44.4647 105.692 44.5222 106.825 46.5313C104.218 46.2481 99.5583 46.8322 98.952 46.9074C98.6069 46.9517 98.3635 47.2659 98.4077 47.6111C98.452 47.9297 98.7219 48.1598 99.0361 48.1598C99.0583 48.1598 99.0892 48.1598 99.1158 48.1554C100.828 47.9341 105.342 47.4827 107.152 47.85C107.192 48.5315 107.108 49.1422 106.9 49.6909C105.196 49.536 99.8459 50.0095 99.2087 50.0671C98.8635 50.0936 98.6113 50.3989 98.6423 50.7485C98.6688 51.076 98.9432 51.3238 99.2662 51.3238C99.2795 51.3238 99.3016 51.3238 99.3238 51.3194C101.417 51.1291 104.559 50.9034 106.13 50.9123C105.316 51.7752 104.019 52.377 102.253 52.7089C99.0671 53.3019 94.6021 55.1251 94.4118 55.2048C94.1949 55.2933 94.0445 55.5057 94.0223 55.7402L92.8541 70.963V70.9674H82.4459C84.5523 62.1214 88.1147 48.5536 89.4157 46.9296C90.0972 46.0755 90.7875 45.4073 91.4557 44.7612C92.5841 43.6726 93.5577 42.7256 93.9692 41.3272C94.102 40.867 94.2348 40.3581 94.3631 39.8581C94.5711 39.0482 94.8941 37.7738 95.1773 37.2604C95.5446 38.0304 95.8367 40.4776 95.1021 42.9646V42.969C95.0844 43.0265 95.08 43.0885 95.08 43.1504C95.08 43.1637 95.08 43.1726 95.08 43.1858C95.0844 43.2434 95.0932 43.3009 95.1109 43.354C95.1109 43.3584 95.1109 43.3628 95.1154 43.3673C95.1331 43.4071 96.5624 47.3278 94.1241 49.4652C93.863 49.6953 93.8365 50.0892 94.0666 50.3547C94.2967 50.6158 94.6906 50.6423 94.9516 50.4122C97.4784 48.204 96.8324 44.7568 96.4606 43.4513C100.196 41.3892 104.546 39.6943 105.364 40.3493ZM96.6199 41.9158C97.0049 39.6235 96.7439 37.3711 96.1376 36.4329C95.8632 35.9992 95.5402 35.8709 95.3189 35.8399C94.1197 35.6718 93.6905 37.3755 93.1373 39.5394C93.0134 40.0306 92.8895 40.5218 92.7523 40.9732C92.4381 42.0485 91.615 42.8451 90.5707 43.854C89.9069 44.4957 89.1546 45.2214 88.42 46.1419C88.0925 46.5578 87.6677 47.5093 87.1986 48.8147C86.0481 46.9119 84.3709 45.4825 83.7425 44.9869C84.1983 39.9333 84.7869 34.1318 85.3179 31.4324C85.5348 30.3128 85.8534 28.6799 86.0082 26.7903H94.872C95.2216 26.7903 95.5004 26.5071 95.5004 26.162C95.5004 25.8124 95.2216 25.5292 94.872 25.5292H86.0835C86.1189 24.6308 86.1012 23.6927 86.0215 22.7324H89.3404C89.6856 22.7324 89.9688 22.4492 89.9688 22.104C89.9688 21.7544 89.6856 21.4712 89.3404 21.4712H85.8711C85.6719 20.1702 85.3356 18.8603 84.7913 17.577H95.7305C96.0756 17.577 96.3589 17.2982 96.3589 16.9486C96.3589 16.6035 96.0756 16.3202 95.7305 16.3202H84.1895H84.1851C83.0699 14.2714 81.3706 12.3729 78.8173 10.8639C78.6801 10.7843 78.5473 10.7091 78.4146 10.6294H99.1512V40.6634C98.2263 41.0883 97.3457 41.5352 96.6199 41.9158ZM99.1645 1.26119V9.37264H76.1754C76.1444 9.37264 76.1223 9.37706 76.0957 9.38149C72.4316 7.58927 69.5995 7.08037 67.3072 7.77513C66.3027 8.0849 65.3999 8.60707 64.5724 9.37264H31.1044C31.0956 5.44303 31.0911 2.54008 31.0911 1.26119H99.1645ZM38.0565 7.58485C39.2645 7.58485 40.2425 6.60244 40.2425 5.39436C40.2425 4.18627 39.2645 3.20387 38.0565 3.20387C36.8528 3.20387 35.8704 4.18627 35.8704 5.39436C35.8704 6.60244 36.8528 7.58485 38.0565 7.58485ZM38.0565 4.46063C38.5698 4.46063 38.9858 4.88103 38.9858 5.39436C38.9858 5.90326 38.5698 6.32365 38.0565 6.32365C37.5476 6.32365 37.1272 5.90326 37.1272 5.39436C37.1272 4.88103 37.5476 4.46063 38.0565 4.46063ZM43.6721 7.58485C44.8802 7.58485 45.8581 6.60244 45.8581 5.39436C45.8581 4.18627 44.8802 3.20387 43.6721 3.20387C42.464 3.20387 41.486 4.18627 41.486 5.39436C41.486 6.60244 42.464 7.58485 43.6721 7.58485ZM43.6721 4.46063C44.181 4.46063 44.6014 4.88103 44.6014 5.39436C44.6014 5.90326 44.181 6.32365 43.6721 6.32365C43.1587 6.32365 42.7428 5.90326 42.7428 5.39436C42.7428 4.88103 43.1587 4.46063 43.6721 4.46063ZM49.3629 7.54502C50.5666 7.54502 51.549 6.56262 51.549 5.35453C51.549 4.14644 50.5666 3.16404 49.3629 3.16404C48.1548 3.16404 47.1724 4.14644 47.1724 5.35453C47.1724 6.56262 48.1548 7.54502 49.3629 7.54502ZM49.3629 4.4208C49.8718 4.4208 50.2922 4.8412 50.2922 5.3501C50.2922 5.86343 49.8718 6.28383 49.3629 6.28383C48.8496 6.28383 48.4292 5.86343 48.4292 5.3501C48.4292 4.8412 48.8496 4.4208 49.3629 4.4208ZM98.3546 22.0996C98.3546 22.4448 98.0759 22.728 97.7263 22.728H93.8321C93.4825 22.728 93.2037 22.4448 93.2037 22.0996C93.2037 21.75 93.4825 21.4668 93.8321 21.4668H97.7263C98.0759 21.4668 98.3546 21.75 98.3546 22.0996ZM40.4107 17.2584C40.4107 17.6567 40.0876 17.9797 39.6938 17.9797C39.2999 17.9797 38.9769 17.6567 38.9769 17.2584C38.9769 16.8646 39.2999 16.5415 39.6938 16.5415C40.0876 16.5415 40.4107 16.8601 40.4107 17.2584ZM43.2782 17.2584C43.2782 17.6567 42.9552 17.9797 42.5613 17.9797C42.1675 17.9797 41.8444 17.6567 41.8444 17.2584C41.8444 16.8646 42.1675 16.5415 42.5613 16.5415C42.9552 16.5415 43.2782 16.8601 43.2782 17.2584ZM114.374 16.7672C115.564 16.7672 116.533 15.7936 116.533 14.6033C116.533 13.4129 115.564 12.4393 114.374 12.4393C113.184 12.4393 112.21 13.4129 112.21 14.6033C112.21 15.7936 113.184 16.7672 114.374 16.7672ZM114.374 13.6961C114.87 13.6961 115.277 14.1032 115.277 14.6033C115.277 15.1033 114.87 15.5104 114.374 15.5104C113.874 15.5104 113.467 15.1033 113.467 14.6033C113.467 14.1032 113.874 13.6961 114.374 13.6961ZM121.764 16.7672C122.959 16.7672 123.924 15.7936 123.924 14.6033C123.924 13.4129 122.954 12.4393 121.764 12.4393C120.574 12.4393 119.6 13.4129 119.6 14.6033C119.6 15.7936 120.574 16.7672 121.764 16.7672ZM121.764 13.6961C122.26 13.6961 122.667 14.1032 122.667 14.6033C122.667 15.1033 122.26 15.5104 121.764 15.5104C121.264 15.5104 120.857 15.1033 120.857 14.6033C120.857 14.1032 121.264 13.6961 121.764 13.6961ZM129.154 16.7672C130.349 16.7672 131.314 15.7936 131.314 14.6033C131.314 13.4129 130.345 12.4393 129.154 12.4393C127.964 12.4393 126.99 13.4129 126.99 14.6033C126.99 15.7936 127.964 16.7672 129.154 16.7672ZM129.154 13.6961C129.654 13.6961 130.057 14.1032 130.057 14.6033C130.057 15.1033 129.654 15.5104 129.154 15.5104C128.654 15.5104 128.247 15.1033 128.247 14.6033C128.247 14.1032 128.654 13.6961 129.154 13.6961ZM12.5096 86.3185C14.3461 86.3185 15.9214 85.5663 16.8198 84.8494C16.9525 84.7476 17.0366 84.5883 17.0543 84.4201C17.072 84.2475 17.0189 84.0794 16.9083 83.951C12.3636 78.6363 7.05771 82.65 7.00461 82.6899C6.863 82.8005 6.77892 82.9598 6.76122 83.1368C6.74352 83.3094 6.80548 83.482 6.92496 83.6147C8.78798 85.6459 10.7661 86.3185 12.5096 86.3185ZM15.4657 84.2431C14.2664 84.9334 11.3635 86.0752 8.37643 83.2961C9.63762 82.5881 12.6335 81.4331 15.4657 84.2431ZM111.183 22.7988L108.617 26.8788C108.462 27.1222 108.493 27.4409 108.692 27.6444C108.811 27.7772 108.98 27.8435 109.148 27.8435C109.254 27.8435 109.356 27.817 109.453 27.7639L117.649 23.1617H129.725C134.323 23.1617 138.071 19.4091 138.071 14.8024C138.071 10.1957 134.323 6.44314 129.725 6.44314H113.591C108.988 6.44314 105.245 10.1957 105.245 14.8024C105.245 18.5196 107.696 21.75 111.183 22.7988ZM113.591 7.6999H129.725C133.633 7.6999 136.814 10.8861 136.814 14.8024C136.814 18.7143 133.633 21.9005 129.725 21.9005H117.485C117.374 21.9005 117.272 21.9314 117.18 21.9801L111.002 25.4495L112.715 22.7324C112.825 22.5554 112.838 22.3341 112.759 22.1439C112.675 21.9491 112.502 21.8164 112.299 21.781C108.944 21.157 106.506 18.2231 106.506 14.8068C106.501 10.8861 109.679 7.6999 113.591 7.6999ZM131.637 58.5812C131.823 57.9838 132.305 57.5988 132.712 57.7227C133.119 57.851 133.296 58.4352 133.11 59.0414C132.925 59.6388 132.442 60.0283 132.035 59.8999C131.632 59.776 131.455 59.1875 131.637 58.5812ZM126.189 56.8509C126.375 56.2491 126.858 55.8641 127.265 55.988C127.672 56.1163 127.849 56.7049 127.663 57.3067C127.477 57.9086 126.995 58.2936 126.588 58.1697C126.185 58.0369 126.008 57.4483 126.189 56.8509ZM129.402 59.8468L129.473 59.8601C129.712 59.8999 129.871 60.13 129.827 60.369C129.8 60.5239 129.694 60.6434 129.561 60.7009C129.362 60.7805 129.154 60.8425 128.929 60.8646C128.698 60.8779 128.455 60.8735 128.194 60.7894C127.942 60.7053 127.672 60.5504 127.499 60.3026C127.327 60.0504 127.251 59.7893 127.313 59.4662C127.322 59.4176 127.366 59.3866 127.415 59.391L128.11 59.4264C128.159 59.4308 128.207 59.4928 128.247 59.5193C128.291 59.5503 128.322 59.5725 128.358 59.5946C128.42 59.6344 128.473 59.6787 128.575 59.7141C128.663 59.7539 128.796 59.776 128.937 59.7981C129.013 59.807 129.083 59.8158 129.163 59.8291C129.234 59.8291 129.318 59.8335 129.402 59.8468ZM130.429 64.3074C130.438 64.4712 130.345 64.6128 130.207 64.6792C130.004 64.7721 129.8 64.8606 129.583 64.9314C129.362 64.9845 129.145 65.0642 128.911 65.0686C128.451 65.1394 127.959 65.0686 127.504 64.9358C127.043 64.7942 126.619 64.5464 126.269 64.2322C125.915 63.9136 125.649 63.5552 125.446 63.0905C125.349 62.8692 125.45 62.6082 125.667 62.5108C125.844 62.4312 126.048 62.4798 126.172 62.6214L126.22 62.6745C126.428 62.9091 126.712 63.179 126.977 63.3737C127.256 63.5817 127.548 63.7454 127.862 63.8517C128.176 63.9579 128.508 64.0375 128.858 64.0331C129.026 64.0552 129.207 64.0198 129.393 64.0198C129.575 64.011 129.756 63.9667 129.951 63.9534L130.017 63.949C130.234 63.9313 130.415 64.095 130.429 64.3074ZM126.207 54.2091C126.22 54.1338 126.269 54.0719 126.327 54.0321C126.605 53.8374 126.893 53.7444 127.216 53.709C127.53 53.6692 127.871 53.709 128.19 53.8285C128.508 53.9436 128.805 54.1427 129.017 54.3994C129.234 54.6516 129.367 54.9525 129.42 55.2623C129.455 55.4703 129.318 55.665 129.106 55.7004C129.004 55.7181 128.902 55.6915 128.822 55.6384L128.774 55.5986C128.557 55.4481 128.406 55.2977 128.238 55.1782C128.083 55.0499 127.924 54.9614 127.756 54.8729C127.583 54.7888 127.393 54.7224 127.185 54.6693C126.977 54.6118 126.734 54.5852 126.504 54.5454L126.433 54.5321C126.282 54.51 126.185 54.364 126.207 54.2091ZM131.907 55.9615C131.92 55.8862 131.964 55.8243 132.022 55.78C132.305 55.5853 132.588 55.4968 132.911 55.457C133.23 55.4216 133.571 55.457 133.889 55.5809C134.208 55.6915 134.504 55.8951 134.712 56.1517C134.929 56.3996 135.066 56.7049 135.119 57.0102C135.155 57.2182 135.013 57.4174 134.805 57.4483C134.699 57.466 134.602 57.4439 134.522 57.3864L134.469 57.351C134.257 57.2005 134.106 57.0456 133.938 56.9306C133.783 56.8023 133.619 56.7138 133.451 56.6252C133.279 56.5412 133.093 56.4748 132.88 56.4173C132.672 56.3642 132.429 56.3332 132.199 56.2978L132.132 56.2845C131.982 56.2535 131.88 56.1119 131.907 55.9615ZM73.5158 24.5423C73.799 24.06 74.2947 23.821 74.6221 24.0157C74.9496 24.2104 74.9806 24.7547 74.6974 25.2415C74.4097 25.7283 73.9185 25.9584 73.591 25.7637C73.2636 25.5734 73.2282 25.0291 73.5158 24.5423ZM77.9234 27.0957C78.2066 26.6133 78.7022 26.3788 79.0297 26.5691C79.3571 26.7638 79.3881 27.3081 79.1049 27.7949C78.8173 28.2816 78.326 28.5162 77.9986 28.3215C77.6711 28.1268 77.6357 27.578 77.9234 27.0957ZM74.7859 27.3789C74.923 27.3258 75.0735 27.3612 75.1797 27.4497L75.2063 27.4718C75.3257 27.5736 75.4231 27.671 75.5249 27.755C75.6267 27.8303 75.7196 27.9055 75.7992 27.9409C75.8789 27.9807 75.9408 27.994 76.0072 28.0117C76.0648 28.0294 76.1754 28.0338 76.2639 28.0737L76.6046 28.2197C76.7418 28.2728 76.8038 28.4321 76.7462 28.5649C76.7374 28.587 76.7241 28.6047 76.7108 28.6224C76.5294 28.8569 76.317 28.972 76.0515 29.003C75.7815 29.0384 75.516 28.9543 75.3125 28.8392C75.1001 28.7197 74.9496 28.5604 74.8213 28.4011C74.7062 28.2374 74.6177 28.0648 74.5513 27.8834C74.4761 27.6754 74.5779 27.4497 74.7859 27.3789ZM71.5466 29.8349C71.4846 29.6535 71.5864 29.4632 71.7679 29.4057C71.9139 29.3614 72.0643 29.4189 72.1484 29.5384L72.1706 29.5694C72.3653 29.8482 72.5511 30.1137 72.7724 30.335C72.9804 30.5651 73.2326 30.7376 73.4893 30.8793C73.7504 31.0253 74.0336 31.1182 74.3345 31.1802C74.631 31.2377 74.9717 31.2598 75.2549 31.2598H75.3169C75.5293 31.2598 75.7063 31.4324 75.7107 31.6492C75.7107 31.8218 75.5957 31.9723 75.4408 32.021C75.016 32.1626 74.6221 32.2024 74.1973 32.1626C73.7813 32.1183 73.3654 31.99 72.9936 31.7687C72.6308 31.5519 72.2945 31.2731 72.0599 30.9235C71.9272 30.7642 71.8475 30.5739 71.7457 30.3969C71.6705 30.2155 71.6086 30.0252 71.5466 29.8349ZM78.065 24.9273C78.0871 24.8344 78.1402 24.7592 78.211 24.7105C78.4455 24.56 78.7243 24.4671 79.0208 24.4627C79.3129 24.4538 79.6226 24.5246 79.8926 24.6662C80.1581 24.8034 80.3882 25.0026 80.5519 25.2371C80.7201 25.4716 80.8307 25.7194 80.8706 26.0159C80.8883 26.1531 80.7953 26.277 80.6581 26.2947C80.5918 26.3036 80.5254 26.2859 80.4723 26.246L80.428 26.2062C80.2643 26.0823 80.0961 25.9319 79.9368 25.8301C79.7731 25.7194 79.6182 25.6354 79.4589 25.5778C79.2996 25.5203 79.1447 25.4672 78.9633 25.4406C78.7907 25.4008 78.596 25.392 78.3747 25.3433L78.3216 25.33C78.1446 25.2902 78.0251 25.1132 78.065 24.9273Z" fill="black"/>
</svg>
