<svg width="160" height="130" viewBox="0 0 160 130" fill="none" xmlns="http://www.w3.org/2000/svg">
<path d="M113.848 87.1224H79.206C78.9065 87.1224 78.6691 87.3655 78.6691 87.6594C78.6691 87.959 78.9065 88.202 79.206 88.202H113.848C114.148 88.202 114.385 87.959 114.385 87.6594C114.385 87.3655 114.148 87.1224 113.848 87.1224Z" fill="#101928" fill-opacity="0.1"/>
<path d="M114.114 84.0532H104.788V81.278C104.788 80.2267 103.935 79.3732 102.883 79.3732H90.4428C89.3915 79.3732 88.538 80.2267 88.538 81.278V84.0532H80.1502C79.8506 84.0532 79.6075 84.2962 79.6075 84.5958C79.6075 84.8954 79.8506 85.1328 80.1502 85.1328H114.114C114.414 85.1328 114.657 84.8954 114.657 84.5958C114.657 84.2962 114.414 84.0532 114.114 84.0532ZM89.6176 81.278C89.6176 80.8258 89.9906 80.4527 90.4428 80.4527H102.883C103.341 80.4527 103.708 80.8258 103.708 81.278V84.0532H89.6176V81.278Z" fill="#101928" fill-opacity="0.1"/>
<path d="M119.546 6.31873H16.9755C15.2798 6.31873 13.9007 7.69786 13.9007 9.39352V84.0533H10.4981C10.1985 84.0533 9.95544 84.2964 9.95544 84.596V87.6594C9.95544 87.959 10.1985 88.2021 10.4981 88.2021H31.2416C31.5412 88.2021 31.7842 87.959 31.7842 87.6594C31.7842 87.3655 31.5412 87.1225 31.2416 87.1225H11.035V85.1329H32.779C33.0786 85.1329 33.3216 84.8955 33.3216 84.596C33.3216 84.2964 33.0786 84.0533 32.779 84.0533H14.9802V9.38787C14.9802 8.29134 15.8733 7.39264 16.9755 7.39264H119.546C119.84 7.39264 120.083 7.15525 120.083 6.85568C120.083 6.55612 119.84 6.31873 119.546 6.31873Z" fill="#101928" fill-opacity="0.1"/>
<path fill-rule="evenodd" clip-rule="evenodd" d="M32.9825 85.1217C33.2481 83.5843 33.7851 82.1769 33.316 81.0408C32.8468 79.9047 31.1059 79.0286 29.0259 78.5651C26.9516 78.096 26.7481 75.8182 26.7481 75.8182C28.1555 73.4047 31.2359 76.2195 31.2359 76.2195C31.2359 76.2195 29.6985 70.929 29.0938 69.7251C28.4946 68.5155 29.8342 67.9164 29.8342 67.9164C34.6612 67.3794 39.3468 65.2373 39.3468 65.2373C39.3468 65.2373 39.6803 64.6381 42.1616 66.8481C44.6373 69.0581 45.4456 72.8055 45.4456 75.7503C45.4456 78.6951 39.4147 81.4421 39.4147 81.4421C39.4147 81.4421 38.8777 82.8495 38.6121 84.4547C38.3464 86.0656 38.8155 86.8004 39.9516 87.2017C41.0934 87.603 43.3034 86.7325 43.3034 86.7325C43.3034 86.7325 44.3773 90.9491 35.4638 92.6278C26.5559 94.3008 23.939 88.4734 23.939 88.4734C23.939 88.4734 29.3651 88.0099 31.3773 87.8743C33.3838 87.733 32.7168 86.6647 32.9825 85.1217ZM37.4703 119.606C39.6125 118.34 40.2173 118.34 41.896 117.531C43.569 116.729 44.9086 116.056 44.236 115.118C43.569 114.185 42.2295 114.581 42.2295 114.581C42.2295 114.581 42.026 112.173 38.0073 110.963C38.0073 110.963 38.6799 110.161 40.2851 110.432C41.896 110.698 44.0382 111.568 44.3038 110.63C44.5751 109.697 42.4329 108.019 40.6864 108.019C38.9455 108.019 35.6616 108.618 34.1864 110.093C32.7112 111.568 28.6246 117.797 28.6246 117.797L25.5442 118.063C25.5442 118.063 23.5998 122.686 25.6798 126.434C26.0811 126.434 31.1738 125.501 32.7112 124.359C34.2542 123.223 34.2542 122.415 34.8534 121.816C35.4525 121.211 35.3281 120.883 37.4703 119.606ZM75.99 67.3116C76.3291 68.9847 75.3231 70.929 75.3231 70.929C77.0639 74.3429 83.0948 73.4725 83.0948 73.4725C83.0948 73.4725 83.694 70.929 84.0274 69.5216C84.3666 68.1142 84.9657 66.4412 84.7679 65.1694C84.5644 63.9033 84.4344 62.089 84.6322 59.6811C84.8357 57.2677 85.1013 55.5268 84.9035 53.9216C84.7 52.3107 82.8913 51.4459 81.2805 50.8411C79.6752 50.2363 79.0026 52.4463 78.4713 53.6503C77.9344 54.8542 76.7248 57.3298 76.7248 57.3298C76.7248 57.3298 76.1878 56.8664 76.657 54.9898C77.1261 53.1133 76.9961 50.9033 75.7865 50.7733C74.5826 50.6376 74.447 52.9833 73.8422 55.3911C73.243 57.8046 73.8422 58.1381 74.5148 60.2125C75.1874 62.2925 75.6565 65.6386 75.99 67.3116ZM90.7988 103.135L54.0199 103.237L45.8808 123.624C45.8808 123.624 40.6525 123.924 38.1429 123.924C35.6277 123.924 35.0286 125.134 35.0286 125.134L35.2264 129.248L82.1622 128.949L82.0605 126.038C83.4679 125.936 84.6718 124.828 84.6718 124.828C84.6718 124.828 91.2057 107.555 91.5109 105.747C91.8105 103.938 90.7988 103.135 90.7988 103.135ZM98.1014 111.438C98.1014 111.438 119.941 111.438 120.885 111.506C121.818 111.574 122.355 110.907 122.626 110.234C122.892 109.567 123.095 109.567 121.954 109.098C120.818 108.629 121.688 104.543 121.688 104.543C121.688 104.543 123.163 104.543 122.96 103.943C122.762 103.344 121.219 102.536 121.219 102.536C121.219 102.536 105.342 102.333 101.187 102.406C97.0331 102.474 96.4283 102.333 94.8853 104.345C93.3479 106.357 94.3483 108.363 94.3483 108.363C95.1509 110.302 98.1014 111.438 98.1014 111.438ZM121.015 120.612C121.015 120.612 99.311 120.278 96.9653 120.278C94.6196 120.278 95.021 122.556 95.021 122.556L96.4283 122.754C96.4283 122.754 97.0275 123.76 97.0275 124.63C97.0275 125.501 96.4283 127.044 96.4283 127.044C96.4283 127.044 95.6879 126.84 94.8853 127.174C94.0827 127.513 95.7614 129.254 95.7614 129.254L121.219 128.921C121.219 128.921 123.898 127.649 123.83 124.568C123.762 121.482 121.015 120.612 121.015 120.612ZM135.118 21.2745L137.13 18.1149C137.13 18.1149 139.588 17.3123 139.085 15.0514C138.582 12.7905 136.977 14.3506 136.977 14.3506L135.016 7.66966C135.016 7.66966 125.622 6.05878 121.598 11.6318C121.598 11.6318 122.055 21.9754 127.928 22.9362L127.832 26.5028L129.341 28.3567L134.965 25.1971L135.118 21.2745ZM153.205 35.4389C151.498 30.318 138.435 28.758 138.435 28.758C137.028 33.5341 131.449 36.4958 131.449 36.4958L129.341 28.3567L125.119 35.4898L123.61 28.9615C123.61 28.9615 118.935 29.0123 115.618 30.4197C112.3 31.8271 110.395 36.0437 109.79 37.8524C109.185 39.6554 102.753 55.8263 102.25 58.0364C101.747 60.2464 100.345 63.9655 103.556 67.1816C103.556 67.1816 105.364 69.3916 108.988 68.3855C112.605 67.3794 114.611 66.9781 114.515 68.6851L114.21 85.6586L143.76 85.8621L141.448 71.6977C141.448 71.6977 143.353 72.2064 147.473 72.1047C151.594 72.0029 153.205 67.7864 154.505 62.8633C155.822 57.9346 154.917 40.5598 153.205 35.4389Z" fill="white"/>
<path fill-rule="evenodd" clip-rule="evenodd" d="M31.9765 79.7632C31.9765 79.7632 33.316 80.1023 33.3839 81.9054C33.4517 83.7141 32.8469 85.5906 32.8469 85.5906C32.8469 85.5906 32.1121 82.1089 29.563 81.2384C27.0195 80.368 24.5382 77.621 24.5382 77.621C24.5382 77.621 22.7973 78.4915 21.1242 78.0902C19.4455 77.6832 17.3034 76.078 17.1677 73.868C17.0377 71.658 18.0382 69.5836 19.5134 69.0467C20.9886 68.5097 22.933 68.3119 22.933 68.3119C22.933 68.3119 23.5321 63.0892 26.816 61.7497C30.0999 60.4101 32.1121 59.3362 36.1308 59.8053C40.1495 60.2744 41.2178 60.2744 41.4891 62.281C41.7548 64.2875 40.9521 65.7627 40.9521 65.7627C40.9521 65.7627 40.4152 64.8923 39.3413 65.2258C38.2674 65.5592 30.0265 67.7693 29.8286 67.9049C29.6251 68.0349 28.6191 68.5719 29.0882 69.708C29.5573 70.8441 31.2304 76.208 31.2304 76.208C31.2304 76.208 27.2117 73.998 26.7425 75.801C26.2677 77.6097 28.3478 77.881 29.823 78.418C31.2982 78.9493 31.9765 79.7632 31.9765 79.7632ZM135.016 7.66948L136.977 14.3504C136.977 14.3504 137.328 13.6947 138.537 13.8417C139.741 13.9943 139.187 16.2552 139.187 16.2552C139.187 16.2552 140.646 14.7969 141.199 12.7904C141.748 10.7838 141.245 8.97513 139.888 5.90599C138.532 2.8425 133.71 0.937716 131.093 0.632497C128.482 0.332931 125.119 1.58772 123.61 2.79729C122.101 4.0012 118.585 5.55556 118.585 5.55556L119.891 7.51122L117.082 9.61948C118.89 11.5808 121.603 11.6317 121.603 11.6317C125.221 6.66339 135.016 7.66948 135.016 7.66948ZM114.216 85.6585L113.707 101.829C113.707 101.829 120.846 101.632 121.948 102.632C123.056 103.638 123.056 103.638 123.056 103.638L121.682 104.542C121.682 104.542 120.648 108.425 121.948 109.092L123.056 109.262L122.253 111.071C122.253 111.071 125.871 111.172 127.176 113.484C128.482 115.79 127.713 120.278 122.417 120.346L121.01 120.612C121.01 120.612 123.587 122.986 123.825 124.562C124.056 126.134 121.208 128.915 121.208 128.915L128.279 129.248L129.381 116.293L130.387 129.248L145.563 128.949L143.754 85.8563L114.216 85.6585Z" fill="black"/>
<path d="M127.713 115.988C127.849 119.408 122.423 120.34 122.423 120.34C122.423 120.34 107.546 120.143 102.855 120.21C98.1693 120.278 98.9719 118.803 99.0398 118.13C99.1076 117.463 99.978 117.933 100.447 117.26C100.916 116.593 100.781 115.451 100.583 114.649C100.379 113.846 99.978 113.575 99.1698 113.513C98.3671 113.445 99.5089 111.902 99.5089 111.902C100.713 110.698 123.892 111.365 123.892 111.365C123.892 111.365 127.583 112.58 127.713 115.988ZM114.719 67.2324C112.91 66.1755 112.961 64.0163 112.407 62.3094C111.853 60.6024 113.006 57.1376 113.006 57.1376C113.006 57.1376 111.152 55.7302 109.191 55.7811C107.23 55.8319 106.676 58.4885 106.676 58.4885C105.116 64.3668 108.083 68.3855 108.083 68.3855L114.719 67.2324ZM75.3232 70.929L69.7953 83.3525C69.7953 83.3525 67.7831 83.9516 61.4527 84.2512C55.1222 84.5564 43.2978 86.7268 43.2978 86.7268C43.2978 86.7268 44.1683 91.1808 35.4582 92.6221C26.7482 94.0634 23.9334 88.4734 23.9334 88.4734C23.9334 88.4734 21.7573 88.5751 19.649 89.779C17.5351 90.9829 15.0199 96.1038 13.1151 99.0147C11.2047 101.931 4.37116 118.198 4.37116 118.198C4.37116 118.198 3.16159 121.816 3.86811 125.032C4.56898 128.248 8.38987 128.847 12.2051 128.949C16.026 129.05 25.6743 126.434 25.6743 126.434C23.063 124.026 25.5386 118.063 25.5386 118.063L22.266 118.04L28.6247 117.791C28.6247 117.791 32.813 111.67 35.1247 109.556C37.4365 107.448 40.2456 108.25 41.8565 108.454C43.4617 108.657 44.4735 109.861 44.3039 110.63C44.1343 111.399 43.0661 110.963 40.2852 110.432C37.5043 109.895 38.0074 110.963 38.0074 110.963C41.1895 111.269 42.2239 114.581 42.2239 114.581C42.2239 114.581 43.6652 113.982 44.2361 115.118C44.8013 116.254 43.2639 116.695 41.0539 117.797C38.8382 118.905 37.7361 119.408 35.6221 120.911C33.5139 122.42 34.52 122.618 33.5139 124.122C32.5078 125.631 29.3934 125.128 27.1834 126.032C24.9734 126.937 13.6181 129.446 13.6181 129.446L35.2265 129.248C35.2265 129.248 35.2265 128.039 35.3282 126.332C35.4243 124.63 36.7356 124.122 36.7356 124.122L45.8809 123.619L49.6 113.976L52.1152 98.1104C52.1152 98.1104 61.4583 96.3017 64.974 95.9004C68.4953 95.499 75.5266 92.9895 77.2392 92.0851C78.9462 91.1808 80.0484 85.6586 80.0484 85.6586L82.4619 73.1051C77.7366 74.6142 75.3232 70.929 75.3232 70.929ZM133.812 57.132C133.812 57.132 128.386 61.8572 131.195 68.2837L135.621 69.7929C135.621 69.7929 133.507 62.2585 136.825 58.4433L133.812 57.132ZM138.436 28.7579L134.965 25.1914L129.437 27.8027L127.832 26.4971C127.832 26.4971 125.718 28.8597 123.61 28.9614C123.61 28.9614 124.412 34.9358 125.119 35.4897C125.322 35.2354 129.341 28.3566 129.341 28.3566L131.449 36.4958C131.449 36.4958 138.034 33.0253 138.436 28.7579Z" fill="#34C759"/>
<path d="M159.19 128.887H146.06C145.913 125.388 144.85 100.281 144.602 92.7351C144.376 85.8055 142.691 75.3263 142.188 72.3307C143.251 72.5907 144.263 72.7207 145.218 72.7207C147.14 72.7207 148.835 72.195 150.277 71.1437C154.747 67.8993 155.855 60.4271 155.991 54.7297C156.149 48.2523 155.833 36.7897 151.955 32.7766C148.174 28.8653 140.012 28.1531 138.774 28.2888C138.192 27.9496 136.248 26.7344 135.49 25.1292V21.6927C135.869 21.2122 137.028 19.6918 137.497 18.4935C137.853 18.4031 138.401 18.1827 138.848 17.6683C139.034 17.4479 139.176 17.1992 139.289 16.9222C142.267 14.2826 142.816 9.4161 140.515 6.05305C138.978 3.80913 136.96 2.4526 135.191 1.41825C130.72 -1.19872 126.063 0.236939 123.434 2.26042C120.936 4.18217 118.104 5.07522 118.076 5.08652C117.895 5.13739 117.765 5.27869 117.714 5.45391C117.663 5.62913 117.709 5.82131 117.833 5.95696L119.269 7.55653C118.856 7.92957 117.759 8.54566 116.623 9.0148C116.459 9.08262 116.341 9.22393 116.301 9.4048C116.267 9.58002 116.318 9.76088 116.443 9.89089C118.415 11.9313 120.218 12.2761 121.151 12.2987C121.179 12.4909 121.224 12.7113 121.281 12.9657C121.309 13.1013 121.332 13.22 121.343 13.2879C121.416 13.8418 121.507 14.4918 121.62 15.1531C121.869 16.6113 122.174 17.7587 122.575 18.7705C122.728 19.1548 122.903 19.5222 123.095 19.8727C124.141 21.7718 125.627 22.9475 127.436 23.2979L127.323 26.3388C126.826 26.7627 125.254 28.0288 123.734 28.334C123.429 28.3962 122.937 28.4414 122.366 28.4979C119.331 28.7918 113.012 29.4079 110.751 34.3988C108.043 40.3901 103.064 52.7741 101.747 57.7876C100.752 61.5632 101.08 64.8528 102.651 66.8028C103.782 68.2102 105.489 68.9167 107.727 68.9167C107.879 68.9167 108.032 68.9167 108.19 68.9054C110.05 68.8263 112.079 68.5493 114.035 68.182L113.13 101.79H98.5194C95.7781 101.79 93.5455 104.023 93.5455 106.764C93.5455 109.511 95.7781 111.738 98.5194 111.738H98.9038C98.5703 112.167 98.3668 112.699 98.3668 113.286C98.3668 113.58 98.6099 113.823 98.9094 113.823H99.6668C99.9155 114.366 100.266 115.304 100.153 115.909C100.046 116.491 99.8025 117.107 99.616 117.514H98.7681C98.4686 117.514 98.2312 117.757 98.2312 118.057C98.2312 118.758 98.5081 119.396 98.949 119.871H96.999C95.6086 119.871 94.4781 121.002 94.4781 122.392C94.4781 122.686 94.7155 122.929 95.0151 122.929H95.7725C96.0268 123.472 96.3716 124.41 96.2586 125.015C96.1512 125.597 95.9081 126.213 95.7272 126.62H94.8738C94.5798 126.62 94.3368 126.863 94.3368 127.163C94.3368 127.807 94.5686 128.406 94.9585 128.87H82.5011V126.253C82.6029 126.253 82.7046 126.253 82.8007 126.253C83.722 126.253 84.5585 125.676 84.8863 124.811L92.1607 105.486C92.4151 104.803 92.3246 104.034 91.9064 103.435C91.4938 102.83 90.8042 102.474 90.0751 102.474H55.1615C54.2515 102.474 53.4375 103.016 53.0984 103.859L50.7471 109.641L52.5615 98.5908C54.2119 98.3138 66.3924 96.2225 69.8063 95.5386C73.322 94.8377 77.1202 93.7073 78.6915 90.6381C79.8276 88.4281 81.902 79.6333 83.1398 74.3824C83.4733 72.975 83.7389 71.8559 83.8916 71.2398C84.1685 70.1602 84.5133 69.3407 84.8242 68.6172C85.3159 67.4472 85.7398 66.4411 85.5081 65.0619C85.4403 64.6267 85.3555 64.2424 85.2707 63.8693C84.9824 62.5185 84.7281 61.3485 85.2368 58.7598C85.915 55.3006 85.8868 53.6049 83.9707 52.0676C82.5124 50.9032 80.6981 49.4506 79.3415 50.9993C78.6802 51.751 77.6402 54.4415 76.9733 56.2954C76.9563 56.1428 76.945 55.9845 76.9394 55.815C76.9224 55.4476 76.9846 54.888 77.0524 54.2945C77.2163 52.8702 77.3689 51.5249 76.7641 50.8862C76.5437 50.6489 76.2498 50.5358 75.905 50.5528C74.2037 50.6376 73.8533 52.791 73.452 55.295L73.3898 55.6906C73.1072 57.4089 73.548 59.065 74.0059 60.8172C74.2489 61.7385 74.5033 62.688 74.6615 63.6941C74.6615 63.6998 74.6615 63.6998 74.6615 63.7111C74.7859 64.4911 74.9272 65.1976 75.0459 65.8137C75.3737 67.4754 75.6167 68.6737 75.2324 69.5554C74.7633 70.6463 71.3719 79.1133 69.7893 83.0529C69.2128 83.1829 66.9406 83.6294 61.6445 83.799C55.5402 83.9855 46.5758 85.1385 41.2345 86.4216C40.2962 86.6477 39.6688 86.5742 39.3636 86.2068C38.6853 85.3816 39.3353 83.0698 39.9458 81.6568C41.291 81.1764 47.644 78.5029 45.694 71.9294C44.7388 68.7133 42.9866 66.7859 41.6245 65.7119C41.6414 65.6837 41.6584 65.6554 41.664 65.6272C42.2123 63.9993 42.5514 60.6532 39.9458 59.6302C37.2384 58.5676 26.8214 58.138 23.4866 64.915C23.0627 65.7741 22.7461 66.6954 22.537 67.645C21.6722 67.7241 19.2079 68.0915 17.7213 69.8833C16.7265 71.0815 16.3874 72.6641 16.7039 74.5802C16.9639 76.1346 17.6761 77.2763 18.8235 77.9603C19.7561 78.5198 20.8413 78.695 21.8305 78.695C22.9779 78.695 24.0009 78.4576 24.5096 78.3163C24.6566 78.5368 24.8092 78.7459 24.9618 78.9437C25.9001 80.125 27.234 80.8316 28.5283 81.5155C30.4727 82.5498 32.157 83.4485 32.2983 85.749C32.0666 86.3707 31.7331 86.8794 31.2527 87.1168C30.4331 87.5294 28.7092 87.6368 26.8779 87.7555C23.8087 87.9533 20.3213 88.1738 18.3544 89.8073C15.1835 92.4355 5.70477 113.49 4.3539 116.966C3.20085 119.933 2.6978 124.082 4.16737 126.643C4.79477 127.728 5.71607 128.474 6.90869 128.87H0.80997C0.499099 128.87 0.244751 129.118 0.244751 129.435C0.244751 129.746 0.493447 130 0.80997 130H159.19C159.495 130 159.755 129.746 159.755 129.435C159.755 129.118 159.495 128.887 159.19 128.887ZM138.04 29.1196C136.525 33.0084 133.066 35.0601 131.703 35.744L129.946 28.4866L134.722 25.9883C135.615 27.5257 137.265 28.6562 138.04 29.1196ZM127.803 27.3505L128.663 28.2888C128.013 29.4814 126.102 32.9744 125.186 34.6645C124.542 32.9405 124.406 30.3066 124.378 29.2949C125.814 28.8766 127.153 27.8875 127.803 27.3505ZM120.467 7.64696C120.512 7.47175 120.467 7.29088 120.348 7.15522L119.173 5.84957C120.241 5.43696 122.225 4.55522 124.09 3.12521C126.458 1.3052 130.641 0.0108519 134.648 2.35651C137.011 3.73565 138.497 5.02435 139.622 6.66914C141.357 9.19567 141.239 12.6944 139.515 15.0796C139.515 15.0626 139.515 15.0457 139.509 15.0344C139.475 14.6444 139.362 13.4744 138.497 13.22C138.006 13.0787 137.508 13.3161 137.118 13.627L135.479 7.18348C135.417 6.94609 135.213 6.78218 134.965 6.77653C134.53 6.76522 124.378 6.5674 121.371 11.2305C120.868 11.2587 119.478 11.1796 117.788 9.69871C118.924 9.16741 120.28 8.39871 120.467 7.64696ZM124.033 19.364C123.864 19.0531 123.706 18.7253 123.576 18.3805C123.203 17.4422 122.914 16.3626 122.677 14.9722C122.564 14.3335 122.479 13.6948 122.411 13.1579C122.4 13.0674 122.366 12.9205 122.332 12.7452C122.287 12.5531 122.196 12.1122 122.196 11.937C124.452 8.14436 132.613 7.86175 134.535 7.85044L136.304 14.8139C136.355 15.0118 136.519 15.1644 136.723 15.2096C136.92 15.2492 137.13 15.1757 137.26 15.0118C137.565 14.6161 138.051 14.2431 138.192 14.2544C138.192 14.2544 138.367 14.39 138.441 15.1305C138.514 15.9387 138.379 16.5548 138.04 16.9618C137.644 17.4366 137.084 17.4874 137.067 17.4874C136.841 17.5044 136.649 17.657 136.581 17.8774C136.282 18.8892 135.004 20.6018 134.541 21.1727C134.462 21.2687 134.417 21.3874 134.417 21.5118V24.937L129.448 27.537L128.403 26.4009L128.527 22.874C128.538 22.5914 128.329 22.3483 128.046 22.3201C125.944 22.0883 124.706 20.5905 124.033 19.364ZM103.476 66.1415C102.131 64.4572 101.871 61.5237 102.776 58.0758C104.081 53.1189 109.027 40.814 111.723 34.8566C113.729 30.4366 119.404 29.8827 122.462 29.5831C122.773 29.5492 123.056 29.5266 123.299 29.4983C123.344 30.9284 123.581 34.4384 124.717 36.1397C124.825 36.2979 125 36.3827 125.203 36.3771C125.39 36.3658 125.565 36.2471 125.65 36.0775C125.74 35.8966 127.583 32.511 129.126 29.6849L130.805 36.6314C130.844 36.784 130.946 36.9084 131.082 36.9818C131.161 37.0214 131.246 37.044 131.33 37.044C131.393 37.044 131.46 37.0327 131.523 37.0101C131.754 36.9197 137.073 34.7888 139.097 29.3514C140.594 29.3005 147.812 30.0523 151.17 33.534C153.809 36.2584 155.171 43.9736 154.906 54.7071C154.719 62.4111 152.848 67.9389 149.638 70.2733C147.58 71.7654 144.896 72.0368 141.663 71.0759C139.588 70.4541 137.768 69.9059 136.152 69.4085C136.146 69.3633 136.14 69.318 136.129 69.2785C135.225 66.5767 135.146 63.9711 135.897 61.5406C136.316 60.1785 136.892 59.2571 137.158 58.8728C137.955 59.0763 138.458 59.1271 138.503 59.1328C138.52 59.1328 138.537 59.1384 138.56 59.1384H139.916C140.148 59.7376 140.702 60.8511 141.804 61.4954C142.686 62.0041 143.72 62.1058 144.867 61.8006C146.388 61.388 147.507 60.3311 148.027 58.8163C148.637 57.0019 148.293 54.7919 147.162 53.3167C146.439 52.3671 145.399 51.5532 144.404 50.9258L144.997 50.7619C145.625 51.2989 147.417 52.8193 148.434 53.5484C149.129 54.0515 149.847 54.108 150.344 53.701C150.944 53.2093 151.006 52.2258 150.508 51.1406C150.084 50.2193 148.406 47.1558 144.551 46.4832C144.251 46.4323 143.974 46.3984 143.709 46.3814C144.562 45.6354 145.551 44.8893 146.088 44.7988C146.382 44.748 146.58 44.471 146.529 44.1771C146.478 43.8832 146.201 43.6853 145.907 43.7362C144.63 43.9454 142.527 45.9688 142.036 46.4606C140.255 46.7997 139.193 47.9358 138.164 49.0549C136.836 50.5019 133.721 54.6336 132.772 55.8997C129.233 54.2041 118.732 51.9432 115.227 51.7736C113.628 47.1049 115.222 39.2371 115.239 39.1523C115.301 38.864 115.114 38.5758 114.82 38.5136C114.526 38.4571 114.244 38.6436 114.182 38.9375C114.114 39.271 112.576 46.8788 114.114 51.8358C112.808 52.0958 111.836 53.068 111.344 54.645C111.237 54.9954 111.22 55.3571 111.282 55.7076L110.208 55.3571C109.016 54.9671 107.704 55.4702 107.083 56.5441C105.862 58.6693 104.33 62.8745 107.167 67.8146C105.551 67.7241 104.302 67.1646 103.476 66.1415ZM114.945 66.9102C111.74 63.7959 112.814 59.5963 113.294 58.2115C114.719 59.4493 116.878 61.2071 119.772 63.2024C120.727 63.8637 121.62 64.4459 122.502 64.9828C121.253 65.3615 118.274 66.2263 114.945 66.9102ZM108.439 67.8259C105.438 63.1119 106.885 59.0876 108.026 57.0924C108.388 56.4593 109.174 56.1597 109.88 56.3915L112.073 57.1093C112.181 57.2111 112.299 57.3241 112.429 57.4428C112.102 58.2737 110.344 63.3041 113.69 67.1533C111.921 67.4811 110.106 67.7354 108.439 67.8259ZM120.388 62.315C116.448 59.5906 113.899 57.341 112.729 56.2389C112.384 55.9167 112.249 55.4193 112.384 54.9784C112.825 53.5654 113.656 52.8532 114.854 52.8532C117.856 52.8532 129.714 55.3967 132.676 57.0697C132.783 57.1319 132.89 57.1884 132.998 57.245C131.545 58.3302 128.487 61.4332 130.2 67.4302C126.193 65.9606 123.711 64.6098 120.388 62.315ZM144.37 47.5515C147.705 48.1336 149.163 50.7958 149.53 51.5984C149.881 52.3502 149.768 52.7854 149.66 52.8702C149.604 52.921 149.389 52.9097 149.067 52.678C147.897 51.8302 145.512 49.7784 145.484 49.7615C145.348 49.6428 145.161 49.6032 144.986 49.6484L143.313 50.1175C143.251 50.1345 143.2 50.1628 143.149 50.1967C142.222 49.7049 141.516 49.4223 141.448 49.3997C141.165 49.2923 140.854 49.428 140.747 49.7049C140.64 49.9819 140.775 50.2984 141.052 50.4058C141.086 50.4171 144.687 51.8528 146.314 53.978C146.998 54.8767 147.332 56.1541 147.23 57.3524C146.75 56.578 145.97 55.4928 144.839 54.3963C142.753 52.3841 139.453 51.491 139.311 51.4515C139.023 51.378 138.729 51.5476 138.65 51.8302C138.577 52.1184 138.746 52.418 139.034 52.4915C139.063 52.4971 142.211 53.3506 144.087 55.1706C145.902 56.9228 146.761 58.6919 146.846 58.8671C146.687 59.2063 146.467 59.5511 146.15 59.8676C145.794 59.2628 145.054 58.1832 143.697 56.8719C141.612 54.8541 138.311 53.961 138.17 53.9215C137.881 53.848 137.587 54.0232 137.508 54.3058C137.435 54.5941 137.604 54.888 137.893 54.9615C137.921 54.9728 141.063 55.8263 142.946 57.6406C144.291 58.935 144.98 59.9863 145.263 60.4893C145.06 60.5911 144.839 60.6815 144.59 60.7493C143.726 60.9811 142.98 60.9189 142.358 60.5628C141.227 59.9071 140.837 58.4715 140.832 58.4602C140.77 58.2228 140.555 58.0532 140.312 58.0532H138.599C138.35 58.025 136.282 57.7254 133.744 56.4084C134.79 55.0237 137.729 51.1293 138.967 49.7897C140.532 48.0941 141.634 47.0767 144.37 47.5515ZM131.472 67.888C129.098 60.9358 133.416 58.1832 134.106 57.7989C134.823 58.1267 135.49 58.3754 136.078 58.5676C135.202 59.9354 133.36 63.6715 134.925 69.0241C133.648 68.6228 132.506 68.2498 131.472 67.888ZM123.457 65.8193C123.547 65.7911 123.621 65.7346 123.683 65.6724C127.662 67.8937 131.879 69.2898 141.041 72.0198C141.278 73.4215 142.228 79.1585 142.895 84.9859H114.651L115.109 67.9898C119.478 67.0967 123.225 65.8928 123.457 65.8193ZM94.6081 106.786C94.6081 104.633 96.3546 102.892 98.5081 102.892H101.606C101.481 103.028 101.362 103.175 101.244 103.344C100.628 104.277 100.029 105.961 100.712 108.686C100.769 108.934 100.989 109.098 101.232 109.098C101.278 109.098 101.317 109.093 101.362 109.081C101.651 109.013 101.832 108.714 101.758 108.431C100.673 104.079 103.166 102.971 103.279 102.92C103.301 102.915 103.318 102.903 103.335 102.892H120.891C121.49 102.892 122.01 103.265 122.225 103.791H105.432C103.759 103.791 102.397 105.153 102.397 106.826C102.397 108.493 103.759 109.856 105.432 109.856H121.914C122.078 109.856 122.23 109.776 122.332 109.646H122.372C122.151 110.251 121.569 110.686 120.891 110.686H98.5081C96.3546 110.681 94.6081 108.934 94.6081 106.786ZM120.563 107.159C120.67 107.736 120.88 108.318 121.066 108.77H105.432C104.352 108.77 103.476 107.894 103.476 106.82C103.476 105.746 104.352 104.87 105.432 104.87H120.936C120.687 105.503 120.422 106.408 120.563 107.159ZM99.4294 118.616C99.5312 118.741 99.6838 118.82 99.8477 118.82H116.329C118.003 118.82 119.365 117.463 119.365 115.79C119.365 114.123 118.003 112.761 116.329 112.761H99.5368C99.7516 112.235 100.272 111.862 100.871 111.862H118.432C118.449 111.873 118.46 111.885 118.483 111.89C118.59 111.936 121.094 113.043 120.003 117.396C119.93 117.684 120.111 117.978 120.399 118.051C120.439 118.063 120.49 118.068 120.529 118.068C120.772 118.068 120.993 117.899 121.055 117.656C121.818 114.592 120.993 112.817 120.145 111.856H123.253C125.401 111.856 127.153 113.603 127.153 115.751C127.153 117.899 125.407 119.645 123.253 119.645H100.871C100.192 119.645 99.6103 119.216 99.3899 118.611H99.4294V118.616ZM100.831 113.84H116.329C117.409 113.84 118.285 114.716 118.285 115.79C118.285 116.87 117.409 117.74 116.329 117.74H100.696C100.882 117.294 101.091 116.706 101.199 116.13C101.34 115.378 101.08 114.479 100.831 113.84ZM96.9877 120.973H114.549C114.566 120.985 114.583 120.99 114.6 121.002C114.707 121.041 117.211 122.155 116.12 126.513C116.053 126.801 116.228 127.095 116.516 127.168C116.556 127.174 116.606 127.18 116.646 127.18C116.889 127.18 117.109 127.016 117.172 126.767C117.935 123.709 117.109 121.929 116.262 120.973H119.376C121.524 120.973 123.27 122.714 123.27 124.868C123.27 127.016 121.524 128.762 119.376 128.762H96.9877C96.3094 128.762 95.7272 128.327 95.5125 127.722H95.552C95.6481 127.847 95.8007 127.931 95.9646 127.931H112.452C114.119 127.931 115.482 126.569 115.482 124.896C115.482 123.229 114.119 121.866 112.452 121.866H95.6594C95.8686 121.341 96.3829 120.973 96.9877 120.973ZM96.9425 122.946H112.452C113.526 122.946 114.402 123.822 114.402 124.896C114.402 125.976 113.526 126.846 112.452 126.846H96.8125C96.999 126.4 97.2081 125.812 97.3155 125.235C97.4568 124.483 97.1968 123.585 96.9425 122.946ZM124.35 124.868C124.35 123.144 123.474 121.629 122.14 120.736H123.259C126.006 120.736 128.239 118.503 128.239 115.762C128.239 113.015 126.006 110.788 123.259 110.788H122.943C123.316 110.33 123.542 109.743 123.542 109.104C123.542 108.804 123.304 108.567 123.005 108.567H122.157C121.976 108.149 121.739 107.538 121.626 106.962C121.507 106.346 121.863 105.413 122.112 104.87H122.869C123.169 104.87 123.406 104.633 123.406 104.333C123.406 102.943 122.276 101.813 120.885 101.813H114.193L114.617 86.0655H143.013C143.262 88.4225 143.454 90.7568 143.517 92.7747C143.765 100.292 144.817 125.23 144.975 128.892H130.906C130.579 124.964 128.499 100.117 128.239 99.0542C127.939 97.8673 125.684 96.036 125.232 95.6855C125 95.499 124.661 95.5386 124.474 95.776C124.288 96.0077 124.327 96.3468 124.565 96.5334C125.56 97.319 127.035 98.7095 127.187 99.3199C127.306 99.8229 127.888 106.221 128.538 113.756C128.527 113.795 128.516 113.84 128.516 113.88L127.47 128.892H122.281C123.536 127.982 124.35 126.518 124.35 124.868ZM129.827 128.887H128.555L129.132 120.606C129.375 123.489 129.618 126.326 129.827 128.887ZM81.4159 128.887H35.5823C35.5823 128.87 35.5879 128.858 35.5879 128.847V126.145C35.5879 125.23 36.3284 124.489 37.244 124.489H45.1966C45.2588 124.721 45.3549 124.947 45.4906 125.156C45.8975 125.767 46.5758 126.14 47.3106 126.151C54.2119 126.247 73.678 126.27 81.4159 126.275V128.887ZM54.0875 104.288C54.2684 103.853 54.6867 103.576 55.1502 103.576H90.0694C90.4481 103.576 90.7985 103.751 91.0133 104.068C91.2281 104.379 91.279 104.763 91.1433 105.119L83.8689 124.45C83.6994 124.896 83.2698 125.19 82.795 125.19C76.3289 125.184 54.6754 125.173 47.3275 125.066C46.9432 125.06 46.5984 124.879 46.3893 124.557C46.1745 124.235 46.1349 123.845 46.2819 123.489L49.8597 114.688C49.9049 114.62 49.9332 114.553 49.9445 114.473V114.468L54.0875 104.288ZM84.1742 58.5676C83.6202 61.3824 83.9085 62.7106 84.2137 64.118C84.2929 64.4741 84.372 64.8528 84.4398 65.2598C84.6207 66.328 84.3042 67.0798 83.8181 68.2159C83.5016 68.9733 83.1342 69.8381 82.8402 70.9967C82.7329 71.4094 82.5802 72.0481 82.3937 72.8394C78.4428 73.8342 76.0859 71.1437 75.8598 70.8781C76.0294 70.4598 76.1594 70.1546 76.2215 70.002C76.7359 68.8093 76.4702 67.4754 76.1028 65.6272C75.9898 65.0337 75.8598 64.3667 75.7411 63.6432C76.3063 61.1054 77.6798 57.6745 78.9968 57.7706C79.1211 57.7819 79.3359 57.8158 79.4037 57.9176C79.5959 58.2115 79.2568 59.1837 79.025 59.828C78.6576 60.868 78.3072 61.8515 78.8215 62.4958C78.9968 62.7106 79.2059 62.8915 79.432 63.0893C80.2855 63.8241 81.4611 64.8359 80.9185 69.3237C80.8846 69.6176 81.0937 69.8889 81.3876 69.9228C81.4102 69.9285 81.4329 69.9285 81.4555 69.9285C81.7268 69.9285 81.9585 69.725 81.9924 69.4537C82.6029 64.395 81.1163 63.1176 80.1385 62.2698C79.9463 62.1059 79.7824 61.9645 79.6694 61.8176C79.5337 61.6311 79.8785 60.6589 80.0481 60.1898C80.4155 59.1554 80.7942 58.0758 80.3194 57.3354C80.1781 57.1206 79.9802 56.968 79.7372 56.8606C80.3589 54.9954 81.3537 52.6441 82.0942 52.028C82.3542 52.2089 82.6594 52.4293 82.9985 52.6949C82.5576 53.9102 81.2689 57.7537 81.6307 59.7432C81.6759 60.0032 81.9076 60.1841 82.162 60.1841C82.1959 60.1841 82.2242 60.1841 82.2581 60.1785C82.552 60.1276 82.7498 59.845 82.6933 59.5511C82.4333 58.1211 83.2924 55.1537 83.8689 53.4749C84.7168 54.4471 84.745 55.651 84.1742 58.5676ZM80.1498 51.7341C80.3985 51.4571 80.6811 51.3667 81.105 51.5023C79.9915 52.791 79.0137 55.5606 78.6407 56.7193C78.375 56.7589 78.1207 56.8606 77.8663 57.0132C78.6294 54.8823 79.6411 52.3106 80.1498 51.7341ZM74.4524 55.8828L74.5146 55.4815C74.8311 53.5315 75.125 51.6889 75.9728 51.6436C76.2385 51.881 76.0633 53.441 75.9785 54.1928C75.905 54.8258 75.8372 55.4306 75.8598 55.8828C75.9333 57.3637 76.3459 58.4263 76.3685 58.4715C76.3854 58.5224 76.4194 58.5732 76.4589 58.6184C76.1989 59.0537 75.9502 59.568 75.7128 60.1502C75.5433 60.5685 75.3963 60.9867 75.2663 61.3767C75.1928 61.0998 75.125 60.8285 75.0515 60.5571C74.5993 58.8558 74.2037 57.375 74.4524 55.8828ZM19.3774 77.0502C18.5126 76.5359 17.9757 75.6542 17.7722 74.422C17.5009 72.8281 17.7665 71.5394 18.5522 70.5898C19.6261 69.2841 21.4405 68.8941 22.3392 68.7754C22.0622 70.8668 22.277 73.0768 22.9892 75.1963C23.2605 75.982 23.5714 76.7111 23.9218 77.3668C22.9327 77.6042 20.8526 77.9376 19.3774 77.0502ZM29.0314 80.5829C27.8331 79.9498 26.6009 79.2998 25.8096 78.2937C25.0748 77.3668 24.4757 76.2081 24.0179 74.8515C22.9327 71.6298 23.0909 68.1876 24.4587 65.4067C27.347 59.5285 36.8031 59.568 39.5501 60.6532C41.5284 61.4219 40.9292 64.2593 40.7088 65.0789C40.1662 64.7398 39.7988 64.5872 39.7536 64.5646C39.5614 64.4911 39.3466 64.525 39.194 64.6606C39.1375 64.7002 38.5666 65.0902 35.961 65.9606C34.627 66.4072 33.3157 66.605 32.157 66.7802C30.6931 67.0006 29.5344 67.1815 28.9183 67.792C28.0875 68.6285 29.1557 72.0141 30.4162 75.1794L29.7662 74.812C29.0427 74.405 28.1835 74.3428 27.4714 74.6424C26.4822 75.055 26.0753 75.9368 26.3522 77.0559C26.7875 78.7798 28.2401 78.9042 29.3083 78.989C29.8453 79.0342 30.354 79.0794 30.6988 79.2772C31.6427 79.8311 32.4849 80.8711 32.7562 81.2159C32.7957 81.7755 32.8183 82.6177 32.7449 83.4994C31.9309 82.1146 30.4614 81.3403 29.0314 80.5829ZM26.9514 88.852C28.9748 88.722 30.7214 88.6146 31.7331 88.1059C32.5018 87.7216 33.0049 86.9755 33.3214 86.1164C33.3496 86.0655 33.3666 86.0146 33.3779 85.9638C34.0675 83.9572 33.8527 81.3742 33.8131 80.9672C33.8018 80.8711 33.7679 80.7863 33.717 80.7072C33.6662 80.6394 32.5866 79.1359 31.2414 78.3503C30.6875 78.0281 30.0318 77.9716 29.3988 77.9207C28.2796 77.8246 27.6353 77.7285 27.4035 76.8016C27.2114 76.0385 27.5392 75.7898 27.884 75.6485C28.2966 75.4733 28.7996 75.5185 29.2348 75.7616L31.2414 76.892C31.4449 76.9994 31.6936 76.9768 31.8688 76.8185C32.0383 76.6659 32.0949 76.4229 32.0044 76.2081C30.6592 73.0372 29.4157 69.222 29.6983 68.5493C30.0827 68.1933 31.1679 68.0294 32.3209 67.8541C33.457 67.6789 34.8757 67.4641 36.3001 66.9893C38.2331 66.345 39.1488 65.9324 39.584 65.6837C40.4431 66.1302 43.3653 67.922 44.654 72.2515C46.5079 78.5142 39.6801 80.6337 39.3862 80.7242C39.2392 80.7637 39.1149 80.8711 39.0527 81.0124C38.8549 81.442 37.1536 85.2403 38.5214 86.9077C39.1036 87.6199 40.104 87.8177 41.4775 87.4899C41.8449 87.4051 42.2236 87.3146 42.6192 87.2299C42.7097 87.6029 42.7945 88.3546 42.3592 89.1685C41.6697 90.4742 39.8892 91.4633 37.2157 92.0342C33.5927 92.8086 30.2522 92.4355 27.2905 90.932C26.0074 90.2764 25.0805 89.5416 24.5209 89.0329C25.3348 88.9594 26.1544 88.9029 26.9514 88.852ZM26.1488 118.39L27.6861 118.317C27.0644 119.396 26.6461 120.171 26.5953 120.267C26.4427 120.538 26.5444 120.883 26.8214 121.03C26.9061 121.075 26.9966 121.098 27.087 121.098C27.2848 121.098 27.4827 120.99 27.5844 120.804C27.624 120.725 31.8575 112.908 34.1579 111.014C36.5431 109.042 38.9849 108.375 41.4153 109.025C42.9245 109.432 43.5745 110.285 43.6197 110.562C43.5519 110.585 43.3823 110.613 43.0319 110.551C42.5175 110.449 42.0484 110.325 41.5905 110.206C40.1492 109.827 38.7871 109.46 37.261 110.477C37.2497 110.489 37.2384 110.5 37.2214 110.511C36.6336 110.387 36.221 110.342 36.1701 110.33C35.8592 110.302 35.5823 110.517 35.5483 110.828C35.5144 111.139 35.7349 111.416 36.0457 111.45C36.0797 111.455 39.5388 111.868 41.0027 113.383C41.4266 113.823 41.6301 114.31 41.6188 114.869C41.6188 114.976 41.6075 115.09 41.5849 115.197C41.2684 114.999 39.8779 114.146 38.5327 113.569C36.9614 112.896 34.1014 113.043 33.9827 113.055C33.6718 113.077 33.4344 113.343 33.4514 113.648C33.4683 113.959 33.7453 114.208 34.0449 114.185C34.0731 114.185 36.7636 114.044 38.0918 114.609C39.4992 115.214 41.0366 116.186 41.0536 116.197C41.1045 116.226 41.1553 116.248 41.2118 116.265C41.0423 116.565 40.8445 116.842 40.6353 117.09C40.1323 116.78 38.9227 116.067 37.7471 115.57C36.1757 114.897 33.3157 115.044 33.197 115.056C32.8862 115.073 32.6488 115.338 32.6657 115.649C32.6827 115.96 32.954 116.197 33.2592 116.18C34.011 116.141 36.1983 116.135 37.3062 116.61C38.1597 116.977 39.0584 117.475 39.6405 117.814C39.1205 118.029 38.6853 118.21 38.3349 118.368C38.2897 118.356 37.131 118.102 35.6501 117.938C34.1183 117.78 32.0157 118.142 31.9253 118.159C31.6201 118.21 31.4166 118.503 31.4675 118.809C31.524 119.114 31.8179 119.317 32.1175 119.266C32.1288 119.266 32.6205 119.182 33.2762 119.108C33.4909 119.679 33.994 121.29 33.5757 122.918C33.5757 122.923 33.5757 122.923 33.5757 122.929C32.8862 124.133 31.9253 124.376 29.8962 124.885C29.2518 125.043 28.517 125.23 27.6748 125.473C27.2453 125.603 26.6914 125.75 26.0414 125.919C24.1818 123.212 25.6796 119.419 26.1488 118.39ZM43.5292 115.225C43.6536 115.366 43.6592 115.519 43.6479 115.621C43.6253 115.796 43.5236 115.954 43.3653 116.062C43.0714 116.26 42.6871 116.463 42.2575 116.672C42.5005 116.197 42.6927 115.649 42.7323 115.05C43.1053 114.993 43.371 115.05 43.5292 115.225ZM34.8418 121.081C34.7853 120.227 34.5988 119.498 34.4405 119.018C34.8136 119.006 35.1866 119.012 35.5257 119.052C36.0457 119.108 36.5262 119.176 36.9331 119.238C36.3284 119.69 35.5653 120.273 34.8418 121.081ZM27.9744 126.501C28.794 126.264 29.5118 126.083 30.1505 125.925C32.2192 125.41 33.5983 125.06 34.5196 123.432C34.5818 123.364 34.6383 123.285 34.661 123.189C34.661 123.183 34.661 123.183 34.661 123.183C35.5031 121.652 36.7523 120.719 37.6679 120.041C37.8318 119.922 37.9844 119.809 38.1144 119.702C38.4197 119.464 39.4088 119.063 40.364 118.662C41.6471 118.142 43.1053 117.543 43.9701 116.955C44.3827 116.678 44.654 116.243 44.7162 115.762C44.7784 115.304 44.6427 114.863 44.3432 114.513C44.0549 114.185 43.5292 113.846 42.6249 113.97C42.4779 113.467 42.2066 113.004 41.8053 112.591C41.0705 111.834 39.9853 111.319 38.9623 110.969C39.6631 110.856 40.3753 111.043 41.2966 111.291C41.7488 111.41 42.2632 111.546 42.8171 111.647C44.3375 111.936 44.654 111.11 44.7106 110.845C44.9593 109.771 43.5801 108.437 41.7036 107.934C38.9001 107.182 36.1192 107.923 33.4344 110.138C31.9536 111.359 29.8453 114.649 28.3588 117.147L18.9705 117.605L25.3914 103.893C25.5214 103.61 25.4027 103.276 25.1201 103.141C24.8374 103.011 24.504 103.129 24.3683 103.412L17.6987 117.661L11.4304 117.972C11.1196 117.983 10.8765 118.249 10.8935 118.56C10.9048 118.865 11.1535 119.097 11.453 119.097C11.4644 119.097 11.47 119.097 11.4813 119.097L18.0209 118.775C18.0322 118.775 18.0492 118.78 18.0605 118.78C18.0887 118.78 18.1113 118.775 18.1396 118.769L24.8883 118.441C24.2553 120.001 23.2379 123.398 24.877 126.179C20.2026 127.287 12.3574 128.734 8.07869 128.061C6.72216 127.852 5.71607 127.197 5.09998 126.117C3.79998 123.862 4.29172 120.097 5.35433 117.367C6.87477 113.456 16.1331 93.046 19.0383 90.6494C19.9992 89.8525 21.4687 89.4399 23.0909 89.1968C23.6222 89.8016 27.1775 93.549 33.6266 93.549C34.8023 93.549 36.0797 93.4247 37.4475 93.1307C40.5223 92.4751 42.5175 91.3051 43.371 89.6603C43.9362 88.5694 43.8458 87.5577 43.7214 86.9981C49.0288 85.9355 56.4219 85.0538 61.6728 84.8842C65.8215 84.7598 68.1502 84.4603 69.3089 84.2624C69.1337 84.6977 69.0206 84.9746 68.9924 85.0481C68.8793 85.3251 69.015 85.6416 69.2919 85.749C69.5689 85.862 69.8854 85.7264 69.9985 85.4494C70.0437 85.3307 73.7063 76.1798 75.4133 71.9633C76.182 72.715 77.985 74.1337 80.6585 74.1337C81.122 74.1337 81.6081 74.0885 82.1111 73.9981C82.1055 74.0489 82.0885 74.0942 82.0772 74.1507C80.9298 79.0116 78.7933 88.0664 77.7194 90.1577C76.3572 92.8255 72.8472 93.8429 69.5859 94.4986C66.3641 95.1429 55.3254 97.0364 52.7367 97.4773L52.9628 96.0868C53.0136 95.7816 52.8045 95.4877 52.4993 95.4368C52.1884 95.3916 51.9001 95.5951 51.8493 95.906L48.8367 114.287C48.831 114.304 48.831 114.326 48.831 114.343L45.2814 123.082C45.2475 123.172 45.2192 123.263 45.191 123.353H37.244C35.7123 123.353 34.4631 124.602 34.4631 126.134V128.841C34.4631 128.853 34.4631 128.864 34.4631 128.881H16.2631C21.0166 128.265 25.9057 127.112 27.9744 126.501Z" fill="black"/>
<path d="M36.3116 71.042C35.9386 71.1833 35.8029 71.7372 36.0007 72.2911C36.2042 72.8394 36.6733 73.1785 37.0464 73.0428C37.4194 72.9072 37.5607 72.3476 37.3573 71.7994C37.1538 71.2454 36.6847 70.9063 36.3116 71.042Z" fill="black"/>
<path d="M41.014 69.3348C40.6353 69.4705 40.4996 70.03 40.7031 70.5783C40.9009 71.1322 41.3701 71.4714 41.7431 71.33C42.1218 71.1944 42.2575 70.6405 42.054 70.0866C41.8505 69.5383 41.387 69.1992 41.014 69.3348Z" fill="black"/>
<path d="M39.1268 73.9982C39.3133 74.0547 39.5055 74.0886 39.7033 74.0943C39.9125 74.0943 40.1216 74.0773 40.342 73.9869C40.5568 73.9077 40.7773 73.7608 40.9129 73.546C41.0542 73.3312 41.1107 73.0995 41.0599 72.8338C41.0486 72.7773 41.0203 72.7264 40.9751 72.6869C40.8677 72.5908 40.7038 72.6021 40.6134 72.7095L40.506 72.8338C40.4381 72.913 40.3647 73.0203 40.2968 73.0769C40.229 73.1447 40.1499 73.2012 40.0425 73.2464C39.9407 73.2917 39.8051 73.3199 39.6694 73.3482C39.596 73.3538 39.5225 73.3651 39.4433 73.3708C39.3642 73.3764 39.2907 73.3821 39.206 73.3934L39.1664 73.399C39.0533 73.416 38.9516 73.4951 38.9177 73.6138C38.8725 73.7834 38.9686 73.953 39.1268 73.9982Z" fill="black"/>
<path d="M38.3517 77.1294C38.5382 77.1972 38.7304 77.265 38.9339 77.3159C39.1374 77.3441 39.3408 77.395 39.55 77.395C39.9739 77.4289 40.4034 77.3441 40.8104 77.1972C41.2174 77.0502 41.5848 76.8072 41.8843 76.5133C42.1895 76.208 42.4269 75.8746 42.5965 75.462C42.6474 75.332 42.6078 75.1793 42.4891 75.0946C42.3535 74.9985 42.1613 75.0267 42.0652 75.168L42.0426 75.1963C41.8561 75.4563 41.613 75.7276 41.3587 75.9367C41.1043 76.1572 40.8217 76.338 40.5165 76.4567C40.2113 76.5754 39.8891 76.6602 39.55 76.6715C39.2108 76.6998 38.8604 76.6546 38.4987 76.615H38.4704C38.3517 76.598 38.233 76.6715 38.1934 76.7902C38.1369 76.9315 38.2104 77.0841 38.3517 77.1294Z" fill="black"/>
<path d="M39.4827 69.0355L39.5053 69.0073C39.6748 68.8377 39.8105 68.6738 39.9631 68.5381C40.1101 68.3968 40.2683 68.2894 40.4379 68.1933C40.6131 68.1029 40.8053 68.0351 41.0144 67.9842C41.2179 67.9333 41.4496 67.9051 41.6701 67.8825H41.704C41.7661 67.8712 41.8227 67.8373 41.8566 67.7807C41.9075 67.6846 41.8735 67.5716 41.7775 67.5207C41.5175 67.3794 41.2518 67.3229 40.9635 67.3116C40.6753 67.3003 40.3757 67.3568 40.1044 67.4755C39.8331 67.5942 39.5787 67.7864 39.3979 68.0181C39.2114 68.2499 39.0983 68.5155 39.0474 68.7868C39.0305 68.8716 39.0531 68.9564 39.1153 69.0242C39.217 69.1316 39.3809 69.1316 39.4827 69.0355Z" fill="black"/>
<path d="M34.8705 71.0137L34.8987 70.9854C35.0683 70.8159 35.1983 70.6519 35.3566 70.5219C35.4979 70.375 35.6618 70.2732 35.8314 70.1715C36.0009 70.0811 36.1931 70.0132 36.4022 69.9624C36.6057 69.9115 36.8431 69.8832 37.0635 69.8663L37.0918 69.8606C37.154 69.855 37.2105 69.8154 37.2444 69.7589C37.2953 69.6685 37.2614 69.5498 37.1653 69.4989C36.9053 69.3576 36.634 69.3011 36.3457 69.2898C36.0631 69.2785 35.7635 69.3406 35.4922 69.4593C35.2153 69.578 34.9666 69.7645 34.7857 69.9963C34.5992 70.228 34.4805 70.4993 34.4353 70.765C34.4183 70.8498 34.4409 70.9346 34.5031 71.0024C34.6048 71.1154 34.7687 71.1154 34.8705 71.0137Z" fill="black"/>
<path d="M130.838 12.8527C130.46 12.9092 130.222 13.4123 130.313 13.9718C130.398 14.5314 130.776 14.9384 131.155 14.8818C131.534 14.8253 131.771 14.3166 131.681 13.7627C131.602 13.1975 131.223 12.7905 130.838 12.8527Z" fill="black"/>
<path d="M125.73 13.5931C125.351 13.6497 125.113 14.1527 125.204 14.7123C125.289 15.2718 125.667 15.6788 126.046 15.6223C126.419 15.5657 126.662 15.0627 126.572 14.5031C126.487 13.9436 126.114 13.5366 125.73 13.5931Z" fill="black"/>
<path d="M127.776 17.1086C127.991 17.2217 128.251 17.2443 128.465 17.216C128.697 17.1877 128.884 17.103 129.053 17.0069C129.223 16.9108 129.37 16.7864 129.5 16.6564C129.579 16.5773 129.607 16.4473 129.556 16.3286C129.494 16.1817 129.319 16.1138 129.172 16.176L129.149 16.1873C129.002 16.2495 128.872 16.3117 128.742 16.3625C128.612 16.4021 128.488 16.4473 128.375 16.4473C128.262 16.4643 128.171 16.4473 128.081 16.4247C127.996 16.4077 127.883 16.3512 127.793 16.3117L127.64 16.2608C127.595 16.2438 127.533 16.2382 127.482 16.2551C127.352 16.3004 127.278 16.4417 127.324 16.566C127.403 16.826 127.555 16.9899 127.776 17.1086Z" fill="black"/>
<path d="M129.222 19.6578C129.629 19.5956 130.036 19.4656 130.375 19.2395C130.556 19.1434 130.703 19.0078 130.861 18.8834C131.008 18.7478 131.138 18.6008 131.268 18.4539C131.347 18.3691 131.358 18.2334 131.285 18.1317C131.206 18.0187 131.042 17.9904 130.929 18.0752L130.906 18.0865C130.618 18.29 130.347 18.4878 130.042 18.6234C129.748 18.7704 129.437 18.8495 129.12 18.8947C128.809 18.9343 128.487 18.9174 128.165 18.8495C127.854 18.7874 127.521 18.6687 127.244 18.5387L127.21 18.5217C127.085 18.4595 126.938 18.4878 126.854 18.6008C126.752 18.7308 126.769 18.9174 126.899 19.0134C127.238 19.2847 127.594 19.46 127.99 19.573C128.385 19.6917 128.804 19.72 129.222 19.6578Z" fill="black"/>
<path d="M126.249 12.4345C126.442 12.4684 126.628 12.5532 126.854 12.6153L126.888 12.6266C126.962 12.6436 127.046 12.6323 127.114 12.5758C127.227 12.4853 127.239 12.3271 127.148 12.2197C126.979 12.0105 126.758 11.8353 126.492 11.7336C126.232 11.6149 125.927 11.5753 125.645 11.6036C125.356 11.6262 125.079 11.7166 124.842 11.8636C124.605 12.0049 124.407 12.1801 124.249 12.4175C124.215 12.4684 124.209 12.5362 124.232 12.5927C124.271 12.6888 124.384 12.734 124.475 12.6945L124.509 12.6775C124.701 12.5927 124.91 12.5079 125.108 12.4514C125.305 12.3949 125.498 12.3666 125.69 12.3666C125.876 12.3666 126.057 12.3779 126.249 12.4345Z" fill="black"/>
<path d="M129.889 12.0895L129.917 12.0782C130.115 11.9934 130.319 11.903 130.522 11.8521C130.72 11.7956 130.912 11.7617 131.104 11.7617C131.291 11.7674 131.477 11.7787 131.664 11.8295C131.862 11.8691 132.048 11.9482 132.269 12.0104L132.303 12.0217C132.376 12.0443 132.466 12.0274 132.534 11.9708C132.642 11.8804 132.653 11.7221 132.563 11.6147C132.393 11.4113 132.173 11.236 131.907 11.1287C131.647 11.0156 131.342 10.976 131.059 10.9987C130.771 11.0269 130.494 11.1173 130.256 11.2587C130.019 11.4056 129.821 11.5752 129.663 11.8182C129.629 11.8691 129.623 11.9313 129.646 11.9934C129.686 12.0895 129.793 12.1291 129.889 12.0895Z" fill="black"/>
</svg>
