<svg width="57" height="30" viewBox="0 0 57 30" fill="none" xmlns="http://www.w3.org/2000/svg">
<rect width="57" height="30" rx="15" fill="#6E61FF"/>
<path d="M24.28 20H32.162V18.166H28.06L30.608 15.758C31.0187 15.3847 31.35 14.9693 31.602 14.512C31.854 14.0547 31.98 13.5647 31.98 13.042C31.98 12.6873 31.9053 12.3327 31.756 11.978C31.616 11.6233 31.3967 11.3013 31.098 11.012C30.8087 10.7133 30.44 10.4753 29.992 10.298C29.5533 10.1113 29.04 10.018 28.452 10.018C27.6587 10.018 26.9867 10.186 26.436 10.522C25.8947 10.8487 25.484 11.292 25.204 11.852C24.924 12.412 24.784 13.042 24.784 13.742H26.744C26.744 13.35 26.8093 13.0047 26.94 12.706C27.08 12.4073 27.2713 12.1787 27.514 12.02C27.766 11.852 28.0647 11.768 28.41 11.768C28.6527 11.768 28.8673 11.81 29.054 11.894C29.2407 11.9687 29.3993 12.0713 29.53 12.202C29.6607 12.3327 29.7587 12.482 29.824 12.65C29.8893 12.818 29.922 12.9907 29.922 13.168C29.922 13.42 29.8753 13.6627 29.782 13.896C29.6887 14.1293 29.5533 14.3627 29.376 14.596C29.1987 14.8293 28.984 15.0813 28.732 15.352L24.28 20Z" fill="white"/>
</svg>
