<svg width="57" height="30" viewBox="0 0 57 30" fill="none" xmlns="http://www.w3.org/2000/svg">
<rect width="57" height="30" rx="15" fill="#E5F33C"/>
<path d="M27.752 15.226C28.4893 15.226 29.1473 15.128 29.726 14.932C30.3047 14.736 30.762 14.4513 31.098 14.078C31.434 13.6953 31.602 13.238 31.602 12.706C31.602 12.2113 31.476 11.7633 31.224 11.362C30.972 10.9607 30.6033 10.6387 30.118 10.396C29.642 10.1533 29.0633 10.032 28.382 10.032C27.738 10.032 27.1733 10.158 26.688 10.41C26.2027 10.662 25.82 11.0073 25.54 11.446C25.2693 11.8753 25.134 12.37 25.134 12.93H26.996C26.996 12.566 27.1267 12.2673 27.388 12.034C27.6587 11.7913 27.99 11.67 28.382 11.67C28.662 11.67 28.8907 11.7167 29.068 11.81C29.2453 11.9033 29.3807 12.0387 29.474 12.216C29.5673 12.3933 29.614 12.5987 29.614 12.832C29.614 13.0187 29.5673 13.2007 29.474 13.378C29.39 13.546 29.2687 13.7 29.11 13.84C28.9513 13.9707 28.7553 14.0733 28.522 14.148C28.298 14.2227 28.0413 14.26 27.752 14.26V15.226ZM28.298 20.196C29.026 20.196 29.656 20.0793 30.188 19.846C30.7293 19.6033 31.1447 19.2673 31.434 18.838C31.7327 18.4087 31.882 17.914 31.882 17.354C31.882 16.8593 31.7793 16.4393 31.574 16.094C31.3687 15.7393 31.0793 15.45 30.706 15.226C30.3327 14.9927 29.894 14.8247 29.39 14.722C28.8953 14.6193 28.3493 14.568 27.752 14.568V15.632C28.0973 15.632 28.4007 15.6693 28.662 15.744C28.9327 15.8093 29.1567 15.9073 29.334 16.038C29.5207 16.1687 29.6607 16.332 29.754 16.528C29.8473 16.7147 29.894 16.92 29.894 17.144C29.894 17.452 29.8287 17.7087 29.698 17.914C29.5673 18.1193 29.3853 18.278 29.152 18.39C28.928 18.4927 28.662 18.544 28.354 18.544C28.0553 18.544 27.78 18.488 27.528 18.376C27.276 18.2547 27.0753 18.082 26.926 17.858C26.7767 17.634 26.702 17.3633 26.702 17.046H24.714C24.714 17.466 24.798 17.8673 24.966 18.25C25.134 18.6233 25.372 18.9593 25.68 19.258C25.988 19.5473 26.3613 19.776 26.8 19.944C27.2387 20.112 27.738 20.196 28.298 20.196Z" fill="black"/>
</svg>
