<svg width="138" height="130" viewBox="0 0 138 130" fill="none" xmlns="http://www.w3.org/2000/svg">
<path fill-rule="evenodd" clip-rule="evenodd" d="M44.9701 68.2203C44.9701 68.2203 44.7282 65.407 46.8926 64.9274C49.057 64.4478 51.5801 64.9274 51.5801 64.9274C51.5801 64.9274 47.4932 76.9665 47.2513 78.5828C47.0095 80.195 47.1909 81.9361 47.1909 81.9361L51.0964 84.7494L50.375 86.7848C50.375 86.7848 45.623 87.3854 45.1434 85.6482C44.6637 83.9111 44.962 73.194 44.962 73.194V68.2203H44.9701Z" fill="white"/>
<path fill-rule="evenodd" clip-rule="evenodd" d="M39.1987 0.310181H120.474V48.0959H39.1987V0.310181Z" fill="white"/>
<path fill-rule="evenodd" clip-rule="evenodd" d="M25.2532 14.4413C25.2532 14.4413 24.4713 14.5622 24.4713 15.7028C24.4713 16.8394 24.6526 19.0562 25.8537 19.5923C25.8537 19.5923 26.2729 19.5923 26.2729 20.3097C26.2729 21.0271 26.2729 21.0271 26.2729 21.0271C26.2729 21.0271 26.6356 21.2085 28.1954 20.0679C29.7593 18.9313 31.3836 20.2492 31.3836 20.2492C31.3836 20.2492 32.2824 17.0168 30.2994 14.4413C30.2994 14.4413 28.0786 15.461 25.2532 14.4413Z" fill="white"/>
<path fill-rule="evenodd" clip-rule="evenodd" d="M23.2539 23.3204L23.5078 21.0271C23.5078 21.0271 21.0411 20.221 21.5409 19.0078C22.0367 17.7946 24.197 18.246 24.334 19.4108C24.4711 20.5797 24.3784 23.3204 26.8571 24.7996L26.4501 26.5972C26.4541 26.6013 23.1168 25.4324 23.2539 23.3204Z" fill="white"/>
<path fill-rule="evenodd" clip-rule="evenodd" d="M21.4925 53.0093C21.4925 53.0093 29.4608 57.7411 31.8065 57.6766C34.1523 57.6161 35.833 56.2377 35.833 56.2377L39.9844 81.8717H21.2224L21.1015 60.4335L22.0325 61.0945C22.0325 61.0945 24.3461 58.8777 24.467 57.0519L21.3433 53.7872L21.4925 53.0093Z" fill="white"/>
<path fill-rule="evenodd" clip-rule="evenodd" d="M135.83 84.6284H2.25885C1.57367 84.6284 1.01746 84.0762 1.01746 83.3951C1.01746 82.7099 1.57367 82.1577 2.25885 82.1577H135.83C136.515 82.1577 137.071 82.7099 137.071 83.3951C137.071 84.0762 136.515 84.6284 135.83 84.6284Z" fill="white"/>
<path fill-rule="evenodd" clip-rule="evenodd" d="M6.88599 84.7212H9.77183V129.093H6.88599V84.7212Z" fill="white"/>
<path fill-rule="evenodd" clip-rule="evenodd" d="M126.278 84.4471H129.071V129.004H126.278V84.4471Z" fill="white"/>
<path fill-rule="evenodd" clip-rule="evenodd" d="M21.2224 84.6285L21.9439 122.983L29.0698 121.097L32.4917 121.008C32.4917 121.008 38.6261 104.031 39.4363 100.348C40.2464 96.6636 40.1577 84.7172 40.1577 84.7172L21.2224 84.6285Z" fill="white"/>
<path fill-rule="evenodd" clip-rule="evenodd" d="M21.9441 122.983L29.07 121.096L32.4919 121.008C32.4919 121.008 35.6518 125.232 35.8332 126.219C36.0106 127.207 36.3693 127.747 35.5591 127.835C34.749 127.924 21.9441 127.835 21.9441 127.835V122.983Z" fill="white"/>
<path fill-rule="evenodd" clip-rule="evenodd" d="M42.5035 30.011C42.5035 30.011 44.2164 24.3522 44.5792 22.6473C44.9419 20.9424 45.615 20.2653 46.7879 19.5035C47.9608 18.7417 49.2223 17.7059 49.8551 18.246C50.4839 18.782 50.1695 19.2334 49.448 19.7252C48.7266 20.2169 47.465 20.8013 47.2393 21.2487C47.0096 21.7001 46.8766 22.2845 46.8766 22.2845C46.8766 22.2845 48.3195 21.8331 49.6254 23.0463C50.9353 24.2595 51.9268 25.5613 51.427 25.8757C50.9353 26.1901 49.8068 26.7745 49.8068 26.7745C49.8068 26.7745 50.1211 27.492 49.6254 27.629C49.1296 27.762 49.1296 27.762 49.1296 27.762C49.1296 27.762 48.8153 29.4669 48.0495 29.9183C47.2837 30.3697 46.2922 30.6801 46.2922 30.6801L46.1995 31.2645C46.1995 31.2726 43.495 32.3487 42.5035 30.011Z" fill="white"/>
<path fill-rule="evenodd" clip-rule="evenodd" d="M50.621 67.9221C50.621 67.9221 47.2838 77.2607 47.1951 79.3284C47.1064 81.396 47.1951 81.9321 47.1951 81.9321L56.8441 82.0208C56.8441 82.0208 54.8611 79.3284 56.1227 77.7081L54.2283 77.6195L59.4599 76.902C59.4599 76.902 61.8944 68.1881 61.983 66.4832C62.0757 64.7742 61.5316 62.0819 60.1814 61.7191C60.1774 61.7191 52.6968 60.913 50.621 67.9221Z" fill="white"/>
<path fill-rule="evenodd" clip-rule="evenodd" d="M56.1184 77.7121L60.6004 76.9624C60.6004 76.9624 61.4992 73.9678 62.2206 73.1899C62.9421 72.412 63.6635 71.751 65.2878 71.6946C66.9081 71.6301 67.9923 71.755 68.0528 72.4725C68.1132 73.1899 66.1866 73.6695 65.2274 73.73C64.2641 73.7904 65.8924 74.2096 66.4325 74.6288C66.9686 75.0479 67.6941 75.7654 66.9121 76.3659C66.9121 76.3659 67.2749 76.8456 66.9121 77.3856C66.5494 77.9217 66.0093 78.1031 66.0093 78.1031C66.0093 78.1031 66.6743 78.6391 66.1907 78.881C65.711 79.1188 63.1235 78.6432 63.1235 78.6432L62.8857 79.4775L61.1404 79.7798C61.1404 79.7798 60.8422 81.3355 61.5032 81.8756L56.8439 82.0248C56.8399 82.0207 55.2478 80.3763 56.1184 77.7121Z" fill="white"/>
<path fill-rule="evenodd" clip-rule="evenodd" d="M68.1738 62.1101C68.1738 62.1101 69.6167 64.206 69.6732 65.9431C69.7336 67.6803 67.9924 79.4776 67.9924 79.4776L69.7376 79.6589C69.7376 79.6589 69.1371 78.2805 69.8545 76.6643C70.576 75.0521 72.8049 67.3256 72.8049 67.3256C72.8049 67.3256 74.0664 66.5477 75.4489 66.5477C76.8313 66.5477 76.8313 66.5477 76.8313 66.5477C76.8313 66.5477 75.8116 63.9117 74.546 63.1339C73.2845 62.3519 69.4958 61.8723 68.1738 62.1101Z" fill="white"/>
<path fill-rule="evenodd" clip-rule="evenodd" d="M69.7379 79.6548L61.1408 79.7757C61.1408 79.7757 60.4194 81.6338 61.5036 81.8716C62.5878 82.1094 86.7507 82.0489 86.7507 82.0489C86.7507 82.0489 88.1976 80.6141 88.1372 79.9571C88.0727 79.3001 69.7379 79.6548 69.7379 79.6548Z" fill="white"/>
<path fill-rule="evenodd" clip-rule="evenodd" d="M69.2541 78.341L72.805 67.3216C72.805 67.3216 72.7405 66.6042 76.4083 66.5437C80.0761 66.4832 91.9177 66.6606 91.9177 66.6606C91.9177 66.6606 93.2397 67.2007 93.0019 68.9983C92.7641 70.7959 89.6969 79.1793 89.6969 79.1793L87.593 79.7194L69.7378 79.6549C69.7378 79.6549 69.0163 79.7194 69.2541 78.341Z" fill="white"/>
<path fill-rule="evenodd" clip-rule="evenodd" d="M61.9829 59.3571C61.9829 59.3571 62.3416 56.7212 62.4021 56.4834C62.4585 56.2456 60.9592 55.8224 60.7174 54.9276C60.4796 54.0288 60.4191 53.3114 61.3824 53.3678C62.3416 53.4283 62.8817 53.3073 62.8817 53.3073C62.8817 53.3073 61.2615 50.1958 61.5597 49.5952C61.862 48.9987 62.8253 49.297 64.2642 48.9342C65.7112 48.5755 67.5128 47.975 67.5128 47.975C67.5128 47.975 70.0359 51.0906 69.9795 53.1864C69.919 55.2823 68.9557 57.0799 67.2145 56.7816C67.275 57.0799 66.5495 60.1914 66.5495 60.1914C66.5495 60.1914 63.0027 60.4333 61.9829 59.3571Z" fill="white"/>
<path fill-rule="evenodd" clip-rule="evenodd" d="M51.1008 84.7494L49.8392 88.8202H56.0906L57.6504 84.689L51.1008 84.7494Z" fill="white"/>
<path fill-rule="evenodd" clip-rule="evenodd" d="M66.489 84.689L65.7071 88.3406L68.1133 87.6836L68.7743 84.8058L66.489 84.689Z" fill="white"/>
<path fill-rule="evenodd" clip-rule="evenodd" d="M57.6502 84.689L56.9328 86.6639L66.0095 86.543L66.4891 84.689H57.6502Z" fill="#34C759"/>
<path fill-rule="evenodd" clip-rule="evenodd" d="M50.5604 89.1789C50.5604 89.1789 49.2949 91.8149 49.4198 94.3299C49.5367 96.8449 50.4395 99.4809 54.1677 99.7792C57.896 100.081 59.5203 99.6018 59.5203 99.6018L61.866 117.626L69.4393 117.687L68.9557 98.5257L77.3754 98.6426L73.2885 117.086L81.281 117.747C81.281 117.747 87.234 98.4652 87.4154 96.6112C87.5968 94.7571 88.0764 92.6572 86.5126 91.2788C84.9487 89.9004 83.7476 89.3643 82.3652 89.1225C80.9827 88.8847 68.4761 87.1475 68.4761 87.1475L67.4563 87.9254H65.6507L66.0134 86.547L56.9367 86.6679L56.0984 88.8242L50.5604 89.1789Z" fill="white"/>
<path fill-rule="evenodd" clip-rule="evenodd" d="M52.3056 99.2996C52.3056 99.2996 48.2751 98.82 47.6141 100.138C46.9531 101.456 47.0136 103.31 47.0136 103.31C47.0136 103.31 46.7153 104.39 48.517 104.447C50.3186 104.507 60.1208 104.33 60.1208 104.33L59.5202 99.5978C59.5162 99.6019 56.7513 100.255 52.3056 99.2996Z" fill="white"/>
<path fill-rule="evenodd" clip-rule="evenodd" d="M69.0164 99.0578L69.2542 104.33C69.2542 104.33 72.261 104.688 73.1598 104.269C74.0626 103.85 74.0626 102.653 73.8248 101.754C73.587 100.859 72.7406 98.4613 69.0164 99.0578Z" fill="white"/>
<path fill-rule="evenodd" clip-rule="evenodd" d="M61.862 117.626L62.4021 122.536L68.8952 121.697L68.3551 117.804L61.862 117.626Z" fill="white"/>
<path fill-rule="evenodd" clip-rule="evenodd" d="M73.2844 117.086L72.2607 121.036L79.0561 121.697L80.2572 117.864L73.2844 117.086Z" fill="white"/>
<path fill-rule="evenodd" clip-rule="evenodd" d="M88.6732 54.835C88.6732 54.835 87.7704 51.9613 86.7789 51.0907C85.7874 50.2241 85.4851 49.5067 85.4851 49.5067C85.4851 49.5067 84.1631 49.2044 84.1026 48.2774C84.0422 47.3504 84.3404 46.4556 84.8563 46.5402C85.3682 46.6289 85.2755 45.9115 86.0292 45.7624C86.7829 45.6092 87.0489 45.1618 87.6213 45.0731C88.1936 44.9845 87.1416 43.3964 86.8998 42.7959C86.662 42.1994 86.1461 40.2849 86.7507 40.1317C87.3512 39.9826 89.7534 45.1014 89.7534 45.1014C89.7534 45.1014 90.7449 43.7874 91.2004 44.1743C91.6518 44.5653 91.3495 48.3661 91.6195 49.2971C91.8855 50.2282 93.2116 52.5618 93.2116 52.5618C93.2116 52.5618 89.8461 52.8319 88.6732 54.835Z" fill="white"/>
<path fill-rule="evenodd" clip-rule="evenodd" d="M23.0886 22.2282C23.0886 22.2282 22.5485 21.5712 21.0411 20.6724C19.5377 19.7736 19.4773 17.976 19.5377 15.5819C19.6022 13.1878 21.2225 11.6279 22.9637 11.5111C24.7089 11.3901 25.6681 11.3297 27.4133 11.5111C29.1585 11.6924 28.6789 11.9907 30.1783 11.6279C31.6816 11.2692 32.2822 11.0919 32.6449 12.1076C33.0077 13.1273 31.9235 13.7883 32.2258 14.804C32.524 15.8197 32.9472 17.2586 31.5648 17.1981L30.2992 14.4412C30.2992 14.4412 27.7761 15.1627 25.249 14.4412C25.249 14.4412 24.1083 13.9616 24.4106 16.1824C24.7089 18.3952 25.128 19.5358 26.3332 19.8905L26.2687 21.0916C26.2687 21.0916 27.3529 20.491 28.1912 20.0719C29.0336 19.6527 31.0166 19.8341 31.3794 20.2532C31.7421 20.6724 31.3794 21.6921 32.2177 22.4096C33.0601 23.127 32.8182 24.9246 30.2347 25.0455C27.6511 25.1664 25.3054 24.3845 25.0635 22.47C24.8257 20.5555 23.5642 17.5568 21.9399 18.3992C21.9399 18.3992 20.3196 19.6567 23.5037 21.0352L23.0886 22.2282ZM9.40906 46.0928C8.68759 49.3293 10.6746 52.4691 11.9322 53.6379C13.1937 54.8068 22.0326 61.0944 22.0326 61.0944C23.4796 60.643 24.467 57.0518 24.467 57.0518C24.467 57.0518 20.6784 53.0978 19.5055 51.929C18.3326 50.7601 15.9909 48.6925 15.9909 47.5277C15.9909 46.3629 17.4378 40.704 17.4378 40.704C17.4378 40.704 19.7836 44.924 20.9524 46.9876C22.1213 49.0512 21.4925 53.0092 21.4925 53.0092C21.4925 53.0092 22.484 53.6339 24.8298 54.7141C27.1755 55.7902 30.5088 57.0518 32.8545 57.4992C35.2003 57.9465 35.9217 55.7902 35.9217 55.7902L34.9302 42.2276C34.9302 42.2276 35.4703 45.5527 40.5205 46.0001C45.5708 46.4515 46.1995 31.2686 46.1995 31.2686C43.4064 31.8974 42.5036 30.0111 42.5036 30.0111L40.8833 34.0537L39.4363 36.5647C34.3861 28.3022 29.5173 27.1333 29.5173 27.1333C29.5173 27.1333 31.3189 31.6233 27.6834 31.9256C24.0479 32.2238 19.5377 25.9645 19.5377 25.9645C19.5377 25.9645 18.1553 25.9645 15.9909 26.956C13.8265 27.9434 13.105 30.5512 13.105 30.5512C13.105 30.5512 10.1345 42.8604 9.40906 46.0928ZM57.7147 50.9738C57.7147 50.9738 57.8961 54.9882 59.0367 55.8225C60.1773 56.6608 62.2208 57.5636 62.2208 57.5636L62.4022 56.4835C62.4022 56.4835 60.3547 55.5242 60.6005 54.5085C60.8383 53.4888 60.7779 53.3115 61.3825 53.3719C61.983 53.4324 62.8818 53.3115 62.8818 53.3115C62.8818 53.3115 61.0197 50.1959 61.5598 49.5994C62.0999 48.9988 64.2643 49.1197 65.7677 48.5837C67.271 48.0436 68.2343 48.4023 68.2343 48.4023C68.2343 48.4023 69.1976 47.564 69.0727 47.0239C68.9558 46.4878 67.5088 45.8873 66.6705 45.7663C65.8281 45.6454 65.6508 45.1053 64.9253 45.4641C64.2038 45.8268 63.7846 46.3024 62.7004 46.6007C61.6203 46.903 60.4796 46.6651 59.5163 47.7373C58.5571 48.8174 57.7752 49.5349 57.7147 50.9738ZM48.638 87.0226V99.5374L51.6407 99.2996C51.6407 99.2996 48.8758 96.0671 49.4199 94.3299C49.96 92.5928 50.5605 89.179 50.5605 89.179L49.8391 88.8202L50.3792 86.7808L48.638 87.0226ZM69.4354 117.683L69.7982 123.551L71.2411 124.087L72.9863 117.743L71.8457 104.628L69.2621 104.33L69.4354 117.683ZM47.7916 104.507L45.6917 128.642L49.0572 128.581L51.5238 104.628L48.5171 104.447L47.7916 104.507ZM102.018 40.0148C102.018 40.0148 103.642 40.9741 104.303 43.9647C104.303 43.9647 105.807 43.4287 105.807 44.5048C105.807 45.5769 104.787 46.0001 104.787 46.0001L103.582 61.5135C103.582 61.5135 102.981 63.7867 105.75 64.0245C108.515 64.2623 115.488 64.2623 115.488 64.2623C115.488 64.2623 116.391 63.7263 115.907 62.4688C115.428 61.2072 111.877 44.5612 111.337 43.3077C110.801 42.0502 109.716 39.8939 108.515 39.2934C107.31 38.6968 103.941 37.4393 102.018 40.0148Z" fill="black"/>
<path fill-rule="evenodd" clip-rule="evenodd" d="M102.018 40.0148C102.018 40.0148 103.643 41.7197 104.215 43.6946C104.215 43.6946 105.718 43.6342 105.807 44.5048C105.896 45.3713 104.787 46.0001 104.787 46.0001L104.187 53.787C104.187 53.787 101.873 52.7995 101.659 52.4973C101.659 52.4973 102.744 52.7995 103.014 51.4493C103.288 50.0991 103.376 48.3942 103.376 48.3942C103.376 48.3942 101.603 48.632 100.91 47.7977C100.221 46.9593 100.071 45.2222 100.071 45.2222L99.4991 44.1138L100.402 43.3964C100.394 43.3964 100.757 40.5831 102.018 40.0148Z" fill="white"/>
<path fill-rule="evenodd" clip-rule="evenodd" d="M115.593 70.9289C115.593 70.9289 118.068 75.5116 117.89 77.3979C117.709 79.2841 117.35 81.7952 116.536 81.9322L120.869 82.2022C120.869 82.2022 122.223 81.5291 121.816 80.2273C121.409 78.9214 117.35 70.7959 117.35 70.7959L115.593 70.9289Z" fill="white"/>
<path fill-rule="evenodd" clip-rule="evenodd" d="M105.944 68.0551L102.111 76.0073C102.111 76.0073 101.434 76.9504 100.664 76.9948C99.8981 77.0391 90.0274 78.4337 90.0274 78.4337C90.0274 78.4337 88.9432 80.0056 88.1331 79.9572C88.1331 79.9572 87.859 81.6178 87.0932 81.9805L116.266 82.2505C116.266 82.2505 118.116 79.8282 117.935 77.7606C117.753 75.6929 113.832 67.9705 113.832 67.9705L105.944 68.0551Z" fill="white"/>
<path fill-rule="evenodd" clip-rule="evenodd" d="M90.9705 75.1489L99.0436 73.8914C99.0436 73.8914 100.442 73.2626 101.075 72.2308C101.704 71.199 103.731 68.0511 103.731 68.0511H105.944L102.111 76.0033C102.111 76.0033 102.066 76.6764 100.664 76.9908C99.2653 77.3052 90.0273 78.4297 90.0273 78.4297L90.9705 75.1489Z" fill="white"/>
<path fill-rule="evenodd" clip-rule="evenodd" d="M85.1544 84.8058C85.1544 84.8058 87.5002 87.9496 89.1245 89.4772C90.7447 91.0007 103.235 103.177 103.235 103.177C103.235 103.177 104.315 99.896 106.21 98.8199C108.104 97.7437 109.595 97.5624 109.595 97.5624C109.595 97.5624 109.503 96.4822 111.353 95.6761C113.199 94.87 114.734 95.14 114.734 95.14L107.298 84.7655L85.1544 84.8058Z" fill="white"/>
<path fill-rule="evenodd" clip-rule="evenodd" d="M103.372 103.447L106.347 106.365L105.762 110.589L106.979 110.859L109.64 106.591C109.64 106.591 109.547 103.358 110.72 102.322C111.893 101.291 112.525 101.291 112.525 101.291L114.553 103.85C114.553 103.85 116 100.392 118.16 100.122L114.734 95.136C114.734 95.136 110.45 94.6846 109.595 97.5584C109.595 97.5624 103.957 98.1468 103.372 103.447Z" fill="white"/>
<path fill-rule="evenodd" clip-rule="evenodd" d="M105.762 110.589L106.98 110.859L109.64 106.591C109.64 106.591 108.918 102.238 112.526 101.291L114.553 103.85C114.553 103.85 115.319 100.348 118.16 100.122C118.16 100.122 121.002 103.084 120.953 104.656C120.909 106.228 117.842 110.944 116.806 111.976C115.77 113.011 113.832 115.615 112.477 115.659C111.123 115.704 110.357 114.535 110.357 114.535C110.357 114.535 108.689 116.333 107.878 116.51C107.068 116.691 105.4 116.062 105.311 114.354C105.218 112.657 105.762 110.589 105.762 110.589Z" fill="white"/>
<path fill-rule="evenodd" clip-rule="evenodd" d="M29.1303 27.7701L29.0174 28.153C29.0174 27.621 28.8763 27.1172 28.4088 26.956C27.2682 26.5691 27.0263 25.4889 27.0263 25.4889L26.2162 26.299C24.0196 26.1781 22.7903 23.6953 22.7903 23.6953L21.1337 25.4607L19.5417 25.9685C19.9044 27.9475 26.0953 31.8692 27.6873 31.9256C29.2834 31.9901 30.4241 31.5669 30.3354 30.0433C30.2427 28.5158 29.1303 27.7701 29.1303 27.7701ZM26.9659 27.7701V30.1038C26.853 30.0554 26.7402 30.003 26.6273 29.9426C26.8369 30.0474 26.9659 30.1038 26.9659 30.1038L26.8127 27.2301L28.5982 29.5637L28.5257 29.8055L26.9659 27.7701ZM63.3654 72.3516C60.8987 73.069 60.6005 76.9665 60.6005 76.9665L59.4598 76.9061C59.4598 76.9061 61.8056 68.043 61.9225 65.4675C62.0434 62.892 60.1773 61.7231 60.1773 61.7231C60.1773 61.7231 60.8423 59.4177 61.2615 59.4781C61.6806 59.5386 63.7281 60.3125 65.5902 60.256C67.4564 60.1956 66.9122 60.1956 67.0936 61.1548C67.275 62.1141 67.5732 61.2717 68.6575 62.4728C69.7417 63.6699 69.7981 66.6605 69.6207 69.1796C69.4394 71.6946 67.9964 79.4775 67.9964 79.4775H62.8898L63.1276 78.6432C63.1276 78.6432 64.9937 78.881 65.6507 78.9415C66.3157 79.0019 66.0134 78.1031 66.0134 78.1031L66.9163 77.3857V76.37C66.9163 76.37 67.3354 75.4712 66.9163 75.052C66.4971 74.6329 65.2315 73.7381 65.2315 73.7381C65.2315 73.7381 66.1344 73.5003 67.2145 73.3753C68.2987 73.2544 68.2987 72.7788 67.5773 72.0614C66.8518 71.3319 65.828 71.6301 63.3654 72.3516ZM83.5018 129.242L75.0257 129.54L63.1236 129.601L62.4021 122.535L68.8912 121.701L69.7941 123.559C70.2092 123.531 71.0234 123.97 71.8859 124.575C71.3055 124.095 71.237 124.095 71.237 124.095L72.2607 121.04L79.0521 121.701L78.4516 123.616C78.4556 123.612 82.6594 125.53 83.5018 129.242ZM111.981 64.2382L113.831 67.9664L103.417 67.9221C103.417 67.9221 102.018 67.382 101.522 65.8101C101.026 64.2382 100.394 60.776 100.394 60.776C100.394 60.776 95.0291 63.2467 93.6748 62.9363C92.3246 62.6219 92.0546 62.4849 91.0187 59.8812C89.9788 57.2775 88.943 54.8955 88.943 54.8955C88.943 54.8955 89.6201 53.4566 90.793 53.0535C91.9659 52.6464 93.3161 52.8278 93.3161 52.8278L94.9364 55.7902C94.9364 55.7902 99.7165 52.5296 101.655 52.4973L104.178 53.7871L103.55 62.3076C103.55 62.3076 103.457 63.6538 105.258 63.8795C107.068 64.1011 111.981 64.2382 111.981 64.2382ZM117.35 70.7958L115.593 70.9288L112.344 64.3752L114.912 64.4195L117.35 70.7958ZM60.8383 22.7038C60.8383 20.1928 62.8817 18.1534 65.4048 18.1534C67.932 18.1534 69.9754 20.1928 69.9754 22.7038C69.9754 25.2188 67.932 27.2583 65.4048 27.2583C62.8817 27.2583 60.8383 25.2188 60.8383 22.7038ZM58.9157 11.0879C58.0532 11.0879 57.3519 10.3906 57.3519 9.5321C57.3519 8.6736 58.0532 7.97229 58.9157 7.97229C59.7782 7.97229 60.4796 8.6736 60.4796 9.5321C60.4796 10.3906 59.7782 11.0879 58.9157 11.0879ZM77.9115 11.8053C77.9115 10.9468 78.6128 10.2495 79.4753 10.2495C80.3379 10.2495 81.0392 10.9468 81.0392 11.8053C81.0392 12.6678 80.3379 13.3651 79.4753 13.3651C78.6128 13.3651 77.9115 12.6678 77.9115 11.8053ZM53.144 33.1267C53.144 33.9892 52.4427 34.6865 51.5802 34.6865C50.7177 34.6865 50.0164 33.9892 50.0164 33.1267C50.0164 32.2682 50.7177 31.5709 51.5802 31.5709C52.4468 31.5709 53.144 32.2682 53.144 33.1267ZM71.902 36.3592C71.902 35.5007 72.6033 34.8034 73.4658 34.8034C74.3284 34.8034 75.0297 35.5007 75.0297 36.3592C75.0297 37.2177 74.3284 37.919 73.4658 37.919C72.6033 37.919 71.902 37.2217 71.902 36.3592Z" fill="#34C759"/>
<path fill-rule="evenodd" clip-rule="evenodd" d="M90.2975 9.5321H112.78V11.4466H90.2975V9.5321Z" fill="white"/>
<path fill-rule="evenodd" clip-rule="evenodd" d="M90.2975 14.2034H112.78V16.1179H90.2975V14.2034Z" fill="white"/>
<path fill-rule="evenodd" clip-rule="evenodd" d="M90.3538 19.2939H112.836V21.2084H90.3538V19.2939Z" fill="white"/>
<path d="M65.4975 27.6572C68.2423 27.6572 70.4712 25.4324 70.4712 22.6997C70.4712 19.967 68.2423 17.7422 65.4975 17.7422C62.7527 17.7422 60.5198 19.967 60.5198 22.6997C60.5198 25.4324 62.7527 27.6572 65.4975 27.6572ZM65.4975 18.4838C67.8312 18.4838 69.7295 20.3741 69.7295 22.6997C69.7295 25.0213 67.8312 26.9156 65.4975 26.9156C63.1639 26.9156 61.2655 25.0213 61.2655 22.6997C61.2655 20.3741 63.1639 18.4838 65.4975 18.4838Z" fill="black"/>
<path d="M135.649 81.8596H121.618C121.634 81.8395 121.651 81.8153 121.671 81.7951C122.042 81.2752 122.154 80.6263 121.973 80.0539C121.804 79.5179 119.752 74.8506 117.914 70.7032C117.906 70.6629 117.89 70.6306 117.87 70.5984C116.729 68.0309 115.681 65.6812 115.222 64.6453L115.379 64.6493C115.383 64.6493 115.391 64.6493 115.399 64.6493C115.693 64.6493 115.964 64.5204 116.153 64.2947C116.342 64.069 116.415 63.7667 116.354 63.4765C115.746 60.6753 114.251 53.8436 112.937 48.5273H120.417C120.623 48.5273 120.788 48.3621 120.788 48.1565V0.370807C120.788 0.165251 120.623 0 120.417 0H39.2549C39.0534 0 38.8841 0.165251 38.8841 0.370807V34.9002C33.7129 27.4881 30.0855 26.956 29.2391 26.9439C29.0698 26.7182 28.8038 26.5006 28.3846 26.3958C28.0863 26.3232 27.7679 25.8597 27.5382 25.3922C28.1267 25.5816 28.7594 25.6824 29.3842 25.6824C29.6462 25.6824 29.9081 25.6622 30.1621 25.63C31.3349 25.4567 32.3023 24.9085 32.9592 24.0299C33.6484 23.0263 32.7819 22.2403 32.262 21.7647C32.1169 21.6358 31.8911 21.4302 31.8589 21.3496C31.8105 21.2206 31.8186 21.011 31.8267 20.8055C31.8387 20.5798 31.8508 20.2573 31.7299 19.9994C31.742 19.9712 31.746 19.943 31.7501 19.9107C31.8307 19.0442 31.8065 18.2663 31.7138 17.5811C32.1733 17.4481 32.7174 17.0773 32.8182 16.247C32.8827 15.7512 32.8182 15.3965 32.7577 15.0822C32.6811 14.671 32.6247 14.3728 32.8625 13.8045C33.1769 13.0347 33.0922 12.2044 32.6328 11.6804C32.3708 11.3822 31.7501 10.9267 30.545 11.2371C29.4527 11.5192 28.8924 11.4386 27.9533 11.3096C27.4213 11.233 26.7563 11.1403 25.8293 11.092C23.2659 10.959 20.0737 10.7897 19.4087 14.3325C18.7718 17.6899 19.5699 20.6725 21.299 21.4221C22.3832 21.8897 22.9394 22.7361 22.9434 22.7522C22.9555 22.7643 22.9636 22.7724 22.9757 22.7845L22.9313 23.1754C22.8628 23.1029 22.7661 23.0585 22.6653 23.0585C22.5242 23.0585 22.3993 23.1351 22.3348 23.2601C21.7262 24.4208 21.0934 25.0738 20.8879 25.2713C20.0495 25.368 15.4104 26.0008 13.8425 28.145C12.1578 30.4545 10.211 39.6118 9.75157 43.0096C9.67096 43.6061 9.54198 44.2106 9.40494 44.8475C8.77215 47.8341 8.05069 51.2197 12.448 54.4481C15.9585 57.0236 19.0499 59.3694 20.6138 60.5584V60.5624L20.9201 81.8636H2.35155C1.37214 81.8636 0.570068 82.569 0.570068 83.4315C0.570068 84.2981 1.37214 84.9994 2.35155 84.9994H6.60374V129.093C6.60374 129.299 6.77302 129.464 6.97455 129.464H9.67902C9.88457 129.464 10.0539 129.299 10.0539 129.093V84.9994H20.9644L21.5126 122.959C21.5126 122.963 21.5126 122.963 21.5126 122.963V122.967L21.694 127.815C21.702 128.017 21.8673 128.174 22.0648 128.174H33.9104L35.7967 128.202C35.8007 128.202 35.8007 128.202 35.8007 128.202C35.9579 128.202 36.099 128.106 36.1514 127.957C36.1836 127.868 36.4496 127.034 35.8733 125.627C35.3856 124.438 33.4872 121.729 32.9995 121.04C33.6364 119.299 38.6221 105.547 39.803 99.7309C41.0001 93.8141 40.7059 87.3492 40.5366 84.9994H44.6074C44.8976 86.3174 46.0664 87.2766 47.4529 87.2766H48.3517L48.2631 99.1666C47.2353 99.6543 46.5219 100.698 46.5219 101.903V103.33C46.5219 103.979 46.9612 104.523 47.5537 104.701L45.3813 128.791C45.3692 128.896 45.4054 128.996 45.478 129.073C45.5465 129.154 45.6473 129.194 45.7521 129.194H49.0893C49.2788 129.194 49.44 129.049 49.4601 128.859L51.685 104.765H59.8467L61.4348 117.642L62.6963 129.67C62.7165 129.859 62.8737 130 63.0631 130H63.0671L74.8805 129.911C74.9773 129.911 75.07 129.875 75.1385 129.803C75.1425 129.798 75.1466 129.794 75.1506 129.79H83.3809C83.4937 129.79 83.5945 129.742 83.6671 129.657C83.7356 129.573 83.7678 129.464 83.7517 129.359C83.0343 124.982 79.9388 123.757 78.7982 123.45L80.3741 118.05L81.3374 118.138C81.3455 118.138 81.3576 118.138 81.3697 118.138C81.5309 118.138 81.68 118.029 81.7243 117.872C81.9622 117.086 87.5081 98.5056 87.8668 95.9906C88.2578 93.2539 88.0281 89.9609 82.7118 88.7518C78.2218 87.7321 70.5074 87.1839 68.6413 87.063L69.1371 84.9913H84.7472C84.7916 85.0639 85.4163 86.1199 86.3151 87.196C87.0083 88.0223 97.7537 98.5338 103.098 103.753C103.134 103.822 103.191 103.874 103.255 103.906C104.565 105.184 105.529 106.123 105.899 106.486C105.649 107.772 104.606 113.423 104.952 114.845C105.246 116.063 105.827 116.8 106.629 116.99C106.758 117.018 106.887 117.034 107.02 117.034C107.951 117.034 109.051 116.329 110.309 114.934C110.776 115.583 111.639 116.296 112.779 116.063C114.565 115.696 120.425 108.118 121.131 105.696C121.582 104.152 120.252 102.157 118.595 99.8961C117.564 98.4855 109.769 87.5588 107.935 84.9913H125.907V129.085C125.907 129.287 126.072 129.456 126.278 129.456H128.982C129.184 129.456 129.353 129.287 129.353 129.085V84.9994H135.649C136.628 84.9994 137.43 84.294 137.43 83.4315C137.43 82.565 136.628 81.8596 135.649 81.8596ZM121.062 81.3639C120.861 81.65 120.578 81.8233 120.308 81.8314C120.264 81.8314 120.224 81.8435 120.187 81.8596H116.975C117.084 81.7468 117.189 81.6178 117.29 81.4767C118.305 80.0217 118.595 77.5591 117.971 75.7494C117.64 74.7982 116.83 73.0368 115.931 71.1667H117.302C119.236 75.5317 121.11 79.8 121.26 80.2756C121.372 80.6303 121.296 81.0374 121.062 81.3639ZM40.198 81.8596C39.5975 77.8533 36.889 60.909 36.8608 60.7478C36.8527 60.6672 35.8975 52.5457 35.4219 46.8708C35.3251 45.7422 35.2405 44.5573 35.1599 43.3804C35.8813 44.3517 37.2074 45.8309 38.8841 46.3911V48.1565C38.8841 48.3621 39.0534 48.5273 39.2549 48.5273H58.1701C57.2511 49.8493 57.1503 51.8122 57.896 54.3111C58.694 56.9712 61.1768 57.6887 61.8217 57.8338C61.7411 58.2731 61.6403 58.7487 61.5476 59.1598C61.5275 59.1517 61.5073 59.1437 61.4912 59.1356C61.2897 59.0631 61.064 59.0752 60.8745 59.1719C60.6811 59.2686 60.54 59.4419 60.4836 59.6515L60.2256 60.5866C60.0644 61.1589 59.5566 61.562 58.956 61.5902C58.7625 61.5942 58.5449 61.6103 58.295 61.6184C56.2798 61.7192 53.5793 61.8562 51.826 64.5486H47.4529C45.8448 64.5486 44.5349 65.8545 44.5349 67.4586V81.8596H40.198ZM83.8565 48.5273C83.8686 48.5676 83.8766 48.6039 83.8928 48.6442C84.1104 49.2488 84.6545 49.7365 85.4929 50.1032C85.7226 50.595 86.037 51.0988 86.4562 51.5059C87.1494 52.179 89.0357 56.4191 90.2851 59.2243C90.9542 60.7357 91.4903 61.9288 91.72 62.3278C92.1513 63.0734 92.78 63.3193 93.4975 63.3193C94.1988 63.3193 94.9807 63.0855 95.7545 62.8558C96.8388 62.5333 98.6404 61.7957 99.9382 61.2436C100.047 61.8602 100.309 63.1621 100.732 64.4841C101.405 66.5719 102.211 67.8052 103.134 68.172L100.091 72.9723C99.914 73.2585 99.6198 73.452 99.2853 73.5003L91.5507 74.7337L93.4088 68.8451C93.6103 68.2002 93.4975 67.5191 93.0944 66.979C92.6994 66.4389 92.0868 66.1326 91.4137 66.1326C91.4097 66.1326 91.4016 66.1326 91.3935 66.1326C88.2618 66.1648 81.5591 66.2253 77.1376 66.2495C76.9401 65.7819 75.4206 62.3923 72.7887 62.0416C71.4506 61.8643 69.1814 61.6547 67.944 61.6305C67.8473 61.6265 67.7546 61.5902 67.6901 61.5176C67.6256 61.4491 67.5894 61.3524 67.5974 61.2557L67.6377 60.5785C67.6538 60.3448 67.5611 60.1231 67.3878 59.9619C67.2468 59.8369 67.0734 59.7724 66.8921 59.7684L67.2951 57.2655C68.6937 56.9108 69.6006 56.1248 69.9996 54.9318C70.7493 52.6908 69.4071 49.6639 68.6615 48.5596C68.6695 48.5515 68.6776 48.5394 68.6857 48.5313H83.8565V48.5273ZM85.0012 46.8264C85.0052 46.8264 85.0092 46.8264 85.0132 46.8264C85.2107 46.8264 85.5574 47.1569 85.7266 47.3867C85.8476 47.5519 86.0813 47.5922 86.2466 47.4713C86.4078 47.3504 86.4481 47.1207 86.3272 46.9514C86.2627 46.8627 86.037 46.5685 85.7226 46.3508C85.8879 46.1574 86.0571 46.0526 86.2264 46.0445C86.2305 46.0445 86.2345 46.0445 86.2425 46.0445C86.5448 46.0445 86.8471 46.3307 86.9439 46.4435C87.0728 46.6007 87.3026 46.6289 87.4638 46.5C87.625 46.371 87.6452 46.1372 87.5162 45.976C87.488 45.9438 87.355 45.7785 87.1373 45.6213C87.3026 45.4641 87.4598 45.3795 87.6129 45.3795C87.617 45.3795 87.617 45.3795 87.621 45.3795C87.9071 45.3835 88.1369 45.6536 88.1409 45.6616C88.2659 45.8188 88.4996 45.847 88.6609 45.7221C88.8221 45.5971 88.8503 45.3634 88.7213 45.2062C88.6931 45.1659 88.4875 44.924 88.1611 44.7709C88.153 44.7306 88.149 44.6983 88.1329 44.658C88.1248 44.6459 87.5122 43.4005 87.1293 42.1591C86.8632 41.2926 86.8229 40.7444 86.8512 40.4985C86.8995 40.5429 86.968 40.6033 87.0527 40.7001C87.7298 41.478 89.5193 45.6777 90.1562 47.2295C90.2166 47.3746 90.3537 47.4633 90.5028 47.4633C90.5471 47.4633 90.5955 47.4512 90.6439 47.435C90.8333 47.3585 90.922 47.1449 90.8454 46.9514C90.7769 46.7821 90.5471 46.2259 90.2368 45.5004C90.5189 44.7789 90.9462 44.525 91.059 44.5492C91.0711 44.5532 91.1598 44.6621 91.1275 45.0087C91.0026 46.3387 91.1799 49.7647 91.184 49.9098C91.188 49.9662 91.2041 50.0186 91.2323 50.071L92.5019 52.3724C90.5229 52.3966 89.3743 53.5453 88.8463 54.2708C88.0442 52.5901 87.3872 51.3729 86.9761 50.9738C85.9644 49.9944 85.642 48.2291 85.642 48.2129C85.6057 48.0114 85.4163 47.8784 85.2107 47.9106C85.0092 47.9469 84.8762 48.1404 84.9084 48.3419C84.9165 48.3701 84.9649 48.6361 85.0737 49.015C84.8359 48.8215 84.6747 48.616 84.59 48.3903C84.453 48.0154 84.5215 47.56 84.7956 47.036C84.8359 46.9635 84.9125 46.8345 85.0012 46.8264ZM103.767 63.6941C104.198 64.1617 104.783 64.4277 105.42 64.4398L111.808 64.5768C111.997 64.9436 112.59 66.0963 113.319 67.5513H103.731C102.248 67.5513 101.067 63.5732 100.64 60.9413C101.131 60.7277 101.466 60.5826 101.51 60.5624C101.696 60.4778 101.78 60.2601 101.696 60.0747C101.611 59.8853 101.393 59.8006 101.204 59.8853C101.168 59.9014 97.2982 61.6184 95.5369 62.1464C93.6103 62.7228 92.8405 62.7792 92.3568 61.957C92.1472 61.5942 91.5991 60.3609 90.9623 58.922C90.3416 57.5274 89.7491 56.2095 89.213 55.0567C89.4549 54.6134 90.527 52.9488 92.9251 53.1302L94.4245 55.8387C93.9166 56.2377 93.3806 56.677 92.8163 57.1566C92.6631 57.2896 92.643 57.5234 92.78 57.6766C92.909 57.8338 93.1468 57.8539 93.3 57.7169C97.395 54.2103 99.9463 53.0899 101.333 52.7473C101.349 52.7674 101.365 52.7876 101.385 52.8037C101.429 52.84 102.433 53.5896 103.739 54.033L103.171 61.9852C103.126 62.618 103.34 63.2266 103.767 63.6941ZM87.5202 80.3441C87.5202 81.1019 86.9035 81.7145 86.1458 81.7145H62.4666C61.8096 81.7145 61.2735 81.1825 61.2735 80.5255V80.058H69.919C69.927 80.058 69.9351 80.0539 69.9432 80.0539C70.1165 80.1184 70.3059 80.1507 70.4954 80.1507H87.5323C87.5323 80.1668 87.5242 80.1829 87.5242 80.195V80.3441H87.5202ZM65.2557 79.268C65.6829 79.268 66.0295 79.1914 66.2512 79.006C66.4447 78.8367 66.5293 78.5989 66.4971 78.3289C66.485 78.2322 66.4608 78.1354 66.4165 78.0427C66.6744 77.9379 66.9888 77.7525 67.142 77.4583C67.2468 77.2487 67.2589 77.019 67.1662 76.7933C67.1299 76.7086 67.0694 76.624 67.0009 76.5353C67.2145 76.3781 67.4725 76.1161 67.549 75.7695C67.5934 75.572 67.5974 75.2697 67.3596 74.9473C67.0896 74.5845 66.3318 74.2379 65.5539 73.9598C65.8441 73.9034 66.1706 73.8711 66.4931 73.8389C66.7188 73.8188 66.9445 73.7946 67.1662 73.7664C67.8352 73.6777 68.3672 73.194 68.4035 72.6418C68.4196 72.4484 68.3834 71.7995 67.3677 71.5173C65.7232 71.0579 62.785 71.6302 61.9144 72.8595C61.4952 73.452 60.8947 75.1569 60.4352 76.5998L59.7863 76.6643C60.2337 75.1005 62.0111 68.7645 62.2288 66.0358C62.4222 63.5893 61.1204 62.2351 60.4191 61.6869C60.6569 61.4411 60.8383 61.1347 60.935 60.7881L61.1929 59.853L60.8342 59.7563L61.2252 59.8329C62.124 60.1674 64.4697 60.8929 66.8679 60.506L66.8074 60.1392L66.8921 60.5342L66.8518 61.2113C66.8316 61.5136 66.9364 61.7998 67.1379 62.0215C67.283 62.1786 67.4725 62.2875 67.678 62.3399C67.6941 62.3479 67.7022 62.364 67.7224 62.3761C67.7385 62.3802 69.3064 63.2185 69.2257 67.6037C69.1532 71.4408 67.7748 77.9863 67.4846 79.3204H63.2364L63.3654 78.9899C64.0707 79.1511 64.7237 79.268 65.2557 79.268ZM62.7689 56.2619C62.7245 55.8507 62.3497 55.6653 61.9869 55.488C61.5234 55.2623 61.0438 55.0285 60.8987 54.3675C60.8544 54.162 60.8705 54.0169 60.943 53.9443C61.1043 53.7831 61.5758 53.7912 61.8419 53.8476C61.8539 53.8516 61.8701 53.8516 61.8781 53.8556L62.9623 53.9725C63.0953 53.9846 63.2283 53.9282 63.3049 53.8153C63.3855 53.7025 63.3936 53.5574 63.3331 53.4365C62.9543 52.7029 61.9587 50.6393 61.8701 49.9058C61.8459 49.7324 61.8862 49.672 62.914 49.5309C63.4984 49.4463 64.2964 49.3334 65.2194 49.0473C65.8159 48.8619 66.2633 48.6926 66.5938 48.5676C67.4402 48.2452 67.4402 48.2411 67.8957 48.7571C68.3995 49.3334 70.0278 52.5296 69.2983 54.694C68.9678 55.6895 68.1577 56.3304 66.8921 56.5964C66.743 56.6286 66.6261 56.7495 66.6019 56.8987L66.1303 59.845C64.631 59.9619 63.2042 59.6676 62.261 59.3895C62.4142 58.7124 62.8293 56.7818 62.7689 56.2619ZM69.0565 79.3164H68.2463C68.605 77.6639 69.8988 71.4367 69.9674 67.6158C70.0238 64.6937 69.3708 63.1742 68.8066 62.4084C70.0318 62.4809 71.6441 62.6381 72.688 62.7752C74.5944 63.0291 75.9003 65.3829 76.3194 66.2535C75.5415 66.2575 74.8564 66.2616 74.3122 66.2616C73.2925 66.2616 72.4018 66.9145 72.0995 67.8818L68.9073 78.0065C68.7743 78.4538 68.8267 78.9173 69.0565 79.3164ZM88.1208 79.4091H70.4913C70.1971 79.4091 69.9311 79.272 69.7578 79.0383C69.5845 78.8045 69.5361 78.5062 69.6248 78.2281L72.8129 68.1035C73.0184 67.4425 73.623 67.0032 74.3203 66.9991C77.9518 66.9951 87.4759 66.9105 91.4056 66.8742C91.4097 66.8742 91.4137 66.8742 91.4177 66.8742C91.849 66.8742 92.2399 67.0717 92.5019 67.4183C92.7639 67.769 92.8324 68.2083 92.7035 68.6234L90.66 75.0964C90.66 75.1005 90.66 75.1045 90.656 75.1125L89.6564 78.2805C89.4428 78.9536 88.8261 79.4091 88.1208 79.4091ZM91.3049 75.5277L99.4062 74.2339C99.9503 74.1493 100.426 73.8349 100.72 73.3714L103.936 68.2929H105.5L101.873 75.6002C101.869 75.6083 101.865 75.6244 101.861 75.6365C101.655 76.1847 101.163 76.5676 100.583 76.6482L90.5431 77.9581L91.3049 75.5277ZM104.477 45.6092C104.388 45.6737 104.331 45.7745 104.323 45.8833L103.795 53.2672C103.255 53.0657 102.772 52.8117 102.425 52.6022C102.905 52.5457 103.288 52.183 103.356 51.6993C103.799 48.5434 103.759 48.2855 103.743 48.1888C103.727 48.088 103.666 47.9953 103.582 47.9429C103.493 47.8824 103.388 47.8663 103.288 47.8905C102.477 48.088 101.849 48.0033 101.413 47.6366C101.111 47.3827 100.922 47.028 100.797 46.6612C100.873 46.6693 100.946 46.6773 101.022 46.6773C101.159 46.6652 101.292 46.6531 101.413 46.6088C101.542 46.5685 101.659 46.5161 101.764 46.4435C101.816 46.4073 101.849 46.3468 101.841 46.2823C101.833 46.1816 101.744 46.109 101.643 46.1211H101.639L101.317 46.1533C101.216 46.1533 101.119 46.1695 101.022 46.1614C100.926 46.1574 100.829 46.1533 100.732 46.1372C100.712 46.1332 100.684 46.1251 100.664 46.1211C100.563 45.5568 100.587 45.0812 100.587 45.0691C100.595 44.9603 100.551 44.8515 100.47 44.7789L99.8737 44.2187L100.583 43.8116C100.7 43.7431 100.768 43.6262 100.768 43.4892C100.768 42.2115 101.623 40.8935 102.006 40.3655C103.372 41.1837 103.844 43.9406 103.848 43.9688C103.868 44.0817 103.941 44.1824 104.041 44.2348C104.146 44.2913 104.267 44.2953 104.372 44.2469C104.489 44.1945 104.868 44.0615 105.101 44.1542C105.158 44.1744 105.23 44.2187 105.283 44.3477C105.448 44.7467 104.811 45.3714 104.477 45.6092ZM101.385 48.5273C101.405 48.5273 101.421 48.5193 101.442 48.5193C101.881 48.7168 102.393 48.7772 102.981 48.6966C102.941 49.1803 102.832 50.0992 102.623 51.5945C102.598 51.7517 102.461 51.8686 102.296 51.8726C101.236 51.8807 98.9749 52.3926 95.021 55.3832L91.9296 49.7889C91.9175 49.6035 91.8973 49.1198 91.8772 48.5273H101.385ZM68.2786 47.8703C68.2423 47.9026 68.206 47.9389 68.1818 47.9832C68.1818 47.9832 68.1818 47.9872 68.1778 47.9872C67.5974 47.427 67.2468 47.5277 66.3238 47.8784C65.9892 48.0074 65.5701 48.1646 64.9937 48.3459C64.1352 48.616 63.4017 48.7208 62.8092 48.8054C61.8862 48.9344 61.0075 49.0593 61.1285 50.0065C61.2212 50.7401 61.9346 52.2918 62.3658 53.1705L61.9789 53.1261C61.8056 53.0899 60.9068 52.9448 60.4191 53.4284C60.2417 53.6098 60.0483 53.9524 60.1772 54.5287C60.3949 55.5444 61.1567 55.9152 61.6645 56.1611C61.8015 56.2256 61.9829 56.3183 62.0353 56.3707C62.0434 56.4956 62.0111 56.7697 61.9547 57.1123C61.3743 56.9753 59.2785 56.3465 58.6094 54.1096C58.0048 52.0742 57.6904 49.3818 59.6573 48.1202C60.544 47.5479 61.3139 47.3706 62.0635 47.1973C62.8213 47.0199 63.5427 46.8547 64.2037 46.2944C65.1952 45.4561 65.7676 45.6777 67.4765 46.3387L67.678 46.4153C68.0609 46.5645 68.5285 46.8063 68.5889 47.1368C68.6292 47.3262 68.5164 47.5801 68.2786 47.8703ZM45.2805 67.4586C45.2805 66.2656 46.2559 65.2942 47.4529 65.2942H51.4028C51.3948 65.3184 51.3787 65.3345 51.3666 65.3587C50.0849 67.9665 45.9496 78.0588 46.7033 81.8596H45.2805V67.4586ZM47.4691 81.8596C46.6589 78.736 50.4395 68.9297 52.0356 65.6852C53.4423 62.8316 55.7195 62.489 58.3353 62.36C58.5812 62.3439 58.7988 62.3358 58.9883 62.3278C59.2704 62.3157 59.5364 62.2472 59.7823 62.1343C60.2458 62.4447 61.6726 63.6014 61.4912 65.9714C61.2655 68.8169 59.2099 76.0033 59.0003 76.7328L54.5466 77.148L57.0375 70.808C57.11 70.6185 57.0173 70.4009 56.8279 70.3283C56.6385 70.2558 56.4208 70.3485 56.3442 70.5379L53.7204 77.2245L51.5479 77.4301C51.3424 77.4462 51.1932 77.6276 51.2134 77.8331C51.2295 78.0226 51.3948 78.1677 51.5802 78.1677C51.5923 78.1677 51.6044 78.1677 51.6165 78.1636L55.7276 77.7767C55.3286 78.5748 54.8409 80.195 56.2233 81.8556H47.4691V81.8596ZM57.2471 81.8596C55.0263 79.8282 56.5538 77.817 56.6223 77.7283C56.6264 77.7203 56.6304 77.7042 56.6385 77.6961L60.1974 77.3656C59.9717 78.1032 59.8064 78.6755 59.7621 78.8367C59.7057 79.0302 59.8185 79.2398 60.016 79.2922C60.0523 79.3002 60.0845 79.3043 60.1208 79.3043C60.282 79.3043 60.4312 79.1995 60.4795 79.0342C60.8584 77.7042 61.9668 74.0727 62.527 73.2787C63.1518 72.4 65.7152 71.8196 67.1742 72.2227C67.4926 72.3113 67.678 72.4484 67.67 72.5894C67.6538 72.7628 67.408 72.9844 67.0734 73.0288C66.8598 73.057 66.6422 73.0771 66.4245 73.1013C65.6749 73.1739 64.9695 73.2424 64.4818 73.5648C64.4697 73.5769 64.4617 73.589 64.4496 73.5971C64.0546 73.4842 63.7281 73.4036 63.575 73.3633C63.3775 73.3149 63.1719 73.4359 63.1236 73.6334C63.0752 73.8349 63.2001 74.0324 63.3976 74.0807C64.6148 74.379 66.4648 74.9795 66.7631 75.3786C66.8397 75.4834 66.8397 75.5478 66.8276 75.5922C66.7913 75.7615 66.5737 75.9388 66.4326 76.0234C65.292 75.2576 63.2646 74.6934 62.7648 74.5604C62.5714 74.508 62.3658 74.6249 62.3094 74.8264C62.261 75.0198 62.3739 75.2254 62.5754 75.2778C64.0506 75.6688 66.2351 76.4829 66.4769 77.0633C66.489 77.0956 66.485 77.1036 66.481 77.1117C66.4205 77.2245 66.1424 77.3656 65.9167 77.4301C64.8809 76.5837 62.781 76.1282 62.261 76.0234C62.0635 75.9872 61.866 76.1161 61.8257 76.3136C61.7895 76.5152 61.9184 76.7127 62.1159 76.7489C63.5387 77.0311 65.6789 77.7525 65.7595 78.4055C65.7635 78.4256 65.7595 78.4377 65.7635 78.4377C65.699 78.5022 65.2758 78.744 62.6359 78.0226C62.3537 77.946 62.2933 77.9299 62.2207 77.9299C62.0152 77.9299 61.8499 78.0992 61.8499 78.3007C61.8499 78.4901 61.995 78.6473 62.1804 78.6675C62.2248 78.6795 62.3134 78.7037 62.4384 78.74C62.5069 78.7602 62.5754 78.7763 62.6399 78.7924L62.4384 79.3083H60.8947C60.6932 79.3083 60.5239 79.4776 60.5239 79.6791V80.5175C60.5239 81.0334 60.7294 81.509 61.068 81.8516H57.2471V81.8596ZM88.2659 80.3441V80.195C88.2659 80.1749 88.2538 80.1587 88.2497 80.1386C89.1445 80.0902 89.9184 79.5461 90.2731 78.736L100.68 77.3777C101.53 77.2689 102.244 76.7046 102.55 75.9106L106.331 68.2889H113.69C114.303 69.5101 114.972 70.8684 115.573 72.13H114.105C113.904 72.13 113.739 72.2872 113.735 72.4887C113.586 76.3741 115.79 77.821 116.745 78.2644C116.919 78.345 117.104 78.3853 117.29 78.3853C117.374 78.3853 117.459 78.3732 117.539 78.3571C117.455 79.4252 117.124 80.4207 116.685 81.0535C116.443 81.4001 116.048 81.8153 115.54 81.8274C115.492 81.8274 115.448 81.8435 115.411 81.8596H87.6129C88.0119 81.4767 88.2659 80.9407 88.2659 80.3441ZM117.269 75.9912C117.443 76.491 117.531 77.0311 117.552 77.5712C117.402 77.6558 117.221 77.6719 117.056 77.5913C116.076 77.1399 114.472 75.9267 114.468 72.8716H115.923C116.528 74.1694 117.032 75.306 117.269 75.9912ZM116.975 70.4251H115.573C114.408 68.0269 113.17 65.6046 112.654 64.5929L114.4 64.6292C115.125 66.2616 116.048 68.3292 116.975 70.4251ZM115.573 63.8271C115.548 63.8594 115.492 63.9118 115.395 63.9118C115.395 63.9118 115.395 63.9118 115.391 63.9118L105.436 63.7022C105.005 63.6901 104.61 63.5087 104.315 63.1943C104.025 62.88 103.884 62.4688 103.916 62.0416L105.053 46.105C105.432 45.7987 106.335 44.9523 105.972 44.0655C105.851 43.7753 105.645 43.5658 105.371 43.461C105.073 43.3441 104.751 43.3723 104.497 43.4287C104.299 42.5702 103.727 40.6275 102.49 39.8013C103.55 38.7493 104.791 38.6364 105.678 38.7453C107.544 38.975 109.495 40.3817 110.309 42.0946C111.441 44.4726 114.932 60.4576 115.621 63.6377C115.641 63.7304 115.601 63.7949 115.573 63.8271ZM39.6297 35.8836V0.741613H120.038V47.7897H112.743C112.022 44.92 111.373 42.6025 110.978 41.7722C110.051 39.8214 107.902 38.2737 105.766 38.0077C104.13 37.8102 102.655 38.3946 101.611 39.6602C101.55 39.7327 100.136 41.4417 100.031 43.2715L99.0676 43.8277C98.9669 43.8842 98.8983 43.989 98.8822 44.1059C98.8701 44.2187 98.9104 44.3356 98.9991 44.4162L99.8374 45.2021C99.8334 45.6657 99.8898 46.9071 100.547 47.7897H91.849C91.8248 46.7902 91.8127 45.6898 91.8691 45.0812C91.9618 44.0776 91.4016 43.868 91.2283 43.8318C90.7648 43.727 90.2448 44.0414 89.8619 44.6258C89.1163 42.9249 88.1449 40.829 87.617 40.2245C87.1978 39.7368 86.8149 39.5836 86.4844 39.765C85.8717 40.1036 86.1136 41.3732 86.4239 42.3808C86.7101 43.3118 87.1091 44.2227 87.3227 44.6822C87.0285 44.7588 86.7343 44.9482 86.4723 45.2545C86.4521 45.2747 86.4441 45.2989 86.432 45.3231C86.3594 45.315 86.2869 45.3069 86.2143 45.3069C85.771 45.3231 85.376 45.5609 85.0415 46.0284C85.0253 46.0486 85.0213 46.0727 85.0092 46.0889C84.9891 46.0889 84.9729 46.0889 84.9528 46.0889C84.715 46.105 84.3885 46.2299 84.1427 46.7015C83.9452 47.0804 83.8323 47.4471 83.8001 47.7897H69.2096C69.3305 47.5116 69.3749 47.2496 69.3265 46.9917C69.2257 46.4597 68.7622 46.0324 67.9521 45.7221L67.7506 45.6415C66.0094 44.9684 65.0542 44.6016 63.7281 45.7221C63.2042 46.1695 62.5996 46.3105 61.9023 46.4718C61.1285 46.6491 60.2579 46.8506 59.2623 47.4915C59.1172 47.5842 58.9842 47.6849 58.8552 47.7897H39.6338V46.5806C39.8393 46.6128 40.0408 46.6289 40.2504 46.6289C40.3713 46.6289 40.4923 46.6209 40.6172 46.6128C44.0592 46.2944 45.3571 42.9249 46.5743 30.9986C47.2635 30.8576 48.8233 30.2933 49.3473 28.0604C49.4883 28.0685 49.6334 28.0685 49.7826 28.0443C49.976 28.012 50.105 27.8427 50.0929 27.6533C50.0889 27.6291 50.0808 27.4719 50.0566 27.2422C50.0687 27.2341 50.0808 27.2301 50.0929 27.2221C50.758 27.5606 51.4875 27.871 52.2775 28.1571C51.7857 29.2051 51.4149 30.2087 51.1731 31.1518C50.1574 31.2082 49.3513 32.0466 49.3513 33.0703C49.3513 34.0699 50.1171 34.8881 51.0925 34.9848C51.2618 35.4927 51.5238 35.932 51.8784 36.2826C52.5757 36.9799 53.5632 37.3064 54.7723 37.3064C57.5292 37.3064 61.4146 35.5894 65.5015 32.5584C67.5249 34.0618 69.5119 35.2589 71.37 36.069C71.3619 36.1416 71.3539 36.2101 71.3539 36.2826C71.3539 37.3467 72.2204 38.2092 73.2885 38.2092C74.022 38.2092 74.6589 37.7981 74.9853 37.2016C75.4448 37.2782 75.8761 37.3185 76.2791 37.3144C77.4923 37.3144 78.4475 36.9678 79.1408 36.2786C80.5998 34.8236 80.4991 32.0345 78.8546 28.4231C78.8143 28.3385 78.774 28.2498 78.7337 28.1692C82.4781 26.815 84.7875 24.8803 84.7875 22.7039C84.7875 20.5193 82.4781 18.5847 78.7337 17.2345C79.2899 16.0575 79.697 14.933 79.9267 13.9053C80.9021 13.8085 81.6679 12.9863 81.6679 11.9908C81.6679 10.9267 80.8014 10.0642 79.7333 10.0642C79.6003 9.74174 79.435 9.41124 79.1408 9.12507C77.6817 7.67006 74.8805 7.77082 71.2531 9.40721C69.4152 10.2375 67.4644 11.4225 65.5015 12.8694C63.9176 11.7046 62.3255 10.7171 60.7778 9.93923C60.7899 9.84653 60.798 9.75383 60.798 9.65307C60.798 8.59304 59.9314 7.73051 58.8673 7.73051C58.2345 7.73051 57.6743 8.0328 57.3237 8.50034C54.865 7.80709 52.9909 8.02071 51.8825 9.12507C50.4194 10.5801 50.5202 13.3692 52.1646 16.9846C52.2049 17.0692 52.2492 17.1579 52.2895 17.2506C51.556 17.5126 50.8789 17.7987 50.2582 18.1091C49.7181 17.5287 49.0571 17.8955 48.0454 18.4517C47.8479 18.5645 47.6263 18.6854 47.3764 18.8225L47.2071 18.9152C45.5868 19.7817 45.1515 20.0155 44.5832 21.7003C44.0875 23.1915 42.9831 26.6215 42.3664 28.939C42.0158 30.249 40.6978 33.5419 39.666 36.0448C39.6539 36.0206 39.6378 36.0005 39.6257 35.9763C39.6176 35.9441 39.6297 35.9159 39.6297 35.8836ZM52.8256 16.6742C51.3424 13.4095 51.1812 10.8501 52.3903 9.64501C53.4906 8.54871 55.4293 8.75426 56.9811 9.17747C56.9448 9.3266 56.9206 9.48782 56.9206 9.65307C56.9206 10.7171 57.7872 11.5796 58.8552 11.5796C59.5566 11.5796 60.1732 11.2008 60.5078 10.6405C61.9386 11.366 63.4017 12.2689 64.8688 13.3329C64.0546 13.9617 63.2404 14.6348 62.4303 15.3441C58.9359 15.5618 55.6631 16.1341 52.9828 17.0047C52.9344 16.8919 52.878 16.783 52.8256 16.6742ZM58.8552 8.46407C59.5082 8.46407 60.0442 8.99609 60.0442 9.64904C60.0442 10.302 59.5082 10.834 58.8552 10.834C58.1983 10.834 57.6662 10.302 57.6662 9.64904C57.6662 8.99609 58.1983 8.46407 58.8552 8.46407ZM79.7212 13.1717C79.0642 13.1717 78.5322 12.6397 78.5322 11.9867C78.5322 11.3338 79.0642 10.8018 79.7212 10.8018C80.3782 10.8018 80.9102 11.3338 80.9102 11.9867C80.9102 12.6397 80.3782 13.1717 79.7212 13.1717ZM77.7906 11.9867C77.7906 12.8573 78.371 13.5949 79.169 13.8327C78.9393 14.8081 78.5483 15.8681 78.0163 16.9886C75.3924 16.1341 72.1519 15.5457 68.5526 15.3361C67.7425 14.6187 66.9284 13.9496 66.1061 13.3249C67.9642 11.9666 69.8061 10.8622 71.5473 10.0803C74.8201 8.6011 77.3915 8.43988 78.6007 9.64501C78.7579 9.8022 78.8667 9.98357 78.9715 10.2093C78.2783 10.5035 77.7906 11.1887 77.7906 11.9867ZM78.1654 28.7295C79.6527 31.9901 79.8099 34.5495 78.6047 35.7546C77.8752 36.4801 76.7305 36.7179 75.199 36.4801C75.203 36.4156 75.207 36.3471 75.207 36.2786C75.207 35.2186 74.3405 34.356 73.2764 34.356C72.5428 34.356 71.906 34.7591 71.5796 35.3556C69.8464 34.5938 67.9924 33.4814 66.1061 32.0909C66.9203 31.4621 67.7385 30.7931 68.5607 30.0636C72.1559 29.8499 75.3924 29.2655 78.0163 28.4111C78.0646 28.5158 78.1211 28.6206 78.1654 28.7295ZM73.2764 37.4636C72.6235 37.4636 72.0874 36.9315 72.0874 36.2786C72.0874 35.6257 72.6235 35.0936 73.2764 35.0936C73.9334 35.0936 74.4654 35.6257 74.4654 36.2786C74.4654 36.9315 73.9334 37.4636 73.2764 37.4636ZM51.2779 31.8813C51.9308 31.8813 52.4669 32.4133 52.4669 33.0663C52.4669 33.7192 51.9308 34.2513 51.2779 34.2513C50.6209 34.2513 50.0889 33.7192 50.0889 33.0663C50.0889 32.4133 50.6209 31.8813 51.2779 31.8813ZM53.2085 33.0663C53.2085 32.2279 52.6644 31.5105 51.9107 31.2485C52.1485 30.3578 52.5072 29.4026 52.9909 28.3949C55.6631 29.2655 58.9318 29.8419 62.4263 30.0555C63.2404 30.777 64.0506 31.446 64.8607 32.0748C59.4316 36.0206 54.333 37.6852 52.3943 35.7546C52.1606 35.5249 51.9752 35.2347 51.8422 34.9082C52.6321 34.6664 53.2085 33.9328 53.2085 33.0663ZM60.2095 27.9717C60.6488 28.4111 61.0922 28.8383 61.5396 29.2534C58.4965 29.0076 55.6711 28.4836 53.3173 27.7259C54.0468 26.3152 54.986 24.8239 56.0903 23.3205C57.3075 24.8924 58.69 26.4603 60.2095 27.9717ZM56.5538 22.7079C57.7791 21.1037 59.1857 19.4915 60.7294 17.9519C61.3904 17.2949 62.0555 16.6662 62.7326 16.0656C63.6435 16.0132 64.5624 15.985 65.4975 15.985C66.4326 15.985 67.3556 16.0092 68.2584 16.0616C68.9355 16.6621 69.6046 17.2909 70.2616 17.9519C71.8093 19.4915 73.22 21.0916 74.4453 22.6918C73.22 24.2919 71.8133 25.9 70.2616 27.4478C69.6006 28.1088 68.9315 28.7335 68.2584 29.3381C67.3556 29.3864 66.4326 29.4146 65.4975 29.4146C64.5624 29.4146 63.6395 29.3864 62.7286 29.334C62.0595 28.7335 61.3945 28.1047 60.7294 27.4478C59.1857 25.9041 57.7791 24.308 56.5538 22.7079ZM63.6233 30.116C64.244 30.1361 64.8688 30.1522 65.5015 30.1522C66.1263 30.1522 66.743 30.1401 67.3516 30.12C66.7268 30.648 66.1021 31.1478 65.4814 31.6193C64.8607 31.1437 64.24 30.644 63.6233 30.116ZM69.4555 29.2494C69.9029 28.8383 70.3462 28.4111 70.7855 27.9677C72.301 26.4603 73.6915 24.8803 74.9047 23.3084C76.0051 24.7997 76.9401 26.2829 77.6737 27.7097C75.3521 28.4554 72.5388 28.9955 69.4555 29.2494ZM75.3723 22.6918C76.5814 21.0675 77.5971 19.4553 78.379 17.9277C81.8453 19.153 84.0298 20.8538 84.0298 22.6998C84.0298 24.5418 81.8453 26.2426 78.3831 27.4719C77.5931 25.9242 76.5774 24.312 75.3723 22.6918ZM74.9047 22.0832C73.6915 20.5113 72.305 18.9434 70.7896 17.4319C70.3503 16.9926 69.9029 16.5654 69.4555 16.1502C72.5348 16.4042 75.3521 16.9443 77.6697 17.6859C76.9442 19.0965 76.0131 20.5798 74.9047 22.0832ZM67.3556 15.2797C66.743 15.2555 66.1223 15.2434 65.4975 15.2434C64.8688 15.2434 64.2481 15.2595 63.6314 15.2837C64.2481 14.7597 64.8688 14.2599 65.4895 13.7884C66.1142 14.2599 66.7349 14.7557 67.3556 15.2797ZM61.5436 16.1502C61.0922 16.5654 60.6488 16.9926 60.2095 17.4319C58.6819 18.9474 57.2954 20.5193 56.0863 22.0832C54.9819 20.5919 54.0468 19.1046 53.3173 17.6697C55.6711 16.9201 58.5046 16.3921 61.5436 16.1502ZM55.6187 22.6998C54.4056 24.3322 53.3818 25.9484 52.5999 27.484C51.9873 27.2664 51.4028 27.0326 50.8708 26.7827C51.7011 26.2588 51.7495 25.9887 51.7696 25.8839C51.8663 25.3116 51.0965 23.7921 49.9236 22.6232C49.0611 21.7688 48.0535 21.6922 47.4167 21.7527C47.5295 21.5229 47.6786 21.3174 47.8802 21.1884C48.0978 21.0433 48.3638 20.8901 48.646 20.7249C49.5045 20.2332 50.3992 19.7213 50.5685 19.0845C50.5967 18.9756 50.6048 18.8708 50.5927 18.762C51.2053 18.4597 51.8784 18.1776 52.608 17.9156C53.3939 19.4633 54.4096 21.0796 55.6187 22.6998ZM47.1587 22.5386C47.5376 22.4499 48.5654 22.321 49.3956 23.1472C49.5045 23.252 49.6012 23.3608 49.6979 23.4696L49.178 24.0218C48.7427 23.4374 47.9567 23.1714 47.0902 23.1351C47.0942 22.9699 47.1184 22.7603 47.1587 22.5386ZM49.5327 24.7272L50.1695 24.05C50.2622 24.175 50.3468 24.2959 50.4194 24.4128L49.6617 25.1342C49.6213 24.9891 49.577 24.8602 49.5327 24.7272ZM49.9357 26.4079C49.9115 26.2668 49.8874 26.1177 49.8591 25.9686L50.7942 25.0778C50.9474 25.3922 51.0199 25.63 51.032 25.7348C50.9192 25.8678 50.5161 26.1378 50.0486 26.3958C50.0083 26.3918 49.976 26.3958 49.9357 26.4079ZM49.8309 18.7902C49.8591 18.8346 49.8591 18.8587 49.8471 18.891C49.7584 19.2336 48.8676 19.7455 48.2752 20.084C47.9809 20.2493 47.7028 20.4105 47.465 20.5677C46.5219 21.1964 46.3687 22.6031 46.3445 23.1512C45.9415 23.1835 45.5425 23.2601 45.1676 23.3649C44.9742 23.4213 44.8573 23.6268 44.9137 23.8243C44.9701 24.0178 45.1757 24.1307 45.3732 24.0783C46.6146 23.7236 48.1663 23.7921 48.6218 24.5135C49.0007 25.1181 49.2223 26.5006 49.311 27.3067C49.1981 27.2865 49.0934 27.2422 48.9966 27.1697C48.5734 26.8714 48.38 26.1782 48.3437 25.9363C48.3114 25.7469 48.1462 25.6139 47.9527 25.626C47.7593 25.6381 47.6101 25.7952 47.6061 25.9847C47.59 26.7585 47.3643 27.3551 46.929 27.7621C46.2438 28.407 45.2482 28.3788 45.2281 28.3788C45.0266 28.3748 44.8492 28.5279 44.8412 28.7335C44.8291 28.939 44.9903 29.1124 45.1959 29.1204C45.1999 29.1204 45.22 29.1204 45.2563 29.1204C45.5264 29.1204 46.6186 29.068 47.4328 28.3103C47.731 28.0322 47.9567 27.6936 48.1099 27.3067C48.2308 27.48 48.38 27.6412 48.5573 27.7702C48.5855 27.7904 48.6137 27.8024 48.6419 27.8186C48.6419 27.8266 48.6379 27.8307 48.6379 27.8347C48.1099 30.1966 46.2962 30.2973 46.2236 30.2973C46.0342 30.3054 45.8851 30.4465 45.8649 30.6319C45.8528 30.7649 45.8367 30.8938 45.8206 31.0309C44.8533 31.2042 44.1116 31.0994 43.6199 30.7205C43.0516 30.2812 42.9992 29.5799 42.9992 29.5678C42.9952 29.5315 42.9831 29.4993 42.971 29.467C43.0113 29.3381 43.0476 29.2212 43.0718 29.1164C43.6844 26.8109 44.7807 23.4052 45.2805 21.9219C45.7521 20.5153 45.9899 20.3863 47.5456 19.552L47.719 19.4593C47.9729 19.3223 48.1945 19.1973 48.3961 19.0885C49.6173 18.4194 49.6254 18.4396 49.8309 18.7902ZM20.8959 26.0129C22.9112 28.3143 26.7522 30.2772 26.9175 30.3618C26.9699 30.386 27.0263 30.3981 27.0828 30.3981C27.1634 30.3981 27.2399 30.3739 27.3044 30.3296C27.4173 30.2449 27.4737 30.1039 27.4495 29.9668L27.1755 28.3506L28.308 30.2207C28.3765 30.3336 28.5015 30.4021 28.6264 30.4021C28.6466 30.4021 28.6627 30.4021 28.6829 30.3981C28.832 30.3779 28.9529 30.2651 28.9892 30.116L29.3801 28.4191C29.6865 29.1446 29.9646 30.1361 29.6703 30.7891C29.493 31.1719 29.1262 31.4057 28.5499 31.5105C24.9909 32.1433 21.1055 27.5848 19.985 26.154C20.3881 26.0774 20.7105 26.0371 20.8959 26.0129ZM28.2032 27.1173C28.6426 27.2261 28.7594 27.5526 28.7877 27.6775L28.4692 29.0519L26.8853 26.4401L27.0183 26.0008C27.2923 26.4804 27.6914 26.9883 28.2032 27.1173ZM26.2283 26.0451C25.0151 25.7066 24.1163 24.8158 23.5802 24.1307L23.9027 21.1199C23.9228 20.9466 23.8221 20.7894 23.6608 20.7329C23.1651 20.5516 21.7867 19.8664 21.9479 19.0845C22.0164 18.7822 22.2099 18.6129 22.5283 18.5927C22.9878 18.5565 23.6044 18.8507 23.7898 19.3384C23.8866 19.5923 23.9712 19.9873 24.0679 20.4427C24.3622 21.8091 24.7612 23.6792 26.059 24.6506C26.2162 24.7675 26.3855 24.8682 26.5628 24.969L26.2283 26.0451ZM26.3935 19.5238C26.3411 19.5077 25.0917 19.0845 24.9788 17.2465C24.9587 16.912 24.9305 16.6057 24.9063 16.3276C24.8458 15.6182 24.7894 14.9492 24.9466 14.8C24.9667 14.7758 25.0312 14.7436 25.2126 14.7436C25.2892 14.7436 25.3778 14.7476 25.4947 14.7638C25.801 14.8081 26.1033 14.8806 26.4217 14.9532C27.4334 15.191 28.57 15.461 30.0411 14.8081C30.1782 15.0378 30.3837 15.4288 30.5691 15.9608C30.545 15.9487 30.5248 15.9326 30.5006 15.9205C30.3434 15.848 30.1661 15.8157 29.9847 15.8238C29.8074 15.8278 29.626 15.8762 29.4769 15.9648C29.3197 16.0495 29.1988 16.1785 29.1061 16.3115C29.0779 16.3598 29.0698 16.4163 29.094 16.4687C29.1302 16.5452 29.2229 16.5775 29.2995 16.5412L29.3157 16.5372C29.5696 16.4122 29.7792 16.3155 30.0129 16.2953C30.1298 16.2792 30.2507 16.2833 30.3757 16.3034C30.4805 16.3195 30.5933 16.3477 30.6981 16.376C30.9399 17.1901 31.1133 18.2542 31.0286 19.548C30.2104 19.3988 28.3483 19.294 27.4253 20.213C27.0666 20.5677 26.7643 20.7087 26.5588 20.7652L26.6475 19.9147C26.6676 19.7414 26.5588 19.5762 26.3935 19.5238ZM21.6013 20.741C20.2067 20.1364 19.582 17.44 20.1422 14.4655C20.646 11.7691 22.8023 11.6724 25.793 11.8295C26.6878 11.8779 27.3326 11.9666 27.8526 12.0391C28.8441 12.1762 29.497 12.2689 30.7304 11.9505C31.1616 11.8416 31.742 11.7892 32.0685 12.1681C32.3385 12.4744 32.3788 13.0185 32.1693 13.5224C31.8549 14.2922 31.9395 14.7597 32.0201 15.2152C32.0725 15.5013 32.1249 15.7714 32.0765 16.1543C32.0201 16.5815 31.7864 16.7669 31.5808 16.8435C31.2221 15.1225 30.5047 14.1672 30.4563 14.1068C30.3475 13.9657 30.15 13.9214 29.9928 14.006C28.6143 14.7154 27.6269 14.4816 26.583 14.2358C26.2646 14.1632 25.93 14.0826 25.5915 14.0342C25.2489 13.9859 24.7571 13.9576 24.4266 14.264C24.0115 14.6549 24.0679 15.3119 24.1606 16.3921C24.1808 16.6662 24.209 16.9684 24.2292 17.2949C24.342 19.0965 25.3617 19.8422 25.8776 20.1082L25.7688 21.1078C25.7487 21.2851 25.8615 21.4504 26.0308 21.5028C26.1195 21.5269 26.9417 21.7365 27.9453 20.741C28.6345 20.0518 30.3152 20.1485 31.0206 20.3057C31.0407 20.3097 31.0488 20.3178 31.0488 20.3178C31.0891 20.3742 31.081 20.6402 31.073 20.7813C31.0649 21.0433 31.0528 21.3456 31.1576 21.6156C31.2503 21.8655 31.48 22.0751 31.7501 22.321C32.395 22.9013 32.6166 23.2077 32.3466 23.6027C31.6775 24.4974 30.7263 24.8037 30.0452 24.9005C28.828 25.0778 27.4012 24.7393 26.4943 24.0621C25.4181 23.2601 25.0514 21.5431 24.7813 20.2936C24.6765 19.8099 24.5879 19.3908 24.471 19.0804C24.1526 18.2421 23.2014 17.7987 22.4598 17.8552C21.8108 17.9035 21.3433 18.3106 21.2103 18.9313C20.9403 20.2009 22.4759 21.0272 23.1208 21.3133L23.0724 21.7607C22.758 21.4262 22.2623 21.0272 21.6013 20.741ZM22.6814 24.1589C23.2215 24.9569 24.3904 26.3595 26.1598 26.7988L26.5951 29.3421C25.4302 28.6932 23.0119 27.2382 21.561 25.6461C21.8229 25.372 22.2421 24.8803 22.6814 24.1589ZM10.1345 45.0006C10.2675 44.3759 10.4005 43.731 10.4851 43.1063C11.0051 39.2652 12.9478 30.6238 14.439 28.5763C15.3378 27.347 17.5425 26.6618 19.1668 26.3112C19.8883 27.2865 23.8019 32.3086 27.8526 32.3086C28.1266 32.3086 28.4048 32.2844 28.6829 32.232C29.5091 32.0869 30.0653 31.6999 30.3475 31.0873C30.8432 30.0112 30.2709 28.532 29.9081 27.7823C31.3511 28.141 34.7327 29.7532 39.3113 36.8671C38.7632 38.1931 38.3561 39.1403 38.344 39.1685C38.2634 39.3579 38.3521 39.5756 38.5415 39.6562C38.5899 39.6763 38.6382 39.6844 38.6866 39.6844C38.8317 39.6844 38.9687 39.5997 39.0292 39.4587C39.1461 39.1846 41.4676 33.7434 42.576 30.6319C42.709 30.8616 42.8944 31.0954 43.1524 31.3009C43.624 31.6717 44.2366 31.8571 44.9742 31.8571C45.216 31.8571 45.474 31.833 45.74 31.7926C44.6034 42.542 43.4385 45.6092 40.5446 45.8752C37.5742 46.1453 35.2123 42.147 35.1921 42.1067C35.1599 42.0503 35.1156 42.014 35.0672 41.9818C34.8012 37.7618 34.644 34.0054 34.644 33.953C34.6319 33.7515 34.4626 33.5862 34.253 33.5983C34.0515 33.6064 33.8903 33.7797 33.8983 33.9852C33.9024 34.0538 34.2047 41.2442 34.6803 46.9353C34.9181 49.7727 35.2768 53.2229 35.575 55.9797C35.3453 56.2135 34.0717 57.3944 31.9597 57.1929C29.7026 56.9753 22.8467 53.3277 21.8794 52.8077C21.9318 51.3648 21.9398 48.7732 21.3957 47.3988C20.7105 45.6536 18.0826 40.9983 17.6191 40.1842L18.268 36.6413C18.3003 36.4439 18.1713 36.2504 17.9657 36.2101C17.7642 36.1778 17.5708 36.3068 17.5345 36.5124L15.5958 47.1287C15.4426 47.963 15.7127 48.8135 16.3173 49.41L24.0841 57.0277C23.8906 59.2243 22.4759 60.3125 21.9479 60.6511C21.0652 59.9699 17.3047 57.0921 12.8873 53.8476C8.88098 50.9053 9.5178 47.9026 10.1345 45.0006ZM17.4095 41.3248C18.3164 42.941 20.1664 46.2984 20.7065 47.6688C21.2345 49.0029 21.1821 51.7799 21.1216 53.0818L16.8412 48.882C16.41 48.4588 16.2165 47.8542 16.3294 47.2617L17.4095 41.3248ZM21.3635 61.1307C21.573 61.2879 21.6899 61.3806 21.694 61.3846C21.7625 61.433 21.8391 61.4612 21.9197 61.4612C21.9761 61.4612 22.0325 61.4491 22.0849 61.4209C22.1897 61.3685 24.6483 60.1191 24.8378 56.9027C24.8458 56.7979 24.8015 56.6931 24.7289 56.6165L21.8229 53.767C21.827 53.7307 21.831 53.6823 21.835 53.6178C23.5278 54.5247 29.63 57.7088 31.8871 57.9224C32.0725 57.9426 32.2579 57.9466 32.4353 57.9466C33.979 57.9466 35.0833 57.3138 35.6718 56.8624C35.9297 59.1638 36.1191 60.8042 36.1272 60.8445C36.1554 61.0179 38.8156 77.6679 39.4483 81.8556H33.0479C32.6045 73.0852 31.2866 61.9328 31.2704 61.8199C31.2463 61.6184 31.0649 61.4733 30.8593 61.4975C30.6538 61.5176 30.5087 61.703 30.5329 61.9086C30.545 62.0215 31.8549 73.1174 32.3023 81.8556H21.6617L21.3635 61.1307ZM9.30821 128.722H7.34938V84.9994H9.30821V128.722ZM32.4272 84.9994C32.4433 85.6281 32.4514 86.2005 32.4514 86.9058C32.4514 95.1401 29.2189 118.094 28.8199 120.911C28.5055 120.939 28.1952 120.988 27.8929 121.064L22.2461 122.483L21.7061 84.9994H32.4272ZM32.399 121.48C32.5723 121.725 32.931 122.233 33.3341 122.83C32.4474 122.616 31.6816 122.761 31.2463 122.894C30.6377 122.346 30.0613 121.911 29.6179 121.6L32.399 121.48ZM28.4249 121.709C28.4289 121.713 28.433 121.717 28.433 121.717C28.4491 121.721 29.2512 122.185 30.2306 122.995C26.7805 123.128 25.7285 125.3 25.4544 126.115H24.1244C23.8382 124.615 23.157 123.66 22.6573 123.14L28.0783 121.778C28.1911 121.754 28.308 121.733 28.4249 121.709ZM22.4235 127.437L22.2905 123.845C22.7177 124.357 23.2538 125.228 23.4392 126.542C23.4634 126.723 23.6246 126.86 23.8059 126.86H25.7285C25.9099 126.86 26.063 126.731 26.0953 126.558C26.1195 126.437 26.7119 123.527 31.0004 123.749C31.0206 123.749 31.0407 123.745 31.0568 123.745C31.3994 124.071 31.734 124.422 32.0524 124.813C33.064 126.038 33.3824 126.965 33.4872 127.445H22.4235V127.437ZM35.4904 127.461L34.245 127.441C34.1523 126.892 33.8258 125.788 32.6328 124.337C32.3909 124.039 32.133 123.765 31.8791 123.503C32.4191 123.414 33.2172 123.422 34.0515 123.914C34.5432 124.68 34.9906 125.433 35.1841 125.909C35.4864 126.643 35.5105 127.171 35.4904 127.461ZM39.0735 99.5858C37.9168 105.297 33.0277 118.803 32.3224 120.742L29.5776 120.863C30.0653 117.441 33.197 95.0555 33.197 86.9058C33.197 86.2005 33.193 85.6281 33.1769 84.9994H39.7909C39.9562 87.2726 40.2625 93.7093 39.0735 99.5858ZM45.3732 84.9994H50.6935L50.2058 86.535H47.4529C46.4735 86.535 45.6432 85.8982 45.3732 84.9994ZM65.6305 86.2771H57.372L57.8033 84.9954H65.9127L65.6305 86.2771ZM56.5256 86.4625C56.5014 86.5108 56.4853 86.5592 56.4772 86.6076L55.8243 88.5704H50.3468L51.4754 84.9994H57.0214L56.5256 86.4625ZM49.0974 87.2766H49.976L49.4843 88.8284C49.448 88.9412 49.4682 89.0662 49.5367 89.1629C49.6093 89.2596 49.7181 89.312 49.839 89.312H50.1735C49.6254 90.8517 48.2389 95.4465 50.1373 98.0502C50.367 98.3686 50.6491 98.6346 50.9595 98.8684H49.569C49.3755 98.8684 49.1901 98.8885 49.0087 98.9248L49.0974 87.2766ZM48.7467 128.452H46.1551L48.2953 104.761H50.9313L48.7467 128.452ZM47.9567 104.019C47.5779 104.019 47.2675 103.709 47.2675 103.33V101.903C47.2675 100.638 48.2993 99.61 49.569 99.61H52.3016C53.7647 100.19 55.5301 100.339 56.9649 100.339C57.9927 100.339 58.8472 100.263 59.2865 100.215L59.754 104.019H47.9567ZM70.3946 123.559L69.8142 117.711C69.8263 117.671 69.8384 117.63 69.8384 117.59C69.8344 117.123 69.7739 110.883 69.5764 104.817H71.3418L72.559 118.299C72.563 118.332 72.5751 118.36 72.5872 118.392L71.0717 123.862C70.8218 123.737 70.5961 123.64 70.3946 123.559ZM71.0919 99.6704C72.3615 99.6704 73.3933 100.702 73.3933 101.968V103.391C73.3933 103.773 73.0829 104.08 72.7041 104.08H69.5522C69.4958 102.552 69.4353 101.053 69.3628 99.6704H71.0919ZM73.1273 116.329L72.0874 104.817H72.7C73.49 104.817 74.1349 104.177 74.1349 103.391V101.964C74.1349 100.638 73.2764 99.5132 72.0874 99.0981H77.0611L73.1273 116.329ZM69.0927 117.965L69.5522 122.6L68.6373 117.965H69.0927ZM67.8836 117.965L68.5849 121.536L62.648 122.088L62.2127 117.969H67.8836V117.965ZM62.7205 122.826L68.73 122.265L69.0081 123.688C69.0403 123.833 69.1532 123.95 69.3023 123.978C69.3225 123.982 71.1402 124.357 73.4537 126.405C74.5541 127.38 74.808 128.11 74.8281 128.549C74.8402 128.783 74.7919 128.96 74.7354 129.081C74.6831 129.101 74.6427 129.137 74.6024 129.174L63.3976 129.258L62.7205 122.826ZM82.9375 129.053H75.5254C75.5617 128.904 75.5819 128.738 75.5738 128.549C75.5496 127.691 75.0015 126.784 73.9535 125.853C73.1434 125.135 72.3937 124.615 71.7448 124.232L72.5025 121.5L78.4113 122.153L77.984 123.632C77.9518 123.737 77.9679 123.845 78.0284 123.938C78.0848 124.027 78.1815 124.087 78.2904 124.103C78.4395 124.119 82.0024 124.647 82.9375 129.053ZM78.6168 121.431L72.696 120.774L73.619 117.453L79.6164 117.989L78.6168 121.431ZM87.1333 95.8938C86.8028 98.1872 81.8211 114.958 81.0996 117.38L73.8004 116.728L78.4878 96.2123C78.5322 96.0107 78.4072 95.8132 78.2057 95.7649C78.0042 95.7205 77.8067 95.8455 77.7583 96.047L77.2303 98.3645H69.2822C69.1371 96.0994 68.9597 94.3099 68.7421 93.5158C67.7868 90.098 66.7389 88.651 60.6891 89.1145C60.4836 89.1307 60.3304 89.308 60.3465 89.5095C60.3627 89.711 60.544 89.8602 60.7456 89.8521C66.5575 89.4047 67.2065 90.7912 68.0206 93.7133C68.2423 94.4953 68.4156 96.3493 68.5526 98.6991C68.5526 98.7112 68.5486 98.7233 68.5486 98.7354C68.5486 98.7555 68.5567 98.7757 68.5607 98.7998C68.9396 105.204 69.0645 115.18 69.0847 117.231H62.124L59.5485 96.3574C59.5243 96.1518 59.3429 96.0067 59.1334 96.0349C58.9318 96.0591 58.7867 96.2445 58.8109 96.446L59.1857 99.485C57.8557 99.6261 52.4951 100.033 50.7338 97.6189C48.9483 95.1724 50.5524 90.4124 50.9595 89.3161H56.0863C56.2475 89.3161 56.3845 89.2113 56.4369 89.0621L57.1181 87.0227H65.4572L65.2194 88.1029C65.1952 88.2238 65.2275 88.3487 65.3161 88.4414C65.3887 88.51 65.4854 88.5543 65.5822 88.5543C65.6023 88.5543 65.6305 88.5503 65.6507 88.5462L68.1738 88.0545C68.3068 88.0303 68.4116 87.9336 68.4519 87.8086C70.0359 87.9094 77.984 88.4576 82.5385 89.4894C87.234 90.5454 87.5202 93.1934 87.1333 95.8938ZM67.807 87.3653L66.0739 87.7039L66.6744 84.9954H68.3753L67.807 87.3653ZM86.8834 86.7285C86.3312 86.0675 85.8798 85.4024 85.6218 84.9994H88.8825C89.1284 85.3259 96.5929 95.2006 103.638 101.424C103.413 101.952 103.267 102.431 103.179 102.806C97.7295 97.4738 87.5323 87.4983 86.8834 86.7285ZM98.1648 84.9994C100.555 87.7522 105.033 92.9435 108.713 97.2924C106.169 97.8003 104.755 99.3117 103.981 100.726C97.8222 95.2449 91.3653 87.0106 89.8176 84.9954H98.1648V84.9994ZM103.812 103.419C103.949 102.484 104.787 98.5983 109.261 97.9494C110.212 99.0779 111.099 100.138 111.86 101.065C111.486 101.174 110.978 101.404 110.51 101.895C109.591 102.863 109.172 104.422 109.261 106.542L106.903 110.436C106.689 110.327 106.395 110.218 106.02 110.182C106.242 108.715 106.504 107.268 106.665 106.442C106.689 106.317 106.649 106.192 106.564 106.107C106.516 106.059 105.44 105.007 103.812 103.419ZM117.62 99.8236C115.585 100.215 114.75 102.061 114.44 103.096C113.489 101.855 111.768 99.7712 109.805 97.4416C110.196 96.7886 111.486 95.1563 114.46 95.4142C115.814 97.3086 116.991 98.953 117.62 99.8236ZM106.794 116.276C106.117 116.119 105.799 115.208 105.67 114.676C105.533 114.112 105.686 112.564 105.911 110.916C106.452 110.948 106.758 111.21 106.774 111.222C106.842 111.282 106.931 111.315 107.02 111.315C107.036 111.315 107.056 111.315 107.076 111.315C107.185 111.298 107.282 111.234 107.342 111.141L109.954 106.829C109.994 106.764 110.014 106.696 110.006 106.619C109.91 104.692 110.264 103.241 111.034 102.423C111.598 101.823 112.219 101.726 112.392 101.714C113.581 103.169 114.384 104.205 114.533 104.511C115.246 105.97 113.908 108.836 110.067 114.092C108.721 115.68 107.56 116.453 106.794 116.276ZM120.417 105.499C119.659 108.102 113.908 115.083 112.63 115.345C111.659 115.543 111.034 114.72 110.8 114.341C114.823 108.808 116.064 105.946 115.202 104.185C115.165 104.112 115.101 104.011 115.016 103.878C115.061 103.6 115.593 100.718 118.116 100.505C119.543 102.468 120.764 104.314 120.417 105.499ZM113.912 94.6484C111.24 94.6202 109.873 96.0349 109.309 96.8531C105.359 92.1777 100.635 86.7164 99.1482 84.9994H107.024C107.588 85.7853 111.014 90.5937 113.912 94.6484ZM128.611 128.722H126.648V84.9994H128.611V128.722ZM135.649 84.2578H129.051C129.03 84.2578 129.006 84.2457 128.982 84.2457H126.278C126.249 84.2457 126.229 84.2578 126.205 84.2578H21.3393C21.3352 84.2578 21.3312 84.2578 21.3312 84.2578C21.3312 84.2578 21.3312 84.2578 21.3272 84.2578C21.3232 84.2578 21.3232 84.2578 21.3191 84.2578H9.75157C9.73141 84.2578 9.70723 84.2457 9.67902 84.2457H6.97455C6.95036 84.2457 6.93021 84.2578 6.90603 84.2578H2.35155C1.77922 84.2578 1.31168 83.891 1.31168 83.4315C1.31168 82.9761 1.77922 82.6053 2.35155 82.6053H135.644C136.217 82.6053 136.684 82.9761 136.684 83.4315C136.684 83.891 136.217 84.2578 135.649 84.2578Z" fill="black"/>
<path d="M110.538 72.2668H105.537C105.335 72.2668 105.17 72.424 105.162 72.6215C105.017 76.5069 107.221 77.9579 108.177 78.4013C108.35 78.4819 108.535 78.5222 108.721 78.5222C108.987 78.5222 109.245 78.4416 109.462 78.2844C112.263 76.2611 110.901 72.545 110.885 72.5087C110.833 72.3636 110.696 72.2668 110.538 72.2668ZM109.027 77.6838C108.874 77.7967 108.664 77.8128 108.487 77.7322C107.507 77.2768 105.903 76.0636 105.899 73.0085H110.268C110.498 73.7863 111.018 76.245 109.027 77.6838Z" fill="black"/>
<path d="M27.3652 17.319C27.1274 17.3271 26.946 17.6213 26.9541 17.972C26.9661 18.3226 27.1677 18.5967 27.4095 18.5927C27.6473 18.5846 27.8287 18.2944 27.8166 17.9437C27.8045 17.5891 27.603 17.315 27.3652 17.319Z" fill="black"/>
<path d="M30.0411 18.3185C30.2789 18.3265 30.4804 18.0484 30.4885 17.6978C30.5005 17.3471 30.3151 17.0569 30.0814 17.0489C29.8395 17.0448 29.642 17.3189 29.63 17.6696C29.6179 18.0202 29.8033 18.3104 30.0411 18.3185Z" fill="black"/>
<path d="M27.4457 16.6782C27.5706 16.6944 27.7117 16.7185 27.8366 16.7468L27.8568 16.7508C27.8971 16.7588 27.9334 16.7508 27.9616 16.7226C28.0099 16.6782 28.0099 16.6057 27.9616 16.5613C27.8407 16.4364 27.6996 16.3518 27.5384 16.2913C27.3771 16.2308 27.1958 16.2067 27.0184 16.2268C26.8411 16.2429 26.6637 16.2994 26.5186 16.4001C26.3655 16.4928 26.2567 16.6299 26.172 16.7709C26.1478 16.8153 26.1438 16.8717 26.172 16.9241C26.2123 17.0007 26.305 17.0289 26.3816 16.9846L26.3977 16.9805C26.6436 16.8395 26.8451 16.7306 27.0789 16.6944C27.1958 16.6742 27.3167 16.6702 27.4457 16.6782Z" fill="black"/>
<path d="M65.5016 51.9855C65.425 51.7034 65.2114 51.518 65.018 51.5704C64.8285 51.6187 64.7358 51.8888 64.8124 52.1709C64.889 52.449 65.1066 52.6385 65.2961 52.5861C65.4855 52.5337 65.5822 52.2636 65.5016 51.9855Z" fill="black"/>
<path d="M67.5853 50.8527C67.3918 50.9011 67.2991 51.1711 67.3757 51.4533C67.4563 51.7314 67.6699 51.9208 67.8634 51.8684C68.0528 51.816 68.1455 51.546 68.069 51.2679C67.9924 50.9857 67.7747 50.8003 67.5853 50.8527Z" fill="black"/>
<path d="M66.4368 52.993C66.5295 53.0333 66.6262 53.0656 66.727 53.0776C66.8358 53.0897 66.9487 53.0897 67.0696 53.0535C67.1865 53.0212 67.3114 52.9527 67.396 52.8439C67.4807 52.731 67.521 52.6101 67.4968 52.461C67.4928 52.4489 67.4928 52.4328 67.4887 52.4207C67.4565 52.3522 67.3759 52.3239 67.3033 52.3522L67.1381 52.4328C67.0938 52.4489 67.0534 52.4973 67.0212 52.5093C66.989 52.5295 66.9648 52.5456 66.9204 52.5617C66.8721 52.5779 66.8116 52.5859 66.7471 52.598C66.6786 52.602 66.6061 52.6061 66.5254 52.6101H66.5053C66.4327 52.6182 66.3683 52.6585 66.336 52.731C66.2917 52.8318 66.336 52.9487 66.4368 52.993Z" fill="black"/>
<path d="M66.074 54.8229C66.1627 54.8673 66.2554 54.9116 66.3561 54.9479C66.4609 54.9761 66.5617 55.0124 66.6665 55.0245C66.8801 55.0648 67.1058 55.0325 67.3235 54.9841C67.5411 54.9277 67.7346 54.8149 67.9038 54.6778C68.0731 54.5327 68.2061 54.3796 68.3069 54.166C68.3391 54.0934 68.327 54.0007 68.2666 53.9362C68.19 53.8596 68.061 53.8596 67.9845 53.9402L67.9643 53.9644C67.8595 54.0692 67.7305 54.1942 67.5975 54.2788C67.4686 54.3715 67.3275 54.4441 67.1784 54.4884C67.0292 54.5368 66.872 54.5609 66.7108 54.5569C66.5456 54.5609 66.3763 54.5287 66.203 54.4965H66.1828C66.1062 54.4803 66.0337 54.5206 65.9974 54.5892C65.9531 54.6738 65.9894 54.7826 66.074 54.8229Z" fill="black"/>
<path d="M66.8679 50.6595L66.8881 50.6474C67.0775 50.5063 67.2065 50.3975 67.3717 50.3249C67.4523 50.2887 67.541 50.2604 67.6418 50.2403C67.7385 50.2201 67.8554 50.208 67.9642 50.196L67.9924 50.1919C68.0287 50.1879 68.0609 50.1677 68.0811 50.1395C68.1214 50.0831 68.1093 50.0065 68.0529 49.9662C67.9279 49.8775 67.7949 49.8251 67.6458 49.801C67.5007 49.7808 67.3435 49.7929 67.1944 49.8453C67.0453 49.8937 66.9042 49.9783 66.8034 50.0952C66.6946 50.208 66.6301 50.3451 66.5979 50.4821C66.5898 50.5305 66.5938 50.5829 66.6261 50.6272C66.6825 50.6998 66.7913 50.7159 66.8679 50.6595Z" fill="black"/>
<path d="M65.2841 50.9134L65.3123 50.9093C65.3486 50.9053 65.3808 50.8851 65.405 50.8569C65.4413 50.8005 65.4292 50.7239 65.3728 50.6836C65.2478 50.5949 65.1148 50.5426 64.9657 50.5184C64.8206 50.4982 64.6634 50.5103 64.5143 50.5627C64.3651 50.6111 64.2241 50.6957 64.1233 50.8126C64.0185 50.9255 63.954 51.0625 63.9218 51.2036C63.9097 51.2519 63.9177 51.3003 63.95 51.3446C64.0064 51.4212 64.1152 51.4373 64.1918 51.3809L64.212 51.3648C64.4014 51.2237 64.5304 51.1149 64.6956 51.0423C64.7762 51.0061 64.8689 50.9778 64.9657 50.9577C65.0624 50.9335 65.1793 50.9214 65.2841 50.9134Z" fill="black"/>
<path d="M101.796 43.0981C101.607 43.0457 101.389 43.2311 101.313 43.5132C101.236 43.7913 101.329 44.0614 101.518 44.1138C101.708 44.1662 101.925 43.9767 102.002 43.6986C102.082 43.4205 101.986 43.1465 101.796 43.0981Z" fill="black"/>
<path d="M102.699 42.3363C102.594 42.2195 102.457 42.1348 102.308 42.0864C102.159 42.0381 102.002 42.022 101.857 42.0461C101.708 42.0663 101.575 42.1187 101.45 42.2074C101.417 42.2275 101.397 42.2598 101.397 42.3001C101.389 42.3646 101.438 42.429 101.51 42.4371L101.538 42.4411C101.643 42.4492 101.76 42.4613 101.857 42.4855C101.957 42.5097 102.05 42.5338 102.131 42.5741C102.296 42.6467 102.425 42.7515 102.614 42.8926L102.635 42.9087C102.671 42.9369 102.723 42.949 102.776 42.9369C102.868 42.9127 102.929 42.82 102.905 42.7313C102.864 42.5862 102.804 42.4492 102.699 42.3363Z" fill="black"/>
<path d="M90.1763 11.9383H112.9C113.106 11.9383 113.275 11.773 113.275 11.5675V9.53206C113.275 9.32651 113.106 9.16125 112.9 9.16125H90.1763C89.9748 9.16125 89.8055 9.32651 89.8055 9.53206V11.5675C89.8055 11.773 89.9707 11.9383 90.1763 11.9383ZM90.5471 9.90287H112.525V11.1967H90.5471V9.90287Z" fill="black"/>
<path d="M90.1763 16.6097H112.9C113.106 16.6097 113.275 16.4444 113.275 16.2389V14.2034C113.275 13.9939 113.106 13.8326 112.9 13.8326H90.1763C89.9748 13.8326 89.8055 13.9939 89.8055 14.2034V16.2389C89.8055 16.4444 89.9707 16.6097 90.1763 16.6097ZM90.5471 14.5743H112.525V15.8721H90.5471V14.5743Z" fill="black"/>
<path d="M90.1763 21.6115H112.9C113.106 21.6115 113.275 21.4462 113.275 21.2407V19.2053C113.275 18.9957 113.106 18.8345 112.9 18.8345H90.1763C89.9748 18.8345 89.8055 18.9957 89.8055 19.2053V21.2407C89.8055 21.4422 89.9707 21.6115 90.1763 21.6115ZM90.5471 19.5721H112.525V20.8699H90.5471V19.5721Z" fill="black"/>
</svg>
