<svg width="162" height="130" viewBox="0 0 162 130" fill="none" xmlns="http://www.w3.org/2000/svg">
<path fill-rule="evenodd" clip-rule="evenodd" d="M20.0288 17.1849C20.0288 17.1849 18.3273 20.1904 16.6258 21.2133C14.9242 22.2361 13.562 21.6884 12.3356 21.2812C11.1091 20.8691 10.0184 20.0547 9.14096 18.0768C8.25868 16.099 9.4803 13.8448 10.571 12.4148C11.6617 10.9799 14.1777 9.61281 15.06 8.25061C15.9471 6.88842 16.8972 4.43065 18.5988 3.95073C20.3003 3.47566 22.2782 5.93342 22.2782 5.93342H22.8211C27.3149 3.20419 32.5552 3.81499 34.6639 4.36278C36.7775 4.91057 36.7775 5.65711 37.5241 7.22775C38.2706 8.7984 37.112 9.82126 35.6868 10.4321C34.2616 11.0429 33.5102 11.9348 33.5102 11.9348L32.6231 9.40921C32.6231 9.40921 26.4278 12.5505 24.862 13.3649C23.2962 14.1842 23.0926 13.4376 22.4139 14.4605C21.7304 15.4833 23.5676 16.7098 23.5676 16.7098L23.4319 18.0041C22.3412 18.2077 20.0288 17.1849 20.0288 17.1849ZM97.0341 82.2309C97.0341 82.2309 98.1878 83.9373 99.2107 83.8694C100.229 83.8016 100.704 83.0502 100.704 83.0502L99.9572 81.6153C98.4593 81.4795 97.6401 80.7281 97.7806 79.366C97.9115 77.9989 99.2107 77.6596 99.2107 77.6596L99.2786 76.3652L103.36 78.5467C103.36 78.5467 103.632 77.9359 104.722 77.8632C105.813 77.7953 106.56 79.1575 106.56 79.1575L107.447 79.2932C107.447 79.2932 108.397 76.976 109.081 77.1796C109.759 77.3833 109.556 78.2025 109.216 79.3611C108.877 80.5197 108.193 79.7732 108.465 81.6153C108.736 83.4525 110.714 84.0003 110.714 84.0003C110.714 84.0003 112.484 83.7967 115.135 84.5481C117.787 85.2995 120.172 89.7351 120.172 89.7351C120.172 89.7351 122.625 93.8266 123.236 93.8266C123.847 93.8266 123.847 91.3688 123.236 90.0066C122.625 88.6395 122.693 88.1645 122.421 86.7974C122.15 85.4352 121.67 84.073 117.656 83.3168C113.637 82.5654 112.619 79.6326 111.8 77.8632C110.986 76.0841 109.013 72.1284 107.238 70.6304C105.469 69.1277 101.252 69.6076 99.2737 70.834C97.3007 72.0654 96.4184 74.0384 96.2779 75.609C96.1421 77.1796 95.9385 78.2025 95.2598 79.7004C94.5763 81.2032 95.4634 82.2939 95.4634 82.2939C95.8076 82.4297 97.0341 82.2309 97.0341 82.2309ZM100.35 125.065C100.35 125.065 102.463 125.879 103.142 127.314C103.821 128.749 104.64 129.84 106.07 129.433C107.5 129.021 109.948 123.698 109.948 123.698L108.858 122.947L100.35 125.065ZM80.8817 121.512C80.8817 121.512 79.8636 123.766 81.3567 124.789C82.8547 125.811 84.6241 126.834 88.8464 126.834C93.0639 126.834 93.6116 126.563 93.6116 126.563C93.6116 126.563 91.0957 123.834 91.1587 122.471C91.2266 121.104 91.2314 121.104 91.2314 121.104C91.2314 121.104 82.5153 118.782 80.8817 121.512Z" fill="black"/>
<path fill-rule="evenodd" clip-rule="evenodd" d="M123.338 110.013C125.228 109.504 127.065 106.639 127.119 104.695C127.167 102.751 124.869 97.6805 123.953 96.0468C123.037 94.4083 118.083 86.5793 116.396 85.4013C114.714 84.2233 110.564 84.0536 110.564 84.0536C110.564 84.0536 108.925 82.6915 108.315 81.6686C107.704 80.6457 108.654 80.2337 108.654 80.2337C108.654 80.2337 109.948 77.7129 108.925 77.233C107.907 76.7531 107.297 79.3466 107.297 79.3466C107.297 79.3466 106.628 78.7212 105.77 78.3625C105.479 78.1298 105.115 77.9844 104.708 77.9844C104.31 77.9844 103.947 78.1249 103.656 78.3576C103.38 78.4788 103.21 78.6 103.21 78.6L99.1283 76.4186L99.1962 77.9165C98.2557 77.9165 97.4947 78.6776 97.4947 79.6229C97.4947 80.5633 98.2557 81.3293 99.1962 81.3293C99.3901 81.3293 99.5695 81.2856 99.7391 81.2323L99.8118 81.6686C99.8118 81.6686 100.36 82.6915 101.174 83.5786C101.465 83.8937 101.93 84.0633 102.41 84.1506C101.78 84.2039 101.014 84.3251 100.166 84.5869C97.8679 85.3044 96.593 87.4519 95.3665 88.9886C95.255 89.1292 95.1532 89.2988 95.0514 89.4879C95.1678 89.1631 95.289 88.8431 95.4198 88.5281C96.6463 85.5613 101.344 83.821 101.344 83.821C101.344 83.821 100.733 82.7981 99.9136 83.4089C99.0944 84.0246 98.5854 84.1264 97.5625 83.5156C96.5397 82.8999 96.8499 82.386 95.9289 82.1824C95.0126 81.9788 95.1144 80.8493 95.4198 79.8265C95.7253 78.8036 96.2343 78.091 96.3361 76.0405C96.4379 73.9899 97.6643 72.3514 97.6643 72.3514L97.5577 0.605835L32.6183 0.707636L32.3129 3.67441C36.094 4.38702 36.8066 5.92373 37.5193 7.21806C38.2319 8.51239 35.682 10.4272 35.682 10.4272L33.5054 11.9251C33.5054 11.9251 33.6411 13.9078 33.5393 15.5415C33.5151 15.973 33.3745 16.4238 33.1903 16.8455C34.0483 14.2714 33.0982 9.87943 33.0982 9.87943L32.6183 9.40436L24.862 13.3649C24.862 13.3649 22.2733 13.9757 22.1376 15.0664C22.0019 16.162 23.5677 16.7098 23.5677 16.7098L22.7532 20.3262C22.7532 20.3262 22.9665 20.4764 23.3107 20.6849C22.9472 20.4813 22.7532 20.3262 22.7532 20.3262C22.7532 20.3262 22.6175 20.5976 22.0019 21.5526C21.391 22.5076 20.5718 22.7112 18.1237 22.7791C15.6756 22.8518 13.4263 24.4224 13.4263 24.4224C13.8626 24.6454 14.2844 24.8781 14.6867 25.1205C12.9852 24.4855 11.5212 24.2819 11.5212 24.2819L9.61605 26.124L17.033 28.7175C17.033 28.7175 17.7844 30.2154 19.3502 30.356C20.916 30.4917 21.9388 29.1974 21.9388 29.1974L29.3558 26.8754L26.9756 24.8927L29.8308 26.7348L27.9936 39.6296L22.6999 41.176C22.5206 40.8657 22.2879 40.5603 22.0552 40.3616C21.391 39.8041 20.373 39.9544 21.0856 39.5957C21.7983 39.2369 22.8163 38.2674 21.8467 37.9571C20.8772 37.6517 18.5842 38.1656 16.9457 38.98C15.3169 39.7993 14.1389 41.3893 12.864 42.1019C11.5842 42.8194 9.0004 42.2231 9.0004 42.2231C8.56411 42.4218 8.21508 42.6642 7.92906 42.9405C8.41383 42.32 9.0004 42.2231 9.0004 42.2231L11.0413 41.8838L12.6749 40.2452L7.70607 38.0589L7.63335 32.5326C7.63335 32.5326 2.66449 39.9011 1.91795 41.748C1.16656 43.5901 0.420019 44.613 1.91795 47.1386C3.41103 49.6594 8.10843 48.9807 8.10843 48.9807C8.67076 48.9468 15.2103 49.3201 16.7906 48.5542C18.3709 47.7882 18.4727 46.9641 19.2387 47.1192C20.0046 47.2744 20.8239 47.0659 21.2844 45.9946C21.6674 45.0978 21.4347 42.989 21.3474 42.3055L21.5219 43.5901L29.2152 43.1781C29.2152 43.1781 31.0525 44.4045 32.2741 45.6989C33.5005 46.9932 34.1113 49.6594 35.6141 50.6144C36.0698 50.9101 36.5352 51.0071 36.9763 50.9877C36.1183 51.0459 35.6141 50.6144 35.6141 50.6144C35.6141 50.6144 37.3157 55.9372 37.7907 58.5307C38.2658 61.1242 37.5193 72.3465 37.5193 72.3465C37.5193 72.3465 36.2928 79.6617 35.6335 82.7351C35.333 84.1167 34.5719 87.001 33.8205 89.7545L16.8973 90.1569L21.391 116.8L20.8481 114.003L20.0967 113.867C20.0967 113.867 17.8522 115.845 17.2414 117.003C16.6258 118.167 16.6937 118.986 16.0828 120.145C15.472 121.303 15.1327 122.602 15.1327 122.602L16.3592 123.965L17.5129 122.738C17.5129 122.738 17.5808 124.58 17.8522 125.879C18.1237 127.174 19.4908 128.061 19.4908 128.061L21.6674 127.988L21.7352 129.559C21.7352 129.559 27.3197 129.767 29.0843 129.631C30.8586 129.496 31.1979 128.536 31.1979 128.536C31.1979 128.536 29.6321 125.535 28.3378 123.693C27.0483 121.851 26.6362 116.116 26.6362 116.116V110.25L32.594 94.2338C32.245 95.4748 32.0171 96.294 32.0171 96.294L32.1723 124.236L43.6079 124.444C43.6564 125.128 43.2492 126.354 43.2492 126.354L42.0906 126.694C42.0906 126.694 42.2263 128.129 44.7471 128.264C47.2679 128.4 63.1974 128.337 63.1974 128.337C63.1974 128.337 66.6004 126.902 66.4308 124.449H81.1871C81.1871 124.449 80.2175 123.014 80.8284 121.483C81.4392 119.946 85.2688 120.149 85.2688 120.149C85.2688 120.149 87.7702 120.508 83.8388 119.073C81.5022 118.225 79.9461 116.901 79.0735 115.205C79.9364 116.63 81.2937 117.978 83.1407 118.584C86.6795 119.742 90.4267 121.041 90.4267 121.041L91.309 120.906C91.309 120.906 91.3817 126.5 94.1691 126.5C96.9566 126.5 108.872 122.956 108.872 122.956C108.872 122.956 110.234 124.454 113.977 124.73C117.719 125.002 121.054 124.595 123.439 122.205C125.82 119.82 125.548 117.566 124.593 115.723C123.643 113.886 122.14 110.406 122.14 110.406C122.14 110.406 121.854 110.352 121.408 110.221C122.019 110.246 122.683 110.197 123.338 110.013ZM21.3232 42.0874C21.3232 42.0874 22.1037 42.0534 22.7532 42.2231C22.3412 42.5673 21.3232 42.0874 21.3232 42.0874ZM110.729 87.6555C111.034 87.9415 111.291 88.3002 111.5 88.6492C110.831 87.8106 108.993 86.8895 108.993 86.8895C108.993 86.8895 109.861 86.8314 110.729 87.6555ZM104.359 84.6596C104.655 85.2122 105.353 86.0751 106.817 86.1672C105.45 86.4193 104.689 85.3189 104.359 84.6596ZM86.8734 95.4457C86.8734 95.4457 89.496 101.975 90.2328 103.764C89.4572 102.654 89.1373 101.418 89.1373 101.418L85.6663 92.7164L85.4385 91.7857L86.8734 95.4457ZM90.2813 94.6022C90.3201 94.5634 90.3637 94.5246 90.3977 94.4858C90.3589 94.5246 90.3201 94.5634 90.2813 94.6022ZM87.2321 82.5848C87.5472 82.4297 88.0078 82.2988 88.5749 82.4297C88.1386 82.3861 87.6199 82.4733 87.2321 82.5848ZM88.0659 83.7967C87.6539 83.4235 87.1885 83.0599 86.7861 82.8951C87.0431 82.8951 87.5763 83.3265 88.0659 83.7967ZM89.9323 94.9027C90.0147 94.8397 90.0923 94.7719 90.1698 94.7088C90.0971 94.7767 90.0147 94.8397 89.9323 94.9027ZM92.2301 105.345C92.4094 105.388 92.6082 105.427 92.8263 105.466C92.807 105.461 92.7827 105.461 92.7585 105.456C92.5743 105.442 92.3949 105.403 92.2301 105.345ZM93.5777 95.1742C93.5777 95.1742 93.7232 94.3162 94.0043 93.0994C93.7813 94.3792 93.6795 95.4311 93.6795 95.4311L91.7405 92.3141C91.7405 92.3141 91.3381 93.4727 90.4704 94.4131C91.469 93.3224 91.7744 91.902 91.7744 91.902L90.005 88.1112C90.005 88.1112 90.5479 87.3258 90.7515 85.9636C90.96 84.5966 91.5902 83.7095 91.5902 83.7095C91.6387 84.2718 90.8727 85.0426 90.8243 86.526C90.7709 88.0045 90.005 88.1112 90.005 88.1112L93.5777 95.1742ZM91.2218 83.1568C91.0569 83.1277 90.8146 83.1811 90.4655 83.4041C90.7467 83.1471 91.0182 83.0841 91.2218 83.1568ZM89.4427 81.6637C89.3603 81.591 89.273 81.5086 89.176 81.4262C89.2875 81.5038 89.3796 81.5862 89.4427 81.6637ZM84.4399 84.8875C84.3526 86.0994 84.2847 87.0398 84.2847 87.0398L84.4399 84.8875ZM55.0145 32.0527C55.5817 32.0672 56.6676 32.1884 56.716 32.9447C56.6142 32.4405 55.538 32.1981 54.9951 32.106C55 32.0866 55.0096 32.0721 55.0145 32.0527ZM56.7112 33.124C56.6239 33.9772 55.4217 34.0354 55.4217 34.0354C55.4217 34.0354 55.286 34.7868 54.743 35.606C54.6703 35.7127 54.5879 35.8145 54.5006 35.9211C55.0096 35.0437 55.4217 34.0354 55.4217 34.0354C55.4217 34.0354 56.5997 33.7009 56.7112 33.124ZM53.027 37.1621C52.9542 37.2155 52.9058 37.2445 52.9058 37.2445C52.9058 37.2445 51.815 39.9738 50.8164 41.2826C50.9812 40.9239 51.9556 38.757 53.0657 36.3186L52.9736 36.5659C52.9736 36.561 52.8476 37.0118 53.027 37.1621ZM50.0456 41.9516C48.9549 42.2231 42.968 40.381 42.968 40.381C42.8178 40.3277 42.7063 40.221 42.6287 40.0756C43.511 40.318 48.4362 41.6268 49.3621 41.8159C49.9826 41.9419 50.3704 41.7383 50.5886 41.559C50.3995 41.7674 50.2153 41.9128 50.0456 41.9516ZM47.0498 32.3338C46.2354 32.2611 45.6197 32.6732 45.0768 32.8768C45.8718 32.169 46.5408 32.2127 47.2146 32.3484C47.1613 32.3435 47.1031 32.3338 47.0498 32.3338ZM43.2104 36.1247C43.574 35.1503 44.0878 34.0111 44.718 33.2501C44.3011 33.856 43.7049 35.0437 43.2104 36.1247ZM63.9294 108.888C63.9778 108.709 64.0506 108.549 64.1378 108.404C64.099 108.932 64.0554 109.834 64.1087 110.488C63.9391 110.071 63.7839 109.48 63.9294 108.888ZM65.0395 111.298C65.0395 111.298 65.2285 111.356 65.3643 111.496L64.9619 111.317C65.0056 111.307 65.0395 111.298 65.0395 111.298ZM65.0637 107.541C65.2867 107.415 65.4515 107.356 65.4515 107.356L65.0637 107.541ZM55.9695 26.6669C56.1682 26.7445 56.304 26.8996 56.3961 27.0693L48.1405 25.7119C48.1405 25.7119 55.4265 26.4633 55.9695 26.6669ZM46.914 29.8761C47.8642 30.4869 49.43 30.6275 49.367 31.7861C49.3379 32.2951 49.0422 32.4744 48.6544 32.5132C49.2361 32.3581 49.367 31.7861 49.367 31.7861C49.367 31.7861 49.1634 31.0347 48.2084 30.8311C47.2582 30.6275 45.7603 29.3962 45.7603 29.3962C45.7603 29.3962 45.1059 29.527 44.2527 29.7791C45.3095 29.3622 46.3711 29.1247 46.3711 29.1247C46.3711 29.1247 45.9639 29.2604 46.914 29.8761ZM19.5198 28.6108C19.8059 28.3345 20.1064 28.0727 20.4167 27.8304C20.0046 28.16 19.6944 28.446 19.5198 28.6108ZM27.0386 23.1184L27.6494 21.6205L28.6044 19.9771C28.6044 19.9771 31.164 19.7251 32.531 18.0526C32.148 18.6343 31.799 19.027 31.799 19.027L31.9056 25.1641C32.0171 25.1641 32.4971 25.6731 33.0255 26.347C30.8731 23.9571 27.0386 23.1184 27.0386 23.1184ZM33.9804 27.7576C33.9174 27.6219 33.8447 27.491 33.7672 27.3601C34.281 28.1164 34.7076 28.8823 34.727 29.3283C34.79 30.6178 35.8177 33.0125 35.9535 35.2667C36.0892 37.516 36.2928 40.9966 36.2928 40.9966C36.2928 40.9966 39.0172 35.1988 40.1709 33.4246C39.7637 34.5201 36.2928 40.9966 36.2928 40.9966C36.7242 42.514 37.3932 43.4496 38.1107 44.0264C38.0234 43.9925 37.941 43.9634 37.8586 43.9343C36.6321 43.4544 36.2928 40.9966 36.2928 40.9966C36.2928 40.9966 35.619 31.2383 33.9804 27.7576ZM42.1682 122.35C42.27 122.394 42.3621 122.442 42.4493 122.501C42.2845 122.447 42.1682 122.399 42.1682 122.35ZM65.2916 120.61C65.2916 120.61 63.7597 120.663 64.4238 121.327C64.5596 121.463 64.7292 121.676 64.9037 121.933C64.0069 121.23 63.0519 120.901 63.0519 120.901L43.0359 121.172L46.0996 120.61L45.3337 118.821L46.4584 118.564C46.4584 118.564 46.8025 117.997 46.9383 117.105C46.9189 117.575 46.7928 118.075 46.4584 118.564C46.4584 118.564 46.3032 119.194 48.7562 119.194C51.2042 119.194 60.1918 119.059 60.1918 119.059C60.1918 119.059 62.3054 118.307 61.9612 116.737C61.6219 115.166 60.3954 114.895 60.3954 114.895L46.3081 114.928L45.3385 114.521L45.7991 113.547L45.2367 113.241C43.4819 113.082 42.2166 112.194 41.6786 110.992C42.6335 112.306 43.4334 113.028 45.2367 113.241C47.1225 113.46 64.991 113.086 64.991 113.086C64.991 113.086 69.1794 113.547 69.3297 117.178C69.4799 120.814 65.2916 120.61 65.2916 120.61ZM82.6511 106.978C80.1788 107.909 78.9959 108.728 78.4336 109.727C79.0929 107.526 81.0223 107.303 81.0223 107.303C82.8644 106.527 85.3028 106.416 87.6878 106.586C85.7197 106.46 83.863 106.523 82.6511 106.978ZM98.4448 104.457L96.6075 108.001C96.6075 108.001 96.5591 107.991 96.4766 107.967L98.3285 104.588C98.3285 104.588 97.7564 104.816 96.8887 105.049C97.6692 104.748 98.1733 104.433 98.1733 104.433C98.1733 104.433 99.5549 104.433 103.433 105.044C105.648 105.398 109.226 105.194 111.892 104.962C108.78 105.412 103.811 105.718 98.4448 104.457ZM116.89 107.046C115.979 105.587 115.557 104.908 115.363 104.593C115.368 104.593 115.378 104.593 115.378 104.593L112.978 98.6548L106.24 100.395L102.614 99.8328C102.614 99.8328 98.6823 93.3369 97.9116 92.0572C97.3928 91.1894 97.165 90.5156 97.0923 89.9436L101.334 90.7774C101.334 90.7774 101.945 91.6936 102.764 91.8002C103.583 91.902 103.889 91.0294 103.889 91.0294L110.831 89.4927L110.884 90.4138L112.11 89.8999L114.049 90.312L114.549 91.1264C113.822 90.1035 112.993 89.1776 108.281 92.0523L108.484 93.3321C108.484 93.3321 107.67 93.9429 108.639 94.5101C109.609 95.0676 109.556 96.1486 110.268 96.3522C110.981 96.5558 109.609 97.2199 110.981 97.1666C112.358 97.1181 112.464 97.2199 112.92 98.0877C113.385 98.9554 113.637 99.6777 113.637 99.6777C113.637 99.6777 116.396 99.1978 117.676 97.2442C117.516 97.5205 117.307 97.8744 117.055 98.2913C116.498 99.2123 113.637 99.6777 113.637 99.6777C113.637 99.6777 116.73 106.188 118.126 108.471C117.671 108.079 117.244 107.608 116.89 107.046ZM154.397 123.834C153.243 124.856 150.654 126.495 147.726 126.359C144.798 126.219 133.702 127.721 131.525 125.947C129.349 124.173 128.529 120.557 128.331 117.76C128.122 114.958 129.625 101.859 129.625 101.859V98.7179C129.625 98.7179 130.915 93.2594 135.069 91.6209C139.219 89.9824 143.097 90.2587 145.889 90.5301C148.681 90.8016 151.333 93.3272 152.288 95.5087C153.243 97.6901 153.989 102.741 154.062 105.883C154.13 109.019 155.153 115.777 155.012 117.41C154.872 119.054 155.555 122.811 154.397 123.834Z" fill="white"/>
<path fill-rule="evenodd" clip-rule="evenodd" d="M14.6525 40.8609L7.70581 38.059L8.38933 25.712L17.0327 28.7175C17.0327 28.7175 17.5805 30.419 19.3499 30.356C21.1193 30.2833 21.9386 29.1974 21.9386 29.1974L29.8306 26.7397L27.9933 39.6345L23.2959 41.273L20.7073 39.9738C20.7073 39.9738 22.5445 38.4032 22.4767 38.1317C22.4088 37.8602 20.3679 37.8602 19.6214 38.0638C18.87 38.2674 14.6525 40.8609 14.6525 40.8609ZM29.2198 43.183L21.5265 43.5902C21.5265 43.5902 21.2211 46.4551 20.1352 47.0369C19.0445 47.6186 18.8409 46.5618 18.8409 46.5618C18.8409 46.5618 18.8409 46.5618 17.9247 47.6865C17.0036 48.816 15.4718 49.1214 15.4718 49.1214C15.4718 49.1214 13.4309 54.0369 12.7183 57.1055C12.0008 60.1741 13.1255 68.8756 14.1484 72.9719C15.1664 77.0633 16.9067 90.1666 16.9067 90.1666L34.2614 89.7545C34.2614 89.7545 38.5515 74.6104 38.0425 62.2246C37.3202 48.2973 29.2198 43.183 29.2198 43.183ZM52.8376 15.8518L56.0032 25.3726C56.0032 25.3726 57.026 29.0568 59.6777 27.8304C62.3342 26.5991 62.8432 25.0672 62.8432 25.0672L63.1535 12.1724C63.1535 12.1724 64.3799 11.3532 65.0925 11.5568C65.8051 11.7652 63.3571 8.79843 63.3571 8.79843C63.3571 8.79843 61.006 8.48818 59.9879 7.26172L57.1278 8.99719L52.1299 13.8109C52.1202 13.8061 51.1022 14.8289 52.8376 15.8518ZM66.2463 113.256L46.5066 113.188C46.5066 113.188 45.1783 113.46 45.3334 114.521C45.4886 115.578 52.2947 114.827 55.2178 115.03C58.1458 115.239 60.1237 114.352 61.006 115.03C61.8882 115.714 62.3633 116.945 61.9561 117.697C61.544 118.448 60.1867 119.059 60.1867 119.059L45.3286 118.821C45.3286 118.821 44.9408 120.765 47.9997 120.969C51.0634 121.177 65.2913 120.61 65.2913 120.61C65.2913 120.61 68.898 120.014 69.2421 118.172C69.5815 116.329 68.7622 114.759 68.7622 114.759L66.2463 113.256ZM110.985 97.1715C109.711 97.3266 110.937 96.3522 110.273 96.3522C109.609 96.3522 109.357 95.5378 109.357 95.5378C109.357 95.5378 109.56 95.0724 108.639 94.5101C107.723 93.9526 108.489 93.337 108.489 93.337C108.489 93.337 108.13 92.7746 108.28 92.0572C108.436 91.3397 109.919 90.7774 110.888 90.4138C111.858 90.0551 110.835 89.4928 110.835 89.4928L105.066 90.6223C105.066 90.6223 103.685 91.5918 102.769 91.8003C101.852 92.0039 101.644 90.9277 101.644 90.9277L96.6412 89.8563L102.614 99.8328L106.24 100.395L112.978 98.6549L112.517 96.9679C112.517 96.9679 112.265 97.0164 110.985 97.1715ZM154.193 109.165C154.193 109.165 151.677 110.255 150.242 110.255C150.242 110.255 149.975 113.261 149.975 114.623C149.975 115.99 149.975 121.041 149.975 122.612C149.975 124.178 150.242 124.658 152.831 124.11C155.419 123.562 154.668 122.612 154.668 120.019C154.668 117.42 154.193 109.165 154.193 109.165ZM157.867 96.677C157.867 96.677 153.989 90.1278 147.799 91.078C147.799 91.078 153.039 94.2192 153.989 95.9935C154.944 97.7677 157.189 106.023 157.329 109.504C157.465 112.985 156.035 115.787 155.012 117.42L154.808 123.082C154.808 123.082 160.931 120.217 160.931 111.346C160.931 102.475 157.867 96.677 157.867 96.677Z" fill="#34C759"/>
<path d="M123.706 93.7006C124.293 92.7602 123.929 90.38 122.96 88.8093C122.644 88.2906 122.581 87.6847 122.518 87.0448C122.378 85.6099 122.213 83.9811 119.057 83.2878L118.975 83.2733C114.801 82.3571 113.676 82.1147 112.144 78.3238C110.511 74.2906 108.043 68.2019 102.435 69.4768C100.413 69.9374 98.9151 70.6936 97.8535 71.5953L97.868 0.421747C97.868 0.305403 97.8244 0.198755 97.7468 0.121192C97.6644 0.0484764 97.5626 0 97.4511 0H32.4196C32.1869 0 31.9979 0.184212 31.9979 0.421747V3.38852C29.5934 3.1219 26.8399 3.41276 24.9106 4.4744C24.4161 4.74587 23.8926 5.0028 23.3835 5.25972C23.1121 5.39546 22.8358 5.53119 22.5643 5.67178C21.842 4.91069 20.4846 3.75695 18.8461 3.69877C18.8073 3.69877 18.7686 3.69393 18.7298 3.69393C16.9555 3.69393 15.6224 5.15792 15.1231 6.54436C15.0019 6.88854 14.9583 7.23272 14.9195 7.56237C14.8807 7.88231 14.8468 8.18287 14.7353 8.4398C14.4978 9.01182 13.9112 9.45781 13.3052 9.85532C10.3772 11.7847 7.38623 14.2037 8.94718 18.4018C9.72281 20.4863 11.2256 21.4122 12.3454 21.8291C13.0386 22.0811 13.79 22.2072 14.5123 22.2072C15.3849 22.2072 16.2138 22.0278 16.8537 21.6691C18.4922 20.748 19.9611 18.3048 20.3731 17.5777C21.0664 17.9461 21.8953 18.1642 22.8503 18.2224C22.3219 19.9239 21.6045 21.7224 21.0712 22.023C20.7707 22.1926 19.9417 22.2508 19.0691 22.3138C17.1301 22.4447 14.5026 22.6289 13.0095 24.1996C12.2388 23.9669 11.7007 23.8554 11.6328 23.8408C11.5116 23.8215 11.3856 23.8505 11.2886 23.9233L9.28652 25.4939L8.38 25.1643C8.25881 25.1206 8.11823 25.1352 8.00673 25.2079C7.89524 25.2806 7.82737 25.4066 7.81767 25.5375L7.50258 32.0722C7.49288 32.0819 7.48318 32.0916 7.46864 32.1013C7.24565 32.3921 1.92291 39.3631 0.904894 43.5321C0.332869 45.8638 1.17152 47.2648 1.98108 48.0307C2.68399 48.6949 3.64868 49.1069 4.69577 49.1942C6.50396 49.3444 9.88763 49.5965 12.6411 49.5965C13.4216 49.5965 14.1439 49.5723 14.7692 49.5238C13.5282 51.6616 11.8558 57.2995 12.1806 61.357C12.5393 65.8168 16.1508 88.9063 16.3059 89.8855C16.3059 89.8855 16.3059 89.8855 16.3059 89.8904C16.3059 89.8904 16.3059 89.8904 16.3059 89.8952L20.2083 113.246C20.1986 113.256 20.1841 113.256 20.1744 113.261C20.0726 113.329 17.7651 114.929 16.9313 116.451C16.5047 117.231 16.4029 117.881 16.3108 118.458C16.2235 119.02 16.146 119.5 15.7921 120.048C14.968 121.323 14.6626 122.442 14.6529 122.491C14.619 122.622 14.648 122.762 14.7305 122.864L15.8842 124.314C15.9715 124.42 16.1072 124.479 16.2381 124.469C16.3738 124.464 16.495 124.386 16.5677 124.27L17.1252 123.378C17.0476 124.319 17.1107 125.366 17.5857 126.151C18.0899 126.985 18.3274 127.523 18.4341 127.823C18.5989 128.284 19.0352 128.589 19.5248 128.589C19.5345 128.589 19.549 128.589 19.5587 128.589L21.3233 128.541C21.3572 129.045 21.3572 129.409 21.3572 129.418C21.3572 129.641 21.5317 129.825 21.7547 129.84L23.1993 129.913C23.2042 129.913 23.2042 129.913 23.209 129.913C23.7471 129.937 25.3081 130 26.8933 130C28.619 130 30.3836 129.927 30.9314 129.651C31.2513 129.491 31.4501 129.258 31.5276 128.963C31.7118 128.255 31.1398 127.426 30.2769 126.165C30.0976 125.909 29.9085 125.637 29.7146 125.346C28.5366 123.572 27.761 122.074 27.5429 120.096C27.3392 118.273 27.0726 116.422 27.0387 116.189L26.9417 111.196C26.9611 111.176 26.9805 111.152 26.9951 111.128C28.2506 108.68 30.1703 103.309 31.77 98.5677V124.275C31.77 124.508 31.9591 124.697 32.1869 124.697H43.1863C43.1814 124.735 43.1863 124.769 43.1814 124.808C43.0893 125.303 42.8809 125.826 42.7258 126.175H41.9986C41.7659 126.175 41.5769 126.364 41.5769 126.597C41.5769 127.804 42.5561 128.788 43.7632 128.788H62.4267C64.6857 128.788 66.523 126.956 66.5424 124.697H80.6491C80.6879 124.697 80.7267 124.687 80.7654 124.672C80.7703 124.677 80.7703 124.682 80.7751 124.687C81.8319 126.165 84.1733 127.024 87.368 127.087C88.4151 127.111 89.341 127.116 90.1554 127.116C91.7987 127.116 92.9767 127.082 93.7523 127.043C94.4019 127.009 95.0515 126.917 95.6769 126.757C96.7676 126.481 98.474 126.044 100.428 125.545C100.481 125.593 100.539 125.637 100.612 125.656C100.675 125.671 102.149 126.069 102.711 127.571C103.079 128.56 103.748 129.278 104.592 129.593C104.902 129.709 105.227 129.767 105.552 129.767C106.012 129.767 106.473 129.651 106.885 129.423C108.043 128.793 109.517 125.351 110.002 124.159C111.907 124.944 113.875 125.288 115.727 125.288C118.078 125.288 120.245 124.75 121.879 123.921C123.9 122.898 125.126 121.458 125.33 119.864C125.781 116.359 123.449 112.267 122.441 110.692C123.483 110.58 124.554 110.076 125.48 109.242C126.809 108.035 127.575 106.377 127.575 104.695C127.575 102.523 125.446 98.0345 123.212 94.1078C123.425 94.0303 123.585 93.8945 123.706 93.7006ZM102.628 70.2961C107.534 69.1763 109.75 74.6444 111.369 78.6341C113.07 82.837 114.626 83.1812 118.8 84.0926L118.883 84.1119C121.442 84.6694 121.549 85.7553 121.685 87.1272C121.753 87.835 121.825 88.567 122.247 89.2505C123.139 90.6902 123.338 92.702 122.994 93.2547C122.935 93.3468 122.901 93.3419 122.863 93.3371C122.843 93.3371 122.824 93.3419 122.8 93.3468C121.738 91.5289 120.686 89.8807 119.857 88.7124C117.099 84.8391 115.441 83.8356 111.398 83.6029C110.341 83.5448 109.58 83.22 109.149 82.6383C108.644 81.979 108.678 81.1161 108.722 80.7477C109.57 80.2193 109.997 78.9055 109.803 77.9651C109.677 77.3398 109.279 76.9665 108.737 76.9665C107.622 76.9665 107.176 78.3141 107.02 79.0607L106.773 79.0073C106.463 78.1348 105.624 77.5094 104.645 77.5094C104.131 77.5094 103.656 77.6839 103.273 77.9748C101.47 77.7518 99.2787 76.0891 99.2545 76.0697C99.1333 75.9776 98.9684 75.9582 98.8279 76.0212C98.6873 76.0842 98.5903 76.2199 98.5806 76.3751C98.5806 76.3993 98.5418 76.8986 98.5709 77.6355C97.6887 77.9506 97.0585 78.7892 97.0585 79.7781C97.0585 81.0288 98.0765 82.0468 99.3223 82.0468C99.3902 82.0468 99.4581 82.042 99.5259 82.0371C99.6568 82.3038 99.8071 82.5413 99.9671 82.7594L99.9622 82.7643C99.9477 82.8031 99.5453 83.729 98.6097 83.4963C97.5529 83.2345 97.0633 81.8287 97.0633 81.8141C97.0197 81.6833 96.913 81.5863 96.7821 81.5427C96.6464 81.5039 96.5058 81.533 96.3992 81.6154C96.2586 81.7317 95.8999 81.9305 95.7205 81.8578C95.5993 81.8093 95.4975 81.6009 95.449 81.2809C95.3472 80.6459 95.5557 80.2532 95.8417 79.7151C96.1956 79.0461 96.6464 78.2123 96.4816 76.7338C96.2344 74.3633 97.7081 71.4159 102.628 70.2961ZM104.805 84.2719C105.033 84.2137 105.169 83.9811 105.11 83.7581C105.052 83.5351 104.824 83.3993 104.597 83.4527C102.619 83.9665 101.232 83.4236 100.36 81.8045C100.995 81.4797 101.455 80.864 101.567 80.1272C101.814 80.0835 102.144 80.0544 102.41 80.1029C102.57 81.2033 103.511 82.0517 104.65 82.0517C105.862 82.0517 106.851 81.0967 106.909 79.8993L107.277 79.9769C107.394 80.0011 107.515 79.9769 107.612 79.909C107.704 79.8363 107.767 79.7297 107.782 79.6133C107.849 79.0267 108.179 77.81 108.737 77.81C108.785 77.81 108.916 77.81 108.979 78.1348C109.11 78.7844 108.761 79.8363 108.174 80.0835C108.048 80.1369 107.956 80.2435 107.927 80.3792C107.912 80.4423 107.578 81.9596 108.47 83.1424C108.8 83.5835 109.25 83.9132 109.818 84.1313C109.517 84.5434 108.698 85.382 106.89 85.7892C106.206 85.9444 105.682 85.8765 105.329 85.5905C104.829 85.1978 104.757 84.4707 104.747 84.2816C104.766 84.2816 104.786 84.2768 104.805 84.2719ZM99.4047 77.2089C99.618 77.3494 99.875 77.5094 100.161 77.6742C99.9283 77.5821 99.6762 77.5288 99.4144 77.5191C99.4096 77.4076 99.4047 77.3058 99.4047 77.2089ZM104.645 78.3578C105.43 78.3578 106.07 78.9977 106.07 79.783C106.07 80.5731 105.43 81.2082 104.645 81.2082C103.86 81.2082 103.225 80.5683 103.225 79.783C103.225 78.9928 103.865 78.3578 104.645 78.3578ZM102.449 79.2546C102.124 79.2158 101.795 79.2352 101.538 79.2788C101.412 78.731 101.092 78.256 100.646 77.9409C101.257 78.2608 101.955 78.5565 102.643 78.7213C102.556 78.8862 102.493 79.0704 102.449 79.2546ZM99.332 78.3578C100.117 78.3578 100.752 78.9977 100.752 79.783C100.752 80.5731 100.112 81.2082 99.332 81.2082C98.5418 81.2082 97.9068 80.5683 97.9068 79.783C97.9068 78.9928 98.5467 78.3578 99.332 78.3578ZM16.4465 20.9371C15.6661 21.3734 14.1439 21.5915 12.6411 21.0389C11.6813 20.685 10.4015 19.89 9.73735 18.1109C8.52543 14.8436 10.3821 12.7979 13.7706 10.5631C14.4832 10.0929 15.1861 9.54991 15.5109 8.76944C15.6709 8.40101 15.7145 8.02774 15.7582 7.66417C15.7921 7.36846 15.826 7.0873 15.9181 6.83037C16.3302 5.69601 17.4161 4.48894 18.817 4.54227C20.0726 4.5859 21.1876 5.49241 21.7887 6.08868C19.806 7.1891 18.0947 8.61916 17.8911 11.4841C17.7263 13.7868 18.1723 15.5368 19.2194 16.6808C19.36 16.836 19.5103 16.9765 19.6702 17.1074C19.3406 17.7037 17.9202 20.1081 16.4465 20.9371ZM19.8447 16.1137C18.9625 15.1441 18.5892 13.6074 18.7346 11.5423C18.9576 8.40101 21.1876 7.2909 23.7617 6.01111C24.2755 5.75903 24.8039 5.49726 25.3178 5.21609C28.27 3.59213 33.5152 3.93146 35.5851 5.33729C36.8164 6.17593 37.0491 7.606 36.8795 8.57553C36.7389 9.3754 36.3171 9.96196 35.7887 10.0929C34.7853 10.3401 34.1163 10.694 33.7091 10.9654C33.5006 9.97651 33.2776 9.28329 33.2534 9.21058C33.2146 9.09423 33.1274 8.99728 33.0159 8.95365C32.9044 8.91002 32.7735 8.91002 32.662 8.96819C32.599 9.00213 25.9189 12.3858 24.6973 13.0354C24.2949 13.2487 23.9362 13.2972 23.5872 13.3505C22.9909 13.4329 22.3122 13.525 21.968 14.5818C21.5317 15.8955 22.6903 16.7196 23.1896 17.0541C23.1606 17.1705 23.1266 17.2819 23.0927 17.4031C21.6626 17.3401 20.5671 16.9087 19.8447 16.1137ZM37.1073 40.6671C38.0041 38.8977 39.0512 36.8229 39.6669 35.6352C40.0547 34.8838 40.3165 34.2536 40.5492 33.701C41.0485 32.5036 41.3248 31.8444 42.2507 31.3111C43.6614 30.5064 45.1157 29.6677 46.027 29.9683C46.0319 29.9683 46.0319 29.9683 46.0367 29.9683C46.4779 30.1186 46.7736 30.3416 47.0887 30.5694C47.4668 30.8554 47.8982 31.1802 48.5963 31.3547C48.7757 31.3984 48.7999 31.4856 48.8047 31.5147C48.8338 31.6408 48.7708 31.8492 48.5866 32.0189C48.4509 32.1352 48.1551 32.3194 47.6849 32.1401C45.3823 31.282 43.8213 33.4392 43.3172 34.6996L41.9162 38.1609C41.6981 38.7038 41.7271 39.3146 42.0035 39.8333C42.1828 40.1775 42.4591 40.4538 42.7936 40.638C42.6094 41.0986 41.9938 42.611 41.3296 44.2641C40.0208 44.5065 38.9882 44.332 38.2804 43.7357C37.054 42.6983 37.1122 40.7107 37.117 40.6768C37.1073 40.6768 37.1073 40.672 37.1073 40.6671ZM27.252 21.3201C24.9348 21.4849 23.5484 20.4572 23.1121 20.0694C23.6065 18.775 23.9653 17.4177 24.0719 16.9814C24.101 16.8844 24.0865 16.7826 24.0428 16.6905C23.9798 16.5596 23.878 16.4966 23.6986 16.3754C23.0878 15.9585 22.5497 15.4883 22.763 14.8387C22.9521 14.2812 23.1557 14.2522 23.7035 14.1794C24.0865 14.1261 24.5567 14.0582 25.0948 13.7722C25.5505 13.5299 26.7915 12.8948 28.1585 12.1967H28.173C28.4445 12.1774 28.6384 12.158 28.8372 12.187C28.939 12.2016 29.0408 12.2307 29.1523 12.2743C29.2589 12.3179 29.3801 12.3761 29.4868 12.4294L29.5159 12.444C29.5546 12.4634 29.5934 12.4682 29.637 12.4488C29.7098 12.4197 29.7437 12.3373 29.7146 12.2646C29.6516 12.0998 29.5546 11.9641 29.4286 11.8526C29.351 11.7847 29.2589 11.7314 29.162 11.6829C30.5484 10.9751 31.9106 10.2868 32.5893 9.94257C32.948 11.2417 33.7963 14.8969 32.6959 17.0493C31.3919 19.5894 28.6433 19.507 28.5318 19.5022C28.3524 19.4973 28.2021 19.5894 28.1294 19.7397L27.3732 21.3346C27.3392 21.3249 27.2956 21.3152 27.252 21.3201ZM28.7839 20.3457C29.3074 20.3263 30.4563 20.1906 31.5664 19.4973V24.5001C30.0103 23.5209 28.3863 23.0992 27.5477 22.9343L28.7839 20.3457ZM32.3808 18.8623C32.7783 18.489 33.1419 18.0236 33.4425 17.4322C34.2617 15.8373 34.1551 13.6171 33.8788 11.8816C34.0436 11.7362 34.5332 11.3629 35.4688 11.0575V26.667C35.4688 26.8997 35.6627 27.0888 35.8905 27.0888H46.8657L46.2209 28.4558L35.6966 28.4025C35.6966 28.4025 35.6966 28.4025 35.6918 28.4025C35.4688 28.4025 35.2846 28.5819 35.2749 28.8097L35.241 29.5029C35.1149 29.0909 34.984 28.6982 34.8386 28.3249C34.2811 26.924 33.3891 25.8817 32.4051 25.0964C32.4051 25.0867 32.4099 25.0819 32.4099 25.0722V18.9835C32.4099 18.9399 32.3954 18.9059 32.3808 18.8623ZM40.9951 18.9205C40.9321 16.2397 40.9661 12.7154 41.0921 11.935C41.4072 11.8671 42.1828 11.8477 43.0845 11.8671V25.1933C42.1877 25.237 41.2957 24.6456 40.9467 24.3838C40.9709 23.613 41.0436 20.9032 40.9951 18.9205ZM43.928 11.8913C44.151 11.9059 44.3837 11.9156 44.6115 11.9253L44.7085 24.9025C44.5436 24.9607 44.2867 25.0334 43.928 25.1012V11.8913ZM45.4501 11.7265C45.4744 11.6829 45.4889 11.6344 45.4938 11.5762C46.0125 11.6296 46.8802 11.678 48.0243 11.6441V25.2661C47.0499 25.2952 46.0319 25.0237 45.5519 24.8734L45.4501 11.7265ZM56.1393 28.0438L50.7002 40.6574C50.482 41.1567 49.9391 41.433 49.4107 41.3216L43.5111 40.0321C43.1814 39.9594 42.9003 39.7461 42.7451 39.4503C42.5852 39.1546 42.5706 38.8008 42.6967 38.4857L44.0976 35.0196C44.1364 34.9178 45.0042 32.7993 46.6427 32.7993C46.8802 32.7993 47.1274 32.843 47.3941 32.9399C48.0291 33.1775 48.6835 33.0708 49.1489 32.6539C49.5464 32.2952 49.7355 31.7765 49.624 31.3257C49.527 30.933 49.2265 30.6518 48.7999 30.5452C48.2666 30.4143 47.9564 30.1768 47.5928 29.9101C47.3456 29.7259 47.0838 29.5272 46.7348 29.3575L46.8754 29.0618C46.8754 29.0569 46.8802 29.0569 46.8802 29.0521L48.0679 26.5265C48.1794 26.2889 48.4266 26.1532 48.6932 26.192L55.6836 27.2294C55.8629 27.2585 56.0229 27.3651 56.115 27.5299C56.2023 27.6802 56.2168 27.8741 56.1393 28.0438ZM58.4855 33.4538C58.311 34.1034 58.1704 35.7419 58.3547 40.3617C58.3547 40.4247 58.3547 40.4829 58.3595 40.5411L57.0603 33.8658C57.0943 33.827 57.1282 33.7931 57.1573 33.7543C57.2058 33.6865 57.2494 33.5847 57.2785 33.4732C57.5596 33.4635 57.9911 33.4538 58.4855 33.4538ZM82.2779 33.6768L84.4788 46.0577C83.1893 46.4455 82.0889 46.208 81.6429 46.0723C81.0563 42.2911 79.9947 35.3492 79.951 34.5687C79.9268 34.0646 80.1449 33.8077 80.2952 33.6962C80.8915 33.7204 81.5508 33.7204 82.2779 33.6768ZM93.4809 46.1498C93.4615 46.1547 93.4373 46.1547 93.4179 46.1644C92.3659 46.5958 91.6194 46.4746 91.1734 46.2904L90.9649 33.7156C91.154 33.7204 91.3576 33.7156 91.5903 33.7059C92.6228 33.6525 93.4033 34.1276 93.4082 34.1276C93.4276 34.1421 93.4518 34.1518 93.4809 34.1615V46.1498ZM90.1263 33.6719L90.3299 45.8638C90.2766 45.8735 90.2281 45.8832 90.1796 45.9074C89.9566 46.0286 89.7239 46.1207 89.4912 46.1935L89.2828 33.5992C89.5009 33.6138 89.6948 33.6331 89.8839 33.6477C89.9663 33.6574 90.0487 33.6622 90.1263 33.6719ZM88.4442 33.5556L88.6574 46.3922C87.2419 46.591 85.8894 46.2129 85.361 46.0335C85.0508 40.3956 84.886 34.1567 85.1865 33.4247C85.1962 33.4102 85.2011 33.3908 85.2059 33.3762C85.9185 33.3374 86.3257 33.3859 86.7959 33.4344C87.1498 33.478 87.557 33.5216 88.1436 33.541C88.2454 33.5459 88.352 33.5507 88.4442 33.5556ZM84.2412 39.9109L83.1214 33.5992C83.2959 33.5847 83.4753 33.5653 83.6546 33.541C83.9116 33.5023 84.1394 33.478 84.3479 33.4489C84.154 34.5542 84.1491 37.0362 84.2412 39.9109ZM79.1075 34.6124C79.1609 35.5577 80.4988 44.1962 80.7945 46.1014C80.3243 46.2468 79.8783 46.3534 79.4566 46.4165L78.8215 33.6089C78.8942 33.6138 78.9621 33.6138 79.03 33.6186C79.1172 33.6283 79.2045 33.6283 79.2869 33.638C79.1657 33.8901 79.0881 34.21 79.1075 34.6124ZM77.978 33.5653L78.6179 46.4989C77.2848 46.5716 76.2959 46.3001 75.8693 46.1547L75.3991 33.5847C75.9711 33.5604 76.548 33.5459 77.2509 33.5459C77.4933 33.5459 77.7356 33.5556 77.978 33.5653ZM74.5604 33.6138L75.0258 46.0868C74.7349 46.1353 74.2889 46.208 73.7072 46.3001C73.7024 44.9379 73.6684 38.442 73.7606 36.566C73.8381 35.1359 73.5521 34.1858 73.334 33.6671C73.7363 33.6525 74.0999 33.6331 74.4489 33.6186C74.4877 33.6186 74.5216 33.6186 74.5604 33.6138ZM72.4081 33.701C72.4517 33.764 73.0189 34.6705 72.9268 36.5272C72.8201 38.5196 72.8637 45.3984 72.8686 46.4358C72.8056 46.4455 72.7474 46.4504 72.6844 46.4649C71.7682 46.6104 70.9344 46.5134 70.4011 46.4116L69.9794 33.9095C70.0085 33.9046 70.0327 33.8998 70.0618 33.8949C70.5562 33.8174 71.1137 33.7253 72.1075 33.7059C72.2093 33.7059 72.3063 33.701 72.4081 33.701ZM69.1359 34.0113L69.5479 46.2565C69.4073 46.271 68.942 46.3389 68.3312 46.4213L67.8658 33.9579C67.9433 33.9628 68.0112 33.9725 68.0936 33.9773C68.5202 34.021 68.845 34.0258 69.1359 34.0113ZM67.0174 33.8755L67.4925 46.528C67.381 46.5425 67.2744 46.557 67.1629 46.5716C66.3194 46.6782 65.4807 46.4795 65.0784 46.3534C65.0202 44.6858 64.7633 36.4642 64.7633 35.4025C64.7633 34.4136 65.2723 33.8707 65.2868 33.8513C65.3014 33.8416 65.3062 33.827 65.3111 33.8125C65.8588 33.8028 66.3824 33.8271 67.0174 33.8755ZM64.23 46.3486C64.0216 46.4068 63.8131 46.4601 63.6095 46.5037L63.2508 33.861C63.5659 33.8949 63.8858 33.9046 64.2737 33.8852C64.0894 34.2488 63.9149 34.7578 63.9149 35.4074C63.9149 36.4884 64.1767 44.584 64.23 46.3486ZM62.4073 33.7446L62.7709 46.6297C61.2439 46.7994 60.0319 46.5376 59.5278 46.3971C59.106 40.5556 58.9218 34.2197 59.3387 33.5604C59.363 33.5313 59.3775 33.4974 59.3921 33.4635C59.8429 33.4732 60.3131 33.4974 60.7736 33.541C61.4766 33.6041 61.9759 33.6768 62.4073 33.7446ZM44.3934 41.0889L47.1565 41.69L47.3117 46.8382C46.0852 46.9255 44.8975 46.7946 44.5291 46.6443C44.437 46.2565 44.2722 45.3839 44.1994 45.0009L44.3934 41.0889ZM48.1503 46.7412L48.0049 41.8742L48.955 42.0826C49.0132 42.7419 49.0471 44.6858 49.052 46.528C48.7708 46.6201 48.4654 46.6928 48.1503 46.7412ZM49.8955 46.5183C49.8906 44.0314 49.8518 42.8049 49.8034 42.1796C50.5208 42.1263 51.1753 41.6851 51.471 40.9968L52.3096 39.0383L52.678 46.843C51.4176 46.8867 50.3705 46.6491 49.8955 46.5183ZM54.2196 34.6269C54.2293 34.6269 54.2341 34.6366 54.2487 34.6366C54.2632 34.6366 54.2778 34.6366 54.2971 34.6318C54.4377 34.6124 54.5686 34.5978 54.6995 34.5833C54.4523 35.1214 54.0063 35.9358 53.3712 36.5999L54.2196 34.6269ZM53.5167 46.7655L53.1046 37.9185C53.3422 37.7585 53.5652 37.5743 53.7688 37.3804L55.1358 46.3389C54.5929 46.557 54.0451 46.6928 53.5167 46.7655ZM55.9793 46.3001L54.5008 36.5951C54.5008 36.5854 54.4911 36.5805 54.4911 36.5708C55.1552 35.6934 55.543 34.782 55.6787 34.4379C55.9066 34.3991 56.1053 34.3506 56.2847 34.2924L58.6407 46.3971C57.3415 46.6443 56.3816 46.4261 55.9793 46.3001ZM56.4447 33.1823C56.4447 33.192 56.4495 33.2066 56.4544 33.2162C56.338 33.2502 56.2508 33.3326 56.2023 33.4392C55.8387 33.575 55.1697 33.6719 54.5977 33.7446L55.0776 32.6297C55.6206 32.683 56.3671 32.8963 56.4447 33.1823ZM35.9487 32.3776L36.0941 29.246L44.4031 29.2896C43.5983 29.5659 42.7258 30.0604 41.8289 30.5743C40.6558 31.2481 40.2825 32.1352 39.7687 33.3665C39.5408 33.9046 39.2888 34.5203 38.9155 35.2426C38.3677 36.3091 37.466 38.0882 36.6419 39.717C36.5789 38.0057 36.4092 35.1747 35.9293 32.46C35.939 32.4406 35.9487 32.4115 35.9487 32.3776ZM43.5547 40.9871L43.3657 44.7779L41.6496 45.7135C42.4591 43.7066 43.3172 41.5833 43.5547 40.9871ZM41.1648 46.9497L43.4723 45.6845C43.5644 46.1498 43.6856 46.7606 43.7535 46.9982C43.7971 47.1581 43.9183 47.2842 44.1073 47.3763C44.5 47.5653 45.4453 47.7059 46.5118 47.7059C47.5153 47.7059 48.6254 47.5847 49.4834 47.2745C50.1572 47.4878 52.8622 48.2198 55.6157 47.066C56.0762 47.2309 57.3657 47.5799 59.1157 47.1581C59.6732 47.3327 61.9322 47.9435 64.6615 47.1097C65.0444 47.2357 66.1303 47.5508 67.2744 47.4102C68.3554 47.2745 69.3249 47.1388 69.6255 47.0951C69.9939 47.2018 71.2979 47.546 72.8201 47.2939C74.1629 47.0806 75.0937 46.9303 75.4136 46.8818C75.9662 47.1 78.2447 47.8659 81.2647 46.8382C81.7447 46.9982 83.2184 47.3908 84.9538 46.7849C85.6083 47.0224 88.1 47.8174 90.3299 46.78C90.7807 47.1 91.8521 47.6187 93.4906 47.037V47.7108H40.8594C40.9564 47.4684 41.0582 47.2115 41.1648 46.9497ZM93.4809 33.2308C93.0785 33.0563 92.3853 32.8284 91.5515 32.8672C90.9165 32.8963 90.5141 32.8624 89.9566 32.8139C89.5155 32.7751 88.9725 32.7266 88.163 32.7024C87.6104 32.683 87.2468 32.6442 86.888 32.6054C86.0979 32.5133 85.4725 32.4406 83.5335 32.7072C82.3167 32.8769 81.3181 32.8914 80.4116 32.8575C80.3098 32.8042 80.1886 32.7993 80.0722 32.843C79.7329 32.8236 79.4032 32.8042 79.0784 32.7848C78.4579 32.7412 77.8665 32.7024 77.2412 32.7024C76.1359 32.7024 75.3312 32.7412 74.4053 32.78C73.7363 32.809 73.014 32.843 72.0784 32.8624C71.0216 32.8914 70.4108 32.9884 69.9212 33.066C69.3637 33.1532 68.9662 33.2211 68.1712 33.1338C66.5569 32.9642 65.6746 32.9157 64.4045 33.0272C63.7016 33.0854 63.2605 33.0175 62.5964 32.9157C62.1552 32.8478 61.6074 32.7654 60.8415 32.6975C59.3242 32.5667 57.7245 32.6054 57.0991 32.6345C56.7307 32.1061 55.926 31.8977 55.4218 31.8201L56.3671 29.6241H93.4809V33.2308ZM55.8048 26.381L48.8629 25.3533V11.6102C50.4093 11.5617 52.6635 11.649 53.8172 11.6974C53.0174 12.3955 52.3872 12.9578 52.1302 13.2002C51.2043 14.097 51.6261 15.1684 52.0139 15.6725C52.7895 17.8637 54.8886 23.7342 56.2362 26.5216C56.0956 26.4586 55.9551 26.4053 55.8048 26.381ZM62.4461 9.1621C60.7736 10.6358 56.847 14.0873 55.669 14.8581C54.5056 15.6192 53.0368 15.2314 52.6441 15.1102C52.4841 14.8824 52.1933 14.32 52.7168 13.8159C53.5167 13.0451 58.4565 8.79368 59.809 7.63508C60.221 8.1247 61.0839 8.92456 62.4461 9.1621ZM53.0465 16.0749C53.7833 16.2106 54.9031 16.2542 55.926 15.6774L60.0271 25.5618C60.095 25.7217 60.2501 25.8235 60.4149 25.8235C60.4682 25.8235 60.5264 25.809 60.5749 25.7896C60.793 25.7024 60.89 25.4503 60.8027 25.237L56.6386 15.1974C58.374 13.8886 62.1407 10.5631 63.3817 9.46265L64.4045 11.3145C63.755 11.4066 63.1684 11.5859 62.766 11.9204C62.6691 11.998 62.6158 12.124 62.6206 12.2501L62.8727 24.5001C62.8484 24.5195 62.8242 24.5341 62.8048 24.5583C60.5749 27.6899 58.6649 28.0292 57.6227 27.3118C57.0846 26.8464 54.9273 21.3637 53.0465 16.0749ZM80.8915 12.2792C81.1872 12.3082 81.4587 12.347 81.7156 12.3858V25.237C80.7121 25.3145 79.6068 25.3969 78.8797 25.2079C78.744 25.1691 78.6082 25.1449 78.4773 25.1303C78.3125 20.6317 78.1477 13.5929 78.3416 12.9433C78.4967 12.5894 79.2821 12.3228 79.8347 12.2307C80.2177 12.2307 80.5764 12.2404 80.8915 12.2792ZM87.0577 12.8318C87.0965 12.8366 87.1304 12.8366 87.1644 12.8366L87.6928 12.8803C88.8659 12.9675 91.2413 12.8221 92.2399 12.7494V25.1012L87.0577 25.1933V12.8318ZM86.2142 25.2515C85.6228 25.2951 84.7114 25.3291 84.0715 25.2176V12.7009C84.217 12.7057 84.3673 12.7154 84.5175 12.7154C85.1962 12.7154 85.6664 12.73 86.2142 12.7688V25.2515ZM83.2329 25.1449C83.0245 25.1449 82.7966 25.1594 82.5542 25.174V12.5215C82.7869 12.5555 83.0099 12.5894 83.2329 12.6185V25.1449ZM77.469 19.7058L76.1795 12.4343C76.6788 12.4197 77.2072 12.3858 77.7308 12.347C77.6678 12.4294 77.6096 12.5215 77.566 12.6185C77.3721 13.079 77.3963 16.4385 77.469 19.7058ZM75.3263 12.4488L77.5757 25.1158C77.3478 25.1352 77.1297 25.1643 76.9115 25.1933C76.2086 25.2806 75.5493 25.3582 74.8076 25.0576L73.1061 13.399C73.0431 12.7009 74.3956 12.5555 74.4101 12.5555C74.4829 12.5506 74.5507 12.5215 74.604 12.4779C74.8367 12.4634 75.0743 12.4537 75.3263 12.4488ZM72.6262 25.203C72.6117 24.219 72.5389 18.2272 72.5244 15.1829L73.9545 25.0091C73.5957 25.0722 73.1352 25.1449 72.6262 25.203ZM72.4129 12.7494C72.4032 12.6864 72.3887 12.633 72.3741 12.5797C72.4177 12.5797 72.4711 12.5797 72.5195 12.5797C72.4808 12.633 72.442 12.6864 72.4129 12.7494ZM71.4579 12.5361C71.5306 12.6718 71.6712 13.0548 71.6712 13.9807C71.6712 16.2349 71.773 24.4274 71.7779 25.2758C70.7501 25.3436 69.674 25.3145 68.9274 25.0576L68.7771 12.3616C69.3976 12.3955 70.5417 12.4682 71.4579 12.5361ZM67.9385 12.2695L68.0936 25.0091C67.7785 25.077 67.4828 25.1255 67.2017 25.1643V12.1725C67.4731 12.2016 67.7204 12.2355 67.9385 12.2695ZM66.3582 25.2418C65.0638 25.3145 64.1428 25.14 63.721 25.0285L63.4593 12.4537C64.0894 12.0804 65.2723 12.0368 66.3582 12.0998V25.2418ZM63.0278 25.6587C63.0666 25.6878 63.1102 25.7217 63.1587 25.7411C63.2169 25.7654 64.1573 26.1096 65.7377 26.1096C66.5084 26.1096 67.4343 26.0223 68.4814 25.7848C70.2848 26.5313 73.6345 25.935 74.3762 25.7896C75.37 26.2404 76.2426 26.1241 77.023 26.0271C77.5854 25.9544 78.1186 25.8866 78.6712 26.0271C79.0784 26.1338 79.5632 26.1726 80.0674 26.1726C80.6636 26.1726 81.2938 26.1193 81.8804 26.0708C82.4767 26.0223 83.0487 25.9787 83.4753 25.9932C83.5286 26.0223 83.5916 26.0417 83.6546 26.0417C83.6934 26.0417 83.7274 26.032 83.7565 26.0223C83.7855 26.0223 83.8146 26.0271 83.8486 26.032C84.9344 26.2501 86.6651 26.0659 86.888 26.0368L92.6713 25.9302C92.8992 25.9253 93.0834 25.7363 93.0834 25.5084V12.2937C93.0834 12.1725 93.0349 12.061 92.9476 11.9834C92.8604 11.9059 92.7489 11.8623 92.6325 11.8719C92.5986 11.8768 89.1713 12.1434 87.7558 12.0368L87.2322 11.9931C86.1318 11.9107 85.5792 11.8719 84.5272 11.8719C83.8243 11.8719 83.2184 11.7701 82.5058 11.6538C82.0646 11.5811 81.5653 11.4987 80.9933 11.4357C80.6539 11.4017 80.2855 11.3872 79.8977 11.392C79.8638 11.3872 79.8347 11.3775 79.8056 11.3823C79.7911 11.3823 79.7717 11.3872 79.7474 11.392C79.1124 11.4017 78.4337 11.4502 77.7647 11.4938C77.0182 11.5423 76.3153 11.5956 75.6851 11.5956C74.9773 11.5956 74.3956 11.6344 73.8333 11.6732C73.0916 11.7217 72.4517 11.7701 71.7051 11.7071C71.7003 11.7071 71.6954 11.7071 71.6906 11.7071C70.4302 11.6053 68.6463 11.5035 68.4136 11.489C68.1082 11.4308 66.712 11.1933 65.3256 11.2321C65.3208 11.2224 65.3208 11.2127 65.3159 11.1981L63.8713 8.59007C63.8471 8.54644 63.818 8.51251 63.784 8.48343C63.784 8.48343 63.7792 8.47858 63.7695 8.47373C63.7356 8.44464 63.6919 8.42041 63.6483 8.40101C63.6386 8.39617 63.6338 8.39617 63.6192 8.39132C63.6047 8.39132 63.5901 8.38162 63.5707 8.37678C63.5368 8.37678 63.5077 8.37193 63.4738 8.37678C61.8256 8.47373 60.8415 7.55752 60.4488 7.08245H93.573V26.2501H62.5527C62.6982 26.0659 62.863 25.872 63.0278 25.6587ZM54.7044 10.9218C54.6656 10.9073 54.6365 10.8927 54.5929 10.8927C54.428 10.883 50.5354 10.6746 48.4169 10.7812C46.3809 10.883 45.106 10.6794 45.0914 10.6794C44.9702 10.6552 44.8442 10.694 44.7472 10.7715C44.66 10.8491 44.6115 10.9606 44.6067 11.0769C40.7043 10.8491 40.491 11.2272 40.3746 11.4308C40.0014 12.0852 40.1516 18.8671 40.1565 18.9399C40.2098 21.2376 40.1032 24.5389 40.1032 24.5728C40.0983 24.694 40.1516 24.8201 40.2438 24.9025C40.3019 24.951 41.5672 26.0465 42.9972 26.0465C43.0699 26.0465 43.1427 26.0417 43.2105 26.0368C43.2784 26.0368 43.3366 26.0223 43.3996 26.0223C43.4335 26.0271 43.4626 26.0417 43.5014 26.0417C43.5693 26.0417 43.6371 26.0223 43.6904 25.9884C44.4418 25.8914 44.9121 25.7363 45.1496 25.6393C45.5035 25.7605 46.3712 26.0223 47.3359 26.0999C47.3262 26.1193 47.3117 26.1386 47.302 26.158L47.2583 26.2501H36.3123V10.7958C37.0104 10.471 37.5339 9.70988 37.7084 8.72581C37.7957 8.24104 37.7957 7.66417 37.6745 7.0776H59.1594C58.2916 7.81929 56.3526 9.49174 54.7044 10.9218ZM19.1273 23.1573C20.1792 23.0846 21.013 23.0264 21.4881 22.7598C21.9486 22.498 22.3898 21.7563 22.7776 20.8838C23.4175 21.3782 24.7554 22.1781 26.7575 22.1781C26.8302 22.1781 26.9078 22.1732 26.9805 22.1732L26.5491 23.0846C26.4861 23.201 26.4909 23.3512 26.5588 23.4676C26.6218 23.5839 26.743 23.6663 26.8787 23.6857C26.9369 23.6906 32.3663 24.3644 34.0581 28.64C35.813 33.0854 35.8372 41.2391 35.8372 41.3216C35.8372 41.3216 35.8372 41.3215 35.8372 41.3264C35.2022 42.5771 34.7368 43.503 34.7223 43.5272C34.6205 43.7357 34.7029 43.9878 34.9113 44.0944C34.9743 44.1235 35.0374 44.138 35.1004 44.138C35.2555 44.138 35.4009 44.0556 35.4785 43.9054C35.4882 43.886 35.8712 43.12 36.4189 42.0487C36.5886 42.8098 36.9522 43.726 37.7327 44.3853C38.3919 44.9525 39.2451 45.2336 40.2631 45.2336C40.491 45.2336 40.7237 45.2191 40.9661 45.1948C40.3601 46.7073 39.7687 48.1859 39.4827 48.9324C39.1967 49.6741 38.5616 50.217 37.7375 50.4158C36.9134 50.6145 36.0893 50.4303 35.527 49.931C35.5124 49.9165 35.493 49.9116 35.4736 49.8971C33.3455 45.9802 30.6987 43.6145 29.9328 42.9746L30.752 39.557C31.4695 39.3195 33.394 38.4469 33.7818 35.8728C34.1696 33.255 32.1578 31.6408 31.3919 31.1269L31.8137 29.5417C31.8767 29.3187 31.7409 29.086 31.5179 29.023C31.2949 28.96 31.0671 29.0957 31.0041 29.3187L30.4999 31.2045C30.4466 31.3935 30.529 31.5923 30.6987 31.6844C30.8053 31.7474 33.331 33.1823 32.948 35.7516C32.5602 38.3111 30.403 38.7862 30.3157 38.8105C30.1557 38.8444 30.0249 38.9607 29.9909 39.1256L29.1232 42.7274L21.9341 42.9988C21.9147 42.8292 21.8953 42.6692 21.8662 42.5286C21.8759 42.5335 21.8856 42.5335 21.8953 42.5383C22.1668 42.6692 22.3995 42.7225 22.5982 42.7225C22.9715 42.7225 23.2236 42.5335 23.3399 42.3056C23.4466 42.0972 23.4611 41.8257 23.3642 41.53L28.1149 40.1096C28.27 40.0612 28.3863 39.9254 28.4106 39.7606L30.1461 26.7107C30.1654 26.5652 30.1121 26.4247 30.0006 26.3326C29.8891 26.2404 29.7388 26.2114 29.6031 26.255L29.3413 26.3374C29.3219 26.318 29.3074 26.2889 29.2832 26.2695L27.1163 24.5825C27.0242 24.5147 26.9175 24.4856 26.8012 24.5001C23.2381 24.951 20.3731 27.3506 19.3551 28.3104C18.085 26.3374 15.7145 25.1594 13.9257 24.5147C15.2492 23.4239 17.4645 23.2688 19.1273 23.1573ZM65.6213 72.2885H37.7036C37.752 71.9104 37.7957 71.5225 37.8393 71.1444C39.8947 72.2594 44.088 71.8425 44.883 71.7504C45.8816 72.2109 46.759 72.0994 47.5395 71.9976C48.1018 71.9249 48.6399 71.857 49.1829 71.9976C49.5949 72.1043 50.0748 72.1382 50.579 72.1382C51.1753 72.1382 51.8054 72.0897 52.3969 72.0412C52.9931 71.9928 53.5652 71.9443 53.9869 71.9637C54.0402 71.9928 54.1032 72.0122 54.1711 72.0122C54.205 72.0122 54.239 72.0025 54.2729 71.9879C54.302 71.9928 54.3359 71.9976 54.3602 72.0025C55.446 72.2158 57.1767 72.0315 57.3997 72.0073L63.1878 71.9007C63.2508 71.9007 63.309 71.8813 63.3671 71.8522C63.7356 71.9588 64.5548 72.1527 65.7377 72.1527C66.5036 72.1527 67.4295 72.0655 68.4766 71.8279C70.2848 72.5745 73.6297 71.9782 74.3714 71.8328C75.3651 72.2836 76.2377 72.1673 77.0182 72.0703C77.5805 71.9976 78.1186 71.9297 78.6664 72.0703C79.0736 72.177 79.5584 72.2158 80.0625 72.2158C80.6588 72.2158 81.289 72.1624 81.8756 72.114C82.4718 72.0655 83.0438 72.017 83.4704 72.0364C83.5238 72.0655 83.5868 72.0849 83.6546 72.0849C83.6886 72.0849 83.7225 72.0752 83.7565 72.0655C83.7855 72.0655 83.8146 72.0703 83.8437 72.0752C84.9296 72.2885 86.6602 72.1091 86.8832 72.08L92.6665 71.9734C92.8992 71.9685 93.0785 71.7795 93.0785 71.5516V58.3369C93.0785 58.2157 93.0349 58.1042 92.9476 58.0266C92.8555 57.9442 92.744 57.9054 92.6277 57.9151C92.5938 57.92 89.1713 58.1866 87.7558 58.08L87.2322 58.0363C86.1318 57.9539 85.5792 57.9151 84.5175 57.9151C83.8146 57.9151 83.2087 57.8133 82.5009 57.697C82.0549 57.6243 81.5556 57.5419 80.9836 57.4788C80.6491 57.4449 80.2758 57.4304 79.888 57.4352C79.8589 57.4304 79.8298 57.4207 79.7959 57.4255C79.7862 57.4255 79.7668 57.4304 79.7426 57.4352C79.1075 57.4449 78.4289 57.4934 77.7599 57.537C77.0133 57.5855 76.3056 57.6388 75.6754 57.6388C74.9725 57.6388 74.3907 57.6776 73.8236 57.7164C73.0867 57.7649 72.4468 57.8085 71.6954 57.7503C71.6906 57.7503 71.6906 57.7503 71.6809 57.7503C70.4205 57.6485 68.6366 57.5467 68.399 57.5322C67.89 57.4352 64.39 56.8341 62.9018 57.857C62.1068 57.9151 59.4696 58.0945 58.2722 58.0072L57.7535 57.9636C56.6531 57.8812 56.0956 57.8424 55.0388 57.8424C54.3359 57.8424 53.73 57.7406 53.0174 57.6243C52.5762 57.5516 52.0769 57.4691 51.5049 57.4061C51.1656 57.3722 50.7971 57.3576 50.4045 57.3576C50.3754 57.3576 50.3414 57.348 50.3124 57.3528C50.3027 57.3528 50.2833 57.3576 50.259 57.3576C49.624 57.3722 48.9405 57.4207 48.2763 57.4643C47.5298 57.5128 46.822 57.5661 46.1967 57.5661C45.4889 57.5661 44.9072 57.6049 44.3449 57.6437C43.6032 57.6921 42.9633 57.7358 42.2119 57.6727C42.2119 57.6727 42.2071 57.6727 42.2022 57.6727C40.9273 57.5709 38.3822 57.377 38.0575 57.3528C37.8005 55.8258 37.4079 54.4151 36.9328 53.1159H93.5584V72.2885H65.6213ZM38.3386 59.7088C38.3047 59.1949 38.2514 58.7005 38.1835 58.2157C38.8476 58.2642 40.8255 58.4144 41.9841 58.5114C42.0568 58.6471 42.1974 59.0301 42.1974 59.9512C42.1974 62.089 42.2846 69.5495 42.304 71.0572C40.7091 71.0669 38.9155 70.902 38.0187 70.2718C37.9896 70.2524 37.9653 70.2476 37.9411 70.2379C38.3338 66.4616 38.5422 62.7483 38.3386 59.7088ZM51.4176 58.2496C51.7085 58.2836 51.98 58.3223 52.2369 58.3563V71.2074C51.2383 71.2899 50.1282 71.3723 49.401 71.1784C49.2653 71.1444 49.1295 71.1202 48.9986 71.1008C48.8338 66.607 48.669 59.5633 48.8629 58.9186C49.018 58.5647 49.8034 58.2932 50.356 58.2011C50.739 58.2011 51.0977 58.2157 51.4176 58.2496ZM80.8915 58.3223C81.1872 58.3563 81.4587 58.3951 81.7156 58.429V71.2802C80.7121 71.3626 79.6068 71.445 78.8797 71.2511C78.744 71.2171 78.6082 71.1929 78.4773 71.1735C78.3125 66.6797 78.1477 59.6361 78.3416 58.9913C78.4967 58.6374 79.2821 58.366 79.8347 58.2787C80.2177 58.2787 80.5764 58.2884 80.8915 58.3223ZM87.0577 58.875C87.0965 58.8798 87.1304 58.8798 87.1741 58.8798L87.6928 58.9234C88.8659 59.0107 91.2413 58.8653 92.2399 58.7926V71.1444L87.0577 71.2414V58.875ZM86.2142 71.2947C85.6228 71.3383 84.7114 71.3723 84.0715 71.2608V58.7441C84.217 58.7538 84.3673 58.7586 84.5175 58.7586C85.1962 58.7586 85.6664 58.778 86.2142 58.8168V71.2947ZM83.2329 71.1929C83.0245 71.1929 82.7966 71.2026 82.5542 71.2171V58.5647C82.7869 58.5987 83.0099 58.6326 83.2329 58.6617V71.1929ZM77.469 65.7538L76.1795 58.4823C76.6788 58.4678 77.2121 58.429 77.7308 58.3951C77.6678 58.4775 77.6096 58.5647 77.566 58.6665C77.3721 59.1222 77.3963 62.4816 77.469 65.7538ZM75.3263 58.492L77.5757 71.159C77.3478 71.1784 77.1297 71.2026 76.9115 71.2365C76.2086 71.3238 75.5493 71.4014 74.8076 71.1008L73.1061 59.4421C73.0431 58.7441 74.3956 58.5987 74.4101 58.5987C74.4829 58.5938 74.5507 58.5647 74.604 58.5211C74.8367 58.5065 75.0743 58.4968 75.3263 58.492ZM72.6262 71.2462C72.6117 70.2621 72.5389 64.2704 72.5244 61.2261L73.9545 71.0523C73.5957 71.1153 73.1352 71.1881 72.6262 71.2462ZM72.4129 58.7926C72.4032 58.7344 72.3887 58.6811 72.3741 58.6229C72.4177 58.6229 72.4711 58.6229 72.5195 58.6229C72.4808 58.6811 72.442 58.7344 72.4129 58.7926ZM71.4579 58.5793C71.5306 58.715 71.6712 59.098 71.6712 60.0239C71.6712 62.278 71.773 70.4706 71.7779 71.3189C70.7501 71.3868 69.674 71.3577 68.9274 71.1008L68.7771 58.4047C69.3976 58.4435 70.5417 58.5114 71.4579 58.5793ZM67.9385 58.3126L68.0936 71.0523C67.7785 71.1202 67.4828 71.1687 67.2017 71.2026V58.2157C67.4731 58.2496 67.7204 58.2787 67.9385 58.3126ZM66.3582 71.285C65.0638 71.3577 64.1476 71.1832 63.721 71.0717L63.5998 65.2787V58.429C64.2543 58.1187 65.3498 58.08 66.3582 58.143V71.285ZM62.6255 58.7295L62.7612 65.2691V71.0669L57.579 71.159V58.7974C57.6227 58.8023 57.6517 58.8071 57.6954 58.8071L58.2141 58.8459C59.3387 58.9331 61.5638 58.8023 62.6255 58.7295ZM56.7404 71.222C56.1441 71.2656 55.2376 71.2996 54.5929 71.1881V58.6714C54.7431 58.6811 54.8886 58.6859 55.0388 58.6859C55.7175 58.6859 56.1877 58.7053 56.7355 58.7441V71.222H56.7404ZM53.7542 71.1202C53.5458 71.1202 53.3179 71.1299 53.0755 71.1444V58.4872C53.3082 58.5259 53.5361 58.5599 53.7542 58.589V71.1202ZM47.9952 65.6811L46.7008 58.4096C47.205 58.3951 47.7334 58.3563 48.257 58.3223C48.1939 58.4047 48.1358 58.492 48.0921 58.5938C47.8934 59.0495 47.9176 62.4089 47.9952 65.6811ZM45.8525 58.4193L48.1018 71.0863C47.874 71.1056 47.6558 71.1299 47.4328 71.159C46.7348 71.2511 46.0755 71.3286 45.3338 71.0232L43.6323 59.3694C43.6226 59.2579 43.5983 58.9719 44.1655 58.7247C44.5339 58.5647 44.9314 58.5259 44.9363 58.5259C45.009 58.5162 45.0769 58.4872 45.1302 58.4484C45.358 58.4338 45.5956 58.429 45.8525 58.4193ZM43.1475 71.0378C43.133 69.7289 43.0651 64.0765 43.0457 61.1534L44.4758 70.9505C44.1073 70.9845 43.6468 71.0184 43.1475 71.0378ZM42.9342 58.7198C42.9245 58.6617 42.91 58.6035 42.8954 58.5502C42.9439 58.5502 42.9924 58.5502 43.0409 58.5502C43.0021 58.6083 42.9633 58.6617 42.9342 58.7198ZM22.574 37.6713C22.2201 37.4386 21.6045 37.3901 20.8628 37.458L21.8129 29.6387L29.2201 27.2585L27.6059 39.3776L22.9133 40.7786C22.6709 40.5023 22.3365 40.2308 21.905 39.9884C21.7596 39.906 21.6093 39.843 21.459 39.7848C22.2686 39.3776 22.9763 38.8492 22.9327 38.253C22.9133 38.0251 22.7873 37.8167 22.574 37.6713ZM17.3433 29.8374C17.7748 30.2398 18.4147 30.6324 19.297 30.6615C19.9756 30.6858 20.4943 30.5306 20.8773 30.3319L19.9999 37.5743C19.2242 37.7149 18.3808 37.9476 17.6003 38.219C17.1543 38.3742 16.7568 38.5729 16.3884 38.7959L17.3433 29.8374ZM11.657 24.7086C12.646 24.9364 17.3288 26.158 18.8801 29.183C18.9431 29.3042 19.0594 29.3866 19.1952 29.406C19.2146 29.4108 19.2388 29.4108 19.2533 29.4108C19.3745 29.4108 19.4812 29.3623 19.5636 29.2751C19.5975 29.246 22.734 25.9399 26.7333 25.3533L28.3863 26.638L21.299 28.9115C21.2651 28.9261 21.236 28.9454 21.2069 28.96C21.1924 28.9745 21.1779 28.9745 21.1633 28.9891C21.1197 29.0182 21.0858 29.0618 21.0567 29.1054C21.0421 29.1345 20.5961 29.8617 19.326 29.818C18.0317 29.7744 17.4355 28.6255 17.4064 28.5819C17.4015 28.5673 17.387 28.5576 17.3773 28.5431C17.3627 28.5237 17.3482 28.4995 17.3288 28.4801C17.3143 28.4607 17.29 28.4461 17.2706 28.4316C17.2464 28.417 17.227 28.4025 17.2028 28.388C17.1931 28.388 17.1834 28.3734 17.1737 28.3686L10.2221 25.8332L11.657 24.7086ZM8.63208 26.158L16.5774 29.0569L15.4721 39.3873C15.4721 39.4019 15.477 39.4164 15.477 39.431C15.0407 39.78 14.6577 40.1484 14.3136 40.4878L8.07945 37.6955L8.63208 26.158ZM13.6688 41.1228C13.3246 41.4476 13.0095 41.7045 12.7187 41.8063C12.486 41.8839 12.0788 41.8936 11.5843 41.8548L12.4957 40.5992L13.6688 41.1228ZM2.5628 47.4151C1.6272 46.528 1.34603 45.2918 1.72415 43.7405C2.49008 40.6186 5.93193 35.6449 7.43956 33.5701L7.22626 37.9427C7.21656 38.1172 7.31836 38.2772 7.47349 38.3499L11.7104 40.2502L10.6681 41.69C10.6536 41.7045 10.6487 41.7288 10.639 41.7481C9.52406 41.5833 8.22973 41.2876 7.31836 41.0404C7.09537 40.9822 6.86268 41.1179 6.80451 41.3409C6.74149 41.5639 6.87723 41.7966 7.10022 41.8548C7.2408 41.8936 7.72072 42.0196 8.35092 42.1699C7.88069 42.5286 7.33291 43.1006 7.00327 43.9538C6.50395 45.2433 6.66393 46.7994 7.4541 48.564C6.55243 48.5058 5.64592 48.4379 4.76849 48.3652C3.91045 48.2877 3.12513 47.9532 2.5628 47.4151ZM8.41394 48.6173C7.5559 46.8915 7.3426 45.4275 7.78374 44.2641C8.2879 42.9358 9.51436 42.4414 9.53375 42.4365C9.54344 42.4317 9.55314 42.422 9.56284 42.4171C10.4209 42.5819 11.3516 42.7177 12.0836 42.7177C12.452 42.7177 12.7623 42.6837 12.995 42.6062C13.6009 42.3929 14.1342 41.8596 14.7498 41.244C15.5739 40.4247 16.5047 39.494 17.8766 39.0141C20.1259 38.2287 21.7014 38.1657 22.0698 38.3499C21.8905 38.6311 20.9015 39.1692 19.8641 39.5376C18.3565 39.5522 16.9119 40.0902 16.8246 40.1242C16.6114 40.2066 16.4999 40.449 16.5823 40.6671C16.6695 40.8804 16.9119 40.9919 17.1252 40.9047C17.1446 40.8998 18.4777 40.3956 19.8108 40.3714C19.869 40.3859 19.9223 40.3859 19.9853 40.3763C20.5234 40.3811 21.0567 40.4732 21.493 40.7156C22.3268 41.1907 22.5691 41.69 22.5885 41.8645C22.5352 41.8596 22.4286 41.8403 22.2637 41.7627C20.5961 40.9531 17.547 41.3264 17.4161 41.3409C17.1834 41.3749 17.0186 41.5833 17.0476 41.8112C17.0767 42.0439 17.2803 42.2038 17.5179 42.1796C17.5373 42.1747 19.4569 41.9469 20.95 42.2281C21.013 42.4947 21.1488 43.1346 21.1245 43.7308C19.9853 42.8631 18.1335 42.9649 18.0366 42.9698C17.8087 42.9843 17.6294 43.1879 17.6439 43.4206C17.6584 43.6484 17.8621 43.8278 18.0899 43.8133C18.7104 43.7745 20.4119 43.8811 20.9694 44.7876C20.8725 45.3936 20.7367 46.0965 20.2713 46.4358C20.058 46.5861 19.7769 46.6637 19.423 46.6588C19.7575 46.1207 19.9223 45.7135 19.9417 45.6699C20.029 45.4566 19.9223 45.2094 19.7042 45.127C19.4909 45.0397 19.2436 45.1415 19.1564 45.3597C19.1467 45.3791 18.1771 47.7302 16.1508 48.4525C15.0892 48.8354 11.8703 48.8112 8.41394 48.6173ZM13.0192 61.294C12.6653 56.8971 14.8468 50.5951 15.8066 49.4996C15.8357 49.4705 15.8503 49.4317 15.8648 49.3978C16.083 49.359 16.272 49.3154 16.432 49.2572C17.4936 48.8791 18.2886 48.1568 18.8558 47.4587C18.8607 47.4587 18.8655 47.4636 18.8655 47.4636C19.0691 47.4975 19.263 47.512 19.4472 47.512C19.9708 47.512 20.4119 47.386 20.761 47.1242C21.5366 46.557 21.6966 45.5439 21.8129 44.807C21.8371 44.6422 21.8614 44.4919 21.8905 44.3659C21.9244 44.1914 21.9486 44.012 21.9583 43.8326L29.3171 43.5612C30.2575 44.3271 36.8455 49.994 37.4951 59.7669C38.1544 69.6223 34.4605 86.7055 33.8885 89.2699L17.0816 89.4056C16.6114 86.3904 13.3537 65.4242 13.0192 61.294ZM26.2049 115.83L21.5608 116.208L17.2222 90.2442L25.7104 90.1715L26.2049 115.83ZM19.5442 127.746C19.4182 127.746 19.2824 127.668 19.2388 127.547C19.0594 127.053 18.7492 126.437 18.3129 125.72C17.4161 124.241 18.4147 121.323 18.4244 121.294C18.4922 121.09 18.405 120.867 18.2111 120.77C18.0172 120.683 17.7845 120.746 17.673 120.93L16.1799 123.325L15.5303 122.515C15.6467 122.156 15.9472 121.371 16.4999 120.513C16.9555 119.81 17.0476 119.19 17.1446 118.593C17.2319 118.036 17.3143 117.512 17.673 116.863C18.2499 115.806 19.7429 114.633 20.3634 114.168L20.7852 116.683C20.7707 117.1 20.6301 120.678 20.4992 122.501C20.3489 124.522 20.504 125.172 20.9597 126.379C21.1003 126.752 21.1924 127.232 21.2506 127.702L19.5442 127.746ZM29.0311 125.807C29.2298 126.102 29.4189 126.379 29.5983 126.641C30.1945 127.513 30.815 128.41 30.7278 128.744C30.7229 128.769 30.7084 128.822 30.5678 128.895C29.9328 129.21 26.1079 129.181 23.6114 129.079L23.2914 126.393C23.2672 126.161 23.0539 125.991 22.8212 126.02C22.5934 126.049 22.4286 126.258 22.4528 126.49L22.7582 129.04L22.2007 129.011C22.1765 128.337 22.0892 126.98 21.745 126.073C21.3281 124.944 21.2021 124.42 21.3378 122.554C21.4542 120.969 21.5705 118.07 21.6093 117.042L26.2679 116.669C26.3649 117.338 26.5636 118.763 26.7187 120.179C26.9611 122.331 27.7852 123.931 29.0311 125.807ZM26.9223 109.32L26.5491 90.1667L33.6509 90.1085C32.822 92.736 29.2056 104.08 26.9223 109.32ZM44.0201 124.954C44.1413 124.314 43.9134 123.543 43.6953 123.019H56.6677C57.579 123.019 58.3207 123.761 58.3207 124.677C58.3207 125.593 57.579 126.34 56.6677 126.34H43.5838C43.7486 125.957 43.928 125.453 44.0201 124.954ZM62.4461 127.935H43.7777C43.1863 127.935 42.6821 127.547 42.5028 127.009H42.59C42.6724 127.116 42.7936 127.184 42.9245 127.184H56.6677C58.0396 127.184 59.1642 126.059 59.1642 124.677C59.1642 123.296 58.0444 122.176 56.6677 122.176H42.6191C42.7936 121.701 43.2445 121.361 43.7777 121.361H58.4322C58.4468 121.371 58.4565 121.386 58.471 121.391C58.4952 121.395 60.6815 122.321 59.7556 126.03C59.7023 126.258 59.838 126.481 60.0659 126.539C60.0998 126.544 60.1337 126.553 60.1677 126.553C60.3567 126.553 60.5264 126.422 60.5749 126.233C61.1421 123.965 60.6476 122.564 60.1289 121.788C60.0223 121.623 59.9059 121.487 59.7896 121.361H62.4412C64.2446 121.361 65.7183 122.835 65.7183 124.643C65.7183 126.456 64.2543 127.935 62.4461 127.935ZM45.8331 119.393C45.9107 119.5 46.0319 119.568 46.1628 119.568H59.9059C61.2826 119.568 62.4073 118.443 62.4073 117.062C62.4073 115.68 61.2875 114.555 59.9059 114.555H45.8622C46.0319 114.085 46.4876 113.746 47.0159 113.746H61.6753C61.6898 113.751 61.6947 113.765 61.7092 113.77C61.8013 113.809 63.9149 114.744 62.9987 118.414C62.9454 118.642 63.0811 118.87 63.3041 118.923C63.3381 118.933 63.3768 118.938 63.4108 118.938C63.5998 118.938 63.7695 118.812 63.8131 118.618C64.3803 116.349 63.8858 114.948 63.372 114.172C63.2605 114.008 63.149 113.872 63.0327 113.746H65.6795C67.4877 113.746 68.9565 115.219 68.9565 117.032C68.9565 118.846 67.4877 120.319 65.6795 120.319H47.0159C46.4197 120.319 45.9155 119.927 45.7362 119.393H45.8331ZM46.9093 111.113C46.9578 111.307 47.1323 111.433 47.3165 111.433C47.3504 111.433 47.3892 111.433 47.4183 111.419C47.6461 111.366 47.7819 111.133 47.7286 110.91C46.8123 107.245 48.9211 106.309 49.0132 106.271C49.0277 106.266 49.0423 106.251 49.0568 106.246H63.7065C64.2397 106.246 64.6906 106.581 64.8651 107.056H50.8165C49.4446 107.056 48.32 108.176 48.32 109.562C48.32 110.944 49.4398 112.064 50.8165 112.064H64.5597C64.6906 112.064 64.8166 112.001 64.8942 111.894H64.9814C64.8069 112.427 64.2979 112.815 63.7065 112.815H45.0381C43.2299 112.815 41.7611 111.341 41.7611 109.533C41.7611 107.72 43.2299 106.246 45.0381 106.246H47.6849C47.5734 106.368 47.4571 106.508 47.3456 106.673C46.8366 107.444 46.3421 108.845 46.9093 111.113ZM63.4689 109.834C63.5562 110.333 63.7453 110.842 63.9004 111.22H50.8165C49.9052 111.22 49.1635 110.474 49.1635 109.557C49.1635 108.641 49.9052 107.895 50.8165 107.895H63.7889C63.5756 108.428 63.3478 109.199 63.4689 109.834ZM46.9384 115.404H59.9059C60.8221 115.404 61.5638 116.145 61.5638 117.066C61.5638 117.983 60.8221 118.724 59.9059 118.724H46.822C46.9869 118.346 47.1662 117.842 47.2583 117.343C47.3795 116.703 47.1468 115.932 46.9384 115.404ZM66.4842 123.843C66.2612 122.719 65.5825 121.759 64.6469 121.163H65.6892C67.9579 121.163 69.8097 119.311 69.8097 117.032C69.8097 114.754 67.9579 112.902 65.6892 112.902H65.3595C65.694 112.514 65.8976 112.015 65.8976 111.467C65.8976 111.235 65.7086 111.046 65.4759 111.046H64.7487C64.5936 110.701 64.39 110.178 64.293 109.679C64.1961 109.155 64.4967 108.345 64.7099 107.895H65.3595C65.5874 107.895 65.7813 107.706 65.7813 107.473C65.7813 106.329 64.8505 105.398 63.7065 105.398H45.0429C42.7694 105.398 40.9224 107.25 40.9224 109.528C40.9224 111.807 42.7694 113.659 45.0429 113.659H45.4211C45.1205 114.017 44.9411 114.473 44.9411 114.977C44.9411 115.21 45.1351 115.399 45.3629 115.399H46.0125C46.2258 115.85 46.5263 116.659 46.4294 117.183C46.3373 117.677 46.1288 118.201 45.9737 118.55H45.2465C45.0139 118.55 44.8248 118.739 44.8248 118.972C44.8248 119.573 45.072 120.125 45.4647 120.518H43.7729C42.6288 120.518 41.7029 121.449 41.7029 122.598C41.7029 122.825 41.892 123.019 42.1198 123.019H42.7742C42.876 123.233 42.9972 123.533 43.0845 123.843H32.6232V96.1293C32.6232 96.1099 32.6184 96.0954 32.6135 96.0712C33.7236 92.6972 34.5477 90.0697 34.6301 89.808C34.6301 89.8031 34.6301 89.7983 34.6301 89.7934C34.6301 89.7837 34.635 89.7789 34.635 89.7789C34.6641 89.6528 36.4868 81.6736 37.5921 73.1368H93.9753C94.2032 73.1368 94.3922 72.9478 94.3922 72.7151V52.7039C94.3922 52.4663 94.2032 52.2821 93.9753 52.2821H36.608C36.4529 51.904 36.2929 51.5453 36.1281 51.1963C36.4335 51.2835 36.7534 51.332 37.0782 51.332C37.3594 51.332 37.6454 51.3029 37.9314 51.2302C39.0318 50.9636 39.885 50.2364 40.268 49.2281C40.3359 49.0439 40.4231 48.8161 40.5249 48.5591H93.9075C94.1402 48.5591 94.3292 48.3701 94.3292 48.1374V29.2121C94.3292 28.9745 94.1402 28.7903 93.9075 28.7903H56.7404L56.9149 28.3831C56.9828 28.2183 57.0118 28.0535 57.0215 27.8887C57.0603 27.9323 57.0991 27.9711 57.1379 27.9953C57.3997 28.1795 57.9474 28.4752 58.7085 28.4752C59.4987 28.4752 60.5216 28.1601 61.7092 27.0888H93.9802C94.2129 27.0888 94.4019 26.9046 94.4019 26.667V6.65585C94.4019 6.41832 94.2129 6.23411 93.9802 6.23411H37.3933C37.1267 5.63784 36.7001 5.07551 36.0554 4.63922C35.2846 4.11567 34.1405 3.72301 32.8414 3.50487V0.843495H97.0294L97.01 72.3321C97.01 72.366 97.0197 72.3951 97.0294 72.4242C95.8708 73.8106 95.5024 75.4055 95.6575 76.8404C95.7884 78.062 95.4442 78.7068 95.1097 79.3321C94.7994 79.9139 94.4844 80.515 94.6298 81.4312C94.7364 82.0808 95.0031 82.4928 95.4248 82.6576C95.7981 82.8031 96.1859 82.7013 96.4767 82.5704C96.7628 83.1473 97.3784 84.0732 98.4158 84.3301C99.4823 84.5967 100.205 83.9956 100.563 83.4527C100.743 83.6223 100.932 83.7726 101.135 83.8987C98.6437 84.4998 94.2565 86.6473 93.3839 94.3018C92.2738 92.1106 91.0861 89.5995 90.4268 88.1743C90.9989 87.7525 91.2655 87.1224 91.1734 86.3419C91.1249 85.925 91.3285 85.4014 91.5224 84.8973C91.7066 84.4125 91.886 83.9568 91.8618 83.5399C91.8375 83.0455 91.566 82.8564 91.4061 82.7885C90.805 82.5365 90.0196 83.1521 89.7918 83.3509C89.5058 83.6029 89.307 83.9374 89.1616 84.2428C89.021 84.0247 88.8271 83.8017 88.5799 83.5787C88.2599 83.283 87.9158 83.0697 87.5667 82.9146C87.7946 82.8612 88.066 82.837 88.3617 82.8903C88.9677 83.0067 89.4573 83.0697 89.7579 82.7594C90.0245 82.4783 89.9809 82.0808 89.9033 81.7317C89.8209 81.3827 89.5591 81.087 89.1422 80.8689C88.3763 80.4762 86.9753 80.3453 85.7828 80.8543C84.5902 81.3633 84.3527 82.2601 84.4012 82.8467C84.2218 83.0164 84.1006 83.2297 84.0522 83.4672C83.9746 83.8259 84.0619 84.1653 84.154 84.3883C83.8243 84.9506 83.9794 85.6099 84.1152 85.9831C83.2232 87.166 84.1394 89.4977 84.2461 89.7595C84.4254 90.2733 88.6235 102.393 90.1651 104.448C90.994 105.553 92.2738 106.111 93.8445 106.111C94.9885 106.111 96.2925 105.815 97.6935 105.224L96.1956 107.798C93.9026 107.148 80.6491 103.701 78.2156 109.431C77.3527 111.463 77.4254 113.46 78.424 115.215C79.5293 117.154 81.7398 118.729 84.8423 119.849C82.7094 119.859 80.7897 120.246 80.3728 121.541C80.111 122.365 80.1159 123.15 80.3631 123.863H66.4842V123.843ZM89.7336 94.4908C88.2502 95.2616 87.2468 94.961 86.9802 94.8495C85.9088 91.9652 85.0605 89.5123 85.0362 89.4492C84.7842 88.8336 84.217 86.9575 84.8811 86.3758C84.9975 86.2934 85.8894 85.6826 86.8299 86.3322C87.494 86.783 87.7703 87.3502 87.6976 87.675C87.6588 87.864 87.4843 87.9852 87.1838 88.0337L87.145 88.0386C87.0965 88.0483 86.9995 88.0628 86.9171 88.0676C86.9268 88.0192 86.9317 87.9707 86.9317 87.9222C86.9365 87.6604 86.8347 87.4326 86.6408 87.2532C86.3209 86.9624 85.8313 86.9042 85.5016 86.943C85.2738 86.9672 85.109 87.1757 85.1332 87.4132C85.1574 87.6411 85.3659 87.8059 85.6034 87.7816C85.7779 87.7622 85.9961 87.8059 86.093 87.9125C86.093 87.9416 86.0833 87.9707 86.0833 87.9998C86.0591 88.1355 86.0252 88.3633 86.1657 88.5863C86.3354 88.853 86.6166 88.9208 86.8735 88.9208C87.0335 88.9208 87.1789 88.8917 87.2856 88.8772L87.3243 88.8675C87.9642 88.7609 88.4054 88.3924 88.5217 87.8592C88.5605 87.6847 88.5605 87.5053 88.5314 87.3211C88.5993 87.2775 88.6526 87.2145 88.6914 87.132C88.7883 86.9042 88.8611 86.5406 88.8223 86.1334C88.8465 86.1286 88.8756 86.1189 88.8998 86.1043C88.9435 86.0849 89.2731 85.8959 89.4088 85.4887C89.5591 85.4548 89.69 85.3384 89.7239 85.1784C89.7773 84.9506 89.9906 84.2962 90.3493 83.9859C90.6401 83.7387 90.9019 83.6126 91.0328 83.5787C91.0425 83.8162 90.8922 84.2089 90.7468 84.587C90.5286 85.159 90.2766 85.8086 90.3493 86.434C90.422 87.0545 90.1699 87.4617 89.564 87.6944C89.3507 87.7768 89.244 88.024 89.3264 88.2422C89.3846 88.3924 89.5155 88.4845 89.6658 88.4991C89.913 89.0323 90.519 90.3412 91.2607 91.8731C91.2607 91.8828 91.2558 91.8925 91.2558 91.9022C91.251 91.97 91.3964 93.6279 89.7336 94.4908ZM87.3049 85.639C86.3984 85.0088 85.458 85.159 84.8326 85.4402C84.7842 85.2172 84.7793 84.9651 84.915 84.7761C85.235 84.6597 86.3015 84.3592 87.2565 85.0572C87.8091 85.4596 87.9642 85.9104 87.9885 86.2498C87.7994 86.0316 87.5764 85.8183 87.3049 85.639ZM88.6284 85.1493C88.6187 85.2124 88.5944 85.256 88.5653 85.2899C88.3957 84.9748 88.1387 84.6597 87.7509 84.3737C86.6602 83.5739 85.4822 83.7387 84.8763 83.9035C84.8423 83.7387 84.8617 83.5545 85.0411 83.409C85.4192 83.3509 86.9414 83.2006 88.0127 84.1895C88.5993 84.7324 88.6381 85.0427 88.6284 85.1493ZM86.3887 82.5655C85.9379 82.5025 85.5404 82.5122 85.2495 82.5365C85.2932 82.265 85.4822 81.8917 86.1124 81.6202C87.0577 81.2179 88.1824 81.3148 88.7544 81.6105C88.9386 81.7027 89.0598 81.8141 89.084 81.9063C89.1083 82.0129 89.1131 82.0856 89.118 82.1341C89.021 82.1341 88.8417 82.1147 88.5217 82.0517C87.4261 81.8384 86.5487 82.4153 86.5099 82.4395C86.4614 82.4734 86.4227 82.5171 86.3887 82.5655ZM87.4019 126.243C84.4788 126.18 82.3749 125.453 81.4732 124.192C80.9836 123.504 80.8866 122.699 81.1775 121.788C81.4587 120.906 83.3347 120.528 86.3257 120.731C88.2212 120.862 90.073 121.197 90.8389 121.347C90.8001 121.798 90.7856 122.578 90.9843 123.427C91.2607 124.638 91.8763 125.584 92.778 126.238C91.5709 126.272 89.8112 126.292 87.4019 126.243ZM106.507 128.681C106.012 128.953 105.43 128.997 104.912 128.803C104.475 128.638 103.884 128.245 103.52 127.276C103.118 126.19 102.342 125.564 101.732 125.215C103.971 124.643 106.41 124.018 108.577 123.465C108.804 123.591 109.027 123.703 109.255 123.814C108.538 125.584 107.243 128.279 106.507 128.681ZM124.521 119.757C124.356 121.042 123.265 122.287 121.525 123.17C118.665 124.624 114.035 125.114 109.813 123.15C112.644 122.423 114.757 121.88 114.874 121.841C115.092 121.769 115.208 121.531 115.135 121.313C115.068 121.09 114.83 120.969 114.607 121.037C114.273 121.138 104.097 123.742 95.4878 125.933C95.1388 126.02 94.7801 126.088 94.4213 126.132C91.4012 125.147 91.6048 121.948 91.6921 121.221C92.9913 120.111 105.343 109.649 110.312 109.354C115.484 109.048 120.468 113.964 120.511 114.012C120.676 114.177 120.948 114.177 121.113 114.012C121.273 113.848 121.273 113.581 121.113 113.416C120.899 113.203 115.819 108.171 110.264 108.51C107.263 108.69 101.984 112.141 97.7177 115.331C97.6984 115.316 97.679 115.297 97.6596 115.287L86.3742 110.178C86.1609 110.081 85.9137 110.178 85.8167 110.386C85.7246 110.6 85.8167 110.847 86.0252 110.944L96.9567 115.893C94.2226 117.968 92.0217 119.83 91.2752 120.46C85.075 119.631 80.7751 117.614 79.1512 114.778C78.2786 113.242 78.2204 111.55 78.9863 109.742C80.1789 106.949 84.7551 106.785 88.3811 107.143C92.4338 107.546 96.2392 108.67 96.2731 108.68C96.4574 108.733 96.661 108.661 96.7579 108.491L98.8812 104.845C100.437 105.194 107.612 106.595 115.261 104.816C115.766 106.067 117.68 110.149 121.437 110.663C122.034 111.535 124.986 116.111 124.521 119.757ZM124.937 108.612C123.963 109.499 122.766 109.96 121.723 109.853C117.782 109.451 115.95 104.244 115.921 104.157L114.117 100.041C115.092 99.8766 117.007 99.3336 118.049 97.5836C119.77 100.434 121.559 103.459 122.562 105.18C122.64 105.316 122.78 105.388 122.926 105.388C122.998 105.388 123.071 105.369 123.139 105.33C123.338 105.209 123.406 104.952 123.289 104.753C122.48 103.372 115.363 91.2429 114.273 90.1473C113.788 89.6625 113.07 89.5413 112.309 89.6237C112.304 89.5995 112.304 89.585 112.295 89.5607C110.714 86.1528 108.833 86.4291 108.756 86.4388C108.703 86.4485 108.654 86.4679 108.61 86.4921L102.788 89.8807L98.9442 86.6958C98.8085 86.5794 98.6049 86.5697 98.4497 86.6667C96.8112 87.7283 96.4913 89.0954 96.4816 89.1632C96.341 89.1535 96.2004 89.2117 96.118 89.328C96.0162 89.4686 96.0065 89.6577 96.0986 89.8031L102.449 100.085C102.517 100.192 102.628 100.269 102.759 100.284L106.23 100.662C106.245 100.662 106.259 100.667 106.274 100.667C106.303 100.667 106.337 100.662 106.366 100.657L112.857 99.1979L113.114 99.8572C113.114 99.862 113.119 99.862 113.119 99.862C113.119 99.862 113.119 99.8669 113.124 99.8669L114.946 104.041C106.657 105.922 99.0024 104.016 98.7939 103.968C98.6727 103.91 98.5418 103.9 98.4158 103.958C95.0467 105.689 92.1429 105.674 90.8438 103.939C90.0972 102.94 88.6138 99.227 87.334 95.8094C87.4892 95.8336 87.6637 95.8482 87.8576 95.8482C88.4538 95.8482 89.2295 95.7124 90.1214 95.247C91.1734 94.6993 91.6679 93.9042 91.9005 93.2159C93.127 95.7124 94.5134 98.3399 95.1679 98.9798C95.2503 99.0622 95.3569 99.1009 95.4636 99.1009C95.5702 99.1009 95.6817 99.0573 95.7641 98.9701C95.929 98.8052 95.9241 98.5386 95.7593 98.3738C95.4248 98.0538 94.814 97.0116 94.1111 95.693C94.7316 84.4125 102.522 84.4998 102.851 84.5095C102.914 84.5095 102.973 84.4949 103.031 84.4707C103.113 84.4755 103.196 84.4852 103.278 84.4852C103.482 84.4852 103.7 84.4707 103.913 84.4464C103.952 84.8294 104.107 85.702 104.795 86.2546C105.178 86.5649 105.663 86.7248 106.225 86.7248C106.492 86.7248 106.773 86.6909 107.074 86.6182C109.522 86.0704 110.443 84.7567 110.666 84.3737C110.884 84.4077 111.112 84.4416 111.354 84.4513C114.937 84.6597 116.396 85.3045 119.169 89.2068C122.194 93.4534 126.76 101.796 126.76 104.695C126.76 106.135 126.096 107.565 124.937 108.612ZM97.805 88.3779L99.6326 89.6431C99.7053 89.6965 99.7925 89.7207 99.8701 89.7207C100.001 89.7207 100.137 89.6625 100.219 89.5413C100.35 89.3474 100.302 89.0857 100.112 88.9548L98.3916 87.7574C98.474 87.6847 98.5612 87.612 98.6582 87.5441L102.478 90.7145C102.556 90.7775 102.653 90.8066 102.745 90.8066C102.822 90.8066 102.895 90.792 102.958 90.7484L108.945 87.2629C109.027 87.2678 109.187 87.292 109.396 87.3744C108.863 87.6556 107.951 88.1598 106.667 88.8724C106.463 88.9839 106.385 89.2408 106.502 89.4444C106.579 89.585 106.72 89.6625 106.87 89.6625C106.938 89.6625 107.011 89.6431 107.074 89.6092C108.15 89.0129 109.89 88.058 110.191 87.9077C110.588 88.2761 111.029 88.8627 111.475 89.774C111.466 89.7789 111.461 89.7789 111.451 89.7789L111.088 89.1778C110.991 89.0275 110.811 88.9499 110.632 88.9887L103.797 90.5642C103.714 90.5836 103.642 90.6224 103.588 90.6854C103.356 90.9278 103.011 91.2041 102.701 91.1653C102.372 91.1217 102.149 90.729 102.149 90.729C102.095 90.6224 101.998 90.5448 101.882 90.5157L97.3008 89.3426C97.3008 89.3426 97.3008 89.3377 97.3057 89.328C97.3057 89.3135 97.4075 88.8918 97.805 88.3779ZM100.975 91.1653C100.98 91.2332 100.99 91.301 101.034 91.3689L104.18 96.5899C104.257 96.7207 104.398 96.7935 104.538 96.7935C104.611 96.7935 104.689 96.7741 104.757 96.7304C104.955 96.6092 105.018 96.3523 104.897 96.1536L102.376 91.9652C102.435 91.9846 102.498 91.9991 102.57 92.0088C103.074 92.0864 103.588 91.8731 104.097 91.3738L110.52 89.8904L110.622 90.0649C109.861 90.3703 109.168 90.7678 108.732 91.0829C108.218 91.461 107.927 91.8925 107.874 92.3578C107.82 92.8378 108.029 93.1868 108.126 93.3225C107.922 93.6085 107.883 93.8315 107.912 93.9963C108.034 94.7138 108.504 95.0386 108.95 95.1598C108.863 95.3537 108.843 95.5476 108.921 95.7221C109.124 96.1972 109.478 96.4202 109.832 96.4881C109.803 96.5947 109.793 96.7062 109.813 96.8177C109.876 97.2443 110.123 97.4479 110.317 97.5448C110.845 97.8066 111.621 97.5497 112.115 97.3315L112.532 98.3932L106.24 99.8039L103.045 99.4548L97.3542 90.2394L100.975 91.1653ZM113.783 99.2367L112.741 96.5947C112.697 96.4832 112.61 96.3959 112.493 96.3523C112.382 96.3135 112.251 96.3232 112.144 96.3814C111.64 96.6674 110.923 96.9001 110.7 96.7886C110.685 96.7789 110.666 96.7741 110.651 96.6868C110.613 96.425 111.698 95.5379 113.904 94.7526C114.122 94.6799 114.234 94.4375 114.161 94.2145C114.083 93.9963 113.841 93.88 113.623 93.9576C112.804 94.2484 111.267 94.8592 110.414 95.6252C110.365 95.6203 110.312 95.6252 110.259 95.6397C110.118 95.6882 109.876 95.7173 109.725 95.4458C109.919 95.0434 111.466 94.0157 113.187 93.1577C113.395 93.051 113.478 92.799 113.371 92.5905C113.269 92.3821 113.017 92.2948 112.809 92.4015C112.115 92.7505 110.516 93.5552 109.58 94.3842C109.551 94.3793 109.522 94.3696 109.488 94.3745C109.338 94.3842 108.838 94.389 108.751 93.88C108.838 93.4728 110.69 92.4596 112.712 91.7082C112.935 91.6258 113.041 91.3835 112.964 91.1653C112.881 90.9423 112.639 90.8357 112.421 90.9132C110.525 91.621 109.405 92.2221 108.756 92.7166C108.727 92.6487 108.703 92.5517 108.712 92.4499C108.741 92.2221 108.921 91.9846 109.236 91.7567C110.525 90.8211 112.896 89.9534 113.681 90.7339C114.103 91.1605 115.737 93.7637 117.545 96.7401C117.54 96.745 117.535 96.7498 117.535 96.7547C116.696 98.6598 114.563 99.1252 113.783 99.2367Z" fill="black"/>
<path d="M161.261 110.527C160.854 102.165 159.104 96.3716 156.195 93.7732C151.619 89.677 144.367 90.1133 144.061 90.1278C144.037 90.1278 144.018 90.1423 143.994 90.1472C143.165 90.0551 142.273 90.0212 141.298 90.0745C141.293 90.0745 141.293 90.0793 141.289 90.0793C139.795 89.8757 138.104 89.9775 136.286 90.6659C133.993 91.5336 131.496 92.7795 130.357 95.4312C129.659 97.0551 128.791 99.7989 129.407 102.417C129.388 102.451 129.373 102.48 129.368 102.514C129.281 103.008 127.196 114.686 128.287 119.805C129.373 124.861 129.732 126.568 134.764 126.645C136.654 126.674 138.831 126.694 140.92 126.694C143.8 126.694 146.509 126.66 148.104 126.573C149.787 126.48 153.747 125.991 154.901 123.509C158.188 122.263 159.778 119.093 160.534 116.63C161.12 114.73 161.363 112.674 161.261 110.527ZM152.811 97.9859C152.821 98.0198 153.665 101.176 153.665 105.345C153.665 106.212 153.718 107.371 153.796 108.69C153.781 108.694 153.766 108.699 153.752 108.709C153.742 108.719 153.064 109.247 151.818 109.611C151.73 108.951 151.144 104.559 150.199 99.7165C149.539 96.3425 148.502 94.3695 147.751 93.3079C147.663 93.1867 147.561 93.08 147.45 92.9879C147.435 92.9588 147.411 92.9394 147.392 92.9152C147.368 92.8958 146.32 91.902 144.59 91.0779C151.289 92.1493 152.748 97.7047 152.811 97.9859ZM153.859 109.654C153.907 110.401 153.96 111.186 154.014 111.986C154.3 116.223 154.658 121.468 154.246 122.898C152.385 124.042 150.892 123.902 150.339 123.785C150.029 121.434 150.31 112.669 150.378 110.74C152.084 110.575 153.272 110.003 153.859 109.654ZM154.852 111.928C154.678 109.32 154.513 106.862 154.513 105.345C154.513 101.064 153.665 97.8986 153.631 97.7774C153.611 97.7047 153.228 96.1728 151.958 94.481C153.078 95.5669 154.125 97.0406 154.755 99.0524C155.691 102.048 156.316 104.719 156.665 107.216C156.956 109.276 157.15 111.685 156.418 113.93C156.108 114.88 155.681 115.854 155.163 116.838C155.08 115.282 154.969 113.595 154.852 111.928ZM131.133 95.7608C132.151 93.4 134.463 92.2608 136.586 91.4512C137.769 91.0052 138.894 90.8259 139.936 90.8259C142.563 90.8259 144.672 91.9554 145.831 92.7504C145.603 92.8522 145.395 93.0073 145.239 93.2109C144.086 94.7088 144.066 97.918 144.057 100.497C144.052 100.962 144.052 101.394 144.042 101.777C143.994 103.881 142.491 105.529 139.931 106.295C136.969 107.182 132.762 106.654 131.108 104.259C129.165 101.428 130.284 97.7193 131.133 95.7608ZM134.783 125.807C130.444 125.739 130.197 124.692 129.126 119.689C129.257 118.904 130.667 111.414 136.213 111.414C136.305 111.414 136.402 111.419 136.494 111.424C138.37 111.506 139.999 112.32 141.337 113.843C143.994 116.868 144.905 121.996 144.643 125.836C141.667 125.87 137.852 125.85 134.783 125.807ZM148.061 125.734C147.382 125.773 146.5 125.797 145.482 125.821C145.739 121.812 144.764 116.47 141.962 113.285C140.464 111.584 138.637 110.677 136.523 110.585C131.87 110.372 129.732 114.618 128.845 117.372C128.631 113.057 129.538 106.707 129.974 103.987C130.105 104.244 130.25 104.496 130.42 104.744C132.306 107.487 136.863 108.103 140.174 107.114C143.106 106.237 144.823 104.302 144.886 101.806C144.895 101.418 144.895 100.977 144.9 100.507C144.91 98.1846 144.924 94.9997 145.904 93.7296C146.083 93.5018 146.325 93.4775 146.456 93.4727C146.699 93.4775 146.926 93.5987 147.062 93.7926C147.639 94.607 148.705 96.4831 149.365 99.8765C150.378 105.059 150.979 109.722 150.989 109.804C150.664 109.863 150.32 109.906 149.937 109.926C149.724 109.94 149.549 110.115 149.539 110.333C149.52 110.813 149.108 122.011 149.544 124.207C149.573 124.357 149.68 124.474 149.816 124.522C149.859 124.537 150.349 124.706 151.129 124.706C151.643 124.706 152.288 124.629 153.01 124.396C151.92 125.138 150.199 125.618 148.061 125.734ZM159.734 116.388C159.08 118.516 157.761 121.211 155.177 122.476C155.293 121.531 155.293 120.111 155.235 118.438C156.098 116.998 156.767 115.573 157.218 114.196C158.008 111.787 157.805 109.262 157.499 107.104C157.14 104.559 156.51 101.849 155.555 98.8051C154.048 93.9769 150.397 92.0038 148.483 91.2815C150.775 91.6742 153.539 92.5371 155.633 94.4083C158.372 96.8564 160.025 102.446 160.417 110.575C160.519 112.616 160.287 114.575 159.734 116.388Z" fill="black"/>
<path d="M28.4591 14.0581C28.6724 14.1308 28.9293 13.9272 29.0311 13.6073C29.1329 13.2873 29.0408 12.9722 28.8275 12.8995C28.6094 12.8317 28.3524 13.0353 28.2506 13.3552C28.1488 13.6751 28.2409 13.9902 28.4591 14.0581Z" fill="black"/>
<path d="M31.7361 13.811C31.5179 13.7431 31.261 13.9419 31.1592 14.2667C31.0574 14.5866 31.1495 14.9017 31.3677 14.9696C31.581 15.0375 31.8379 14.8387 31.9397 14.5139C32.0415 14.194 31.9494 13.8789 31.7361 13.811Z" fill="black"/>
<path d="M29.5255 15.43C29.6225 15.5027 29.7243 15.5803 29.8649 15.6142C29.9957 15.6579 30.1654 15.6724 30.3157 15.6191C30.466 15.5609 30.5775 15.4688 30.6502 15.3088C30.6599 15.2943 30.6647 15.2797 30.6647 15.2652C30.6793 15.1779 30.6211 15.0955 30.529 15.0858L30.3254 15.0568C30.2721 15.0519 30.2042 15.0664 30.1654 15.0568C30.1266 15.0519 30.083 15.0568 30.0297 15.0471C29.9812 15.0374 29.9133 15.0034 29.8455 14.9743C29.7728 14.9356 29.7049 14.8919 29.6225 14.8483L29.6031 14.8386C29.5304 14.795 29.4431 14.795 29.3655 14.8483C29.2589 14.9162 29.2298 15.0616 29.2928 15.1682C29.3607 15.2604 29.4334 15.3476 29.5255 15.43Z" fill="black"/>
<path d="M28.9047 17.6406C29.1471 17.7182 29.4089 17.7327 29.6513 17.7085C29.9034 17.6746 30.1264 17.6067 30.359 17.4613C30.4415 17.4128 30.4851 17.3158 30.4608 17.2189C30.4366 17.0928 30.3106 17.0153 30.1894 17.0395L30.1506 17.0492C29.9858 17.088 29.787 17.1268 29.6077 17.1268C29.4234 17.1365 29.2392 17.1171 29.0696 17.0638C28.8999 17.0201 28.7351 16.9426 28.5751 16.8359C28.4151 16.739 28.2794 16.6032 28.1291 16.4675L28.1097 16.453C28.0467 16.3948 27.9498 16.3802 27.877 16.4287C27.7801 16.482 27.7461 16.6081 27.7995 16.705C27.8625 16.8068 27.9207 16.9038 27.9934 17.0056C28.0758 17.0928 28.1485 17.1898 28.2503 17.2674C28.4297 17.4419 28.6672 17.5534 28.9047 17.6406Z" fill="black"/>
<path d="M31.1687 13.1807H31.1929C31.4644 13.1613 31.6583 13.1371 31.8571 13.171C31.9637 13.1856 32.0655 13.2146 32.1722 13.2583C32.2788 13.3019 32.4 13.3601 32.5115 13.4134L32.5406 13.4279C32.5745 13.4473 32.6182 13.4522 32.6569 13.4328C32.7297 13.4037 32.7684 13.3213 32.7394 13.2437C32.6715 13.0789 32.5745 12.948 32.4485 12.8365C32.3225 12.7202 32.1625 12.6378 31.988 12.5893C31.8134 12.5408 31.6244 12.536 31.4547 12.5844C31.2802 12.6281 31.1348 12.7202 31.0136 12.8365C30.9748 12.8753 30.9506 12.9286 30.9506 12.9868C30.9651 13.1031 31.0572 13.1856 31.1687 13.1807Z" fill="black"/>
</svg>
