<svg width="1080" height="473" viewBox="0 0 1080 473" fill="none" xmlns="http://www.w3.org/2000/svg">
<g clip-path="url(#clip0_662_4996)">
<path fill-rule="evenodd" clip-rule="evenodd" d="M118.664 0L221.738 0C242.305 13.9529 267.589 32.455 295.653 53.5672C330.495 79.7775 369.831 110.141 410.807 141.769L410.808 141.77C525.288 230.136 652.561 328.377 730.344 373.514C736.797 377.258 742.824 380.663 748.446 383.751C710.275 331.437 647.561 259.024 586.322 189.2C567.632 167.89 552.85 149.797 542.517 135.03C537.369 127.672 532.767 120.354 529.291 113.309C526.225 107.092 522.071 97.2805 521.821 85.9139C521.683 79.6327 522.714 71.7017 526.835 63.7887C531.093 55.6095 537.377 49.9058 543.938 46.3683C555.417 40.1777 567.179 40.8256 573.447 41.5326C587.308 43.0961 604.306 49.0541 621.947 56.3603C677.23 79.2551 773.712 130.799 906.727 201.859C946.819 223.276 990.231 246.467 1036.83 271.182C1052.45 279.465 1066.81 286.741 1080 293.087V373.127C1057.92 363.476 1033.12 351.347 1005.35 336.623C957.029 310.995 912.505 287.214 871.789 265.465L871.785 265.464C773.439 212.934 697.297 172.264 643.424 146.084C714.619 227.317 793.225 318.294 828.25 375.012C837.035 389.24 845.476 405 848.981 419.752C850.708 427.016 852.457 438.874 848.147 451.436C844.915 460.855 839.236 468.029 832.429 473H766.347C765.841 472.803 765.331 472.604 764.822 472.402C746.816 465.264 724.177 453.702 696.57 437.681C614.461 390.033 480.53 286.639 364.96 197.421L364.959 197.42C352.212 187.579 339.688 177.911 327.481 168.509C390.198 241.688 427.48 294.768 444.123 332.344C453.282 353.022 461.547 380.586 450.004 405.369C436.774 433.773 408.487 438.116 391.911 438.116C373.492 438.116 352.489 433.238 332.117 426.809C311.19 420.203 288.444 411.14 265.746 401.093C220.331 380.99 173.095 356.05 137.515 336.317C123.372 328.474 106.805 319.158 88.643 308.946C61.6982 293.795 31.2453 276.671 0 259.458L0 176.81C43.5588 200.408 87.0023 224.842 123.173 245.185L123.177 245.189C140.838 255.122 156.764 264.079 170.124 271.488C204.907 290.778 250.126 314.616 292.869 333.535C314.252 342.999 334.512 351.009 352.219 356.597C363.874 360.277 373.493 362.602 381.051 363.802C380.972 363.623 380.893 363.444 380.812 363.262C366.181 330.227 324.096 270.662 236.412 172.951C192.534 124.057 162.478 88.5426 144.379 64.3629C135.609 52.6473 128.253 41.777 123.778 32.4518C121.817 28.3656 118.418 20.6414 117.869 11.3352C117.691 8.3386 117.761 4.4006 118.664 0ZM1080 81.0528C1067.61 54.4952 1055.79 27.53 1046.12 1.46602C1065.6 6.684 1080 25.2262 1080 47.3V81.0528ZM781.236 437.505C781.304 437.788 781.27 437.737 781.212 437.402C781.221 437.437 781.229 437.472 781.236 437.505ZM804.439 408.401C804.584 408.405 804.662 408.412 804.665 408.415C804.67 408.419 804.596 408.418 804.439 408.401ZM396.339 364.451C396.357 364.465 396.17 364.525 395.725 364.591C396.098 364.471 396.321 364.438 396.339 364.451ZM590.649 78.1323C590.654 78.1348 590.704 78.2523 590.777 78.477C590.679 78.2421 590.642 78.1298 590.649 78.1323ZM565.937 114.422C565.568 114.422 565.365 114.4 565.356 114.389C565.347 114.378 565.531 114.378 565.937 114.422Z" fill="#F9FBFF"/>
</g>
<defs>
<clipPath id="clip0_662_4996">
<rect width="1080" height="473" fill="white"/>
</clipPath>
</defs>
</svg>
