<svg width="402" height="280" viewBox="0 0 402 280" fill="none" xmlns="http://www.w3.org/2000/svg">
<g clip-path="url(#clip0_272_19273)">
<path d="M201.625 280C278.945 280 341.625 217.32 341.625 140C341.625 62.6801 278.945 0 201.625 0C124.305 0 61.625 62.6801 61.625 140C61.625 217.32 124.305 280 201.625 280Z" fill="#F9F9F9"/>
<path fill-rule="evenodd" clip-rule="evenodd" d="M153.921 184.677H20.6017C9.72333 184.677 0.903931 175.884 0.903931 165.036V53.269C0.903931 42.4207 9.72333 33.6277 20.6017 33.6277H153.921C164.799 33.6277 173.619 42.4207 173.619 53.269V165.036C173.619 175.884 164.799 184.677 153.921 184.677Z" fill="white"/>
<path fill-rule="evenodd" clip-rule="evenodd" d="M382.347 265.451H246.391C236.24 265.451 228.011 257.246 228.011 247.125V132.729C228.011 122.608 236.24 114.402 246.391 114.402H382.347C392.497 114.402 400.726 122.608 400.726 132.729V247.125C400.726 257.246 392.497 265.451 382.347 265.451Z" fill="white"/>
<path fill-rule="evenodd" clip-rule="evenodd" d="M387.805 209.785C385.655 207.282 374.059 190.215 359.906 171.616C350.056 158.673 335.785 155.222 328.6 154.303C328.647 156.177 328.654 157.416 328.654 157.416C328.654 157.416 326.878 165.722 313.901 165.322C297.694 164.822 299.959 158.6 299.959 158.6C299.959 158.6 300.592 156.822 301.114 155.022C297.519 156.356 289.386 160.133 279.357 169.639C274.521 174.224 259.721 194.051 259.721 194.051C259.721 194.051 260.616 196.28 262.118 199.427H277.346C278.852 199.427 280.235 200.26 280.937 201.59L306.045 249.265H273.616L271.451 265.98H362.477L352.742 231.789C352.742 231.789 381.117 217.957 387.805 209.785Z" fill="#34C759"/>
<mask id="mask0_272_19273" style="mask-type:alpha" maskUnits="userSpaceOnUse" x="259" y="154" width="129" height="112">
<path fill-rule="evenodd" clip-rule="evenodd" d="M387.805 209.785C385.655 207.282 374.059 190.215 359.906 171.616C350.056 158.673 335.785 155.222 328.6 154.303C328.647 156.177 328.654 157.416 328.654 157.416C328.654 157.416 326.878 165.722 313.901 165.322C297.694 164.822 299.959 158.6 299.959 158.6C299.959 158.6 300.592 156.822 301.114 155.022C297.519 156.356 289.386 160.133 279.357 169.639C274.521 174.224 259.721 194.051 259.721 194.051C259.721 194.051 260.616 196.28 262.118 199.427H277.346C278.852 199.427 280.235 200.26 280.937 201.59L306.045 249.265H273.616L271.451 265.98H362.477L352.742 231.789C352.742 231.789 381.117 217.957 387.805 209.785Z" fill="white"/>
</mask>
<g mask="url(#mask0_272_19273)">
<path d="M369.305 -87.577H35.073C-3.58694 -87.577 -34.927 -56.2369 -34.927 -17.577V319.301C-34.927 357.961 -3.58694 389.301 35.073 389.301H369.305C407.965 389.301 439.305 357.961 439.305 319.301V-17.577C439.305 -56.2369 407.965 -87.577 369.305 -87.577Z" fill="#34C759"/>
<path fill-rule="evenodd" clip-rule="evenodd" d="M237.59 150.509C237.59 150.509 237.325 154.212 236.796 160.56C236.265 166.907 235.737 167.965 237.061 169.551C238.385 171.139 243.679 178.015 250.034 186.479C256.389 194.942 258.77 197.059 258.77 197.059L260.334 195.443L271.264 220.949L279.157 238.054C279.157 238.054 267.747 243.142 258.77 239.641C246.017 234.665 237.855 210.018 233.089 201.82C228.323 193.62 224.353 185.686 224.353 185.686C224.353 185.686 216.146 180.66 210.849 173.784C205.555 166.907 205.026 165.056 205.289 163.468C205.555 161.881 206.43 162.137 206.43 162.137C206.43 162.137 202.622 157.948 203.868 155.46C204.691 153.815 206.613 154.82 206.613 154.82C206.613 154.82 205.424 151.162 207.347 150.064C208.956 149.146 210.551 150.613 210.551 150.613C210.551 150.613 209.24 148.553 211.53 147.548C213.818 146.542 222.817 153.631 225.289 155.826C227.761 158.021 229.318 159.85 229.318 159.85C229.318 159.85 232.314 148.118 237.59 150.509Z" fill="white"/>
<path fill-rule="evenodd" clip-rule="evenodd" d="M331.567 122.205C329.183 121.943 327.018 123.255 327.018 123.255C327.018 123.255 327.594 115.604 323.82 108.11C320.045 100.615 302.012 98.5775 295.453 106.12C295.453 106.12 292.123 120.66 292.468 130.487C292.809 140.157 298.607 143.881 302.192 144.89C302.069 147.083 301.889 149.703 301.65 151.854C301.435 153.793 299.841 158.279 299.841 158.279C299.841 158.279 297.577 164.504 313.774 165.005C326.742 165.405 328.518 157.093 328.518 157.093C328.518 157.093 328.492 152.054 328.159 146.902C327.994 144.346 327.861 139.397 327.771 135.061C330.01 135.245 333.142 134.901 335.225 132.128C338.773 127.41 334.662 122.547 331.567 122.205Z" fill="white"/>
<path fill-rule="evenodd" clip-rule="evenodd" d="M382.901 213.874C382.901 213.874 386.952 219.689 389.389 234.37C391.827 249.052 382.423 257.386 365.26 260.217C353.79 262.109 310.271 260.438 310.271 260.438C310.271 260.438 294.166 264.616 286.013 262.081C277.86 259.545 268.334 252.222 268.334 252.222L312.666 253.219L316.563 248.996L354.472 237.232L352.042 231.938C352.042 231.938 360.216 227.873 367.645 223.508C375.977 218.613 382.901 213.874 382.901 213.874Z" fill="white"/>
<path fill-rule="evenodd" clip-rule="evenodd" d="M238.734 253.339H336.866C337.269 253.339 337.596 253.013 337.596 252.61V249.873C337.596 249.47 337.269 249.143 336.866 249.143H238.734C238.33 249.143 238.004 249.47 238.004 249.873V252.61C238.004 253.013 238.33 253.339 238.734 253.339Z" fill="white"/>
<path fill-rule="evenodd" clip-rule="evenodd" d="M215.332 199.128H277.24C278.746 199.128 280.128 199.963 280.829 201.295L305.921 248.997H238.002L213.427 202.277C212.674 200.847 213.713 199.128 215.332 199.128Z" fill="white"/>
<path fill-rule="evenodd" clip-rule="evenodd" d="M254.444 227.621C256.803 229.694 259.957 229.964 261.487 228.225C263.02 226.486 262.349 223.395 259.991 221.323C257.632 219.25 254.479 218.979 252.947 220.719C251.416 222.458 252.085 225.548 254.444 227.621Z" fill="white"/>
</g>
<mask id="mask1_272_19273" style="mask-type:alpha" maskUnits="userSpaceOnUse" x="15" y="80" width="135" height="105">
<path fill-rule="evenodd" clip-rule="evenodd" d="M15.7242 144.364C15.7242 144.364 27.6743 110.938 40.9041 95.7241C54.134 80.5122 69.9586 80.2052 69.9586 80.2052L105.148 86.7682C105.148 86.7682 113.032 95.3313 120.5 98.9748C127.968 102.617 129.687 102.092 133.101 102.092C136.515 102.092 136.376 102.68 136.376 102.68C136.376 102.68 140.729 109.345 143.139 115.079C147.108 124.527 149.632 136.34 149.632 136.34L127.325 137.721L132.378 184.451L118.646 184.473H42.0952L46.4518 152.72C46.4518 152.72 31.3012 154.863 15.7242 144.364Z" fill="white"/>
</mask>
<g mask="url(#mask1_272_19273)">
<path d="M347.605 -86.2524H35.073C-3.58694 -86.2524 -34.927 -54.9124 -34.927 -16.2524V284.106C-34.927 322.766 -3.58694 354.106 35.073 354.106H347.605C386.265 354.106 417.605 322.766 417.605 284.106V-16.2524C417.605 -54.9124 386.265 -86.2524 347.605 -86.2524Z" fill="#34C759"/>
<path fill-rule="evenodd" clip-rule="evenodd" d="M121.177 38.1998C116.632 28.954 100.213 31.2344 94.4655 37.7062C88.7167 44.1768 86.2272 45.2442 86.2272 45.2442C86.2272 45.2442 84.797 43.4233 81.9687 42.9988C78.4421 42.47 73.4031 46.283 75.6929 51.92C76.9373 54.9847 79.6272 56.2132 81.8312 56.7025H81.8301C81.8301 56.7025 80.3187 69.782 79.0764 74.9561C77.8343 80.1313 69.7008 80.3946 69.7008 80.3946C69.7008 80.3946 73.8627 93.821 87.1209 95.6821C103.68 98.0052 105.005 86.9376 105.005 86.9376C105.005 86.9376 101.369 85.7913 102.186 81.0647C102.585 78.7514 102.967 76.5214 103.252 74.8431C103.699 74.8848 104.139 74.9133 104.565 74.9155C109.667 74.944 115.829 71.265 118.775 61.5661C121.722 51.8673 121.177 38.1998 121.177 38.1998Z" fill="white"/>
<path fill-rule="evenodd" clip-rule="evenodd" d="M67.5597 115.844L83.6211 139.661L89.3275 137.239L73.2737 112.733C73.2737 112.733 71.5952 110.56 69.1295 111.855C65.7855 113.612 67.5597 115.844 67.5597 115.844Z" fill="white"/>
<path fill-rule="evenodd" clip-rule="evenodd" d="M17.8903 146.839C17.8903 146.839 10.4802 160.361 14.0495 174.39C17.6188 188.419 28.2531 189.985 32.3984 189.948C36.5438 189.911 49.4403 183.95 61.7257 167.291C74.0123 150.633 75.4875 149.823 75.4875 149.823L90.8325 145.395L93.7892 135.937C93.7892 135.937 85.8668 132.611 79.845 131.281C73.8243 129.951 71.2531 131.681 65.8601 136.72C60.4672 141.761 42.693 154.028 42.693 154.028L41.8917 153.678C41.8917 153.678 35.6402 153.509 25.1784 150.343C21.5486 149.244 17.8903 146.839 17.8903 146.839Z" fill="white"/>
<path fill-rule="evenodd" clip-rule="evenodd" d="M163.341 133.936L160.705 134.119L157.196 127.754C157.196 127.754 152.125 128.09 139.564 128.664C127.876 129.198 125.868 135.405 125.868 135.405C125.868 135.405 120.954 129.366 108.25 129.271C100.794 129.215 91.2385 129.161 91.2385 129.161L88.5951 135.561L88.4332 135.558C87.8729 135.543 87.3694 135.785 87.1924 136.154L70.9211 170.02C70.7265 170.426 71.1717 170.849 71.7851 170.843L107.851 170.492C107.851 170.492 108.634 172.097 112.756 172.2C116.877 172.303 118.172 169.729 118.172 169.729L145.909 167.239C146.391 167.185 146.791 166.954 146.962 166.636L164.212 134.695C164.424 134.298 163.943 133.879 163.341 133.936Z" fill="white"/>
<path fill-rule="evenodd" clip-rule="evenodd" d="M159.222 147.002C156.577 145.493 145.763 144.418 142.399 144.094C139.034 143.77 138.6 143.685 138.074 144.525C136.992 146.248 138.674 147.97 138.674 147.97C138.674 147.97 136.51 147.863 136.631 149.909C136.707 151.205 139.034 153.14 139.034 153.14C139.034 153.14 136.751 153.679 138.674 156.586C139.298 157.532 144.424 160.365 149.037 162.793L146.962 166.637C146.792 166.956 146.391 167.186 145.909 167.24L130.613 168.613L132.322 184.322L119.429 184.342L119.391 185.09H149.205C150.436 183.464 151.622 181.702 152.831 179.857C155.971 175.066 158.472 169.905 159.794 166.988C161.353 166.44 162.638 164.538 162.706 159.925C162.826 151.848 161.865 148.51 159.222 147.002Z" fill="white"/>
</g>
<mask id="mask2_272_19273" style="mask-type:alpha" maskUnits="userSpaceOnUse" x="0" y="13" width="402" height="254">
<path fill-rule="evenodd" clip-rule="evenodd" d="M227.451 198.824H228.984V194.221C228.436 193.212 227.923 192.26 227.451 191.372V198.824Z" fill="#393F49"/>
<path fill-rule="evenodd" clip-rule="evenodd" d="M308.947 121.089C308.796 122.141 309.331 123.088 310.142 123.203C310.952 123.319 311.73 122.559 311.88 121.506C312.031 120.453 311.495 119.506 310.686 119.391C309.876 119.276 309.098 120.036 308.947 121.089Z" fill="#393F49"/>
<path fill-rule="evenodd" clip-rule="evenodd" d="M173.066 164.981C173.066 175.346 164.62 183.779 154.238 183.779H151.039C152.009 182.429 152.946 181.054 153.814 179.729C156.87 175.063 159.335 170.021 160.703 167.03C162.231 166.33 163.738 164.373 163.813 159.379C163.936 151.035 162.924 147.475 159.942 145.774C159.765 145.673 159.543 145.571 159.299 145.473L165.228 134.487C165.437 134.096 165.413 133.642 165.165 133.271C164.855 132.807 164.249 132.546 163.628 132.605L161.48 132.753L158.208 126.814C158.067 126.554 157.802 126.402 157.486 126.419C157.45 126.421 154.642 126.605 148.248 126.927C147.323 123.937 146.135 120.301 144.625 116.093C142.065 108.958 139.077 104.437 137.536 102.389C139.518 101.797 141.015 100.558 141.504 98.2966C143.182 90.5502 140.665 88.0372 136.681 84.8962C132.696 81.7553 130.39 79.0336 135.213 76.3108C140.036 73.5892 139.826 66.0509 136.261 63.5377C132.696 61.0246 128.502 57.0463 129.759 53.0681C131.018 49.0888 134.953 46.3265 132.276 36.1071C132.083 35.3675 131.823 34.7047 131.534 34.078H154.238C164.62 34.078 173.066 42.5107 173.066 52.8761V164.981ZM85.2453 131.301C83.6097 130.784 81.9292 130.309 80.363 129.963C79.7123 129.819 79.121 129.734 78.5374 129.66L68.5498 114.839L68.5178 114.797C68.5134 114.792 68.0947 114.23 68.2409 113.575C68.3695 112.997 68.9223 112.436 69.8401 111.953C70.2841 111.719 70.6941 111.63 71.0601 111.63C72.1922 111.63 72.9121 112.484 72.9857 112.571L85.2453 131.301ZM139.872 127.329C131.808 127.697 128.139 130.693 126.563 132.725C122.972 110.23 117.445 100.859 117.202 100.46C116.984 100.099 116.512 99.9854 116.149 100.203C115.788 100.423 115.673 100.893 115.891 101.255C115.949 101.349 121.458 110.725 125.007 132.708C122.539 130.826 117.388 128.002 108.605 127.935C101.147 127.879 91.5946 127.824 91.5946 127.824H91.5903C91.2796 127.824 90.9987 128.011 90.8815 128.298L89.1009 132.61C88.603 132.431 88.1121 132.254 87.5798 132.07L74.2343 111.686C73.5177 110.757 71.5294 109.336 69.1267 110.598C67.765 111.314 66.9615 112.214 66.7383 113.273C66.4724 114.534 67.1373 115.51 67.2901 115.713L76.6139 129.547C72.634 129.596 69.94 131.62 65.6909 135.595C64.3148 136.88 61.3571 139.186 57.7366 141.893C59.4216 137.098 62.9651 126.554 64.2313 119.282C64.3038 118.865 64.0247 118.47 63.607 118.397C63.1905 118.329 62.7937 118.604 62.7211 119.02C61.2098 127.692 56.388 141.158 55.523 143.538C52.0355 146.113 48.1502 148.918 44.533 151.504C40.175 151.679 28.5145 151.283 16.5815 143.49C17.6564 140.585 22.8156 126.972 29.6378 114.037C29.6961 113.927 29.7532 113.818 29.8115 113.71C30.3698 112.656 30.9392 111.608 31.5183 110.571C31.6448 110.346 31.7712 110.121 31.8965 109.899C32.3746 109.053 32.8593 108.218 33.3495 107.393C33.5561 107.045 33.7628 106.697 33.9683 106.358C34.2354 105.918 34.5036 105.479 34.774 105.048C35.1862 104.389 35.5972 103.746 36.005 103.126C36.2105 102.813 36.4171 102.508 36.6248 102.201C36.9964 101.651 37.3657 101.114 37.7339 100.596C37.8592 100.418 37.9856 100.235 38.1109 100.059C38.6022 99.3816 39.088 98.7411 39.5705 98.1207C39.7057 97.9466 39.8409 97.776 39.9771 97.6045C40.4839 96.9692 40.9884 96.3524 41.4873 95.7819C42.2359 94.927 42.9931 94.1246 43.7559 93.3634C44.0109 93.1096 44.267 92.8839 44.522 92.6397C45.0331 92.1515 45.5431 91.6641 46.0564 91.2144C46.3641 90.9466 46.6707 90.7034 46.9785 90.447C47.4423 90.062 47.9061 89.6761 48.37 89.32C48.6975 89.0689 49.0229 88.837 49.3493 88.6007C49.7911 88.2796 50.2319 87.962 50.6704 87.6662C51.0068 87.4393 51.3409 87.2274 51.675 87.0157C52.0982 86.7457 52.5213 86.4823 52.9401 86.2343C53.2786 86.0345 53.615 85.8447 53.9491 85.6593C54.3524 85.4353 54.7526 85.2191 55.1493 85.0139C55.489 84.8395 55.8264 84.6682 56.1605 84.5058C56.5364 84.3247 56.9057 84.1535 57.2739 83.9878C57.6136 83.8353 57.9531 83.6827 58.2851 83.5423C58.6247 83.4007 58.9567 83.269 59.2864 83.1395C59.6282 83.0067 59.9722 82.8706 60.3042 82.7499C60.5932 82.6457 60.8713 82.5534 61.1527 82.458C61.5044 82.3384 61.8583 82.2154 62.1946 82.1123C62.4067 82.0465 62.6046 81.9916 62.8101 81.9312C63.1915 81.8204 63.5763 81.7051 63.9346 81.6119C63.9884 81.5976 64.0356 81.5877 64.0884 81.5734C66.069 81.062 67.6737 80.8063 68.7387 80.6802C68.7717 80.6768 68.8135 80.6703 68.8453 80.6669C69.0146 80.6473 69.1443 80.6362 69.2839 80.622C69.3652 80.6154 69.4587 80.6055 69.5279 80.6C70.5171 83.2108 75.3554 94.1657 87.3643 95.8519C88.9171 96.0706 90.4099 96.18 91.8011 96.18C91.8825 96.18 91.9621 96.18 92.0417 96.1791C92.4652 96.1756 92.8047 95.8291 92.8012 95.4074C92.7969 94.9865 92.4556 94.6496 92.0347 94.6496H92.0286C90.6286 94.6531 89.1446 94.5569 87.5786 94.3364C76.9491 92.8445 72.3339 83.4599 71.1238 80.4804C73.488 80.2083 79.0825 79.0867 80.1728 74.5367C80.2552 74.1965 80.3377 73.8201 80.4212 73.4195C80.4289 73.3811 80.4377 73.3372 80.4454 73.2987C81.4489 68.4195 82.5205 59.7321 82.8459 57.0127C84.3516 57.2464 85.4936 57.1696 85.6123 57.1609C86.0344 57.128 86.3499 56.7592 86.3169 56.3377C86.2839 55.9163 85.9047 55.6025 85.4925 55.6343C85.4607 55.6377 84.0176 55.7298 82.2776 55.3292C82.016 55.27 81.7665 55.1997 81.5203 55.1251C81.427 55.0966 81.3335 55.0702 81.239 55.0373C81.0862 54.9857 80.9433 54.9265 80.7971 54.8694C79.9311 54.527 79.0671 54.0431 78.3219 53.3352C78.3208 53.334 78.3197 53.334 78.3197 53.333C78.1296 53.1519 77.9504 52.9522 77.779 52.7437C77.7548 52.7152 77.7284 52.6888 77.7053 52.6592C77.5537 52.4671 77.414 52.2564 77.2788 52.038C77.247 51.9865 77.2096 51.9382 77.1788 51.8843C77.0227 51.6166 76.8798 51.3313 76.7557 51.024C76.648 50.7606 76.5578 50.4983 76.4842 50.2382C76.46 50.1537 76.449 50.0703 76.4292 49.9858C76.3863 49.8113 76.3413 49.6368 76.3138 49.4656C76.2952 49.3438 76.2918 49.2253 76.2798 49.1056C76.2665 48.9729 76.2468 48.84 76.2424 48.7095C76.238 48.5515 76.2512 48.3978 76.2589 48.242C76.2644 48.1531 76.26 48.062 76.2699 47.9753C76.2908 47.7745 76.3292 47.578 76.3721 47.3838C76.3809 47.3454 76.3841 47.3048 76.393 47.2664C76.5655 46.5706 76.8843 45.9175 77.3459 45.3272C78.534 43.8072 80.5289 42.9029 82.2084 43.1433C84.6737 43.513 85.9651 45.0923 85.9762 45.1055L86.3389 45.5675L86.6685 45.427C86.6763 45.4906 86.6829 45.5456 86.6928 45.6136C86.9005 46.812 87.094 47.8173 87.7677 48.5723C88.617 49.5226 90.0905 49.3657 91.5999 47.5846C93.1101 45.8023 95.2897 43.9367 99.6998 42.6736C106.686 40.6707 112.565 40.0101 116.682 36.7199C116.682 36.7199 119.598 38.669 120.71 44.3153C120.696 44.7082 120.674 45.1286 120.653 45.5423C118.634 44.3241 116.497 45.0451 115.53 45.7157C115.183 45.956 115.096 46.4334 115.339 46.7813C115.579 47.128 116.055 47.2137 116.405 46.9722C116.494 46.9097 118.608 45.4896 120.544 47.3794C120.259 51.6297 119.654 56.5682 118.388 60.7396C115.519 70.1897 109.587 73.5522 104.97 73.5522H104.918C100.765 73.5292 96.534 71.6778 93.3114 68.4744C91.5071 66.679 89.5585 63.7367 88.0964 60.6014C87.9196 60.2194 87.4644 60.0515 87.0786 60.2315C86.695 60.4082 86.529 60.8636 86.707 61.2477C88.2408 64.5368 90.3049 67.6426 92.2299 69.5576C95.3562 72.6666 99.3699 74.5937 103.431 74.9943C103.193 76.5395 103.127 78.043 102.536 80.4695C100.891 87.2088 116.574 97.664 121.271 99.7272C121.941 100.021 122.745 100.344 123.637 100.665C126.376 101.8 128.159 102.215 129.676 102.355C131.807 102.769 133.97 102.965 135.865 102.742C137.077 104.268 140.406 108.874 143.183 116.609C144.621 120.621 145.766 124.106 146.669 127.006C144.697 127.104 142.451 127.211 139.872 127.329ZM131.068 134.851L130.613 134.849L130.43 135.285C130.422 135.297 129.748 136.451 126.3 136.606C122.811 136.768 121.903 135.464 121.901 135.464L121.688 135.089L90.0791 134.257L92.1021 129.357C94.1846 129.369 102.167 129.416 108.592 129.465C120.729 129.556 125.573 135.263 125.62 135.321C125.796 135.534 126.077 135.637 126.351 135.586C126.625 135.535 126.851 135.34 126.94 135.076C127.019 134.844 129.007 129.357 139.943 128.857C150.237 128.386 155.553 128.071 157.1 127.976L159.795 132.87L131.068 134.851ZM137.722 146.877C137.432 146.993 137.134 147.167 136.876 147.426C136.54 147.766 136.151 148.382 136.21 149.393C136.273 150.463 137.323 151.688 138.108 152.459C137.923 152.644 137.755 152.878 137.638 153.175C137.283 154.068 137.532 155.169 138.377 156.45C138.618 156.815 139.238 157.727 148.34 162.554L146.629 165.724C146.602 165.773 146.448 165.896 146.183 165.924L119.514 168.319L125.911 151.483C126.062 151.089 125.863 150.646 125.466 150.497C125.075 150.348 124.629 150.546 124.479 150.942L117.524 169.249C116.985 169.868 115.683 170.942 113.123 170.886C110.545 170.822 109.459 170.142 109.073 169.801L110.82 165.229C110.971 164.834 110.773 164.391 110.377 164.242C109.984 164.091 109.539 164.288 109.389 164.684L107.668 169.182L72.1306 169.528C72.1196 169.529 72.1075 169.528 72.0966 169.527L88.2329 135.921C88.2644 135.868 88.4831 135.745 88.7649 135.755L120.132 136.578L113.398 154.193C113.247 154.588 113.445 155.031 113.841 155.182C113.931 155.216 114.023 155.231 114.115 155.231C114.423 155.231 114.714 155.044 114.83 154.738L121.551 137.158C122.392 137.699 123.865 138.246 126.369 138.135C127.75 138.073 128.774 137.854 129.555 137.581L128.776 139.632C128.625 140.026 128.824 140.469 129.22 140.618C129.309 140.652 129.401 140.668 129.491 140.668C129.801 140.668 130.091 140.479 130.208 140.173L131.662 136.346L163.677 134.137L157.823 144.982C154.961 144.193 149.937 143.452 142.815 142.768L142.36 142.724C139.26 142.425 138.522 142.353 137.768 143.554C137.025 144.736 137.265 145.968 137.722 146.877ZM131.495 183.779H46.2424C50.8631 180.337 56.3718 175.122 62.6797 167.214L63.6095 166.05C66.1122 162.921 69.5403 158.633 71.6143 155.72C71.8584 155.376 71.7781 154.898 71.433 154.653C71.0868 154.407 70.6098 154.488 70.3647 154.834C68.3159 157.712 64.9032 161.979 62.4115 165.096L61.4817 166.26C46.6766 184.82 36.3845 188.1 32.6464 188.649C29.2326 189.157 18.669 187.477 15.154 173.652C13.2911 166.324 14.5803 158.986 15.9904 154.12C16.1081 153.712 15.874 153.289 15.4684 153.17C15.0585 153.054 14.6364 153.288 14.5188 153.693C13.0559 158.742 11.7215 166.368 13.668 174.028C14.7122 178.135 16.3554 181.236 18.2602 183.576C9.04957 182.358 1.90863 174.505 1.90863 164.981V52.8761C1.90863 42.5107 10.3542 34.078 20.7364 34.078H71.6507C69.0458 37.6041 65.4704 40.8942 59.5055 41.9697C47.5361 44.1283 40.9491 47.4767 39.583 58.7221C38.9257 64.1303 39.1455 69.093 32.2299 71.0442C26.3222 72.7113 17.3468 74.3859 10.7301 81.2526C2.58349 89.7085 2.46369 106.045 13.579 114.003C18.7338 117.693 22.6962 118.754 25.4846 118.849C19.2702 131.557 15.0034 143.336 14.932 143.535C14.8144 143.865 14.9353 144.232 15.2266 144.428C16.2366 145.105 17.2424 145.713 18.2426 146.291C18.2436 146.29 18.2513 146.275 18.2513 146.275C18.2513 146.275 18.4019 146.372 18.614 146.503C20.9497 147.826 23.249 148.902 25.4627 149.755C25.4879 149.762 25.5132 149.774 25.5384 149.782C33.5103 152.195 39.0257 152.866 41.2052 153.05C41.5954 153.065 41.9669 153.075 42.3241 153.08C36.3515 157.335 31.5935 160.657 31.477 160.738C31.1307 160.981 31.0461 161.458 31.288 161.804C31.4374 162.017 31.6748 162.13 31.9177 162.13C32.0683 162.13 32.2211 162.086 32.3562 161.992C33.1586 161.431 46.2743 152.273 56.2807 144.886C56.4752 144.837 56.6368 144.724 56.7434 144.543C61.2552 141.205 65.0747 138.266 66.7387 136.711C71.9881 131.802 74.3325 130.197 80.0325 131.457C82.7715 132.063 85.9072 133.094 88.5155 134.03L88.4184 134.264C87.6922 134.357 87.1173 134.704 86.8525 135.257L86.5645 135.853L78.7608 135.194C78.3498 135.152 77.9695 135.471 77.9332 135.892C77.898 136.313 78.2102 136.684 78.6322 136.719L85.8566 137.329L84.2124 140.755C84.2058 140.753 84.2003 140.751 84.1948 140.751H74.959C74.5348 140.751 74.1917 141.093 74.1917 141.516C74.1917 141.939 74.5348 142.281 74.959 142.281H83.4793L81.28 146.86C81.1602 146.84 81.037 146.839 80.9129 146.879C73.6324 149.302 67.0608 148.366 66.9948 148.357C66.5849 148.303 66.187 148.583 66.1243 149.001C66.0617 149.419 66.3496 149.808 66.7673 149.87C66.8904 149.889 68.2434 150.084 70.368 150.084C72.8904 150.084 76.5054 149.796 80.4336 148.625L70.5823 169.14C70.3965 169.529 70.4251 169.962 70.6593 170.33C70.9505 170.784 71.5133 171.054 72.1463 171.058L107.821 170.711C108.376 171.319 109.792 172.333 113.085 172.415C113.173 172.417 113.26 172.418 113.345 172.418C115.975 172.418 117.536 171.407 118.379 170.579C118.567 170.5 118.734 170.377 118.812 170.172L118.867 170.029C118.896 169.989 118.937 169.942 118.962 169.906L146.34 167.448C147.076 167.362 147.691 166.988 147.98 166.446L149.695 163.268C150.447 163.663 151.243 164.076 152.101 164.521C152.478 164.714 152.939 164.567 153.134 164.192C153.328 163.817 153.182 163.355 152.804 163.16C141.358 157.252 139.847 155.884 139.658 155.606C139.132 154.811 138.913 154.133 139.059 153.749C139.126 153.569 139.273 153.462 139.392 153.399L153.871 158.659C153.958 158.692 154.047 158.706 154.133 158.706C154.446 158.706 154.74 158.513 154.854 158.203C154.999 157.805 154.793 157.367 154.395 157.222L139.775 151.91C138.943 151.196 137.778 149.935 137.74 149.303C137.71 148.766 137.899 148.571 137.961 148.508C138.229 148.235 138.711 148.174 138.924 148.174L154.999 152.316C155.063 152.333 155.128 152.34 155.191 152.34C155.531 152.34 155.842 152.111 155.932 151.766C156.038 151.357 155.791 150.94 155.381 150.833L139.443 146.727C139.145 146.359 138.457 145.34 139.067 144.366C139.29 144.011 139.32 143.967 142.213 144.247L142.668 144.291C154.789 145.454 158.217 146.551 159.183 147.102C161.553 148.456 162.394 151.777 162.281 159.357C162.24 162.073 161.733 165.394 159.547 165.808C159.132 165.888 158.858 166.287 158.936 166.701C158.956 166.8 158.994 166.89 159.044 166.969C157.657 169.959 155.348 174.592 152.532 178.891C151.484 180.493 150.353 182.186 149.164 183.779H131.495ZM154.238 32.5473H130.696C127.415 27.5462 121.371 26.8943 121.371 26.8943C121.371 26.8943 115.792 12.5968 99.747 13.1401C87.2445 13.5626 81.5269 18.8413 76.0885 27.1237C75.0477 28.7084 73.9979 30.6212 72.7241 32.5473H20.7361C9.5086 32.5473 0.375 41.667 0.375 52.8762V164.981C0.375 175.878 9.01402 184.775 19.8106 185.263C23.8894 189.196 28.6991 190.249 31.559 190.249C32.0602 190.249 32.5021 190.217 32.868 190.163C35.2949 189.808 39.0846 188.648 44.0834 185.31H118.932H149.928H154.238C165.464 185.31 174.599 176.19 174.599 164.981V52.8762C174.599 41.667 165.464 32.5473 154.238 32.5473Z" fill="#393F49"/>
<path fill-rule="evenodd" clip-rule="evenodd" d="M99.5703 92.9442C98.5553 93.4964 97.3994 93.9199 96.1359 94.2043C95.7238 94.2961 95.4639 94.7056 95.5575 95.1186C95.6372 95.4756 95.953 95.7154 96.3039 95.7154C96.359 95.7154 96.4159 95.7101 96.4728 95.697C97.8745 95.3829 99.1625 94.9086 100.304 94.2874C100.675 94.087 100.813 93.6215 100.61 93.2505C100.407 92.8795 99.943 92.7412 99.5703 92.9442Z" fill="#393F49"/>
<path fill-rule="evenodd" clip-rule="evenodd" d="M104.996 52.4647C104.402 53.2374 104.336 54.4193 104.85 55.1052C105.365 55.7911 106.263 55.7209 106.858 54.9482C107.453 54.1768 107.518 52.9938 107.004 52.3078C106.49 51.6219 105.592 51.6922 104.996 52.4647Z" fill="#393F49"/>
<path fill-rule="evenodd" clip-rule="evenodd" d="M118.017 55.6397C118.546 54.8341 118.566 53.6522 118.06 52.9992C117.554 52.3473 116.714 52.4714 116.185 53.2769C115.656 54.0824 115.636 55.2643 116.142 55.9163C116.649 56.5692 117.487 56.4452 118.017 55.6397Z" fill="#393F49"/>
<path fill-rule="evenodd" clip-rule="evenodd" d="M109.298 64.7545L111.392 64.9575C111.461 64.964 111.526 64.9685 111.591 64.9685C112.078 64.9685 112.51 64.7632 112.799 64.3912C113.126 63.9665 113.207 63.3848 113.04 62.9711L112.547 60.8969C112.176 58.4881 112.679 56.4259 112.684 56.4051C112.786 55.9958 112.537 55.5798 112.127 55.4778C111.714 55.3735 111.301 55.6216 111.198 56.0309C111.174 56.1275 110.612 58.4013 111.043 61.1888L111.552 63.4353L109.444 63.2312C109.028 63.1939 108.649 63.4979 108.608 63.9204C108.566 64.3396 108.877 64.7139 109.298 64.7545Z" fill="#393F49"/>
<path fill-rule="evenodd" clip-rule="evenodd" d="M101.017 69.4755C101.158 69.4755 101.303 69.436 101.431 69.3526C101.787 69.1243 101.889 68.6502 101.66 68.2958C100.953 67.2027 100.591 66.2787 100.421 65.539C101.687 67.0106 103.949 68.6086 107.692 68.3188C108.114 68.2848 108.429 67.916 108.395 67.4946C108.362 67.0743 107.989 66.7572 107.57 66.7934C102.11 67.2279 100.555 62.983 100.492 62.8064C100.393 62.5166 100.128 62.3136 99.8205 62.2927C99.5099 62.285 99.2255 62.4354 99.0855 62.7087C99.0339 62.8097 97.8526 65.224 100.373 69.1254C100.519 69.3515 100.765 69.4755 101.017 69.4755Z" fill="#393F49"/>
<path fill-rule="evenodd" clip-rule="evenodd" d="M101.325 47.6337C101.539 47.6337 101.753 47.5436 101.904 47.3681C101.988 47.2727 103.958 45.0536 107.124 46.8007C107.495 47.0038 107.962 46.8688 108.165 46.5C108.37 46.1302 108.235 45.6648 107.864 45.4597C104.473 43.5896 101.724 45.2357 100.745 46.3683C100.468 46.6877 100.504 47.1705 100.824 47.4471C100.969 47.5723 101.147 47.6337 101.325 47.6337Z" fill="#393F49"/>
<path fill-rule="evenodd" clip-rule="evenodd" d="M82.8383 45.3813C81.8491 45.2946 80.872 45.5953 80.1048 46.2329C79.3365 46.8728 78.865 47.7726 78.7748 48.7658C78.6847 49.7601 78.9881 50.7292 79.6278 51.4963C80.2686 52.2623 81.1688 52.7331 82.1645 52.8242C82.1876 52.8264 82.2107 52.8274 82.2349 52.8274C82.6262 52.8274 82.9614 52.5278 82.9977 52.1306C83.035 51.7102 82.724 51.3371 82.303 51.2998C81.715 51.246 81.183 50.9673 80.8049 50.5163C80.4268 50.063 80.2488 49.4912 80.3015 48.9041C80.3543 48.317 80.6334 47.7858 81.0863 47.4083C81.5402 47.0319 82.1151 46.8562 82.7009 46.9057C83.2878 46.9584 83.8209 47.2371 84.1979 47.6903C84.4683 48.014 84.9497 48.0591 85.2772 47.7869C85.6026 47.5158 85.6465 47.034 85.3751 46.7092C84.7353 45.9432 83.8341 45.4724 82.8383 45.3813Z" fill="#393F49"/>
<path fill-rule="evenodd" clip-rule="evenodd" d="M274.254 248.811L274.274 248.664H272.728L272.709 248.811H274.254Z" fill="#393F49"/>
<path fill-rule="evenodd" clip-rule="evenodd" d="M296.883 120.595C297.612 120.718 298.346 119.967 298.522 118.919C298.698 117.869 298.251 116.92 297.522 116.798C296.793 116.675 296.059 117.426 295.883 118.475C295.707 119.523 296.154 120.473 296.883 120.595Z" fill="#393F49"/>
<path fill-rule="evenodd" clip-rule="evenodd" d="M311.801 131.402C311.505 131.352 311.201 131.482 311.033 131.732C310.93 131.885 308.445 135.477 303.458 133.78C303.056 133.644 302.619 133.858 302.484 134.258C302.347 134.659 302.562 135.093 302.961 135.229C306.837 136.548 309.534 135.165 311.004 133.949C310.858 135.315 310.124 137.218 307.386 138.309C306.993 138.466 306.802 138.911 306.959 139.303C307.079 139.603 307.367 139.785 307.672 139.785C307.766 139.785 307.862 139.767 307.955 139.73C313.734 137.426 312.428 132.021 312.414 131.967C312.339 131.674 312.098 131.453 311.801 131.402Z" fill="#393F49"/>
<path fill-rule="evenodd" clip-rule="evenodd" d="M312.162 111.289C311.762 111.425 311.547 111.859 311.684 112.259C311.821 112.66 312.257 112.879 312.656 112.737C315.915 111.632 317.445 114.047 317.514 114.159C317.657 114.397 317.909 114.53 318.17 114.53C318.303 114.53 318.438 114.495 318.561 114.422C318.925 114.206 319.045 113.736 318.829 113.373C318.083 112.122 315.731 110.076 312.162 111.289Z" fill="#393F49"/>
<path fill-rule="evenodd" clip-rule="evenodd" d="M295.691 109.85C295.351 110.1 295.277 110.577 295.527 110.92C295.776 111.26 296.255 111.335 296.597 111.085C298.691 109.556 300.457 111.115 300.653 111.298C300.8 111.441 300.991 111.512 301.182 111.512C301.383 111.512 301.582 111.432 301.733 111.277C302.028 110.973 302.018 110.489 301.714 110.194C300.746 109.263 298.243 107.987 295.691 109.85Z" fill="#393F49"/>
<path fill-rule="evenodd" clip-rule="evenodd" d="M327.267 131.047C327.842 131.392 328.484 131.568 329.139 131.568C329.435 131.568 329.735 131.531 330.03 131.457C330.976 131.221 331.773 130.631 332.275 129.797C332.777 128.962 332.923 127.983 332.685 127.039C332.584 126.628 332.166 126.377 331.757 126.481C331.346 126.584 331.096 126.999 331.199 127.41C331.337 127.957 331.251 128.526 330.961 129.01C330.67 129.494 330.207 129.835 329.659 129.972C329.111 130.106 328.539 130.024 328.056 129.734C327.692 129.517 327.223 129.636 327.004 129.997C326.787 130.36 326.904 130.83 327.267 131.047Z" fill="#393F49"/>
<path fill-rule="evenodd" clip-rule="evenodd" d="M302.889 163C305.375 164.603 308.668 165.406 312.732 165.406C315.659 165.406 318.986 164.99 322.701 164.155C323.114 164.062 323.373 163.653 323.281 163.24C323.186 162.829 322.778 162.565 322.364 162.662C311.891 165.015 306.475 163.466 303.778 161.752C301.103 160.051 300.602 157.951 300.576 157.842C300.49 157.428 300.088 157.164 299.673 157.25C299.258 157.334 298.992 157.739 299.077 158.153C299.1 158.265 299.679 160.929 302.889 163Z" fill="#393F49"/>
<path fill-rule="evenodd" clip-rule="evenodd" d="M253.512 220.909C254.021 220.331 254.793 220.022 255.712 220.022C255.833 220.022 255.957 220.028 256.082 220.04C257.25 220.139 258.455 220.685 259.473 221.581C260.492 222.476 261.189 223.598 261.437 224.743C261.667 225.801 261.478 226.744 260.901 227.399C260.325 228.053 259.404 228.354 258.33 228.27C257.162 228.17 255.958 227.622 254.94 226.728C253.921 225.833 253.223 224.71 252.975 223.566C252.744 222.506 252.936 221.563 253.512 220.909ZM253.927 227.877C255.191 228.987 256.707 229.666 258.2 229.795C258.371 229.81 258.54 229.817 258.706 229.817C260.071 229.817 261.246 229.325 262.053 228.409C262.958 227.383 263.271 225.965 262.937 224.42C262.619 222.958 261.749 221.543 260.486 220.434C259.224 219.323 257.706 218.642 256.214 218.515C254.636 218.376 253.268 218.872 252.361 219.9C251.455 220.926 251.142 222.344 251.477 223.892C251.795 225.352 252.665 226.768 253.927 227.877Z" fill="#393F49"/>
<path fill-rule="evenodd" clip-rule="evenodd" d="M376.114 233.293C376.121 232.871 375.783 232.524 375.359 232.516C364.709 232.343 356.662 235.694 356.326 235.837C355.936 236.003 355.755 236.45 355.92 236.839C356.043 237.131 356.328 237.305 356.626 237.305C356.726 237.305 356.826 237.287 356.924 237.245C357.005 237.21 364.992 233.863 375.336 234.048C375.756 234.002 376.107 233.715 376.114 233.293Z" fill="#393F49"/>
<path fill-rule="evenodd" clip-rule="evenodd" d="M400.14 245.853C400.14 256.218 391.694 264.651 381.313 264.651H362.895L361.866 261.037C363.216 260.925 364.406 260.794 365.367 260.635C374.315 259.159 380.989 256.233 385.203 251.94C389.695 247.362 391.351 241.3 390.126 233.922C388.077 221.586 384.927 215.484 383.872 213.701C385.678 212.28 387.192 210.912 388.21 209.668L388.616 209.172L388.198 208.686C387.382 207.736 385.051 204.464 381.825 199.936C376.71 192.756 368.98 181.906 360.346 170.553C350.661 157.818 336.672 154.134 329.171 153.058L328.755 135.76C328.754 135.706 328.734 135.659 328.723 135.608C331.014 135.616 333.826 134.976 335.822 132.323C337.443 130.167 337.786 127.709 336.785 125.401C336.28 124.234 335.438 123.198 334.462 122.439C334.611 122.262 334.883 121.782 335.062 121.333C335.062 121.333 336.533 118.744 337.865 114.95H381.313C391.694 114.95 400.14 123.383 400.14 133.749V245.853ZM228.983 245.854V233.19L237.371 249.13C237.279 249.345 237.226 249.581 237.226 249.83V251.99C237.226 252.972 238.027 253.772 239.01 253.772H269.594C270.215 254.213 270.985 254.747 271.865 255.333L270.658 264.652H247.811C237.43 264.652 228.983 256.219 228.983 245.854ZM304.816 249.578H336.562C336.7 249.578 336.812 249.69 336.812 249.829V251.99C336.812 252.129 336.7 252.241 336.562 252.241H311.525C309.999 251.483 307.71 250.48 304.816 249.578ZM239.01 252.241C238.872 252.241 238.759 252.129 238.759 251.99V249.829C238.759 249.69 238.872 249.578 239.01 249.578H283.37C283.417 249.712 283.47 249.847 283.542 249.98C283.953 250.744 284.837 251.503 286 252.241H239.01ZM310.287 259.335C310.211 259.335 310.136 259.343 310.065 259.358C309.903 259.4 294.076 263.45 286.227 261.01C281.275 259.472 275.782 256.109 272.307 253.771H288.865C294.607 256.429 302.889 258.515 304.183 258.833C304.245 258.847 304.306 258.855 304.367 258.855C304.71 258.855 305.025 258.622 305.111 258.272C305.211 257.863 304.961 257.447 304.549 257.346C299.645 256.143 286.552 252.342 284.893 249.256C284.725 248.944 284.76 248.756 284.802 248.641C285.069 247.894 287.069 247.496 291.89 248.608C293.342 248.943 294.906 249.153 296.419 249.358C297.946 249.562 299.524 249.777 300.979 250.115C308.175 251.793 312.824 254.685 312.871 254.713C313.229 254.937 313.702 254.831 313.928 254.473C314.067 254.253 314.065 253.994 313.972 253.771H336.562C337.546 253.771 338.345 252.971 338.345 251.989V249.829C338.345 248.847 337.546 248.047 336.562 248.047H321.12L354.682 237.639C354.892 237.573 355.064 237.419 355.153 237.219C355.243 237.017 355.243 236.789 355.152 236.59L353.03 231.967C355.131 230.906 361.864 227.462 368.014 223.85C374.794 219.871 380.704 215.95 382.646 214.646C383.706 216.517 386.684 222.549 388.614 234.172C389.756 241.043 388.239 246.66 384.11 250.869C380.128 254.926 373.737 257.704 365.118 259.126C353.854 260.98 310.721 259.351 310.287 259.335ZM272.208 264.616L273.289 256.262C276.769 258.486 281.428 261.122 285.772 262.473C287.762 263.091 290.183 263.328 292.724 263.328C300.403 263.328 309.166 261.168 310.339 260.869C312.959 260.968 345.086 262.155 360.306 261.154L361.291 264.616H272.208ZM306.827 122.916C306.768 121.286 307.35 119.732 308.462 118.539C309.575 117.346 311.087 116.657 312.718 116.599C312.793 116.596 312.866 116.595 312.941 116.595C314.491 116.595 315.961 117.172 317.101 118.232C318.296 119.344 318.986 120.852 319.045 122.482C319.102 124.111 318.521 125.665 317.408 126.857C316.295 128.051 314.783 128.74 313.152 128.798C311.521 128.848 309.965 128.276 308.769 127.165C307.574 126.053 306.885 124.544 306.827 122.916ZM214.137 200.259C214.39 199.84 214.833 199.591 215.323 199.591H277.228C278.453 199.591 279.567 200.264 280.138 201.346L297.255 233.867C297.451 234.241 297.913 234.384 298.289 234.188C298.662 233.993 298.808 233.53 298.61 233.155L281.496 200.635C281.257 200.183 280.949 199.785 280.596 199.441C282.884 183.787 285.027 174.349 285.055 174.221C285.15 173.809 284.893 173.4 284.48 173.305C284.068 173.209 283.657 173.468 283.562 173.88C283.534 174.005 281.447 183.201 279.189 198.478C278.583 198.209 277.918 198.06 277.228 198.06H262.5C261.496 195.935 260.788 194.281 260.487 193.56C262.483 190.897 275.383 173.75 279.766 169.592C289.164 160.678 296.933 156.844 300.7 155.355C300.886 154.755 301.073 154.117 301.233 153.511C297.864 154.678 289.381 158.361 278.711 168.484C273.884 173.062 259.604 192.18 258.999 192.992L258.743 193.336L258.902 193.733C258.95 193.854 259.144 194.331 259.462 195.075L258.779 195.701C257.797 194.687 255.278 191.906 250.635 185.725C244.164 177.11 238.945 170.342 237.639 168.776C236.838 167.815 236.872 167.228 237.216 163.852C237.314 162.9 237.432 161.75 237.549 160.343C238.079 153.992 238.344 150.288 238.344 150.288C238.367 149.969 238.189 149.67 237.897 149.537C236.733 149.011 235.575 149.013 234.455 149.552C231.595 150.923 229.757 155.597 228.984 157.974V133.75C228.984 123.384 237.43 114.95 247.811 114.95H288.989C288.029 116.278 287.509 117.859 287.569 119.521C287.638 121.497 288.474 123.327 289.924 124.674C290.469 125.181 291.091 125.569 291.743 125.887C291.669 127.393 291.641 128.866 291.69 130.249C292.015 139.485 297.311 144.137 302.161 145.412C303.829 145.85 305.416 146.072 306.965 146.072C309.722 146.072 312.361 145.37 315.137 143.937C317.84 142.544 320.619 140.316 322.569 137.98C322.84 137.653 322.796 137.171 322.471 136.901C322.145 136.631 321.663 136.675 321.392 136.999C319.593 139.154 316.926 141.291 314.433 142.578C310.459 144.63 306.794 145.046 302.551 143.932C301.06 143.54 293.602 141.037 293.221 130.196C293.179 129.005 293.195 127.737 293.251 126.435C293.81 126.567 294.379 126.658 294.966 126.658C295.057 126.658 295.147 126.657 295.236 126.653C296.698 126.601 298.079 126.126 299.246 125.3C298.998 125.771 298.714 126.263 298.38 126.786C296.592 129.574 296.611 129.658 296.691 130.007C296.755 130.287 296.968 130.507 297.246 130.579L301.205 131.605C301.268 131.622 301.334 131.63 301.399 131.63C301.738 131.63 302.049 131.401 302.138 131.057C302.245 130.648 302 130.231 301.589 130.124L298.584 129.344C298.809 128.973 299.151 128.422 299.67 127.611C302.469 123.246 302.348 120.378 302.343 120.258C302.339 120.208 302.319 120.167 302.309 120.121C302.351 119.75 302.392 119.378 302.378 118.998C302.362 118.541 302.295 118.094 302.198 117.656C303.058 117.35 304.876 117.022 306.332 118.882C305.617 120.111 305.243 121.512 305.296 122.969C305.368 125.007 306.23 126.894 307.724 128.285C309.15 129.612 310.989 130.333 312.928 130.333C313.021 130.333 313.114 130.33 313.206 130.327C315.247 130.256 317.137 129.394 318.529 127.901C319.921 126.41 320.649 124.466 320.576 122.429C320.503 120.391 319.641 118.503 318.145 117.113C316.651 115.722 314.694 114.979 312.664 115.07C310.623 115.143 308.733 116.003 307.342 117.496C307.31 117.529 307.29 117.569 307.258 117.604C305.466 115.613 303.177 115.699 301.722 116.2C301.323 115.323 300.752 114.523 300.024 113.845C298.653 112.57 296.88 111.885 295.024 111.884C295.542 108.997 296.005 106.858 296.144 106.229C296.404 105.945 296.714 105.689 297.016 105.43C300.459 105.176 302.744 103.437 305.042 103.311C307.888 103.155 312.989 106.669 312.989 106.669C312.989 106.669 315.373 106.354 314.161 103.87C312.95 101.385 319.643 107.161 321.015 109.241C325.061 115.381 325.642 122.189 325.714 125.121C325.717 125.232 325.983 124.818 326.384 124.26L327.399 123.651C327.418 123.638 329.383 122.47 331.467 122.707C332.73 122.846 334.531 124.052 335.378 126.009C335.924 127.27 336.233 129.23 334.597 131.405C331.429 135.618 325.541 133.637 325.29 133.549C324.895 133.414 324.454 133.62 324.315 134.018C324.175 134.417 324.385 134.853 324.784 134.992C324.891 135.03 325.878 135.362 327.271 135.524C327.241 135.61 327.22 135.701 327.222 135.798L327.791 159.423C327.803 159.84 328.143 160.17 328.559 160.17H328.577C329 160.16 329.335 159.809 329.324 159.386L329.209 154.605C336.502 155.688 349.864 159.301 359.125 171.479C367.744 182.814 375.467 193.652 380.577 200.825C383.499 204.926 385.561 207.82 386.62 209.171C385.469 210.456 383.806 211.873 381.83 213.349C379.968 214.602 374.053 218.53 367.237 222.534C366.643 222.882 366.043 223.229 365.442 223.572C358.369 227.501 352.368 230.44 352.239 230.503L351.663 230.784L351.665 230.788C346.479 233.35 340.952 233.97 339.236 234.105C338.57 232.344 336.252 225.866 332.686 212.284C329.219 199.082 328.405 189.304 328.398 189.206C328.364 188.786 328.009 188.471 327.572 188.505C327.152 188.539 326.837 188.907 326.869 189.329C326.878 189.426 327.7 199.33 331.202 212.672C335.48 228.967 337.914 234.948 338.016 235.196L338.219 235.687L338.751 235.67C339.034 235.659 345.332 235.403 351.597 232.521L353.071 235.729L353.282 236.471L316.321 247.935C316.252 247.956 316.201 248.008 316.141 248.048H306.449L302.597 240.731C302.4 240.358 301.938 240.21 301.563 240.409C301.189 240.606 301.043 241.069 301.241 241.442L304.64 247.9H297.034C296.898 247.881 296.76 247.86 296.625 247.841C295.078 247.633 293.618 247.435 292.235 247.117C287.101 245.934 284.321 246.193 283.483 247.9H238.456L214.097 201.616C213.87 201.184 213.885 200.676 214.137 200.259ZM225.028 185.049C224.965 184.922 224.865 184.813 224.742 184.74C224.662 184.691 216.591 179.706 211.449 173.03C206.102 166.091 205.835 164.525 206.037 163.313C206.108 162.884 206.217 162.697 206.214 162.625C210.036 164.88 213.973 168.96 214.912 169.963C214.265 171.382 214.011 172.354 213.983 172.462C213.882 172.871 214.134 173.286 214.544 173.386C214.606 173.402 214.668 173.408 214.728 173.408C215.072 173.408 215.385 173.176 215.471 172.827C215.475 172.808 216.302 170.152 217.925 167.877C220.034 164.924 223.174 162.106 224.416 161.302C224.77 161.073 224.871 160.598 224.64 160.243C224.41 159.89 223.936 159.787 223.58 160.019C223.143 160.301 222.731 160.594 222.331 160.889C222.303 160.844 222.284 160.796 222.245 160.757C222.245 160.757 220.426 158.875 218.757 157.198C214.87 153.296 211.632 150.303 211.156 149.864C211.04 149.647 210.848 149.166 210.977 148.753C211.075 148.443 211.362 148.18 211.827 147.976C213.261 147.337 220.669 152.482 224.77 156.121C226.437 157.6 227.675 158.905 228.288 159.58C227.556 160.55 226.373 162.788 226.835 166.868C227.222 170.28 229.789 173.515 229.9 173.652C230.051 173.841 230.273 173.939 230.497 173.939C230.665 173.939 230.833 173.883 230.975 173.771C231.306 173.507 231.359 173.026 231.096 172.696C231.072 172.665 228.694 169.662 228.358 166.695C227.822 161.967 229.707 160.239 229.803 160.154C229.812 160.146 229.816 160.135 229.824 160.128C229.845 160.11 229.854 160.087 229.872 160.067C229.941 159.989 229.991 159.903 230.022 159.807C230.028 159.79 230.046 159.778 230.05 159.76C230.569 157.732 232.489 152.192 235.116 150.932C235.662 150.671 236.206 150.612 236.773 150.757C236.68 152.025 236.429 155.34 236.021 160.216C235.905 161.612 235.788 162.753 235.691 163.697C235.341 167.121 235.223 168.274 236.461 169.756C237.755 171.307 242.952 178.048 249.409 186.643C255.736 195.066 258.15 197.241 258.25 197.33C258.542 197.59 258.985 197.586 259.276 197.322L260.112 196.558C260.317 197.018 260.544 197.518 260.795 198.061H231.987C228.096 191.16 225.062 185.118 225.028 185.049ZM204.545 155.525C204.712 155.191 204.907 155.095 205.039 155.05C205.457 154.916 205.998 155.104 206.211 155.203C206.547 155.458 209.752 157.903 212.528 160.906C214.263 162.782 216.313 164.871 217.322 165.889C216.64 166.812 216.09 167.695 215.647 168.507C214.23 167.026 210.587 163.405 206.925 161.264C205.992 160.212 203.74 157.133 204.545 155.525ZM207.718 150.454C208.813 149.832 209.976 150.86 210.022 150.902C210.022 150.902 210.022 150.902 210.023 150.902C210.023 150.902 210.023 150.902 210.023 150.903C210.059 150.933 213.511 154.101 217.67 158.277C219.331 159.946 221.144 161.818 221.144 161.82C221.145 161.821 221.148 161.821 221.149 161.823C220.037 162.758 219.09 163.726 218.282 164.682C217.244 163.633 215.307 161.657 213.656 159.869C211.025 157.023 208.075 154.703 207.272 154.088C207.014 153.144 206.68 151.046 207.718 150.454ZM290.673 115.259C290.786 115.138 290.927 115.06 291.051 114.95H292.949C292.495 117.823 292.069 121.042 291.84 124.219C291.533 124.025 291.239 123.805 290.967 123.553C289.819 122.484 289.155 121.033 289.1 119.467C289.044 117.901 289.602 116.407 290.673 115.259ZM294.761 113.396C294.763 113.396 294.763 113.396 294.765 113.394C294.836 113.392 294.908 113.391 294.979 113.391C296.469 113.391 297.882 113.945 298.979 114.964C300.127 116.035 300.79 117.485 300.846 119.052C300.902 120.618 300.344 122.112 299.273 123.259C298.203 124.406 296.75 125.067 295.182 125.123C294.546 125.147 293.93 125.044 293.335 124.87C293.595 120.927 294.184 116.791 294.761 113.396ZM381.314 113.42H338.368C339.873 108.573 340.89 102.278 338.723 96.7916C334.275 85.5382 326.37 85.2397 321.934 85.2902C317.45 85.3396 313.001 86.943 313.001 86.943C313.001 86.943 309.218 82.9593 303.505 83.8295C297.178 84.7931 295.337 90.58 291.823 92.365C288.308 94.1517 286.144 93.9094 287.442 97.0427C288.74 100.176 290.724 104.754 294.338 105.334C294.519 105.362 294.676 105.357 294.852 105.378L294.735 105.512L294.694 105.698C294.637 105.943 294.064 108.475 293.433 112.035C292.337 112.265 291.314 112.735 290.43 113.42H247.811C236.585 113.42 227.451 122.539 227.451 133.749V156.522C226.958 156.042 226.408 155.523 225.79 154.976C225.677 154.876 214.487 145.136 211.212 146.574C210.094 147.064 209.67 147.792 209.51 148.313C209.454 148.499 209.423 148.682 209.409 148.858C208.703 148.65 207.841 148.619 206.958 149.125C205.359 150.037 205.369 152.113 205.58 153.479C205.265 153.46 204.918 153.482 204.574 153.591C203.969 153.787 203.485 154.219 203.173 154.839C202.055 157.074 204.043 160.107 205.181 161.563C204.855 161.901 204.635 162.403 204.526 163.061C204.202 165.005 204.974 167.133 210.234 173.961C215.173 180.372 222.465 185.113 223.755 185.925C224.285 186.973 226.906 192.124 230.23 198.059H215.324C214.292 198.059 213.36 198.586 212.827 199.466C212.294 200.347 212.261 201.416 212.741 202.327L227.451 230.277V245.852C227.451 257.063 236.585 266.181 247.811 266.181H381.314C392.539 266.181 401.674 257.063 401.674 245.852V133.749C401.674 122.539 392.539 113.42 381.314 113.42Z" fill="#393F49"/>
</mask>
<g mask="url(#mask2_272_19273)">
<path d="M342.451 0H59.9235C27.0358 0 0.375 17.7173 0.375 39.5727V226.427C0.375 248.283 27.0358 266 59.9235 266H342.451C375.339 266 402 248.283 402 226.427V39.5727C402 17.7173 375.339 0 342.451 0Z" fill="black"/>
</g>
</g>
<defs>
<clipPath id="clip0_272_19273">
<rect width="401.625" height="280" fill="white" transform="translate(0.375)"/>
</clipPath>
</defs>
</svg>
