<svg width="396" height="280" viewBox="0 0 396 280" fill="none" xmlns="http://www.w3.org/2000/svg">
<path fill-rule="evenodd" clip-rule="evenodd" d="M215.011 20.359H66.2563V1.19165H215.011V20.359ZM175.132 154.702L201.572 154.454L201.591 154.197H215.001V117.225C219.138 116.072 223.494 114.814 226.258 113.851C232.806 111.583 233.549 106.541 232.548 101.499C231.538 96.4566 219.462 93.683 219.462 93.683C219.462 93.683 229.527 88.641 228.526 86.1152C227.516 83.5894 221.482 85.1049 216.936 87.1255C216.317 87.4115 215.668 87.7069 215.011 88.0215V21.7029H65.5891V154.197H175.275C175.189 154.531 175.132 154.702 175.132 154.702ZM296.598 31.9395V31.5678C296.598 22.7323 289.45 15.5743 280.634 15.5743H244.643C235.827 15.5743 228.679 22.7323 228.679 31.5678V31.9395C228.679 39.6598 234.14 46.0934 241.393 47.5994L235.837 57.3499L254.079 47.933H280.643C289.45 47.933 296.598 40.775 296.598 31.9395ZM14.2156 221.297C14.2156 221.297 16.3982 210.87 25.634 210.527C34.8603 210.193 83.7176 211.032 83.7176 211.032L86.739 215.407L70.8599 215.531C78.0274 215.769 83.7176 216.074 83.7176 216.074C83.7176 216.074 81.5349 223.48 84.3848 227.178L65.6272 227.702C76.3594 227.645 87.2346 227.512 87.2346 227.512C87.2346 227.512 89.7604 230.876 84.3848 231.886C79.0187 232.897 24.6237 233.392 24.6237 233.392C24.6237 233.392 14.8828 232.725 14.2156 221.297ZM39.4353 226.358C38.6061 225.51 37.9008 224.357 37.653 222.803C37.8341 224.5 38.2248 225.615 39.4353 226.358ZM42.9237 215.74C42.9237 215.74 40.9984 216.084 39.4448 217.332C40.4456 216.674 41.9325 216.093 44.0961 215.74C44.1152 215.74 44.1438 215.731 44.1723 215.731L42.9237 215.74ZM70.9647 250.549C70.9647 250.549 77.6747 248.194 76.3308 243.143C74.9869 238.101 69.7733 238.101 69.7733 238.101L29.6467 238.434C29.6467 238.434 31.4958 245.001 29.8183 250.205L70.9647 250.549ZM89.0932 268.038C89.0932 274.93 82.3737 278.294 82.3737 278.294L19.4196 278.628L16.0551 273.414H24.0614L20.2584 272.404C23.4418 268.706 20.43 261.128 20.43 261.128L60.5566 261.3L16.9034 260.795C16.9034 260.795 18.0757 256.086 23.9565 255.581C29.8278 255.076 81.878 256.591 81.878 256.591C81.878 256.591 89.0932 261.138 89.0932 268.038ZM65.8083 263.931C66.1705 264.579 66.4469 265.36 66.5899 266.351C66.5327 265.36 66.2277 264.579 65.8083 263.931ZM219.957 201.615L200.056 221.04L209.921 245.259C205.222 234.202 197.54 216.427 197.54 216.427C197.54 216.427 197.206 214.74 188.809 214.74C180.422 214.74 113.598 215.407 113.598 215.407C113.598 215.407 107.889 215.74 109.233 222.136L127.361 268.21L131.393 269.554C131.393 269.554 131.727 277.293 134.081 278.294C136.425 279.304 238.505 278.628 238.505 278.628C238.505 278.628 241.527 275.597 241.86 271.231C242.194 266.857 240.183 265.503 240.183 265.503L216.679 265.837C216.679 265.837 215.001 257.773 213.324 253.398C213.238 253.17 213.114 252.865 212.962 252.503L242.871 224.566C240.354 211.709 219.957 201.615 219.957 201.615ZM358.971 219.029C358.971 219.029 348.896 216.76 340.08 218.266C331.264 219.772 324.22 229.618 324.22 229.618L332.274 250.806C332.274 250.806 305.834 251.311 299.286 249.29C292.729 247.279 289.212 236.175 284.923 231.639C280.643 227.102 274.858 230.886 269.063 234.164C263.268 237.443 263.525 246.279 263.525 246.279L268.815 242.99C272.846 236.681 277.374 238.949 277.374 238.949C272.341 240.97 272.084 247.527 272.084 247.527C272.084 247.527 273.352 256.868 278.136 258.126C282.911 259.384 285.18 263.168 285.18 263.168C286.438 269.22 296.77 270.478 296.77 270.478C296.77 270.478 332.026 276.788 348.391 276.531C364.766 276.283 368.54 266.952 368.54 258.879C368.54 250.806 358.971 219.029 358.971 219.029ZM280.147 150.928C280.147 150.928 283.169 160.259 282.406 165.053C281.653 169.838 278.136 170.343 278.136 170.343L269.568 170.6C269.568 170.6 270.073 178.673 283.417 179.426C296.77 180.189 304.319 174.642 310.362 170.6C310.362 170.6 301.802 170.6 300.297 165.806C298.791 161.021 295.512 152.186 297.78 147.906C297.78 147.906 298.285 146.639 301.555 146.143C304.833 145.638 308.35 144.132 308.35 139.338C308.35 134.553 305.081 131.522 296.513 139.09L301.802 115.634C301.802 115.634 300.039 108.066 271.579 109.076C271.579 109.076 262.515 125.718 263.02 133.791C263.525 141.845 266.041 149.918 280.147 150.928Z" fill="white"/>
<path fill-rule="evenodd" clip-rule="evenodd" d="M110.329 11.2855C110.329 13.3728 108.642 15.0694 106.554 15.0694C104.467 15.0694 102.77 13.3824 102.77 11.2855C102.77 9.18862 104.457 7.49205 106.554 7.49205C108.632 7.49205 110.329 9.18862 110.329 11.2855ZM94.2971 7.4158C92.2098 7.4158 90.5132 9.10284 90.5132 11.1997C90.5132 13.2966 92.2003 14.9836 94.2971 14.9836C96.3845 14.9836 98.081 13.2966 98.081 11.1997C98.081 9.10284 96.3845 7.4158 94.2971 7.4158ZM82.4593 7.4158C80.372 7.4158 78.6754 9.10284 78.6754 11.1997C78.6754 13.2966 80.3624 14.9836 82.4593 14.9836C84.5371 14.9836 86.2337 13.2966 86.2337 11.1997C86.2337 9.10284 84.5371 7.4158 82.4593 7.4158ZM92.6959 101.489C86.9867 109.81 76.2449 153.53 76.2449 153.53L90.8563 153.359C90.8563 153.359 120.994 124.098 124.94 121.991C128.886 119.894 137.95 121.486 139.961 121.915C141.982 122.344 149.197 119.646 149.197 119.646C149.197 119.646 150.961 120.657 150.541 123.516C150.122 126.366 142.401 128.225 142.401 128.225L156.508 135.621C156.508 135.621 160.292 140.749 158.948 142.521C157.594 144.285 152.991 142.35 152.991 142.35C152.991 142.35 149.969 145.886 143.669 148.66C137.369 151.433 128.305 149.918 128.305 149.918L124.53 153.711L175.141 154.721L189.248 107.056L179.678 97.2194L177.667 116.396L163.313 116.644L159.033 100.755L148.711 99.993L150.722 110.087C143.421 111.593 132.594 108.323 132.594 108.323L130.078 96.4664C120.003 95.4561 109.681 85.6198 109.681 85.6198C104.448 87.5356 92.6959 101.489 92.6959 101.489ZM44.563 183.458C36.8522 183.458 30.5902 189.444 30.5902 196.831C30.5902 204.208 36.8427 210.193 44.563 210.193C52.2928 210.193 58.5454 204.208 58.5454 196.831C58.5358 189.444 52.2833 183.458 44.563 183.458ZM35.3653 181.685C28.3217 173.365 16.7317 178.912 16.7317 178.912C25.043 188.758 35.3653 181.685 35.3653 181.685ZM29.1509 232.725C29.1509 232.725 27.4734 236.261 27.3019 237.767L71.7938 238.606C71.7938 238.606 76.6643 241.971 76.1591 245.84C75.654 249.71 72.6326 251.054 67.5905 250.882C62.558 250.711 26.4631 250.377 26.4631 250.377C26.4631 250.377 27.6355 255.753 31.6672 255.924C35.6989 256.096 87.5776 255.591 87.5776 255.591C87.5776 255.591 100.33 253.913 98.9865 243.991C97.6426 234.06 87.0724 233.221 87.0724 233.221L29.1509 232.725ZM219.957 201.615C219.957 201.615 239.096 209.183 242.871 224.576L250.429 219.534L254.956 254.59L263.525 246.269C263.525 246.269 262.257 238.701 267.556 235.423C272.846 232.134 279.394 230.381 279.394 230.381L286.953 222.555L291.48 225.329L284.922 231.639C284.922 231.639 291.718 246.774 299.286 249.291C306.835 251.816 332.274 250.806 332.274 250.806L324.22 229.618C324.22 229.618 336.306 212.967 358.971 219.029C358.971 219.029 348.896 188.252 342.348 182.21C335.791 176.157 324.963 171.868 319.178 171.106C313.392 170.343 310.361 170.601 310.361 170.601C310.361 170.601 299.534 182.21 283.417 179.427C267.299 176.653 269.568 170.601 269.568 170.601C269.568 170.601 246.149 163.033 218.194 202.635M255.213 262.663L257.225 278.799L335.791 278.294L332.264 275.521L299.524 271.479C299.524 271.479 286.943 270.212 285.17 263.159L278.127 258.117L273.342 253.075L272.074 247.518L255.213 262.663Z" fill="#34C759"/>
<path fill-rule="evenodd" clip-rule="evenodd" d="M182.939 40.6987C186.723 54.824 177.649 116.367 177.649 116.367L163.295 116.615L156.747 90.1374L149.189 85.8578L152.468 75.0112C152.468 75.0112 161.789 77.2797 167.079 72.9906C172.359 68.7111 175.133 63.1639 176.143 57.3593C177.153 51.5548 174.885 46.7606 174.885 46.7606L145.414 52.3173C145.414 52.3173 137.866 45.2546 135.855 50.554C133.843 55.8439 142.155 61.1433 142.155 61.1433L150.714 110.077C150.714 110.077 139.629 113.861 132.585 108.313L128.153 84.6569C127.696 82.1883 125.218 80.6347 122.797 81.3209L111.931 84.3424C111.931 84.3424 130.812 32.6352 136.102 26.8402C141.392 21.0357 143.908 16.4988 150.971 17.2518C158.005 18.0047 179.165 26.5829 182.939 40.6987ZM271.332 240.207C268.053 243.486 263.526 246.269 263.526 246.269L251.183 260.137L249.429 264.931H253.461L272.094 247.518L277.384 238.939C277.375 238.939 274.601 236.928 271.332 240.207ZM279.386 230.371L284.923 231.629L291.481 225.329L286.954 222.546L279.386 230.371ZM304.825 98.9633C292.987 90.6425 280.148 90.1374 276.117 91.9102C272.085 93.6735 273.095 96.4471 271.847 98.9633C270.579 101.489 269.321 98.9633 266.299 103.005C263.278 107.046 267.805 112.841 267.805 112.841L271.589 109.057C271.589 109.057 294.007 109.562 298.791 111.573C303.567 113.594 301.05 118.14 301.05 118.14L296.523 139.071C303.071 133.266 307.608 135.277 307.608 135.277C307.608 135.277 309.867 132.761 314.156 126.194C318.445 119.637 316.663 107.294 304.825 98.9633Z" fill="black"/>
<path d="M394.647 277.274H354.034C359.743 276.273 363.927 273.948 366.51 270.345C369.903 265.608 370.533 258.86 368.426 249.738C365.052 235.098 352.738 190.692 340.852 179.121C332.903 171.391 320.141 170.143 311.696 169.304C308.103 168.951 304.023 168.56 303.308 167.75C301.116 165.31 297.094 151.623 299.153 147.963C299.382 147.534 299.668 147.315 300.373 147.458C303.976 148.135 307.111 146.438 308.551 143.017C309.59 140.558 309.494 137.889 308.446 136.068C311.2 134.229 316.5 129.177 316.5 117.358C316.5 111.745 313.64 106.093 308.236 101.003C300.63 93.8448 289.193 89.0125 281.063 89.5272C278.384 89.6987 272.808 90.0419 271.35 94.7503C271.036 95.732 270.998 96.6375 270.95 97.4286C270.864 99.068 270.845 99.4588 269.129 99.8305C266.28 100.469 265.079 102.07 264.564 103.309C263.02 106.979 265.45 111.935 266.87 114.328C264.745 118.674 262.391 124.707 261.676 131.179C260.999 137.307 262.181 142.273 265.193 145.952C268.157 149.574 272.723 151.747 278.785 152.434C280.767 159.001 281.978 166.597 280.529 168.046C279.328 169.247 277.746 169.142 274.286 168.799C271.598 168.532 268.262 168.208 263.897 168.656C254.213 169.657 243.404 172.182 227.421 190.635C214.105 205.99 203.192 216.951 200.561 219.562L199.675 217.38C198.636 214.806 196.177 213.148 193.403 213.148C193.394 213.148 193.375 213.148 193.365 213.148L114.265 213.596C112.035 213.605 109.957 214.711 108.699 216.569C107.441 218.418 107.184 220.763 107.994 222.841L124.931 266.256C125.789 268.448 127.657 269.973 129.887 270.421V271.994C129.887 274.043 130.697 275.911 132.013 277.284H85.3666C88.4357 275.006 90.4563 271.365 90.4563 267.238C90.4563 262.92 88.2546 259.107 84.9091 256.868H87.7208C94.5929 256.868 100.188 251.263 100.188 244.372C100.188 237.491 94.5929 231.886 87.7208 231.886H86.9297C87.8733 230.742 88.4357 229.265 88.4357 227.664C88.4357 226.911 87.8352 226.31 87.0822 226.31H84.9567C84.4992 225.271 83.8988 223.737 83.6224 222.279C83.3364 220.744 84.2133 218.39 84.8424 217.036H86.7296C87.4825 217.036 88.083 216.426 88.083 215.683C88.083 212.195 85.2522 209.354 81.7733 209.354H52.6743C57.2303 206.886 60.3089 202.311 60.3089 197.088C60.3089 189.253 53.4178 182.876 44.935 182.876C44.5061 182.876 44.0771 182.905 43.6578 182.934C42.6475 180.999 39.9882 178.158 39.1114 177.243C38.5871 176.7 37.7389 176.681 37.2051 177.205C36.6618 177.72 36.6428 178.578 37.167 179.121C38.5014 180.513 39.9787 182.247 40.7889 183.429C34.3362 185.107 29.5801 190.587 29.5801 197.097C29.5801 202.33 32.6492 206.895 37.2146 209.364H25.6723C18.7907 209.364 13.1958 214.968 13.1958 221.85C13.1958 228.741 18.7907 234.345 25.6723 234.345H26.6254C25.7962 235.422 25.291 236.757 25.291 238.224C25.291 238.968 25.8915 239.578 26.6445 239.578H28.5412C29.1702 240.931 30.0471 243.295 29.7612 244.82C29.4848 246.278 28.8843 247.822 28.4173 248.852H26.3109C25.5579 248.852 24.9574 249.452 24.9574 250.205C24.9574 251.969 25.6532 253.57 26.7588 254.761H21.8693C18.3904 254.761 15.5501 257.602 15.5501 261.09C15.5501 261.833 16.1601 262.443 16.9035 262.443H18.8002C19.4293 263.797 20.3062 266.161 20.0202 267.686C19.7534 269.144 19.1434 270.688 18.6859 271.717H16.5509C15.8074 271.717 15.1974 272.318 15.1974 273.071C15.1974 274.672 15.7693 276.13 16.7129 277.293H2.13005C1.37708 277.293 0.776611 277.894 0.776611 278.647C0.776611 279.4 1.37708 280 2.13005 280H394.647C395.4 280 396 279.4 396 278.647C396 277.894 395.39 277.274 394.647 277.274ZM32.2774 197.078C32.2774 190.74 37.9581 185.574 44.935 185.574C51.9214 185.574 57.602 190.74 57.602 197.078C57.602 203.426 51.9214 208.582 44.935 208.582C37.9485 208.582 32.2774 203.426 32.2774 197.078ZM97.4713 244.363C97.4713 249.767 93.0964 254.142 87.7113 254.142H31.6103C29.9042 254.142 28.4459 253.065 27.9026 251.54H27.9979C28.2457 251.864 28.627 252.054 29.0463 252.054H70.3453C74.5295 252.054 77.9417 248.642 77.9417 244.448C77.9417 240.255 74.5295 236.842 70.3453 236.842H28.2648C28.7985 235.518 30.1043 234.584 31.6103 234.584H75.6066C75.6542 234.603 75.6924 234.631 75.7305 234.65C76.0069 234.755 82.288 237.548 79.5525 248.49C79.3714 249.214 79.8099 249.948 80.5342 250.129C80.6391 250.158 80.763 250.167 80.8678 250.167C81.4778 250.167 82.0211 249.757 82.1736 249.138C84.0989 241.446 82.0211 236.985 79.9052 234.584H87.7017C93.0869 234.584 97.4713 238.968 97.4713 244.363ZM31.4863 239.559H70.3453C73.0427 239.559 75.2349 241.751 75.2349 244.458C75.2349 247.155 73.0427 249.357 70.3453 249.357H31.1623C31.6293 248.223 32.1535 246.755 32.4299 245.306C32.7826 243.419 32.1249 241.16 31.4863 239.559ZM15.9027 221.84C15.9027 216.436 20.2776 212.061 25.6723 212.061H33.4307C33.1257 212.404 32.8207 212.766 32.5348 213.205C30.9812 215.55 29.4848 219.762 31.1909 226.615C31.3434 227.235 31.8962 227.645 32.4967 227.645C32.611 227.645 32.7159 227.635 32.8303 227.607C33.5546 227.426 34.0026 226.692 33.8215 225.967C31.0956 215.044 37.3481 212.252 37.634 212.137C37.6817 212.118 37.7293 212.09 37.7675 212.061H81.7638C83.2697 212.061 84.566 212.995 85.0997 214.33H43.0287C38.8445 214.33 35.4323 217.742 35.4323 221.936C35.4323 226.129 38.8445 229.541 43.0287 229.541H84.3372C84.7471 229.541 85.1283 229.341 85.3761 229.027H85.481C84.9282 230.552 83.4794 231.629 81.7733 231.629H25.6723C20.2871 231.61 15.9027 227.225 15.9027 221.84ZM80.9536 222.765C81.2205 224.214 81.7447 225.681 82.2117 226.816H43.0287C40.3314 226.816 38.1392 224.623 38.1392 221.916C38.1392 219.219 40.3314 217.017 43.0287 217.017H81.8781C81.2586 218.628 80.601 220.887 80.9536 222.765ZM21.8693 257.449H65.8752C65.9133 257.478 65.9514 257.506 65.9991 257.525C66.2659 257.63 72.547 260.413 69.8116 271.355C69.6305 272.08 70.0784 272.813 70.7933 272.995C70.9077 273.023 71.022 273.033 71.1364 273.033C71.7369 273.033 72.2897 272.623 72.4422 272.003C74.358 264.312 72.2897 259.851 70.1642 257.449H77.9608C83.3364 257.449 87.7303 261.824 87.7303 267.219C87.7303 272.613 83.346 276.998 77.9608 276.998H21.8693C20.1632 276.998 18.7145 275.921 18.1616 274.396H18.257C18.5143 274.72 18.8955 274.91 19.3054 274.91H60.6139C64.7981 274.91 68.2103 271.498 68.2103 267.304C68.2103 263.111 64.7981 259.698 60.6139 259.698H18.5334C19.0671 258.383 20.3634 257.449 21.8693 257.449ZM21.7549 262.424H60.6044C63.3017 262.424 65.4939 264.617 65.4939 267.323C65.4939 270.021 63.3017 272.222 60.6044 272.222H21.4213C21.8884 271.088 22.4126 269.62 22.6795 268.172C23.0416 266.285 22.384 264.026 21.7549 262.424ZM258.607 277.274L257.082 262.863L271.36 248.938C271.35 249.71 271.36 250.491 271.407 251.311C271.741 257.106 278.689 260.804 282.807 262.501C283.35 262.72 283.769 263.196 283.989 263.835C286.591 271.565 294.778 272.261 297.228 272.289C297.981 272.289 298.667 272.356 299.334 272.48C303.432 273.242 318.968 276.035 333.256 277.284H258.607V277.274ZM263.944 248.061C266.213 248.366 268.805 245.116 270.178 243.076C271.722 240.798 273.6 239.95 275.086 239.654C273.504 241.189 272.542 242.885 271.979 244.744C271.798 244.811 271.627 244.896 271.474 245.049L252.726 263.33H251.468L252.297 260.842L263.944 248.061ZM364.309 268.772C361.83 272.232 357.417 274.31 351.194 274.929C336.411 276.407 305.806 270.926 299.83 269.821C299 269.668 298.162 269.582 297.256 269.573C294.692 269.544 288.526 268.839 286.553 262.968C286.457 262.691 286.343 262.443 286.209 262.186C288.078 261.624 290.851 260.47 292.043 258.478C292.433 257.83 292.224 257.001 291.585 256.61C290.946 256.229 290.117 256.429 289.726 257.077C288.859 258.526 285.704 259.622 283.912 259.975C283.903 259.975 283.884 259.984 283.865 259.994C283.855 259.994 283.846 259.984 283.836 259.975C282.95 259.613 281.272 258.86 279.557 257.802C280.062 256.467 282.168 251.692 287.153 249.052C287.811 248.699 288.068 247.88 287.725 247.212C287.372 246.555 286.562 246.288 285.895 246.641C280.691 249.386 278.203 254.027 277.288 256.191C276.364 255.428 275.553 254.58 274.972 253.656C275.334 252.378 277.66 245.058 284.513 243.267C285.237 243.076 285.666 242.332 285.476 241.608C285.285 240.884 284.551 240.455 283.827 240.645C278.708 241.98 275.725 245.678 274.067 248.728C274.238 244.162 275.982 240.989 282.187 238.329C282.873 238.034 283.188 237.233 282.893 236.547C282.597 235.861 281.806 235.546 281.12 235.832C280.167 236.242 279.309 236.671 278.518 237.119C278.394 237.033 278.251 236.966 278.089 236.928C277.831 236.871 271.932 235.622 267.938 241.532C266.508 243.648 265.222 244.82 264.564 245.211C264.535 245.02 264.516 244.744 264.535 244.353C264.688 240.169 269.225 233.554 277.364 232.02C280.805 231.371 282.635 231.676 283.96 232.858C284.008 232.916 284.027 232.982 284.074 233.02C284.122 233.059 284.17 233.078 284.227 233.116C285.171 234.088 285.885 235.537 286.819 237.471C287.353 238.568 287.954 239.797 288.688 241.103C292.662 248.194 303.413 255.705 303.88 256.019C304.109 256.181 304.386 256.258 304.643 256.258C305.072 256.258 305.491 256.048 305.758 255.676C306.177 255.057 306.025 254.208 305.415 253.779C305.377 253.76 304.109 252.884 302.327 251.473L337.678 252.388C337.688 252.388 337.707 252.388 337.716 252.388C338.45 252.388 339.051 251.797 339.07 251.063C339.089 250.31 338.498 249.691 337.754 249.672L333.103 249.557C333.103 249.548 333.103 249.538 333.094 249.529L325.717 230.647C325.774 230.59 325.821 230.552 325.869 230.485C326.365 229.827 338.288 214.396 357.198 220.01C361.373 232.868 364.566 245.058 365.776 250.32C367.711 258.669 367.225 264.702 364.309 268.772ZM284.913 230.171C284.313 229.78 283.636 229.484 282.854 229.284L287.649 224.023L289.288 225.443L284.913 230.171ZM267.061 104.358C267.452 103.414 268.329 102.795 269.72 102.49C273.447 101.66 273.571 99.2967 273.657 97.5716C273.695 96.9044 273.723 96.2181 273.924 95.57C274.686 93.1491 277.393 92.4914 281.234 92.2531C288.564 91.7956 299.382 96.4088 306.387 102.995C309.771 106.178 313.793 111.258 313.793 117.387C313.793 129.168 308.131 133.219 306.359 134.2C303.88 133.152 300.602 134.62 298.114 136.202C300.802 127.261 303.795 115.424 301.65 112.965C301.602 112.917 301.545 112.86 301.488 112.812C295.598 107.951 274.21 107.189 271.789 107.122C271.322 107.093 270.893 107.332 270.635 107.703C270.521 107.856 269.606 109.228 268.376 111.44C267.156 108.971 266.308 106.14 267.061 104.358ZM282.445 169.962C285.79 166.607 282.254 154.426 281.101 150.766C280.939 150.241 280.472 149.87 279.928 149.822C274.171 149.326 269.92 147.449 267.28 144.237C264.745 141.149 263.773 136.85 264.373 131.484C265.479 121.466 270.94 112.259 272.475 109.848C279.242 110.105 295.178 111.382 299.62 114.776C300.516 116.815 297.59 129.015 294.301 139.328C294.12 139.909 294.34 140.539 294.845 140.872C295.35 141.206 296.017 141.168 296.475 140.767C299.143 138.47 303.871 135.62 305.567 136.821C306.683 137.603 306.911 139.967 306.063 141.978C305.615 143.036 304.214 145.438 300.878 144.799C299.105 144.465 297.647 145.114 296.789 146.629C293.892 151.795 298.695 166.673 301.307 169.571C302.317 170.695 304.386 171.191 307.378 171.563C304.738 173.85 298.286 178.206 286.953 178.911C275.048 179.636 271.836 173.745 271.017 171.239C272.103 171.315 273.104 171.41 274.028 171.506C277.517 171.849 280.29 172.116 282.445 169.962ZM264.173 171.363C265.622 171.21 266.947 171.153 268.186 171.153C268.443 172.22 269.158 174.451 271.112 176.595C273.275 178.978 277.412 181.685 284.999 181.685C285.676 181.685 286.391 181.666 287.124 181.618C303.137 180.627 310.066 172.888 310.857 171.944C311.048 171.963 311.229 171.982 311.429 172.001C313.097 172.163 314.889 172.344 316.738 172.573C315.68 173.869 313.478 176.309 310.047 178.74C305.453 181.99 297.637 185.879 286.514 185.965C286.41 185.965 286.295 185.965 286.19 185.965C268.7 185.965 263.563 175.204 262.334 171.563C262.953 171.487 263.554 171.42 264.173 171.363ZM229.46 192.417C242.327 177.567 251.582 173.488 259.636 171.992C260.141 173.583 261.409 176.776 264.211 179.96C267.709 183.953 274.362 188.681 286.2 188.681C286.305 188.681 286.429 188.681 286.543 188.681C309.332 188.509 319.321 173.736 319.731 173.116C319.75 173.078 319.769 173.04 319.788 173.002C326.622 174.079 333.904 176.119 338.984 181.065C344.979 186.908 351.203 202.053 356.207 216.951C339.451 212.967 327.813 224.242 324.62 227.816L321.875 220.792C321.599 220.096 320.817 219.753 320.122 220.029C319.426 220.296 319.083 221.087 319.35 221.783L330.196 249.5L298.981 248.699C296.017 246.097 292.786 242.857 291.07 239.807C290.375 238.558 289.793 237.367 289.278 236.309C288.487 234.698 287.773 233.23 286.877 232.048L292.224 226.253C292.481 225.986 292.605 225.624 292.586 225.262C292.567 224.89 292.395 224.547 292.119 224.309L288.43 221.116C287.868 220.63 287.039 220.677 286.543 221.221L279.49 228.96C279.471 228.989 279.461 229.017 279.442 229.046C278.661 229.103 277.822 229.198 276.888 229.379C266.928 231.267 262.029 239.387 261.857 244.286C261.828 245.02 261.886 245.64 262.029 246.164L256.062 252.702L251.62 208.878C251.601 208.706 251.554 208.535 251.477 208.392L247.789 201.329C247.446 200.671 246.617 200.404 245.949 200.757C245.292 201.1 245.034 201.929 245.387 202.597L248.961 209.431L249.848 218.276L244.243 223.136C238.229 207.696 226.344 202.959 221.34 201.615C223.884 198.765 226.62 195.686 229.46 192.417ZM201.848 222.098C201.934 222.012 209.063 215.044 219.243 203.902C222.207 204.484 235.875 208.029 242.042 225.024L212.981 250.253L201.638 222.241C201.705 222.183 201.791 222.155 201.848 222.098ZM127.447 265.274L110.51 221.85C110.014 220.592 110.167 219.219 110.939 218.085C111.701 216.951 112.921 216.303 114.275 216.303L193.375 215.864C193.384 215.864 193.394 215.864 193.403 215.864C195.062 215.864 196.549 216.855 197.168 218.399L214.925 262.262C215.325 263.244 215.325 264.302 214.944 265.265C214.763 265.455 214.649 265.684 214.591 265.951C214.563 265.989 214.553 266.027 214.525 266.065C213.753 267.209 212.523 267.867 211.151 267.867H131.222C129.554 267.857 128.067 266.847 127.447 265.274ZM132.594 270.564H211.17C213.419 270.564 215.526 269.449 216.774 267.571C216.784 267.571 216.784 267.552 216.793 267.543H239.716C240.297 267.543 240.774 268.01 240.774 268.591V272.813C240.774 275.082 238.934 276.94 236.656 276.94H137.531C134.805 276.94 132.584 274.72 132.584 271.984V270.564H132.594ZM239.716 264.826H217.842C218.032 263.635 217.908 262.396 217.441 261.242L214.058 252.903L250.172 221.564L253.603 255.39L250.115 259.222C249.991 259.365 249.886 259.536 249.819 259.717L248.313 264.254C248.18 264.664 248.246 265.122 248.504 265.474C248.771 265.827 249.161 266.027 249.609 266.027H253.298C253.651 266.027 253.994 265.894 254.242 265.646L254.623 265.284L255.9 277.284H241.832C242.861 276.092 243.49 274.539 243.49 272.823V268.601C243.471 266.523 241.784 264.826 239.716 264.826ZM66.0848 155.56H215.173C215.916 155.56 216.526 154.959 216.526 154.206V117.263C218.061 116.825 219.576 116.443 220.958 116.196C230.032 114.509 234.54 109.438 233.644 101.927C233.644 101.918 233.644 101.918 233.644 101.918C233.644 101.889 233.644 101.861 233.635 101.823C232.939 96.2658 227.544 94.2166 223.255 93.4731C226.363 91.8433 229.66 89.632 229.984 87.4303C230.147 86.4295 229.737 85.4955 228.86 84.7901C226.649 83.0173 221.511 84.3708 216.526 86.4009V1.36297C216.526 0.610003 215.916 0 215.173 0H65.837C65.4748 0 65.1317 0.152501 64.8744 0.400313C64.6266 0.657658 64.4836 1.00078 64.4836 1.36297C64.4836 2.88797 64.7314 153.816 64.7314 154.197C64.7314 154.95 65.3509 155.56 66.0848 155.56ZM67.2286 22.8941H136.883C135.634 24.5335 134.472 26.4874 133.366 28.7749C133.147 29.2419 132.909 29.7471 132.661 30.2713H78.933C78.1895 30.2713 77.5795 30.8718 77.5795 31.6247V78.5376C77.5795 79.2906 78.1895 79.9006 78.933 79.9006H112.779C112.092 81.7115 111.682 82.7981 111.663 82.8648C111.587 83.084 111.568 83.3128 111.606 83.5415C107.594 85.1809 103.323 87.64 99.3775 91.3095H77.9227C77.1792 91.3095 76.5692 91.9195 76.5692 92.663C76.5692 93.4159 77.1792 94.0259 77.9227 94.0259H96.7374C95.2029 95.7511 93.7446 97.705 92.4007 99.8877H77.4175C76.6741 99.8877 76.0641 100.498 76.0641 101.241C76.0641 101.994 76.6741 102.604 77.4175 102.604H90.8661C89.7128 104.825 88.6739 107.284 87.7875 109.972H80.4485C79.6955 109.972 79.095 110.582 79.095 111.335C79.095 112.078 79.6955 112.688 80.4485 112.688H86.9202C79.6288 136.354 76.493 150.842 76.0641 152.853H67.4478C67.4192 141.52 67.2953 62.0676 67.2286 22.8941ZM168.651 25.7344C185.188 35.4849 184.13 53.0129 181.356 67.1764C179.307 77.6608 176.905 108.313 176.4 115.014H163.618L157.566 89.0792C157.452 88.6408 157.137 88.2786 156.718 88.1166C155.479 87.6495 152.009 86.2103 150.703 84.9426C150.332 83.9609 151.561 79.7481 153.42 75.4781C160.864 77.9562 171.148 73.6672 175.304 66.0707C179.802 57.8643 176.571 45.8835 176.428 45.3784C176.247 44.6921 175.551 44.2727 174.846 44.4157L144.622 50.8112C143.526 49.696 141.067 47.5324 138.446 47.7421C137.388 47.8184 135.873 48.3426 134.681 50.3441C133.862 51.7071 133.662 53.1749 134.081 54.6904C135.044 58.1407 139.018 60.7809 140.638 61.734C141.334 67.0429 145.728 99.7828 148.835 109.876C145.499 110.096 138.017 110.21 133.309 107.475L128.114 75.0397C128 74.3058 127.295 73.8006 126.57 73.9245C125.827 74.0389 125.322 74.7347 125.446 75.4781L126.208 80.2342C124.102 80.32 119.803 80.7298 114.732 82.3692C117.449 75.135 129.839 42.3474 135.806 29.9377C138.694 23.933 141.935 20.5685 145.985 19.3389C151.323 17.7186 158.519 19.7488 168.651 25.7344ZM175.046 152.853H163.332L165.362 145.819C168.174 145.247 176.514 142.769 179.192 133.133C180.736 127.586 177.553 121.047 175.58 117.73H177.629C178.344 117.73 178.935 117.177 178.983 116.472C178.992 116.31 179.526 109.162 180.317 100.202C182.261 101.946 185.273 105.044 186.836 108.675C182.118 123.134 175.942 148.897 175.056 152.634C175.056 152.7 175.056 152.777 175.046 152.853ZM127.419 152.853L129.735 150.851C131.488 151.128 133.156 151.233 134.672 151.233C138.113 151.233 140.819 150.689 142.316 150.299C145.099 149.574 146.195 148.802 147.453 147.906C148.082 147.468 148.721 147.01 149.684 146.476C151.752 145.333 153.353 144.494 154.144 144.084C158.309 145.6 159.834 144.16 160.387 143.15C161.798 140.5 159.091 136.24 155.669 133.914C153.467 132.427 149.75 130.54 146.138 128.853C149.369 127.929 150.722 125.956 151.209 124.926C152.143 122.982 152 120.761 150.875 119.513C149.255 117.702 147.463 118.531 146.043 119.198C145.242 119.57 144.346 119.999 143.183 120.275C141.391 120.704 140.467 120.599 138.408 120.38C136.845 120.208 134.71 119.98 131.26 119.894C131.059 119.894 130.859 119.894 130.659 119.894C124.149 119.894 121.49 122.305 116.534 126.966L119.746 117.835C119.994 117.13 119.622 116.358 118.917 116.11C118.211 115.872 117.43 116.234 117.191 116.939L112.273 130.902C104.067 138.308 89.6271 152.596 89.4746 152.739C89.446 152.777 89.4364 152.824 89.4078 152.853H78.8281C79.5811 149.403 82.8885 134.753 90.0464 111.726C93.5349 100.488 100.007 92.3675 109.281 87.5256C111.101 88.86 118.011 93.6352 128.953 97.4381L130.735 108.523C130.802 108.895 131.012 109.238 131.326 109.438C138.217 113.956 150.36 112.498 150.875 112.421C151.304 112.374 151.666 112.126 151.885 111.754C152.105 111.382 152.124 110.934 151.952 110.544C151.285 109 150.503 105.892 149.703 101.956C152.419 102.213 155.155 102.347 157.88 102.356L161.226 116.691C161.369 117.301 161.912 117.74 162.541 117.74H172.406C173.74 119.751 178.115 126.976 176.6 132.418C173.874 142.197 164.571 143.245 164.181 143.284C163.628 143.341 163.161 143.722 163.008 144.265L160.511 152.872H127.419V152.853ZM114.342 132.675C115.79 131.379 117.039 130.197 118.154 129.149C123.32 124.278 125.245 122.467 131.202 122.591C134.529 122.667 136.597 122.887 138.113 123.049C140.267 123.287 141.563 123.42 143.803 122.887C145.232 122.543 146.309 122.038 147.186 121.638C148.578 120.98 148.607 121.018 148.864 121.295C149.121 121.581 149.293 122.629 148.769 123.735C147.796 125.765 145.08 126.804 141.334 126.604C141.306 126.604 141.258 126.604 141.22 126.604C138.341 125.336 136.168 124.431 135.949 124.345C135.253 124.059 134.472 124.393 134.186 125.088C133.89 125.784 134.224 126.566 134.92 126.861C135.063 126.909 149.121 132.732 154.154 136.135C157.251 138.241 158.357 141.177 157.995 141.854C157.9 142.035 156.937 142.235 154.735 141.377C148.683 136.478 137.636 133.018 137.169 132.875C136.454 132.656 135.701 133.056 135.472 133.771C135.244 134.486 135.654 135.249 136.368 135.468C136.464 135.496 145.433 138.308 151.323 142.235C151.313 142.235 151.304 142.235 151.294 142.235C144.213 141.749 136.511 138.661 136.426 138.623C135.73 138.346 134.948 138.68 134.672 139.376C134.386 140.071 134.719 140.853 135.415 141.139C135.701 141.244 141.334 143.503 147.606 144.513C147.253 144.732 146.948 144.932 146.662 145.123C146.529 145.085 146.395 145.066 146.243 145.075C141.153 145.39 133.976 143.627 133.9 143.608C133.175 143.426 132.442 143.865 132.26 144.589C132.079 145.314 132.518 146.057 133.242 146.238C133.471 146.286 137.36 147.258 141.582 147.649C138.78 148.373 131.488 149.66 123.177 146.191C122.491 145.905 121.69 146.229 121.404 146.924C121.118 147.611 121.442 148.402 122.138 148.697C123.587 149.298 125.007 149.755 126.389 150.117L123.463 152.634C123.396 152.691 123.349 152.748 123.291 152.815H93.2204C97.4427 148.697 107.937 138.432 114.342 132.675ZM113.436 77.1842H80.2864V44.5873H126.542C121.814 56.1868 116.61 69.7689 113.789 77.2414C113.674 77.2033 113.551 77.1842 113.436 77.1842ZM127.647 41.8709H80.2864V32.9782H131.441C130.278 35.5897 128.991 38.6207 127.647 41.8709ZM112.169 86.1531C118.678 83.389 124.531 82.9792 126.637 82.922L128.467 94.3977C120.375 91.4334 114.704 87.9545 112.102 86.1912C112.13 86.1722 112.149 86.1626 112.169 86.1531ZM162.389 49.8295C162.436 49.8866 162.484 49.9343 162.532 49.982C162.684 50.0963 162.827 50.2107 163.008 50.3156C163.189 50.4204 163.38 50.5443 163.637 50.6015L163.876 50.6682C163.895 50.6777 163.914 50.6777 163.933 50.6777C164.247 50.7254 164.543 50.5062 164.59 50.1916C164.638 49.8771 164.61 49.6198 164.543 49.372L174.112 47.3418C174.779 50.4871 176.123 58.9318 172.93 64.765C169.604 70.8459 160.092 75.6592 153.277 72.5139C152.591 72.1993 151.8 72.4948 151.485 73.1715C149.121 78.2803 146.729 84.7997 148.73 86.8108C150.284 88.3644 153.601 89.8036 155.078 90.3945L157.242 99.6208C154.545 99.5922 151.828 99.4397 149.14 99.1633C146.29 84.1992 143.269 61.0287 143.221 60.7142C143.174 60.2757 142.897 59.8849 142.507 59.6848C141.134 58.9604 137.398 56.5109 136.683 53.966C136.454 53.1749 136.569 52.4696 136.988 51.7452C137.722 50.5252 138.427 50.4681 138.646 50.449C140.257 50.3251 142.468 52.4315 143.097 53.1845C143.422 53.5657 143.917 53.7373 144.413 53.6324L162.389 49.8295ZM213.819 152.853H202.935L205.375 121.104C206.833 120.523 210.179 119.236 213.819 118.083V152.853ZM227.173 86.9061C227.278 86.9919 227.306 87.0491 227.316 87.0491C227.278 88.1737 222.483 91.1475 217.441 93.1777L212.161 95.3127C211.465 95.5986 211.132 96.3897 211.408 97.0759C211.627 97.6002 212.132 97.9242 212.666 97.9242C212.838 97.9242 213.009 97.8956 213.171 97.8289L218.223 95.7797C219.672 95.7702 227.878 95.8941 230.318 100.221C224.704 99.6113 214.668 100.869 213.362 101.031C212.619 101.127 212.094 101.803 212.19 102.547C212.285 103.233 212.866 103.729 213.543 103.729C213.591 103.729 213.657 103.729 213.715 103.719C217.403 103.243 227.125 102.27 231.023 103.062C231.109 104.529 230.928 105.845 230.48 107.027C226.811 106.693 215.287 107.713 213.915 107.837C213.171 107.894 212.628 108.552 212.695 109.305C212.752 110.01 213.343 110.544 214.039 110.544C214.067 110.544 214.115 110.544 214.163 110.534C218.671 110.124 225.438 109.638 228.822 109.657C227.068 111.516 224.275 112.812 220.472 113.527C213.61 114.804 203.993 118.731 203.583 118.903C203.116 119.093 202.792 119.551 202.744 120.056L200.228 152.843V152.853H177.81C182.347 133.8 190.02 104.577 192.822 101.079C194.29 99.2395 195.777 97.8003 197.216 96.4088C199.646 94.0641 201.743 92.0244 202.63 89.0125C202.916 88.0212 203.202 86.9251 203.478 85.8481C203.926 84.1039 204.622 81.3589 205.232 80.2533C206.023 81.9117 206.652 87.1825 205.07 92.5391V92.5486C205.032 92.6725 205.022 92.8059 205.022 92.9394C205.022 92.968 205.022 92.987 205.022 93.0156C205.032 93.1395 205.051 93.2634 205.089 93.3778C205.089 93.3873 205.089 93.3969 205.098 93.4064C205.136 93.4922 208.215 101.937 202.963 106.54C202.401 107.036 202.344 107.884 202.839 108.456C203.335 109.019 204.183 109.076 204.746 108.58C210.188 103.824 208.796 96.3992 207.996 93.5875C216.04 89.1459 225.409 85.4955 227.173 86.9061ZM208.339 90.2802C209.168 85.343 208.606 80.4915 207.3 78.4709C206.709 77.5368 206.013 77.2604 205.537 77.1937C202.954 76.8315 202.029 80.5011 200.838 85.1619C200.571 86.2198 200.304 87.2778 200.009 88.25C199.332 90.5661 197.559 92.2817 195.31 94.4548C193.88 95.8369 192.26 97.4 190.678 99.3825C189.972 100.278 189.057 102.328 188.047 105.139C185.569 101.041 181.956 97.9624 180.603 96.8949C181.585 86.0101 182.852 73.5147 183.996 67.7006C184.463 65.2892 185.149 61.7721 185.483 57.7023H204.574C205.327 57.7023 205.928 57.0923 205.928 56.3488C205.928 55.5959 205.327 54.9859 204.574 54.9859H185.645C185.721 53.051 185.683 51.0304 185.512 48.9621H192.66C193.403 48.9621 194.013 48.3521 194.013 47.6087C194.013 46.8557 193.403 46.2457 192.66 46.2457H185.188C184.759 43.4435 184.034 40.6223 182.862 37.8582H206.423C207.167 37.8582 207.777 37.2577 207.777 36.5047C207.777 35.7613 207.167 35.1513 206.423 35.1513H181.566H181.556C179.154 30.7383 175.494 26.6494 169.995 23.3993C169.699 23.2277 169.413 23.0657 169.127 22.8941H213.791V87.5828C211.799 88.4978 209.902 89.4605 208.339 90.2802ZM213.819 2.71641V20.1872H164.305C164.238 20.1872 164.19 20.1968 164.133 20.2063C156.241 16.3461 150.141 15.25 145.204 16.7464C143.04 17.4136 141.096 18.5383 139.314 20.1872H67.2286C67.2095 11.7235 67.2 5.47095 67.2 2.71641H213.819ZM82.2022 16.3366C84.8042 16.3366 86.9107 14.2206 86.9107 11.6186C86.9107 9.01658 84.8042 6.90064 82.2022 6.90064C79.6097 6.90064 77.4938 9.01658 77.4938 11.6186C77.4938 14.2206 79.6097 16.3366 82.2022 16.3366ZM82.2022 9.60752C83.3078 9.60752 84.2038 10.513 84.2038 11.6186C84.2038 12.7147 83.3078 13.6202 82.2022 13.6202C81.1061 13.6202 80.2006 12.7147 80.2006 11.6186C80.2006 10.513 81.1061 9.60752 82.2022 9.60752ZM94.2974 16.3366C96.8994 16.3366 99.0058 14.2206 99.0058 11.6186C99.0058 9.01658 96.8994 6.90064 94.2974 6.90064C91.6953 6.90064 89.5889 9.01658 89.5889 11.6186C89.5889 14.2206 91.6953 16.3366 94.2974 16.3366ZM94.2974 9.60752C95.3935 9.60752 96.299 10.513 96.299 11.6186C96.299 12.7147 95.3935 13.6202 94.2974 13.6202C93.1918 13.6202 92.2958 12.7147 92.2958 11.6186C92.2958 10.513 93.1918 9.60752 94.2974 9.60752ZM106.555 16.2508C109.147 16.2508 111.263 14.1349 111.263 11.5328C111.263 8.9308 109.147 6.81486 106.555 6.81486C103.953 6.81486 101.837 8.9308 101.837 11.5328C101.837 14.1349 103.953 16.2508 106.555 16.2508ZM106.555 9.52173C107.651 9.52173 108.556 10.4272 108.556 11.5233C108.556 12.6289 107.651 13.5344 106.555 13.5344C105.449 13.5344 104.543 12.6289 104.543 11.5233C104.543 10.4272 105.449 9.52173 106.555 9.52173ZM212.075 47.5991C212.075 48.3426 211.475 48.9526 210.722 48.9526H202.334C201.581 48.9526 200.981 48.3426 200.981 47.5991C200.981 46.8462 201.581 46.2362 202.334 46.2362H210.722C211.475 46.2362 212.075 46.8462 212.075 47.5991ZM87.2728 37.1719C87.2728 38.0298 86.5771 38.7255 85.7288 38.7255C84.8805 38.7255 84.1847 38.0298 84.1847 37.1719C84.1847 36.3237 84.8805 35.6279 85.7288 35.6279C86.5771 35.6279 87.2728 36.3141 87.2728 37.1719ZM93.4491 37.1719C93.4491 38.0298 92.7533 38.7255 91.905 38.7255C91.0568 38.7255 90.361 38.0298 90.361 37.1719C90.361 36.3237 91.0568 35.6279 91.905 35.6279C92.7533 35.6279 93.4491 36.3141 93.4491 37.1719ZM246.578 36.114C249.142 36.114 251.23 34.0171 251.23 31.4532C251.23 28.8893 249.142 26.7924 246.578 26.7924C244.014 26.7924 241.918 28.8893 241.918 31.4532C241.918 34.0171 244.014 36.114 246.578 36.114ZM246.578 29.4993C247.646 29.4993 248.523 30.3761 248.523 31.4532C248.523 32.5302 247.646 33.4071 246.578 33.4071C245.501 33.4071 244.624 32.5302 244.624 31.4532C244.624 30.3761 245.501 29.4993 246.578 29.4993ZM262.496 36.114C265.069 36.114 267.147 34.0171 267.147 31.4532C267.147 28.8893 265.06 26.7924 262.496 26.7924C259.932 26.7924 257.835 28.8893 257.835 31.4532C257.835 34.0171 259.932 36.114 262.496 36.114ZM262.496 29.4993C263.563 29.4993 264.44 30.3761 264.44 31.4532C264.44 32.5302 263.563 33.4071 262.496 33.4071C261.419 33.4071 260.542 32.5302 260.542 31.4532C260.542 30.3761 261.419 29.4993 262.496 29.4993ZM278.413 36.114C280.986 36.114 283.064 34.0171 283.064 31.4532C283.064 28.8893 280.977 26.7924 278.413 26.7924C275.849 26.7924 273.752 28.8893 273.752 31.4532C273.752 34.0171 275.849 36.114 278.413 36.114ZM278.413 29.4993C279.49 29.4993 280.357 30.3761 280.357 31.4532C280.357 32.5302 279.49 33.4071 278.413 33.4071C277.336 33.4071 276.459 32.5302 276.459 31.4532C276.459 30.3761 277.336 29.4993 278.413 29.4993ZM27.1782 185.917C31.1337 185.917 34.5268 184.297 36.4617 182.752C36.7476 182.533 36.9287 182.19 36.9668 181.828C37.005 181.456 36.8906 181.094 36.6523 180.818C26.8637 169.371 15.4357 178.015 15.3213 178.101C15.0163 178.34 14.8352 178.683 14.7971 179.064C14.759 179.436 14.8924 179.807 15.1498 180.093C19.1624 184.468 23.4229 185.917 27.1782 185.917ZM33.5451 181.447C30.9621 182.934 24.7096 185.393 18.276 179.407C20.9924 177.882 27.4451 175.394 33.5451 181.447ZM239.706 49.1051L234.178 57.8929C233.845 58.4171 233.911 59.1034 234.34 59.5418C234.598 59.8278 234.96 59.9707 235.322 59.9707C235.551 59.9707 235.77 59.9135 235.98 59.7992L253.632 49.8866H279.642C289.545 49.8866 297.618 41.8041 297.618 31.8821C297.618 21.96 289.545 13.8775 279.642 13.8775H244.891C234.979 13.8775 226.915 21.96 226.915 31.8821C226.915 39.8883 232.196 46.8462 239.706 49.1051ZM244.891 16.5844H279.642C288.058 16.5844 294.911 23.4469 294.911 31.8821C294.911 40.3077 288.058 47.1702 279.642 47.1702H253.279C253.041 47.1702 252.821 47.237 252.621 47.3418L239.316 54.8143L243.004 48.9621C243.242 48.5809 243.271 48.1043 243.099 47.6945C242.918 47.2751 242.547 46.9891 242.108 46.9129C234.884 45.569 229.632 39.2498 229.632 31.8916C229.622 23.4469 236.466 16.5844 244.891 16.5844ZM283.76 126.175C284.16 124.888 285.199 124.059 286.076 124.326C286.953 124.602 287.334 125.86 286.934 127.166C286.533 128.453 285.495 129.292 284.618 129.015C283.75 128.748 283.369 127.481 283.76 126.175ZM272.027 122.448C272.427 121.152 273.466 120.323 274.343 120.59C275.22 120.866 275.601 122.134 275.201 123.43C274.8 124.726 273.762 125.555 272.885 125.288C272.017 125.003 271.636 123.735 272.027 122.448ZM278.947 128.901L279.099 128.929C279.614 129.015 279.957 129.511 279.862 130.026C279.804 130.359 279.576 130.616 279.29 130.74C278.861 130.912 278.413 131.045 277.927 131.093C277.431 131.122 276.907 131.112 276.345 130.931C275.801 130.75 275.22 130.416 274.848 129.883C274.476 129.339 274.314 128.777 274.448 128.081C274.467 127.976 274.562 127.91 274.667 127.919L276.163 127.995C276.268 128.005 276.373 128.138 276.459 128.196C276.554 128.262 276.621 128.31 276.697 128.358C276.831 128.443 276.945 128.539 277.164 128.615C277.355 128.701 277.641 128.748 277.946 128.796C278.108 128.815 278.26 128.834 278.432 128.863C278.584 128.863 278.765 128.872 278.947 128.901ZM281.158 138.508C281.177 138.861 280.977 139.166 280.681 139.309C280.243 139.509 279.804 139.7 279.337 139.852C278.861 139.967 278.394 140.138 277.889 140.148C276.897 140.3 275.839 140.148 274.858 139.862C273.866 139.557 272.951 139.023 272.198 138.346C271.436 137.66 270.864 136.888 270.426 135.887C270.216 135.411 270.435 134.848 270.902 134.639C271.283 134.467 271.722 134.572 271.989 134.877L272.094 134.991C272.542 135.496 273.152 136.078 273.723 136.497C274.324 136.945 274.953 137.298 275.63 137.527C276.306 137.755 277.021 137.927 277.774 137.917C278.136 137.965 278.527 137.889 278.928 137.889C279.318 137.87 279.709 137.774 280.128 137.746L280.271 137.736C280.738 137.698 281.129 138.051 281.158 138.508ZM272.065 116.758C272.094 116.596 272.198 116.463 272.322 116.377C272.923 115.957 273.542 115.757 274.238 115.681C274.915 115.595 275.649 115.681 276.335 115.938C277.021 116.186 277.66 116.615 278.117 117.168C278.584 117.711 278.87 118.359 278.985 119.026C279.061 119.474 278.765 119.894 278.308 119.97C278.089 120.008 277.87 119.951 277.698 119.837L277.593 119.751C277.126 119.427 276.802 119.103 276.44 118.845C276.106 118.569 275.763 118.378 275.401 118.188C275.029 118.007 274.619 117.864 274.171 117.749C273.723 117.625 273.199 117.568 272.704 117.482L272.551 117.454C272.227 117.406 272.017 117.092 272.065 116.758ZM284.341 120.532C284.37 120.37 284.465 120.237 284.589 120.142C285.199 119.722 285.809 119.532 286.505 119.446C287.191 119.37 287.925 119.446 288.611 119.713C289.298 119.951 289.936 120.389 290.384 120.942C290.851 121.476 291.147 122.134 291.261 122.791C291.337 123.239 291.032 123.668 290.584 123.735C290.356 123.773 290.146 123.725 289.974 123.601L289.86 123.525C289.402 123.201 289.078 122.868 288.716 122.62C288.383 122.343 288.03 122.153 287.668 121.962C287.296 121.781 286.896 121.638 286.438 121.514C285.99 121.4 285.466 121.333 284.97 121.257L284.827 121.228C284.503 121.161 284.284 120.856 284.341 120.532ZM158.576 52.8604C159.186 51.8215 160.254 51.3068 160.959 51.7262C161.664 52.1456 161.731 53.3179 161.121 54.3663C160.502 55.4148 159.444 55.9104 158.738 55.491C158.033 55.0812 157.957 53.9088 158.576 52.8604ZM168.069 58.3599C168.679 57.321 169.747 56.8159 170.452 57.2257C171.158 57.6451 171.224 58.8174 170.614 59.8659C169.995 60.9143 168.937 61.4195 168.231 61.0001C167.526 60.5807 167.45 59.3988 168.069 58.3599ZM161.312 58.9699C161.607 58.8556 161.931 58.9318 162.16 59.1224L162.217 59.1701C162.475 59.3893 162.684 59.599 162.903 59.7801C163.123 59.9421 163.323 60.1042 163.494 60.1804C163.666 60.2662 163.799 60.2948 163.942 60.3329C164.066 60.371 164.305 60.3806 164.495 60.4664L165.229 60.7809C165.525 60.8953 165.658 61.2384 165.534 61.5243C165.515 61.572 165.486 61.6101 165.458 61.6482C165.067 62.1534 164.61 62.4012 164.038 62.4679C163.456 62.5442 162.884 62.3631 162.446 62.1153C161.988 61.8579 161.664 61.5148 161.388 61.1717C161.14 60.819 160.95 60.4473 160.807 60.0565C160.645 59.6085 160.864 59.1224 161.312 58.9699ZM154.335 64.2598C154.201 63.869 154.421 63.4592 154.811 63.3353C155.126 63.24 155.45 63.3639 155.631 63.6212L155.679 63.6879C156.098 64.2884 156.498 64.8603 156.975 65.3368C157.423 65.8325 157.966 66.2042 158.519 66.5092C159.081 66.8237 159.691 67.0239 160.34 67.1573C160.978 67.2812 161.712 67.3289 162.322 67.3289H162.455C162.913 67.3289 163.294 67.7006 163.304 68.1676C163.304 68.5393 163.056 68.8634 162.722 68.9682C161.807 69.2732 160.959 69.359 160.044 69.2732C159.148 69.1779 158.252 68.9015 157.452 68.425C156.67 67.9579 155.946 67.3575 155.44 66.6045C155.155 66.2614 154.983 65.8515 154.764 65.4703C154.602 65.0795 154.468 64.6696 154.335 64.2598ZM168.374 53.6896C168.422 53.4895 168.536 53.3274 168.689 53.2226C169.194 52.8985 169.795 52.6984 170.433 52.6888C171.062 52.6698 171.729 52.8223 172.311 53.1273C172.883 53.4227 173.378 53.8517 173.731 54.3568C174.093 54.862 174.331 55.3957 174.417 56.0343C174.455 56.3298 174.255 56.5967 173.96 56.6348C173.817 56.6538 173.674 56.6157 173.559 56.5299L173.464 56.4442C173.111 56.1773 172.749 55.8532 172.406 55.634C172.053 55.3957 171.72 55.2146 171.377 55.0907C171.034 54.9668 170.7 54.8524 170.309 54.7952C169.938 54.7095 169.518 54.6904 169.042 54.5856L168.927 54.557C168.546 54.4712 168.289 54.0899 168.374 53.6896Z" fill="black"/>
</svg>
